<svg width="271" height="249" viewBox="0 0 271 249" fill="none" xmlns="http://www.w3.org/2000/svg">
<path d="M50.1154 135.106C50.1154 135.106 32.2221 132.381 24.0718 118.551C16.8424 106.282 5.35108 103.333 3.3664 120.094C1.38172 136.861 10.3285 168.46 49.9848 171.982C49.9786 171.982 66.9821 152.57 50.1154 135.106Z" fill="white"/>
<path d="M49.9842 175.094C49.8909 175.094 49.8036 175.088 49.7103 175.081C33.0054 173.601 20.0272 167.298 11.1428 156.361C1.36244 144.316 -0.883521 129.539 0.279914 119.728C0.833635 115.031 2.78094 106.943 9.56246 105.518C15.2988 104.317 21.8813 108.703 26.759 116.978C34.0756 129.39 50.4259 132.009 50.5877 132.034C51.2596 132.14 51.8817 132.457 52.3545 132.949C62.0104 142.947 61.5376 153.549 59.4472 160.685C57.2759 168.076 52.8958 173.371 52.367 173.986C51.7759 174.69 50.905 175.094 49.9842 175.094ZM11.4476 111.547C11.2361 111.547 11.0308 111.565 10.8379 111.609C8.69769 112.057 7.05517 115.367 6.4579 120.462C5.49355 128.619 7.40361 141.889 15.9769 152.441C23.4677 161.668 34.4365 167.136 48.5906 168.723C49.8847 166.937 52.1803 163.372 53.4806 158.936C55.764 151.166 54.1028 144.123 48.547 137.988C44.2914 137.117 29.0796 133.179 21.3959 120.139C17.9803 114.346 13.9674 111.547 11.4476 111.547Z" fill="black"/>
<path d="M195.98 123.057C195.98 123.057 209.344 123.057 218.714 105.045C227.026 89.0681 241.858 84.3148 246.114 105.045C250.369 125.775 241.703 166.023 189.858 174.111C189.858 174.111 178.659 144.726 195.98 123.057Z" fill="black"/>
<path d="M148.275 245.888C122.319 245.888 98.5834 239.623 79.6387 227.764C60.271 215.645 47.0127 196.084 41.3013 171.204C36.0503 148.352 34.4576 120.703 36.8093 93.3534C39.1984 65.5741 47.4981 43.7363 61.4717 28.4436C76.8328 11.6329 98.7514 3.10938 126.605 3.10938C145.793 3.10938 172.477 8.43501 189.854 23.373C209.464 40.2397 212.451 64.7901 212.787 86.5843C212.917 95.9291 212.239 105.324 211.574 114.413C210.92 123.379 210.248 132.649 210.379 141.739C210.392 142.454 210.398 143.182 210.404 143.916C210.466 151.482 210.528 159.308 215.251 164.447C216.538 165.847 217.845 166.469 219.506 166.469C219.774 166.469 220.053 166.451 220.34 166.42C219.332 163.751 219.4 160.932 220.582 158.207C223.469 151.581 232.111 147.158 238.463 146.859C238.787 146.847 239.104 146.834 239.421 146.834C251.28 146.834 256.935 157.28 257.271 167.627C257.682 180.244 252.238 193.415 241.095 206.773C222.691 228.828 196.057 242.093 164.066 245.129C158.777 245.633 153.476 245.888 148.275 245.888C148.281 245.888 148.281 245.888 148.275 245.888Z" fill="white"/>
<path d="M126.6 6.22158C146.652 6.22158 171.949 12.0885 187.82 25.7324C205.962 41.3362 209.322 64.0138 209.67 86.6355C209.931 105.051 207.001 123.337 207.262 141.784C207.38 150.089 206.902 159.969 212.949 166.552C214.965 168.742 217.173 169.582 219.494 169.582C221.292 169.582 223.159 169.078 225.05 168.312C217.41 159.285 230.438 150.357 238.6 149.971C238.874 149.959 239.142 149.952 239.409 149.952C249.252 149.952 253.849 158.619 254.148 167.734C254.596 181.539 247.273 194.499 238.688 204.79C219.569 227.704 193.083 239.257 163.749 242.044C158.634 242.53 153.458 242.785 148.269 242.785C124.87 242.785 101.203 237.602 81.2815 225.134C61.5031 212.753 49.4956 193.049 44.3254 170.515C38.7136 146.076 37.7554 118.602 39.9018 93.6223C41.8492 70.9758 48.0832 47.6946 63.7616 30.5417C80.4666 12.2689 103.518 6.22158 126.6 6.22158ZM126.6 0C97.8372 0 75.1472 8.86573 59.1702 26.3484C44.7237 42.1574 36.1564 64.6111 33.7051 93.0873C31.3285 120.748 32.9462 148.739 38.2656 171.902C44.1699 197.604 57.9072 217.836 77.9904 230.404C97.4329 242.573 121.741 249 148.282 249C153.576 249 158.977 248.739 164.346 248.229C180.192 246.723 194.794 242.797 207.754 236.557C221.64 229.875 233.661 220.524 243.472 208.765C255.125 194.804 260.811 180.93 260.37 167.522C259.903 153.287 251.479 143.718 239.409 143.718C239.048 143.718 238.675 143.725 238.308 143.743C230.867 144.092 221.13 149.131 217.721 156.958C217.117 158.339 216.744 159.745 216.595 161.158C213.608 156.821 213.552 150.251 213.503 143.88C213.496 143.14 213.49 142.406 213.478 141.684C213.347 132.731 214.019 123.529 214.666 114.626C215.332 105.474 216.022 96.0051 215.885 86.5297C215.537 64.0387 212.414 38.6671 191.87 20.9978C173.859 5.51854 146.341 0 126.6 0Z" fill="black"/>
<path d="M195.657 76.3452C195.918 94.7611 192.988 113.046 193.249 131.493C193.367 139.799 192.888 149.679 198.936 156.261C201.872 159.459 205.232 159.77 208.734 158.806C207.154 153.375 207.335 147.24 207.254 141.778C206.993 123.331 209.923 105.045 209.661 86.6295C209.313 64.0078 205.954 41.3302 187.811 25.7265C184.495 22.877 180.762 20.3697 176.762 18.1797C192.316 33.6341 195.327 55.0114 195.657 76.3452Z" fill="#DCEBEB"/>
<path d="M252.426 140.042V125.794C252.426 123.225 254.51 121.141 257.08 121.141H261.236C263.805 121.141 265.889 123.225 265.889 125.794V140.042C265.889 142.611 263.805 144.696 261.236 144.696H257.08C254.51 144.696 252.426 142.611 252.426 140.042Z" fill="#373838"/>
<path d="M252.037 126.191H266.284C268.853 126.191 270.938 128.276 270.938 130.845V135.001C270.938 137.571 268.853 139.655 266.284 139.655H252.037C249.467 139.655 247.383 137.571 247.383 135.001V130.845C247.383 128.269 249.467 126.191 252.037 126.191Z" fill="#373838"/>
<path d="M122.938 99.8369C121.277 98.4184 118.795 98.5739 117.302 100.167C115.217 102.382 112.25 106.09 113.332 107.894C115.155 110.936 128.55 110.918 128.55 107.272C128.55 105.057 125.408 101.94 122.938 99.8369Z" fill="#7E291E"/>
<path d="M205.086 124.32C205.086 124.32 214.63 124.32 221.318 109.924C227.254 97.1506 237.843 93.3554 240.885 109.924C243.927 126.492 237.737 158.67 200.719 165.134C200.719 165.134 192.724 141.641 205.086 124.32Z" fill="white"/>
<path d="M248.488 153.324V153.33C248.507 153.349 248.526 153.362 248.538 153.38C248.519 153.362 248.507 153.343 248.488 153.324Z" fill="#DCEBEB"/>
<path d="M254.295 169.145C254.295 168.922 254.295 168.698 254.295 168.48C254.295 168.312 254.289 168.138 254.289 167.97C254.289 167.895 254.289 167.814 254.282 167.739C254.282 167.665 254.27 167.584 254.27 167.509C254.251 167.111 254.226 166.707 254.195 166.302C254.189 166.265 254.189 166.234 254.189 166.196C253.897 162.887 253.013 159.552 251.134 156.584C250.406 155.383 249.548 154.307 248.546 153.38C248.527 153.361 247.563 152.49 247.401 152.422C247.383 152.584 252.441 166.539 238.747 172.437C238.43 172.574 238.125 172.717 237.82 172.841C230.18 175.995 225.8 172.275 221.793 169.332C221.793 169.332 215.895 171.149 211.36 164.523C211.36 164.523 213.401 188.327 229.521 191.406C228.507 192.756 227.467 194.075 226.403 195.351C207.285 218.265 179.088 228.966 149.76 231.753C122.54 234.341 93.7097 230.366 69.8438 216.386C73.3278 219.596 77.1354 222.527 81.2976 225.133C105.643 240.364 135.562 244.725 163.765 242.044C193.1 239.256 219.585 227.703 238.704 204.789C243.631 198.878 248.142 192.091 251.01 184.768C251.01 184.768 252.08 182.323 253.001 178.671C253.772 175.691 254.245 172.636 254.301 169.537C254.295 169.401 254.295 169.276 254.295 169.145Z" fill="#DCEBEB"/>
<path d="M221.664 168.027C221.664 168.027 229.005 177.011 238.624 169.328L221.664 168.027Z" fill="white"/>
<path d="M230.792 175.586C223.936 175.586 219.326 170.074 219.257 169.993C218.168 168.662 218.368 166.702 219.699 165.613C221.024 164.531 222.978 164.723 224.067 166.042C224.987 167.137 229.915 172.308 236.69 166.895C238.034 165.825 239.988 166.042 241.064 167.386C242.134 168.73 241.916 170.684 240.573 171.76C237.02 174.591 233.704 175.586 230.792 175.586Z" fill="black"/>
<path d="M220.023 187.705C212.806 185.061 210.535 165.762 210.535 165.762L220.023 187.705Z" fill="white"/>
<path d="M220.023 190.816C219.668 190.816 219.308 190.754 218.953 190.623C210.374 187.481 207.86 169.663 207.443 166.123C207.244 164.418 208.463 162.869 210.168 162.67C211.879 162.471 213.422 163.69 213.621 165.395C215.027 177.266 218.909 183.985 221.087 184.781C222.698 185.372 223.526 187.158 222.941 188.776C222.481 190.032 221.292 190.816 220.023 190.816Z" fill="black"/>
<path d="M68.9186 9.65545L78.9664 14.0416C81.231 15.0308 81.5732 18.0981 79.5885 19.5602L70.7664 26.068L61.9442 32.5757C59.9595 34.0378 57.1286 32.806 56.8549 30.3547L55.6292 19.4607L54.4036 8.56667C54.1298 6.11537 56.6122 4.27997 58.8706 5.2692L68.9186 9.65545Z" fill="#4C4C4C"/>
<path d="M60.0579 36.321C59.1993 36.321 58.3345 36.1405 57.507 35.7797C55.4166 34.8651 54.0167 32.9675 53.7616 30.6966L51.3103 8.90866C51.0553 6.63156 52.0072 4.46649 53.8488 3.11641C55.6904 1.76633 58.0296 1.50503 60.12 2.4196L80.2095 11.192C82.3062 12.1066 83.7061 14.0104 83.9612 16.2813C84.2163 18.5522 83.2705 20.711 81.429 22.0673L63.7846 35.0829C62.6772 35.8979 61.3707 36.321 60.0579 36.321ZM57.5817 8.10613C57.5693 8.10613 57.5568 8.1123 57.5319 8.13096C57.4822 8.16829 57.4883 8.18697 57.4883 8.2243L59.9397 30.0123C59.946 30.0496 59.9459 30.0621 59.9956 30.0869C60.0516 30.1118 60.0642 30.0994 60.0953 30.0745L77.7396 17.059C77.7707 17.0341 77.7832 17.0279 77.777 16.9719C77.7707 16.9159 77.752 16.9097 77.7209 16.891L57.6252 8.11859C57.6065 8.11236 57.5942 8.10613 57.5817 8.10613Z" fill="#040000"/>
<path d="M178.485 10.8801L168.437 15.2663C166.172 16.2555 165.83 19.3228 167.815 20.7848L176.637 27.2926L185.459 33.8003C187.444 35.2624 190.275 34.0306 190.548 31.5793L191.774 20.6853L193 9.79128C193.273 7.33998 190.791 5.50458 188.532 6.49381L178.485 10.8801Z" fill="#4C4C4C"/>
<path d="M187.347 37.5472C186.028 37.5472 184.727 37.1303 183.614 36.3091L165.969 23.2935C164.134 21.9434 163.188 19.7783 163.443 17.5075C163.698 15.2366 165.098 13.3328 167.195 12.4182L187.29 3.64578C189.375 2.7312 191.72 2.99251 193.556 4.34882C195.397 5.70512 196.343 7.87027 196.088 10.1411L193.637 31.9291C193.381 34.1937 191.982 36.0913 189.891 37.0059C189.07 37.3667 188.205 37.5472 187.347 37.5472ZM189.823 9.33231C189.81 9.33231 189.798 9.33854 189.785 9.34476L179.731 13.7309L169.683 18.1172C169.646 18.1296 169.634 18.1421 169.628 18.1981C169.621 18.2541 169.634 18.2603 169.665 18.2852L187.309 31.3007C187.334 31.3194 187.353 31.3318 187.409 31.3069C187.459 31.2882 187.459 31.2696 187.465 31.2322L189.916 9.44433C189.922 9.407 189.922 9.38833 189.873 9.35722C189.848 9.33855 189.835 9.33231 189.823 9.33231Z" fill="#040000"/>
<path d="M84.7536 110.519L84.8718 97.5405H87.2671C89.8366 97.5405 91.9209 95.4563 91.9209 92.8868V85.06C91.9209 82.4905 89.8366 80.4062 87.2671 80.4062H66.5991C64.0296 80.4062 61.9453 82.4905 61.9453 85.06V92.8868C61.9453 95.4563 64.0296 97.5405 66.5991 97.5405H68.9135V110.618C64.9752 112.503 61.7773 115.633 61.7773 119.185C61.7773 124.947 68.565 129.613 76.9393 129.613C85.3135 129.613 92.1013 124.947 92.1013 119.185C92.0889 115.577 88.8038 112.391 84.7536 110.519Z" fill="white"/>
<path d="M76.94 131.168C67.7196 131.168 60.2227 125.793 60.2227 119.186C60.2227 115.577 62.873 112.068 67.3588 109.667V99.1025H66.5998C63.1779 99.1025 60.3907 96.3152 60.3907 92.8933V85.0665C60.3907 81.6447 63.1779 78.8574 66.5998 78.8574H87.2678C90.6897 78.8574 93.477 81.6447 93.477 85.0665V92.8933C93.477 96.3152 90.6897 99.1025 87.2678 99.1025H86.4154L86.3221 109.561C90.9261 111.95 93.645 115.496 93.6574 119.186C93.6574 125.793 86.1603 131.168 76.94 131.168ZM66.5998 81.962C64.8888 81.962 63.5014 83.3494 63.5014 85.0603V92.8871C63.5014 94.598 64.8888 95.9854 66.5998 95.9854H70.4696V111.602L69.5862 112.025C66.5625 113.474 63.3334 116.112 63.3334 119.186C63.3334 124.076 69.4367 128.058 76.94 128.058C84.4432 128.058 90.5466 124.076 90.5466 119.186C90.5342 116.031 87.2118 113.369 84.101 111.931L83.1864 111.508L83.3295 95.9854H87.2678C88.9788 95.9854 90.3662 94.598 90.3662 92.8871V85.0603C90.3662 83.3494 88.9788 81.962 87.2678 81.962H66.5998Z" fill="#373838"/>
<path d="M172.605 110.521L172.723 97.5425H175.119C177.688 97.5425 179.773 95.4582 179.773 92.8887V85.0619C179.773 82.4924 177.688 80.4082 175.119 80.4082H154.451C151.881 80.4082 149.797 82.4924 149.797 85.0619V92.8887C149.797 95.4582 151.881 97.5425 154.451 97.5425H156.765V110.62C152.827 112.505 149.629 115.635 149.629 119.187C149.629 124.948 156.417 129.615 164.791 129.615C173.165 129.615 179.953 124.948 179.953 119.187C179.94 115.579 176.656 112.393 172.605 110.521Z" fill="white"/>
<path d="M164.792 131.17C155.571 131.17 148.074 125.795 148.074 119.188C148.074 115.579 150.725 112.07 155.211 109.669V99.1044H154.451C151.029 99.1044 148.242 96.3172 148.242 92.8953V85.0685C148.242 81.6466 151.029 78.8594 154.451 78.8594H175.12C178.541 78.8594 181.329 81.6466 181.329 85.0685V92.8953C181.329 96.3172 178.541 99.1044 175.12 99.1044H174.267L174.174 109.563C178.778 111.952 181.503 115.498 181.515 119.188C181.509 125.795 174.012 131.17 164.792 131.17ZM154.451 81.9639C152.74 81.9639 151.353 83.3513 151.353 85.0623V92.8891C151.353 94.6 152.74 95.9874 154.451 95.9874H158.321V111.604L157.438 112.027C154.414 113.476 151.185 116.114 151.185 119.188C151.185 124.078 157.288 128.06 164.792 128.06C172.295 128.06 178.398 124.078 178.398 119.188C178.386 116.033 175.063 113.37 171.953 111.933L171.038 111.51L171.181 95.9874H175.12C176.83 95.9874 178.218 94.6 178.218 92.8891V85.0623C178.218 83.3513 176.83 81.9639 175.12 81.9639H154.451Z" fill="#373838"/>
<path d="M87.8036 98.3375H66.1153C64.4666 98.3375 63.1289 96.9999 63.1289 95.3512V83.4493C63.1289 81.8006 64.4666 80.4629 66.1153 80.4629H87.8036C89.4524 80.4629 90.79 81.8006 90.79 83.4493V95.3512C90.7838 96.9999 89.4524 98.3375 87.8036 98.3375Z" fill="#373838"/>
<path d="M175.039 98.3372H153.905C152.107 98.3372 150.645 96.875 150.645 95.077V83.7289C150.645 81.9308 152.107 80.4688 153.905 80.4688H175.039C176.837 80.4688 178.3 81.9308 178.3 83.7289V95.077C178.3 96.875 176.837 98.3372 175.039 98.3372Z" fill="#373838"/>
<path d="M84.229 54.4993C76.5702 44.0346 70.0998 32.7549 64.9483 20.8593C63.1876 16.809 64.8738 12.3543 68.4885 11.0167C70.4297 10.2763 72.3769 9.53599 74.3181 8.80184C77.939 7.45798 81.9582 9.29955 83.4887 12.821C88.0491 23.3354 93.7668 33.3149 100.536 42.5601C102.801 45.6647 102.359 50.0634 99.3724 52.5084C97.7548 53.815 96.1309 55.1152 94.5133 56.4218C91.5269 58.8668 86.8359 58.0643 84.229 54.4993Z" fill="#FBD8C1"/>
<path d="M90.5009 58.4502C90.1836 58.4502 89.86 58.4316 89.5303 58.388C87.2719 58.1018 85.1566 56.8139 83.7257 54.8666C76.0358 44.3646 69.528 33.004 64.3765 21.1084C63.4121 18.8935 63.3749 16.4235 64.2708 14.3268C65.0547 12.479 66.4794 11.0978 68.2712 10.4383C70.2061 9.69797 72.1535 8.95757 74.0947 8.22342C77.9894 6.7738 82.3631 8.69004 84.0554 12.5785C88.5972 23.0432 94.3085 33.0102 101.034 42.1995C103.535 45.6275 102.975 50.3685 99.7649 52.994C98.9437 53.6597 98.1223 54.3191 97.301 54.9786C96.5047 55.6194 95.7022 56.2665 94.9058 56.9073C93.6677 57.9152 92.1309 58.4502 90.5009 58.4502ZM76.776 8.98244C76.0295 8.98244 75.2705 9.11311 74.5364 9.38686C72.6015 10.121 70.654 10.8614 68.7129 11.6018C67.2384 12.1493 66.0687 13.2878 65.4154 14.8183C64.6564 16.6039 64.6938 18.713 65.5213 20.6168C70.6354 32.4316 77.0996 43.7113 84.7335 54.1387C85.9591 55.8185 87.7634 56.9197 89.6921 57.1624C91.3408 57.3739 92.9087 56.9384 94.1219 55.9492C94.9245 55.3022 95.7207 54.6613 96.5233 54.0142C97.3446 53.3547 98.166 52.6953 98.9872 52.0296C101.687 49.8209 102.148 45.8267 100.039 42.9336C93.2571 33.6697 87.4959 23.6281 82.923 13.0763C81.8156 10.5254 79.3518 8.98244 76.776 8.98244Z" fill="#A05C26"/>
<path d="M90.5009 58.4502C90.1836 58.4502 89.86 58.4316 89.5303 58.388C87.2719 58.1018 85.1566 56.8139 83.7257 54.8666C76.0358 44.3646 69.528 33.004 64.3765 21.1084C63.4121 18.8935 63.3749 16.4235 64.2708 14.3268C65.0547 12.479 66.4794 11.0978 68.2712 10.4383C70.2061 9.69797 72.1535 8.95757 74.0947 8.22342C77.9894 6.7738 82.3631 8.69004 84.0554 12.5785C88.5972 23.0432 94.3085 33.0102 101.034 42.1995C103.535 45.6275 102.975 50.3685 99.7649 52.994C98.9437 53.6597 98.1223 54.3191 97.301 54.9786C96.5047 55.6194 95.7022 56.2665 94.9058 56.9073C93.6677 57.9152 92.1309 58.4502 90.5009 58.4502ZM76.776 8.98244C76.0295 8.98244 75.2705 9.11311 74.5364 9.38686C72.6015 10.121 70.654 10.8614 68.7129 11.6018C67.2384 12.1493 66.0687 13.2878 65.4154 14.8183C64.6564 16.6039 64.6938 18.713 65.5213 20.6168C70.6354 32.4316 77.0996 43.7113 84.7335 54.1387C85.9591 55.8185 87.7634 56.9197 89.6921 57.1624C91.3408 57.3739 92.9087 56.9384 94.1219 55.9492C94.9245 55.3022 95.7207 54.6613 96.5233 54.0142C97.3446 53.3547 98.166 52.6953 98.9872 52.0296C101.687 49.8209 102.148 45.8267 100.039 42.9336C93.2571 33.6697 87.4959 23.6281 82.923 13.0763C81.8156 10.5254 79.3518 8.98244 76.776 8.98244Z" fill="#A05C26"/>
<path d="M62.3393 35.3549C72.804 27.6961 84.09 21.2319 95.9857 16.0804C100.036 14.326 104.491 16.0058 105.822 19.6206C106.562 21.5617 107.296 23.509 108.037 25.4502C109.374 29.0711 107.539 33.0903 104.011 34.6208C93.4908 39.175 83.5175 44.8926 74.266 51.6617C71.1615 53.9263 66.7628 53.4784 64.3177 50.492C63.0174 48.8744 61.711 47.2505 60.4107 45.6329C57.9719 42.6528 58.7744 37.9617 62.3393 35.3549Z" fill="#FBD8C1"/>
<path d="M69.8787 53.7214C67.6016 53.7214 65.3617 52.7508 63.8374 50.8844L59.9242 46.019C58.7172 44.5445 58.1945 42.6407 58.4434 40.656C58.7296 38.3914 60.0174 36.2761 61.971 34.8513C72.4543 27.1801 83.8149 20.6724 95.7355 15.5085C97.9566 14.5441 100.433 14.5068 102.53 15.4089C104.371 16.199 105.746 17.6175 106.406 19.4031C106.773 20.3674 107.14 21.338 107.513 22.3148C107.88 23.2854 108.247 24.256 108.621 25.2266C110.064 29.1275 108.148 33.5013 104.259 35.1873C93.8131 39.7104 83.8461 45.4218 74.6319 52.1597C73.1948 53.2112 71.5212 53.7214 69.8787 53.7214ZM99.3067 16.0061C98.2739 16.0061 97.2225 16.2239 96.2332 16.6532C84.3936 21.7798 73.1139 28.244 62.7052 35.8592C61.0254 37.0849 59.9241 38.8953 59.6815 40.8178C59.4699 42.4603 59.8992 44.0344 60.8947 45.2413L64.808 50.1067C67.0167 52.8068 71.0173 53.2734 73.9041 51.1643C83.1867 44.3703 93.2345 38.6154 103.768 34.055C107.046 32.6302 108.67 28.947 107.457 25.6683C107.09 24.7039 106.723 23.7333 106.35 22.7565C105.982 21.786 105.615 20.8155 105.242 19.8449C104.701 18.3704 103.562 17.2069 102.044 16.5536C101.186 16.1866 100.259 16.0061 99.3067 16.0061Z" fill="#A05C26"/>
<path d="M69.8787 53.7214C67.6016 53.7214 65.3617 52.7508 63.8374 50.8844L59.9242 46.019C58.7172 44.5445 58.1945 42.6407 58.4434 40.656C58.7296 38.3914 60.0174 36.2761 61.971 34.8513C72.4543 27.1801 83.8149 20.6724 95.7355 15.5085C97.9566 14.5441 100.433 14.5068 102.53 15.4089C104.371 16.199 105.746 17.6175 106.406 19.4031C106.773 20.3674 107.14 21.338 107.513 22.3148C107.88 23.2854 108.247 24.256 108.621 25.2266C110.064 29.1275 108.148 33.5013 104.259 35.1873C93.8131 39.7104 83.8461 45.4218 74.6319 52.1597C73.1948 53.2112 71.5212 53.7214 69.8787 53.7214ZM99.3067 16.0061C98.2739 16.0061 97.2225 16.2239 96.2332 16.6532C84.3936 21.7798 73.1139 28.244 62.7052 35.8592C61.0254 37.0849 59.9241 38.8953 59.6815 40.8178C59.4699 42.4603 59.8992 44.0344 60.8947 45.2413L64.808 50.1067C67.0167 52.8068 71.0173 53.2734 73.9041 51.1643C83.1867 44.3703 93.2345 38.6154 103.768 34.055C107.046 32.6302 108.67 28.947 107.457 25.6683C107.09 24.7039 106.723 23.7333 106.35 22.7565C105.982 21.786 105.615 20.8155 105.242 19.8449C104.701 18.3704 103.562 17.2069 102.044 16.5536C101.186 16.1866 100.259 16.0061 99.3067 16.0061Z" fill="#A05C26"/>
<path d="M186.293 183.889L204.329 177.773L186.293 187.678L207.266 182.726L186.293 193.906L207.266 189.706L196.776 197.633L210.066 194.839" fill="white"/>
<path d="M196.775 198.567C196.414 198.567 196.078 198.355 195.928 198.019C195.748 197.621 195.866 197.154 196.215 196.887L203.444 191.424L186.472 194.821C186.018 194.908 185.563 194.66 185.408 194.224C185.252 193.789 185.439 193.303 185.85 193.086L200.47 185.29L186.503 188.587C186.049 188.693 185.582 188.45 185.414 188.015C185.246 187.579 185.427 187.088 185.837 186.864L194.566 182.073L186.59 184.78C186.105 184.941 185.569 184.68 185.408 184.195C185.246 183.71 185.501 183.175 185.993 183.013L204.029 176.897C204.489 176.741 204.987 176.965 205.18 177.407C205.373 177.849 205.199 178.365 204.776 178.602L192.755 185.203L207.053 181.831C207.507 181.719 207.973 181.968 208.141 182.409C208.309 182.851 208.123 183.343 207.706 183.56L192.333 191.754L207.084 188.799C207.513 188.712 207.942 188.936 208.116 189.334C208.297 189.732 208.172 190.199 207.83 190.46L200.669 195.867L209.871 193.932C210.375 193.82 210.873 194.149 210.978 194.653C211.084 195.157 210.761 195.655 210.257 195.761L196.967 198.554C196.905 198.561 196.837 198.567 196.775 198.567Z" fill="#DCA197"/>
<path d="M48.8833 153.082L60.219 156.964L47.2407 155.085L59.491 160.741L44.5469 158.377L56.4674 164.43L47.981 164.486L55.5902 168.25" fill="white"/>
<path d="M55.59 169.184C55.4532 169.184 55.31 169.153 55.1793 169.085L47.5703 165.321C47.1846 165.128 46.9793 164.699 47.0726 164.275C47.1721 163.852 47.5454 163.554 47.9747 163.554L52.6161 163.523L44.1236 159.211C43.7129 159.006 43.5201 158.527 43.657 158.091C43.8 157.656 44.2357 157.388 44.6898 157.457L52.9893 158.769L46.8487 155.932C46.4256 155.739 46.2141 155.267 46.3447 154.819C46.4754 154.377 46.917 154.091 47.3712 154.159L50.4572 154.607L48.5783 153.966C48.093 153.798 47.8316 153.27 47.9996 152.778C48.1676 152.293 48.6965 152.031 49.188 152.199L60.5237 156.082C60.9779 156.237 61.2392 156.716 61.1272 157.183C61.0152 157.649 60.5611 157.961 60.0882 157.886L53.4622 156.928L59.8829 159.889C60.3059 160.082 60.5175 160.561 60.3869 161.009C60.25 161.457 59.8082 161.737 59.3478 161.662L50.2457 160.225L56.8965 163.604C57.2822 163.796 57.4813 164.232 57.3818 164.649C57.2822 165.066 56.909 165.364 56.4797 165.37L51.9255 165.402L56.0068 167.424C56.4672 167.654 56.6601 168.214 56.4299 168.674C56.2619 168.991 55.9322 169.184 55.59 169.184Z" fill="#DCA197"/>
<path d="M224.382 108.43L231.748 110.514L223.181 109.892L231.064 113.152L221.215 112.293L228.861 115.846L223.193 116.319L228.077 118.515" fill="white"/>
<path d="M228.079 119.447C227.949 119.447 227.824 119.422 227.7 119.366L222.816 117.17C222.43 116.996 222.206 116.579 222.281 116.162C222.355 115.745 222.698 115.428 223.121 115.391L225.28 115.21L220.825 113.139C220.414 112.946 220.203 112.492 220.315 112.05C220.433 111.614 220.85 111.322 221.298 111.359L225.099 111.689L222.822 110.75C222.399 110.575 222.163 110.121 222.268 109.673C222.374 109.225 222.785 108.914 223.245 108.958L223.631 108.983C223.463 108.759 223.395 108.46 223.482 108.168C223.625 107.67 224.141 107.384 224.633 107.52L231.999 109.605C232.459 109.735 232.746 110.196 232.665 110.662C232.584 111.135 232.154 111.465 231.675 111.434L228.882 111.229L231.414 112.274C231.837 112.448 232.074 112.908 231.962 113.356C231.85 113.804 231.439 114.103 230.972 114.066L226.412 113.667L229.243 114.98C229.629 115.161 229.84 115.571 229.765 115.988C229.691 116.405 229.349 116.722 228.925 116.753L226.854 116.928L228.446 117.643C228.919 117.855 229.125 118.408 228.913 118.875C228.776 119.242 228.434 119.447 228.079 119.447Z" fill="#DCA197"/>
</svg>
