<svg width="84" height="80" viewBox="0 0 84 80" fill="none" xmlns="http://www.w3.org/2000/svg">
<path d="M16.1183 45.1731C16.1183 45.1731 10.6861 44.3458 8.21174 40.1469C6.01693 36.4221 2.52822 35.5268 1.92569 40.6153C1.32315 45.7038 4.03931 55.299 16.0787 56.3681C16.0768 56.3681 21.2389 50.475 16.1183 45.1731Z" fill="white"/>
<path d="M16.0773 57.3134C16.0489 57.3134 16.0225 57.3115 15.9942 57.3096C10.9227 56.8601 6.98444 54.9467 4.28532 51.6262C1.3142 47.9694 0.63423 43.4834 0.98744 40.5048C1.15554 39.0787 1.74673 36.6232 3.80555 36.1888C5.54515 35.8224 7.54544 37.1559 9.02628 39.6661C11.2362 43.4154 16.2133 44.2314 16.2624 44.239C16.4664 44.2711 16.6553 44.3674 16.7969 44.5166C19.7284 47.552 19.5848 50.7705 18.9502 52.937C18.291 55.1809 16.9612 56.7883 16.8007 56.9753C16.6213 57.1906 16.3568 57.3134 16.0773 57.3134ZM4.37791 38.021C4.31369 38.021 4.25136 38.0266 4.19281 38.0398C3.54306 38.1758 3.0444 39.1826 2.86307 40.7295C2.57031 43.2058 3.15014 47.2346 5.75293 50.4362C8.02707 53.2373 11.3571 54.8976 15.6541 55.3792C16.047 54.8371 16.744 53.7549 17.1388 52.4081C17.832 50.049 17.3277 47.9108 15.6409 46.0485C14.349 45.784 9.73078 44.5884 7.39809 40.6294C6.36113 38.8709 5.14288 38.021 4.37791 38.021Z" fill="#040000"/>
<path d="M60.4032 41.5141C60.4032 41.5141 64.4604 41.5141 67.3049 36.046C69.8284 31.1955 74.3314 29.7524 75.6233 36.046C76.9153 42.3396 74.2842 54.5583 58.5446 57.0138C58.5465 57.0138 55.1466 48.0929 60.4032 41.5141Z" fill="#040000"/>
<path d="M45.9235 78.8072C38.0433 78.8072 30.8375 76.9051 25.086 73.305C19.2061 69.6256 15.181 63.6872 13.4471 56.1338C11.8529 49.1961 11.3693 40.8022 12.0833 32.4989C12.8086 24.0653 15.3283 17.4356 19.5706 12.7929C24.2341 7.68927 30.8884 5.10156 39.3447 5.10156C45.1698 5.10156 53.271 6.71841 58.5465 11.2535C64.5 16.3741 65.4067 23.8273 65.5086 30.4439C65.5483 33.2809 65.3424 36.133 65.1403 38.8926C64.942 41.6144 64.738 44.4287 64.7777 47.1883C64.7814 47.4055 64.7833 47.6265 64.7852 47.8494C64.8041 50.1462 64.823 52.5223 66.2566 54.0825C66.572 54.4716 67.048 54.6983 67.5485 54.6964C67.6335 54.6964 67.7186 54.6907 67.8017 54.6812C67.4938 53.8728 67.5202 52.9756 67.8753 52.188C68.7517 50.1764 71.3753 48.8335 73.3038 48.7428C73.402 48.739 73.4984 48.7352 73.5947 48.7352C77.1948 48.7352 78.9117 51.9066 79.0137 55.0477C79.1384 58.8782 77.4857 62.8769 74.1028 66.9322C68.5157 73.628 60.4296 77.655 50.7173 78.5767C49.1118 78.7297 47.5006 78.8072 45.9235 78.8072Z" fill="white"/>
<path d="M39.3428 6.04507C45.4305 6.04507 53.1104 7.82625 57.9288 11.9684C63.4366 16.7056 64.4566 23.5903 64.5623 30.4581C64.6417 36.049 63.752 41.6003 63.8313 47.2006C63.8672 49.7222 63.7218 52.7216 65.5577 54.72C66.0526 55.3037 66.7797 55.6418 67.5447 55.6399C68.1265 55.621 68.6988 55.4888 69.2314 55.2545C66.912 52.5139 70.8672 49.8034 73.3454 49.6863C73.4285 49.6825 73.5096 49.6806 73.5909 49.6806C76.579 49.6806 77.9748 52.3118 78.0655 55.0789C78.2015 59.2702 75.9783 63.2046 73.3717 66.3287C67.5674 73.2852 59.5267 76.7928 50.6209 77.639C49.0683 77.7863 47.4968 77.8638 45.9234 77.8638C38.8195 77.8638 31.6345 76.2904 25.5865 72.5052C19.5819 68.7464 15.9365 62.7645 14.3669 55.9232C12.6632 48.5039 12.3722 40.1629 13.0239 32.5793C13.6151 25.7039 15.5077 18.636 20.2675 13.4285C25.3352 7.88102 32.3353 6.04507 39.3428 6.04507ZM39.3428 4.15625C30.6108 4.15625 23.7222 6.84784 18.8717 12.1554C14.4858 16.9549 11.885 23.7717 11.1408 32.4168C10.4192 40.8145 10.9103 49.3123 12.5253 56.3444C14.3178 64.1471 18.4882 70.2896 24.5853 74.105C30.4879 77.7995 37.8675 79.7507 45.9252 79.7507C47.5326 79.7507 49.1722 79.6714 50.8022 79.5165C55.6131 79.0594 60.0461 77.8675 63.9806 75.973C68.1605 73.9728 71.8588 71.0961 74.8242 67.5357C78.362 63.2971 80.0884 59.0851 79.9543 55.0147C79.8126 50.693 77.2552 47.788 73.5909 47.788C73.4813 47.788 73.368 47.7899 73.2565 47.7956C70.9975 47.9014 68.0415 49.4313 67.0065 51.8074C66.827 52.2117 66.7118 52.6423 66.6646 53.0824C65.7579 51.7659 65.7409 49.7713 65.7258 47.8371C65.7239 47.6124 65.722 47.3895 65.7182 47.1704C65.6786 44.4524 65.8826 41.6588 66.079 38.9559C66.2811 36.1774 66.4908 33.3027 66.4492 30.426C66.3434 23.5979 65.3952 15.8953 59.1583 10.531C53.6883 5.83163 45.336 4.15625 39.3428 4.15625Z" fill="#040000"/>
<path d="M60.3028 27.3344C60.3821 32.9253 59.4925 38.4765 59.5718 44.0769C59.6077 46.5985 59.4623 49.5979 61.2982 51.5963C62.1897 52.5671 63.2097 52.6616 64.2731 52.3688C63.7933 50.7199 63.8481 48.8575 63.8236 47.1991C63.7442 41.5987 64.6338 36.0475 64.5545 30.4566C64.4487 23.5888 63.4288 16.7041 57.921 11.9669C56.8859 11.0886 55.762 10.3199 54.5664 9.67578C59.2885 14.3676 60.2027 20.8576 60.3028 27.3344Z" fill="#DAE9E9"/>
<path d="M77.543 46.6699V42.3445C77.543 41.5644 78.1757 40.9316 78.9558 40.9316H80.2176C80.9977 40.9316 81.6304 41.5644 81.6304 42.3445V46.6699C81.6304 47.45 80.9977 48.0827 80.2176 48.0827H78.9558C78.1757 48.0827 77.5449 47.45 77.543 46.6699Z" fill="#363838"/>
<path d="M20.6234 31.2789L24.5821 27.3202C25.2967 26.6056 26.4039 26.5562 27.0556 27.208L28.1108 28.2631C28.7625 28.9149 28.7118 30.0234 27.9986 30.7366L24.0398 34.6953C23.3253 35.4099 22.2181 35.4593 21.5663 34.8075L20.5112 33.7524C19.8594 33.1007 19.9102 31.9921 20.6234 31.2789Z" fill="#575858"/>
<path d="M24.0429 27.3202L28.0016 31.2789C28.7161 31.9934 28.7655 33.1007 28.1138 33.7525L27.0586 34.8076C26.4069 35.4593 25.2983 35.4086 24.5851 34.6954L20.6264 30.7367C19.9119 30.0222 19.8624 28.9149 20.5142 28.2631L21.5693 27.208C22.2211 26.5563 23.3283 26.6057 24.0429 27.3202Z" fill="#575858"/>
<path d="M47.2523 31.2789L51.2111 27.3202C51.9256 26.6056 53.0328 26.5562 53.6846 27.208L54.7397 28.2631C55.3914 28.9149 55.3407 30.0234 54.6275 30.7366L50.6687 34.6953C49.9542 35.4099 48.847 35.4593 48.1952 34.8075L47.1401 33.7524C46.4883 33.1007 46.5391 31.9921 47.2523 31.2789Z" fill="#575858"/>
<path d="M50.6718 27.3183L54.6305 31.2769C55.345 31.9915 55.3944 33.0987 54.7427 33.7505L53.6875 34.8056C53.0358 35.4574 51.9272 35.4066 51.214 34.6934L47.2553 30.7347C46.5408 30.0202 46.4913 28.913 47.1431 28.2612L48.1982 27.2061C48.85 26.5543 49.9572 26.6037 50.6718 27.3183Z" fill="#575858"/>
<path d="M77.4167 42.4668H81.7421C82.5222 42.4668 83.1551 43.0995 83.1551 43.8796V45.1414C83.1551 45.9215 82.5222 46.5542 81.7421 46.5542H77.4167C76.6367 46.5542 76.0039 45.9215 76.0039 45.1414V43.8796C76.0058 43.0995 76.6367 42.4668 77.4167 42.4668Z" fill="#363838"/>
<path d="M38.2285 34.4668C37.7223 34.038 36.9686 34.0814 36.5172 34.5669C35.8845 35.2393 34.9835 36.365 35.3122 36.9128C35.8656 37.8364 39.9322 37.8307 39.9322 36.7239C39.9322 36.0515 38.9765 35.1052 38.2285 34.4668Z" fill="#7A281D"/>
<path d="M63.1682 41.8988C63.1682 41.8988 66.0658 41.8988 68.0962 37.5281C69.8982 33.6503 73.1129 32.4981 74.0365 37.5281C74.9602 42.558 73.0808 52.327 61.8423 54.2895C61.8423 54.2895 59.4152 47.1573 63.1682 41.8988Z" fill="white"/>
<path d="M76.3438 50.7031V50.705C76.3495 50.7089 76.3553 50.7146 76.3591 50.7204C76.3533 50.7146 76.3495 50.7089 76.3438 50.7031Z" fill="#DAE9E9"/>
<path d="M78.1073 55.5068V55.3047C78.1073 55.2537 78.1054 55.2008 78.1054 55.1499C78.1054 55.1272 78.1054 55.1026 78.1035 55.08C78.1016 55.0573 78.0997 55.0327 78.0997 55.0101C78.0941 54.8892 78.0865 54.7664 78.0771 54.6436C78.0752 54.6323 78.0751 54.6229 78.0751 54.6115C78.0033 53.5783 77.6861 52.5773 77.1478 51.6933C76.9324 51.3344 76.668 51.0058 76.362 50.7206C76.2506 50.6167 76.1354 50.5204 76.0145 50.4297C76.0088 50.4788 77.5444 54.7154 73.3871 56.506C73.2908 56.5476 73.1982 56.591 73.1056 56.6288C70.7861 57.5864 69.4565 56.4569 68.2401 55.5635C68.2401 55.5635 66.4495 56.115 65.0725 54.1034C65.0725 54.1034 65.692 61.3301 70.586 62.265C70.2781 62.6749 69.9627 63.0753 69.6397 63.4626C63.8354 70.4191 55.2752 73.6678 46.3713 74.514C38.1077 75.2998 29.3549 74.0928 22.1094 69.8486C23.1841 70.8403 24.3477 71.728 25.5867 72.5043C32.9777 77.1282 42.061 78.4522 50.623 77.6381C59.5288 76.792 67.5696 73.2844 73.3739 66.3279C74.8699 64.5335 76.2392 62.4728 77.11 60.2497C77.3574 59.649 77.5595 59.0295 77.7144 58.3986C77.9543 57.4939 78.0865 56.5627 78.1092 55.6258C78.1073 55.5843 78.1073 55.5465 78.1073 55.5068Z" fill="#DAE9E9"/>
<path d="M68.1992 55.166C68.1992 55.166 70.4281 57.8935 73.3482 55.5608L68.1992 55.166Z" fill="white"/>
<path d="M70.973 57.4614C68.8915 57.4614 67.4919 55.7879 67.4711 55.7652C67.1406 55.361 67.201 54.766 67.6052 54.4355C68.0075 54.1068 68.6006 54.1654 68.9312 54.5658C69.2107 54.8982 70.7067 56.4678 72.7636 54.8246C73.1716 54.4997 73.7646 54.5658 74.0914 54.9738C74.4163 55.3818 74.3502 55.9749 73.9422 56.3016C72.8637 57.1592 71.857 57.4614 70.973 57.4614Z" fill="#040000"/>
<path d="M67.7047 61.1404C65.5136 60.3376 64.8242 54.4785 64.8242 54.4785L67.7047 61.1404Z" fill="white"/>
<path d="M67.7046 62.085C67.5969 62.085 67.4874 62.0661 67.3797 62.0265C64.775 61.0726 64.0119 55.663 63.8854 54.5883C63.8249 54.0708 64.1951 53.6005 64.7127 53.54C65.2321 53.4777 65.7006 53.8498 65.761 54.3673C66.1879 57.9712 67.3665 60.0092 68.0276 60.2529C68.5168 60.4323 68.768 60.9744 68.5905 61.4655C68.4507 61.8489 68.0899 62.085 67.7046 62.085Z" fill="#040000"/>
<path d="M21.8268 7.08497L24.8774 8.4166C25.3704 8.63193 25.5951 9.20425 25.3797 9.69723C25.3117 9.854 25.2022 9.98999 25.0663 10.092L22.3879 12.0677L19.7095 14.0434C19.2769 14.3626 18.6669 14.2701 18.3477 13.8375C18.2457 13.6996 18.1834 13.5391 18.1645 13.3691L17.7924 10.0618L17.4203 6.75443C17.3599 6.21989 17.7451 5.73825 18.2797 5.67781C18.4497 5.65892 18.6215 5.68537 18.7764 5.75337L21.8268 7.08497Z" fill="#4C4C4C"/>
<path d="M19.1309 15.178C18.5416 15.178 17.9598 14.9079 17.5839 14.3998C17.3837 14.1297 17.2591 13.8105 17.2213 13.4743L16.4771 6.86155C16.3581 5.81137 17.1174 4.85941 18.1695 4.74041C18.5057 4.70263 18.8438 4.7555 19.1516 4.88961L22.2002 6.22124L25.2506 7.55287C26.2196 7.97596 26.6635 9.10925 26.2404 10.0763C26.1082 10.3785 25.8966 10.6467 25.6284 10.8489L20.266 14.804C19.926 15.0571 19.5275 15.178 19.1309 15.178ZM18.3943 6.61978C18.3659 6.61978 18.3546 6.63489 18.3564 6.65001L19.1006 13.2647C19.1157 13.2911 19.1328 13.293 19.146 13.2854L24.5027 9.33401C24.5046 9.33212 24.5102 9.32458 24.5102 9.32269C24.5178 9.30569 24.5122 9.29057 24.4971 9.28301L18.3961 6.61978H18.3943Z" fill="#040000"/>
<path d="M55.0916 7.45804L52.0412 8.78965C51.5482 9.00498 51.3234 9.57729 51.5388 10.0703C51.6068 10.227 51.7163 10.363 51.8523 10.465L54.5307 12.4408L57.209 14.4165C57.6415 14.7357 58.2516 14.6431 58.5708 14.2106C58.6728 14.0727 58.7352 13.9121 58.7541 13.7421L59.1261 10.4348L59.4983 7.1275C59.5587 6.59296 59.1734 6.1113 58.6389 6.05086C58.4689 6.03197 58.297 6.05842 58.1421 6.12642L55.0916 7.45804Z" fill="#4C4C4C"/>
<path d="M57.7853 15.5511C57.3792 15.5511 56.9844 15.4226 56.652 15.1771L51.2953 11.2257C51.0214 11.0198 50.808 10.7516 50.6757 10.4475C50.4717 9.97906 50.4624 9.45774 50.6494 8.98176C50.8364 8.50577 51.1971 8.1299 51.6674 7.92591L57.7683 5.26268C58.0743 5.12857 58.4124 5.07568 58.7468 5.11345C59.8007 5.23245 60.5581 6.18441 60.441 7.2346L59.6968 13.8493C59.659 14.1836 59.5344 14.5028 59.3342 14.7729C59.0301 15.1847 58.5843 15.4529 58.0781 15.5303C57.978 15.5435 57.8816 15.5511 57.7853 15.5511ZM55.4715 8.32256L52.4211 9.65419C52.4097 9.65985 52.4003 9.67873 52.4059 9.69196C52.4078 9.69573 52.4116 9.70328 52.4211 9.70895L57.7721 13.6566C57.7834 13.6641 57.8042 13.6604 57.8136 13.6509L58.5616 7.02305C58.5635 7.00605 58.5522 6.99282 58.5352 6.99093L55.4715 8.32256Z" fill="#040000"/>
<path d="M50.8252 14.0865C50.1282 12.9022 45.2399 11.3495 44.6185 11.1569L42.5333 7.37357L39.9134 2.61942C39.4903 1.85067 38.5252 1.57112 37.7564 1.99421C37.5128 2.12832 37.3069 2.32476 37.1634 2.56464L34.3547 7.21114L32.1523 10.8547C32.1542 10.8433 32.1542 10.832 32.1561 10.8207C32.1561 10.8207 26.5935 12.3865 25.821 13.6331C25.1561 14.7079 51.5051 15.2405 50.8252 14.0865Z" fill="white"/>
<path d="M42.3062 15.6785C41.0313 15.6785 39.677 15.6653 38.2868 15.6389C35.1816 15.5784 32.235 15.4575 29.9854 15.2989C25.8621 15.0061 25.4976 14.6888 25.2313 14.4584C24.8365 14.1146 24.7497 13.5706 25.0179 13.1362C25.8376 11.8121 29.6322 10.5674 31.5607 10.0083L36.3564 2.07526C36.5831 1.6975 36.9099 1.38205 37.3028 1.16673C38.5267 0.494305 40.0699 0.940072 40.7423 2.16403L45.2641 10.3691C47.4741 11.0736 50.8909 12.3353 51.6408 13.6065C51.9033 14.0504 51.8032 14.5962 51.399 14.9325C51.1214 15.1629 50.7417 15.4783 46.5995 15.6162C45.3567 15.6578 43.8947 15.6785 42.3062 15.6785ZM28.1004 13.2552C32.6052 13.7274 43.9891 13.9427 48.528 13.6424C47.5175 13.1626 46.0593 12.5922 44.3405 12.0596C44.1063 11.9878 43.9117 11.8272 43.7927 11.6138L39.0877 3.07632C38.9158 2.76467 38.5248 2.65134 38.2132 2.82323C38.1149 2.878 38.0318 2.95732 37.9751 3.05177L32.9623 11.3456C32.7904 11.6308 32.4881 11.7951 32.1708 11.8008C30.6503 12.239 29.16 12.7792 28.1004 13.2552Z" fill="#040000"/>
<path d="M26.637 20.1634C24.3119 16.9864 22.3474 13.562 20.7835 9.95052C20.249 8.7209 20.7609 7.36852 21.8583 6.96242C22.4476 6.73765 23.0388 6.51287 23.6281 6.28999C24.7274 5.882 25.9476 6.44109 26.4122 7.51016C27.7968 10.7023 29.5326 13.7319 31.5876 16.5387C32.2751 17.4813 32.141 18.8167 31.2344 19.559C30.7433 19.9556 30.2503 20.3504 29.7592 20.747C28.8526 21.4893 27.4284 21.2457 26.637 20.1634Z" fill="#FBD8C1"/>
<path d="M28.5402 21.3639C28.4439 21.3639 28.3456 21.3582 28.2474 21.345C27.5618 21.2581 26.9196 20.8672 26.4852 20.276C24.1525 17.0876 22.1749 13.6405 20.611 10.0272C20.3182 9.35479 20.3069 8.60492 20.5789 7.96839C20.8169 7.4093 21.2493 6.98809 21.7933 6.78787C22.3807 6.5631 22.972 6.33832 23.5613 6.11544C24.7437 5.67535 26.0715 6.2571 26.5853 7.43762C27.9641 10.6165 29.6981 13.6405 31.7399 16.4303C32.4992 17.4711 32.3292 18.9103 31.3546 19.7074C31.1033 19.9114 30.8521 20.1135 30.599 20.3156C30.3591 20.5083 30.1174 20.7028 29.8775 20.8974C29.5017 21.2015 29.0351 21.3639 28.5402 21.3639ZM24.3735 6.3459C24.1468 6.3459 23.9164 6.38554 23.6935 6.46865C23.1061 6.69153 22.5149 6.91631 21.9256 7.14108C21.4779 7.3073 21.1228 7.65296 20.9244 8.11761C20.694 8.6597 20.7054 9.3 20.9566 9.87798C22.5111 13.4649 24.4736 16.8893 26.7893 20.055C27.1614 20.5649 27.7091 20.8993 28.2946 20.9729C28.7952 21.0371 29.2712 20.9049 29.6395 20.6046C29.8813 20.4101 30.1212 20.2155 30.3629 20.0228C30.6141 19.8207 30.8654 19.6186 31.1166 19.4165C31.9364 18.746 32.0761 17.5334 31.4358 16.6551C29.377 13.8445 27.6298 10.7941 26.2396 7.59062C25.9034 6.81432 25.1554 6.3459 24.3735 6.3459Z" fill="#A05C26"/>
<path d="M28.5402 21.3639C28.4439 21.3639 28.3456 21.3582 28.2474 21.345C27.5618 21.2581 26.9196 20.8672 26.4852 20.276C24.1525 17.0876 22.1749 13.6405 20.611 10.0272C20.3182 9.35479 20.3069 8.60492 20.5789 7.96839C20.8169 7.4093 21.2493 6.98809 21.7933 6.78787C22.3807 6.5631 22.972 6.33832 23.5613 6.11544C24.7437 5.67535 26.0715 6.2571 26.5853 7.43762C27.9641 10.6165 29.6981 13.6405 31.7399 16.4303C32.4992 17.4711 32.3292 18.9103 31.3546 19.7074C31.1033 19.9114 30.8521 20.1135 30.599 20.3156C30.3591 20.5083 30.1174 20.7028 29.8775 20.8974C29.5017 21.2015 29.0351 21.3639 28.5402 21.3639ZM24.3735 6.3459C24.1468 6.3459 23.9164 6.38554 23.6935 6.46865C23.1061 6.69153 22.5149 6.91631 21.9256 7.14108C21.4779 7.3073 21.1228 7.65296 20.9244 8.11761C20.694 8.6597 20.7054 9.3 20.9566 9.87798C22.5111 13.4649 24.4736 16.8893 26.7893 20.055C27.1614 20.5649 27.7091 20.8993 28.2946 20.9729C28.7952 21.0371 29.2712 20.9049 29.6395 20.6046C29.8813 20.4101 30.1212 20.2155 30.3629 20.0228C30.6141 19.8207 30.8654 19.6186 31.1166 19.4165C31.9364 18.746 32.0761 17.5334 31.4358 16.6551C29.377 13.8445 27.6298 10.7941 26.2396 7.59062C25.9034 6.81432 25.1554 6.3459 24.3735 6.3459Z" fill="#A05C26"/>
<path d="M19.988 14.3511C23.165 12.0259 26.5913 10.0634 30.2028 8.49949C31.4324 7.96685 32.7848 8.47684 33.189 9.57425C33.4138 10.1636 33.6366 10.7548 33.8614 11.3441C34.2674 12.4434 33.7103 13.6635 32.6393 14.1282C29.4453 15.5108 26.4175 17.2466 23.6089 19.3017C22.6663 19.9892 21.3309 19.8532 20.5886 18.9466C20.1938 18.4555 19.7972 17.9625 19.4025 17.4714C18.662 16.5667 18.9057 15.1425 19.988 14.3511Z" fill="#FBD8C1"/>
<path d="M22.2752 19.9279C21.5839 19.9279 20.9058 19.6333 20.4411 19.0666L19.2531 17.5895C18.8866 17.1419 18.728 16.5639 18.8035 15.9614C18.8904 15.2738 19.2814 14.6316 19.8745 14.1991C23.0572 11.8702 26.5062 9.89449 30.1251 8.32677C30.7994 8.034 31.5512 8.02455 32.1877 8.29654C32.7468 8.53642 33.1642 8.96708 33.3644 9.50917C33.4797 9.81138 33.5968 10.1174 33.7121 10.4234L34.0369 11.2771C34.4751 12.4614 33.8934 13.7892 32.7129 14.3011C29.5415 15.6743 26.5156 17.4082 23.7183 19.4538C23.2838 19.773 22.7776 19.9279 22.2752 19.9279ZM31.2112 8.47786C30.8977 8.47786 30.5785 8.54398 30.2781 8.67431C26.6837 10.2307 23.2593 12.1932 20.0993 14.5051C19.5893 14.8772 19.255 15.4268 19.1813 16.0105C19.1171 16.5091 19.2474 16.987 19.5496 17.3534L20.7377 18.8305C21.4082 19.6503 22.6227 19.7919 23.4991 19.1516C26.3173 17.089 29.3677 15.3418 32.5655 13.9573C33.5609 13.5248 34.0539 12.4066 33.6856 11.4112L33.3626 10.5593C33.2474 10.2534 33.1302 9.94926 33.015 9.64327C32.8507 9.19562 32.5051 8.8424 32.0442 8.64408C31.7817 8.53264 31.5002 8.47786 31.2112 8.47786Z" fill="#A05C26"/>
<path d="M22.2752 19.9279C21.5839 19.9279 20.9058 19.6333 20.4411 19.0666L19.2531 17.5895C18.8866 17.1419 18.728 16.5639 18.8035 15.9614C18.8904 15.2738 19.2814 14.6316 19.8745 14.1991C23.0572 11.8702 26.5062 9.89449 30.1251 8.32677C30.7994 8.034 31.5512 8.02455 32.1877 8.29654C32.7468 8.53642 33.1642 8.96708 33.3644 9.50917C33.4797 9.81138 33.5968 10.1174 33.7121 10.4234L34.0369 11.2771C34.4751 12.4614 33.8934 13.7892 32.7129 14.3011C29.5415 15.6743 26.5156 17.4082 23.7183 19.4538C23.2838 19.773 22.7776 19.9279 22.2752 19.9279ZM31.2112 8.47786C30.8977 8.47786 30.5785 8.54398 30.2781 8.67431C26.6837 10.2307 23.2593 12.1932 20.0993 14.5051C19.5893 14.8772 19.255 15.4268 19.1813 16.0105C19.1171 16.5091 19.2474 16.987 19.5496 17.3534L20.7377 18.8305C21.4082 19.6503 22.6227 19.7919 23.4991 19.1516C26.3173 17.089 29.3677 15.3418 32.5655 13.9573C33.5609 13.5248 34.0539 12.4066 33.6856 11.4112L33.3626 10.5593C33.2474 10.2534 33.1302 9.94926 33.015 9.64327C32.8507 9.19562 32.5051 8.8424 32.0442 8.64408C31.7817 8.53264 31.5002 8.47786 31.2112 8.47786Z" fill="#A05C26"/>
<path d="M57.6211 59.4466L63.0967 57.5898L57.6211 60.5987L63.9901 59.0934L57.6211 62.4876L63.9901 61.2126L60.8056 63.6209L64.8383 62.7709" fill="white"/>
<path d="M60.808 63.9041C60.6985 63.9041 60.5965 63.8418 60.5512 63.7379C60.4964 63.617 60.5323 63.4754 60.638 63.3942L62.8347 61.732L57.6801 62.7633C57.5422 62.7897 57.4044 62.7142 57.3571 62.5801C57.3099 62.4479 57.3666 62.3005 57.4912 62.2344L61.93 59.8696L57.6896 60.8726C57.5517 60.9047 57.412 60.831 57.3591 60.6988C57.3081 60.5666 57.3628 60.4174 57.4875 60.3494L60.1413 58.8912L57.7142 59.7147C57.5668 59.7638 57.4044 59.6845 57.3553 59.5372C57.3043 59.3899 57.3836 59.2274 57.5328 59.1783L63.0085 57.3216C63.1483 57.2744 63.2994 57.3424 63.3579 57.4765C63.4165 57.6106 63.3636 57.7674 63.2352 57.8391L59.5841 59.8451L63.9265 58.8194C64.0644 58.7854 64.2061 58.861 64.2571 58.9951C64.3081 59.1292 64.2514 59.2784 64.1248 59.3445L59.4556 61.8321L63.9359 60.9349C64.0663 60.9104 64.1966 60.9765 64.2495 61.0974C64.3024 61.2182 64.2665 61.3599 64.1626 61.4392L61.9885 63.0825L64.7803 62.4932C64.9333 62.4611 65.0843 62.5593 65.1164 62.7123C65.1485 62.8653 65.0503 63.0164 64.8973 63.0485L60.8647 63.8985C60.8477 63.9023 60.8269 63.9041 60.808 63.9041Z" fill="#DCA197"/>
<path d="M15.9121 50.0938L19.3536 51.2724L15.4135 50.7019L19.1307 52.4208L14.5938 51.7011L18.2128 53.5408L15.6382 53.556L17.9483 54.6987" fill="white"/>
<path d="M17.9466 54.9813C17.905 54.9813 17.8616 54.9718 17.8219 54.9511L15.5119 53.8083C15.3948 53.7498 15.3324 53.6194 15.3607 53.491C15.3909 53.3626 15.5043 53.2719 15.6346 53.2719L17.0418 53.2643L14.4635 51.9535C14.3389 51.8912 14.2803 51.7457 14.3219 51.6135C14.3653 51.4813 14.4994 51.4001 14.6354 51.4209L17.1551 51.8213L15.2909 50.96C15.1624 50.9014 15.0982 50.7579 15.1379 50.6219C15.1775 50.4878 15.3097 50.4009 15.4495 50.4217L16.3864 50.5577L15.8159 50.3612C15.6686 50.3102 15.5892 50.1497 15.6402 50.0005C15.6912 49.8531 15.8518 49.7719 16.001 49.8248L19.4425 51.0034C19.5804 51.0506 19.6597 51.1961 19.6257 51.3377C19.5917 51.4794 19.4538 51.572 19.3103 51.5512L17.2949 51.2603L19.2479 52.1632C19.3764 52.2217 19.4406 52.3672 19.4009 52.5032C19.3594 52.6392 19.2253 52.7241 19.0855 52.6996L16.3222 52.2614L18.3413 53.287C18.4584 53.3456 18.5188 53.4778 18.4886 53.6043C18.4584 53.7309 18.3451 53.8216 18.2148 53.8234L16.8359 53.831L18.0731 54.443C18.2129 54.5129 18.2714 54.6828 18.2015 54.8226C18.1505 54.9227 18.0505 54.9813 17.9466 54.9813Z" fill="#DCA197"/>
<path d="M69.1879 36.5371L71.4243 37.1718L68.8253 36.981L71.2184 37.9707L68.2266 37.7101L70.5479 38.7886L68.8271 38.9321L70.3099 39.6008" fill="white"/>
<path d="M70.3095 39.884C70.2699 39.884 70.2302 39.8764 70.1924 39.8594L68.7097 39.1908C68.5926 39.1379 68.5246 39.0114 68.5472 38.8848C68.5699 38.7583 68.6738 38.6619 68.8023 38.6506L69.4577 38.5958L68.1053 37.9668C67.9806 37.9083 67.9164 37.7704 67.9504 37.6363C67.9863 37.5041 68.1128 37.4153 68.2488 37.4266L69.4067 37.5268L68.7154 37.2415C68.5869 37.1887 68.5151 37.0489 68.5472 36.9148C68.5794 36.7788 68.706 36.6881 68.8439 36.6976L68.959 36.7051C68.908 36.6371 68.8872 36.5464 68.9137 36.4577C68.9571 36.3066 69.112 36.2197 69.2631 36.2631L71.4995 36.8978C71.6392 36.9374 71.7262 37.0772 71.7016 37.2189C71.6771 37.3624 71.5486 37.4606 71.4012 37.4512L70.5588 37.3889L71.3239 37.7062C71.4523 37.7591 71.524 37.8989 71.49 38.0349C71.456 38.1709 71.3314 38.2634 71.1898 38.2502L69.8033 38.1293L70.6628 38.5278C70.7799 38.5826 70.8441 38.7073 70.8214 38.8338C70.7987 38.9604 70.6948 39.0567 70.5664 39.0661L69.9355 39.119L70.4209 39.3381C70.5645 39.4023 70.6268 39.5704 70.5626 39.7121C70.5211 39.8217 70.4172 39.884 70.3095 39.884Z" fill="#DCA197"/>
</svg>
