<svg width="104" height="91" viewBox="0 0 104 91" fill="none" xmlns="http://www.w3.org/2000/svg">
<path d="M27.5714 55.9074C27.5714 55.9074 22.1392 55.0801 19.6648 50.8813C17.47 47.1565 13.9813 46.2612 13.3788 51.3497C12.7763 56.4382 15.4924 66.0334 27.5317 67.1025C27.5299 67.1025 32.692 61.2094 27.5714 55.9074Z" fill="white"/>
<path d="M27.5315 68.0478C27.5031 68.0478 27.4767 68.0459 27.4484 68.044C22.3769 67.5945 18.4387 65.6811 15.7396 62.3605C12.7685 58.7038 12.0885 54.2178 12.4398 51.2391C12.6079 49.8131 13.1991 47.3576 15.2579 46.9232C16.9975 46.5568 18.9978 47.8903 20.4786 50.4024C22.6999 54.1706 27.6637 54.9658 27.7147 54.9752C27.9187 55.0073 28.1076 55.1037 28.2511 55.2529C31.1807 58.2863 31.039 61.503 30.4044 63.6695C29.7603 65.87 28.5061 67.4169 28.2549 67.7116C28.0755 67.925 27.811 68.0478 27.5315 68.0478ZM15.8321 48.7553C15.7679 48.7553 15.7056 48.761 15.647 48.7742C14.9973 48.9102 14.4986 49.917 14.3173 51.462C14.0245 53.9383 14.6044 57.9671 17.2072 61.1706C19.4813 63.9717 22.8113 65.632 27.1103 66.1136C27.5069 65.5715 28.1944 64.4987 28.5949 63.1387C29.2862 60.7815 28.7819 58.6433 27.097 56.7828C25.8051 56.5184 21.1869 55.3228 18.8542 51.3638C17.8154 49.6053 16.5971 48.7553 15.8321 48.7553Z" fill="#040000"/>
<path d="M71.8563 52.2485C71.8563 52.2485 75.9135 52.2485 78.7581 46.7804C81.2815 41.9299 85.7845 40.4868 87.0764 46.7804C88.3684 53.0739 85.7373 65.2927 69.9977 67.7482C69.9996 67.7482 66.5997 58.8273 71.8563 52.2485Z" fill="#040000"/>
<path d="M57.3766 89.5396C49.4964 89.5396 42.2905 87.6375 36.5391 84.0374C30.6592 80.358 26.6341 74.4196 24.9002 66.8662C23.306 59.9285 22.8225 51.5346 23.5364 43.2313C24.2618 34.7978 26.7814 28.168 31.0237 23.5253C35.6872 18.4217 42.3416 15.834 50.7978 15.834C56.6229 15.834 64.7241 17.4508 69.9996 21.9859C75.9531 27.1065 76.8597 34.5598 76.9617 41.1763C77.0014 44.0133 76.7955 46.8654 76.5934 49.625C76.3951 52.3468 76.1911 55.1611 76.2308 57.9207C76.2346 58.1379 76.2365 58.3589 76.2383 58.5818C76.2572 60.8786 76.2761 63.2547 77.7098 64.8149C78.0252 65.204 78.5011 65.4307 79.0017 65.4288C79.0867 65.4288 79.1717 65.4231 79.2548 65.4137C78.9469 64.6052 78.9733 63.7081 79.3284 62.9204C80.2048 60.9088 82.8284 59.5659 84.7569 59.4752C84.8551 59.4714 84.9515 59.4677 85.0478 59.4677C88.6479 59.4677 90.3648 62.639 90.4668 65.7801C90.5915 69.6106 88.9388 73.6093 85.5559 77.6646C79.9687 84.3604 71.8827 88.3874 62.1704 89.3091C60.5649 89.4621 58.9537 89.5396 57.3766 89.5396Z" fill="white"/>
<path d="M50.792 16.7775C56.8797 16.7775 64.5596 18.5586 69.378 22.7008C74.8858 27.438 75.9057 34.3228 76.0115 41.1905C76.0908 46.7814 75.2012 52.3327 75.2806 57.933C75.3164 60.4546 75.171 63.4541 77.0069 65.4524C77.5018 66.0361 78.229 66.3742 78.994 66.3723C79.5757 66.3534 80.1481 66.2212 80.6807 65.987C78.3612 63.2463 82.3164 60.5358 84.7945 60.4187C84.8776 60.4149 84.9589 60.4131 85.0401 60.4131C88.0282 60.4131 89.4241 63.0442 89.5147 65.8113C89.6507 70.0026 87.4276 73.937 84.821 77.0611C79.0167 84.0176 70.9759 87.5252 62.0702 88.3714C60.5175 88.5187 58.946 88.5962 57.3726 88.5962C50.2688 88.5962 43.0837 87.0228 37.0357 83.2376C31.0311 79.4788 27.3857 73.4969 25.8161 66.6556C24.1124 59.2363 23.8215 50.8953 24.4731 43.3117C25.0644 36.4363 26.957 29.3684 31.7168 24.1609C36.7845 18.6134 43.7845 16.7775 50.792 16.7775ZM50.792 14.8887C42.06 14.8887 35.1714 17.5802 30.3209 22.8878C25.9351 27.6873 23.3342 34.5041 22.59 43.1492C21.8685 51.5469 22.3595 60.0447 23.9745 67.0768C25.767 74.8795 29.9375 81.022 36.0346 84.8374C41.9372 88.5319 49.3168 90.4831 57.3745 90.4831C58.9819 90.4831 60.6214 90.4038 62.2515 90.2489C67.0623 89.7918 71.4954 88.5999 75.4298 86.7054C79.6097 84.7052 83.308 81.8285 86.2735 78.2681C89.8113 74.0296 91.5377 69.8175 91.4036 65.7471C91.2619 61.4255 88.7044 58.5205 85.0401 58.5205C84.9305 58.5205 84.8172 58.5223 84.7058 58.528C82.4467 58.6338 79.4908 60.1637 78.4557 62.5399C78.2762 62.9441 78.161 63.3747 78.1138 63.8148C77.2072 62.4983 77.1902 60.5037 77.1751 58.5696C77.1732 58.3448 77.1713 58.1219 77.1675 57.9028C77.1278 55.1848 77.3318 52.3912 77.5282 49.6883C77.7303 46.9099 77.94 44.0351 77.8985 41.1584C77.7927 34.3303 76.8445 26.6277 70.6076 21.2634C65.1376 16.5641 56.7852 14.8887 50.792 14.8887Z" fill="#040000"/>
<path d="M71.7559 38.0668C71.8352 43.6577 70.9456 49.209 71.0249 54.8093C71.0608 57.3309 70.9153 60.3303 72.7513 62.3287C73.6428 63.2996 74.6628 63.394 75.7262 63.1012C75.2464 61.4523 75.3012 59.5899 75.2766 57.9315C75.1973 52.3312 76.0869 46.7799 76.0076 41.189C75.9018 34.3213 74.8819 27.4365 69.3741 22.6993C68.339 21.821 67.2152 21.0523 66.0195 20.4082C70.7416 25.1 71.6558 31.59 71.7559 38.0668Z" fill="#DAE9E9"/>
<path d="M88.9922 57.4062V53.0808C88.9922 52.3007 89.6249 51.668 90.405 51.668H91.6668C92.4469 51.668 93.0796 52.3007 93.0796 53.0808V57.4062C93.0796 58.1863 92.4469 58.819 91.6668 58.819H90.405C89.6249 58.819 88.9922 58.1863 88.9922 57.4062Z" fill="#363838"/>
<path d="M88.8738 53.2012H93.1992C93.9792 53.2012 94.612 53.8339 94.612 54.614V55.8757C94.612 56.6558 93.9792 57.2886 93.1992 57.2886H88.8738C88.0937 57.2886 87.4609 56.6558 87.4609 55.8757V54.614C87.4609 53.8339 88.0937 53.2012 88.8738 53.2012Z" fill="#363838"/>
<path d="M49.6855 45.2011C49.1793 44.7724 48.4257 44.8158 47.9742 45.3012C47.3415 45.9737 46.4405 47.0994 46.7692 47.6472C47.3226 48.5708 51.3893 48.5651 51.3893 47.4583C51.3893 46.7859 50.4335 45.8396 49.6855 45.2011Z" fill="#7A281D"/>
<path d="M74.6214 52.6312C74.6214 52.6312 77.5188 52.6312 79.5493 48.2605C81.3512 44.3827 84.566 43.2306 85.4897 48.2605C86.4133 53.2904 84.5339 63.0594 73.2954 65.0219C73.2954 65.0219 70.8683 57.8897 74.6214 52.6312Z" fill="white"/>
<path d="M87.7969 61.4375V61.4394C87.8026 61.4433 87.8083 61.449 87.8122 61.4547C87.8064 61.449 87.8026 61.4432 87.7969 61.4375Z" fill="#DAE9E9"/>
<path d="M89.5565 66.2412V66.0391C89.5565 65.9881 89.5546 65.9352 89.5546 65.8842C89.5546 65.8616 89.5546 65.837 89.5527 65.8143C89.5508 65.7917 89.549 65.7671 89.549 65.7445C89.5433 65.6236 89.5357 65.5008 89.5263 65.378C89.5244 65.3667 89.5244 65.3572 89.5244 65.3459C89.4526 64.3127 89.1353 63.3117 88.597 62.4277C88.3817 62.0688 88.1172 61.7401 87.8112 61.4549C87.6998 61.3511 87.5846 61.2547 87.4637 61.1641C87.458 61.2132 88.9936 65.4498 84.8363 67.2404C84.74 67.282 84.6474 67.3254 84.5549 67.3632C82.2354 68.3208 80.9057 67.1913 79.6893 66.2979C79.6893 66.2979 77.8987 66.8494 76.5217 64.8378C76.5217 64.8378 77.1413 72.0645 82.0352 72.9994C81.7273 73.4093 81.4119 73.8097 81.0889 74.1969C75.2846 81.1535 66.7244 84.4022 57.8205 85.2484C49.5569 86.0342 40.8041 84.8272 33.5586 80.583C34.6333 81.5747 35.7969 82.4624 37.0359 83.2387C44.4269 87.8626 53.5102 89.1866 62.0722 88.3725C70.978 87.5264 79.0188 84.0188 84.8231 77.0623C86.3191 75.2679 87.6885 73.2072 88.5592 70.984C88.8067 70.3834 89.0088 69.7639 89.1636 69.133C89.4035 68.2283 89.5357 67.2971 89.5584 66.3602C89.5565 66.3187 89.5565 66.2809 89.5565 66.2412Z" fill="#DAE9E9"/>
<path d="M79.6562 65.9004C79.6562 65.9004 81.8851 68.6278 84.8052 66.2952L79.6562 65.9004Z" fill="white"/>
<path d="M82.4261 68.1957C80.3446 68.1957 78.945 66.5222 78.9242 66.4996C78.5937 66.0954 78.6541 65.5004 79.0583 65.1698C79.4607 64.8412 80.0537 64.8997 80.3843 65.3002C80.6657 65.6345 82.1598 67.2022 84.2167 65.5589C84.6247 65.2341 85.2178 65.3002 85.5445 65.7082C85.8694 66.1161 85.8033 66.7092 85.3953 67.036C84.3168 67.8935 83.31 68.1957 82.4261 68.1957Z" fill="#040000"/>
<path d="M79.1539 71.8748C76.9629 71.072 76.2734 65.2129 76.2734 65.2129L79.1539 71.8748Z" fill="white"/>
<path d="M79.1538 72.8191C79.0461 72.8191 78.9366 72.8002 78.8289 72.7605C76.2242 71.8067 75.4611 66.3971 75.3346 65.3223C75.2741 64.8048 75.6443 64.3345 76.1619 64.274C76.6813 64.2136 77.1497 64.5838 77.2102 65.1013C77.637 68.7052 78.8157 70.7451 79.4768 70.9869C79.966 71.1663 80.2172 71.7084 80.0377 72.1995C79.8999 72.5811 79.5391 72.8191 79.1538 72.8191Z" fill="#040000"/>
<path d="M33.2839 17.8233L36.3344 19.1549C36.8274 19.3702 37.0521 19.9425 36.8368 20.4355C36.7688 20.5923 36.6593 20.7283 36.5233 20.8303L33.8449 22.806L31.1666 24.7817C30.734 25.1009 30.1239 25.0083 29.8047 24.5758C29.7027 24.4379 29.6404 24.2774 29.6215 24.1074L29.2494 20.8L28.8773 17.4927C28.8169 16.9582 29.2022 16.4765 29.7367 16.4161C29.9067 16.3972 30.0786 16.4237 30.2335 16.4916L33.2839 17.8233Z" fill="#4C4C4C"/>
<path d="M30.5919 25.9163C30.4955 25.9163 30.3973 25.9087 30.301 25.8936C29.7948 25.8161 29.349 25.5479 29.0449 25.1362C28.8447 24.8661 28.7201 24.5469 28.6823 24.2106L27.9381 17.5979C27.8191 16.5477 28.5784 15.5957 29.6305 15.4767C29.9686 15.439 30.3067 15.4918 30.6127 15.626L36.7117 18.2873C37.6806 18.7104 38.1245 19.8437 37.7014 20.8108C37.5711 21.113 37.3577 21.3812 37.0894 21.5833L31.727 25.5385C31.3927 25.7859 30.9999 25.9163 30.5919 25.9163ZM29.8534 17.3561C29.825 17.3561 29.8137 17.3693 29.8156 17.3863L30.5598 24.001C30.573 24.0255 30.5938 24.0293 30.6051 24.0218L35.9618 20.0704C35.9637 20.0685 35.9693 20.0609 35.9693 20.0609C35.9769 20.0439 35.9713 20.0288 35.9561 20.0212L32.9057 18.6896L29.8552 17.358C29.8552 17.3561 29.8534 17.3561 29.8534 17.3561Z" fill="#040000"/>
<path d="M66.5448 18.1944L63.4943 19.526C63.0013 19.7413 62.7766 20.3136 62.9919 20.8066C63.0599 20.9634 63.1694 21.0994 63.3054 21.2014L65.9838 23.1771L68.6621 25.1528C69.0947 25.472 69.7048 25.3794 70.024 24.9469C70.126 24.809 70.1883 24.6485 70.2072 24.4785L70.5793 21.1711L70.9514 17.8638C71.0118 17.3293 70.6265 16.8476 70.092 16.7872C69.922 16.7683 69.7501 16.7947 69.5952 16.8627L66.5448 18.1944Z" fill="#4C4C4C"/>
<path d="M69.2384 26.2867C68.8323 26.2867 68.4376 26.1582 68.1051 25.9127L62.7484 21.9613C62.4727 21.7554 62.2611 21.4872 62.1289 21.1812C61.9249 20.7146 61.9155 20.1933 62.1025 19.7173C62.2895 19.2414 62.6502 18.8655 63.1205 18.6615L66.171 17.3299L69.2214 15.9983C69.5274 15.8642 69.8655 15.8132 70.1998 15.849C70.7098 15.9076 71.1669 16.1588 71.4861 16.5592C71.8053 16.9597 71.9508 17.4621 71.8941 17.9702L71.1499 24.5848C71.1121 24.9192 70.9875 25.2384 70.7873 25.5085C70.4832 25.9202 70.0374 26.1884 69.5312 26.2659C69.4311 26.2791 69.3348 26.2867 69.2384 26.2867ZM66.9246 19.0581L63.8742 20.3898C63.8628 20.3954 63.8534 20.4143 63.8591 20.4257C63.861 20.4294 63.8647 20.437 63.8742 20.4427L69.2252 24.3903C69.2365 24.3978 69.2592 24.3941 69.2668 24.3827L70.0147 17.7549C70.0166 17.7398 70.0015 17.7246 69.9883 17.7228L66.9246 19.0581Z" fill="#040000"/>
<path d="M62.2744 24.8228C61.5774 23.6385 56.6892 22.0859 56.0677 21.8932L53.9825 18.1099L51.3627 13.3557C50.9396 12.587 49.9744 12.3074 49.2056 12.7305C48.962 12.8647 48.7561 13.0611 48.6125 13.301L45.8039 17.9475L43.6015 21.591C43.6034 21.5797 43.6034 21.5683 43.6053 21.557C43.6053 21.557 38.0427 23.1228 37.2702 24.3695C36.6053 25.4442 62.9544 25.9769 62.2744 24.8228Z" fill="white"/>
<path d="M53.7555 26.4149C52.4805 26.4149 51.1262 26.4017 49.7361 26.3753C46.6308 26.3148 43.6843 26.1939 41.4347 26.0353C37.3114 25.7425 36.9468 25.4252 36.6805 25.1948C36.2857 24.851 36.1989 24.307 36.4671 23.8726C37.2868 22.5485 41.0815 21.3038 43.0099 20.7447L47.8057 12.8116C48.0324 12.4339 48.3591 12.1185 48.752 11.9031C49.3451 11.5764 50.0288 11.5008 50.6786 11.6897C51.3283 11.8786 51.8667 12.3073 52.1915 12.9004L56.7134 21.1055C58.9233 21.81 62.342 23.0717 63.09 24.3429C63.3526 24.7868 63.2525 25.3326 62.8482 25.6689C62.5706 25.8993 62.191 26.2147 58.0488 26.3526C56.8059 26.3942 55.344 26.4149 53.7555 26.4149ZM39.5496 23.9916C44.0545 24.4638 55.4384 24.6791 59.9772 24.3788C58.9667 23.899 57.5086 23.3286 55.7897 22.796C55.5555 22.7242 55.361 22.5636 55.242 22.3502L50.5369 13.8127C50.4538 13.6616 50.3178 13.5521 50.1516 13.5048C49.9873 13.4576 49.8116 13.4765 49.6624 13.5596C49.5642 13.6144 49.481 13.6937 49.4244 13.7882L44.4114 22.082C44.2396 22.3672 43.9374 22.5315 43.62 22.5372C42.0995 22.9754 40.6092 23.5156 39.5496 23.9916Z" fill="#040000"/>
<path d="M94.737 32.2001C94.1212 32.2001 93.5055 32.1415 92.9124 32.0282C89.4048 31.3576 86.9494 28.8361 86.5036 25.4494C86.1258 22.5765 86.855 19.3013 88.5587 16.2282C88.6852 15.9977 88.9289 15.8542 89.1914 15.8542C89.5559 15.8542 89.8582 16.1167 89.9092 16.4756C90.0149 17.2141 90.3153 19.0255 90.8253 19.8868C90.9745 20.1418 91.0727 20.1853 91.0783 20.1872C91.237 20.2552 91.3635 20.2892 91.4542 20.2892C91.7035 20.2892 92.0038 19.8547 92.3438 18.9972C92.5327 18.5193 92.7424 17.896 92.9842 17.0876C93.7378 14.5622 93.0276 12.545 92.6876 11.7932C92.5799 11.5552 92.5988 11.2814 92.7405 11.0623C92.8822 10.8432 93.122 10.7109 93.3808 10.7109C93.411 10.7109 93.4412 10.7128 93.4733 10.7166C94.21 10.8054 95.2998 11.3834 96.3141 13.6367C97.1981 15.5992 97.4625 17.7846 97.5834 19.2579C97.6155 19.6526 97.6401 20.019 97.6609 20.3458C97.6836 20.6877 97.7024 20.9975 97.727 21.2373C97.9612 21.0201 98.2861 20.5838 98.4863 19.9416C98.6449 19.4316 98.6884 18.9084 98.6166 18.389C98.3012 16.1432 99.3703 14.7795 100.385 14.2959C100.483 14.2487 100.587 14.2241 100.696 14.2241C101.087 14.2241 101.405 14.5301 101.42 14.9211C101.431 15.1912 101.433 15.4613 101.437 15.7333C101.446 16.5323 101.457 17.2878 101.642 18.0037C101.795 18.5892 101.981 19.1634 102.16 19.7206C102.302 20.155 102.445 20.6065 102.574 21.056C102.865 22.0816 103.008 22.9127 103.036 23.7532C103.089 25.2964 102.851 27.5026 101.41 29.2516C99.8935 31.0989 97.3984 32.2001 94.737 32.2001Z" fill="#E83E19"/>
<path d="M93.3766 11.2798C93.3842 11.2798 93.3917 11.2798 93.4012 11.2817C93.8885 11.3402 94.8404 11.7558 95.7924 13.8712C96.6103 15.6902 96.8823 17.7282 97.0145 19.3054C97.1014 20.3537 97.1259 21.198 97.2052 21.6419C97.2449 21.8628 97.3602 21.963 97.5169 21.963C97.9438 21.963 98.6767 21.2169 99.0223 20.1119C99.1885 19.5793 99.2641 18.9654 99.1715 18.31C98.8618 16.1095 100.023 15.0933 100.622 14.8062C100.645 14.7949 100.667 14.7911 100.688 14.7911C100.769 14.7911 100.843 14.8553 100.845 14.9441C100.887 16.0113 100.817 17.1087 101.087 18.1475C101.364 19.2128 101.735 20.1988 102.022 21.2112C102.254 22.0291 102.434 22.8639 102.464 23.7724C102.526 25.5819 102.141 27.4651 100.966 28.8911C99.4643 30.7139 97.0523 31.6318 94.729 31.6318C94.1529 31.6318 93.5768 31.5789 93.0102 31.4713C89.8086 30.8593 87.4854 28.6286 87.0566 25.3761C86.6581 22.3502 87.576 19.1543 89.0437 16.5024C89.0739 16.4457 89.1286 16.4211 89.1815 16.4211C89.2552 16.4211 89.327 16.4703 89.3383 16.5571C89.4611 17.4147 89.7746 19.2412 90.3262 20.178C90.4792 20.4368 90.651 20.6276 90.8418 20.7107C91.0609 20.8051 91.2592 20.8599 91.4424 20.8599C91.9675 20.8599 92.3793 20.4179 92.8591 19.2109C93.0612 18.7028 93.2765 18.0588 93.5164 17.2541C94.3342 14.5134 93.5277 12.3016 93.1934 11.565C93.1386 11.429 93.2368 11.2798 93.3766 11.2798ZM93.3785 10.1465C93.3766 10.1465 93.3766 10.1465 93.3785 10.1465C92.9252 10.1465 92.5078 10.375 92.2603 10.7566C92.0129 11.14 91.9789 11.6141 92.1659 12.0296C92.4114 12.5698 93.1537 14.521 92.436 16.9274C92.1999 17.7207 91.9959 18.3308 91.8127 18.7897C91.6011 19.3205 91.45 19.5717 91.365 19.6869C91.3499 19.6661 91.331 19.6378 91.3084 19.6C90.9948 19.0712 90.6737 17.8434 90.4659 16.3966C90.3734 15.7544 89.837 15.2879 89.1872 15.2879C88.7188 15.2879 88.2862 15.5428 88.0577 15.9546C86.2973 19.1335 85.5437 22.5334 85.9384 25.5253C86.4163 29.1631 89.0475 31.8679 92.8024 32.5857C93.4314 32.7066 94.0812 32.767 94.7347 32.767C97.5623 32.767 100.222 31.5884 101.848 29.6146C103.078 28.1205 103.684 26.0881 103.603 23.7366C103.572 22.8507 103.423 21.9762 103.117 20.9052C102.987 20.4462 102.84 19.991 102.698 19.5509C102.52 19.0032 102.337 18.4346 102.188 17.8642C102.02 17.2163 102.01 16.4948 102.001 15.7317C101.997 15.4616 101.993 15.1821 101.982 14.9025C101.956 14.2056 101.387 13.6597 100.692 13.6597C100.501 13.6597 100.309 13.7031 100.137 13.7862C99.062 14.3 97.9287 15.6373 97.9929 17.783C97.8154 16.4495 97.4886 14.8742 96.8275 13.4066C95.7055 10.9115 94.4192 10.2617 93.5372 10.1559C93.4843 10.1503 93.4295 10.1465 93.3785 10.1465Z" fill="#77271C"/>
<path d="M97.8989 24.9433C97.8592 24.8923 97.7515 24.9074 97.7402 24.9641C97.6741 25.289 97.506 25.984 97.2094 26.3373C97.1263 26.4355 97.0357 26.5072 96.9318 26.5394C96.656 26.6244 96.4445 26.6225 96.2424 26.4714C96.2424 26.4714 96.1177 26.3373 95.9439 26.1276C95.5737 25.6818 95.2016 24.9565 94.8503 24.2935C94.7898 24.1783 94.7691 24.1349 94.7162 24.1368C94.6614 24.1368 94.6501 24.1802 94.5972 24.2935C94.3328 24.8621 93.8757 25.6818 93.5036 26.1276C93.3298 26.3373 93.2051 26.4714 93.2051 26.4714C93.003 26.6225 92.7915 26.6225 92.5157 26.5394C92.4137 26.5072 92.3212 26.4355 92.2381 26.3373C91.9415 25.9822 91.7734 25.289 91.7073 24.9641C91.696 24.9074 91.5883 24.8942 91.5486 24.9433C90.7591 25.95 90.2661 27.1627 90.4796 28.3111C90.71 29.5464 91.9585 30.3926 93.6792 30.6249C93.9833 30.6664 94.2931 30.6853 94.6028 30.6853C94.6425 30.6853 94.6841 30.6853 94.7237 30.6834C94.7634 30.6834 94.8049 30.6853 94.8446 30.6853C95.1544 30.6853 95.4642 30.6645 95.7683 30.6249C97.489 30.3926 98.7375 29.5464 98.9679 28.3111C99.1814 27.1627 98.6884 25.95 97.8989 24.9433Z" fill="#F49B24"/>
<path d="M90.0651 25.3235C90.7202 25.3235 91.2512 24.7925 91.2512 24.1374C91.2512 23.4822 90.7202 22.9512 90.0651 22.9512C89.41 22.9512 88.8789 23.4822 88.8789 24.1374C88.8789 24.7925 89.41 25.3235 90.0651 25.3235Z" fill="white"/>
<path d="M99.1471 25.3235C99.8022 25.3235 100.333 24.7925 100.333 24.1374C100.333 23.4822 99.8022 22.9512 99.1471 22.9512C98.492 22.9512 97.9609 23.4822 97.9609 24.1374C97.9609 24.7925 98.492 25.3235 99.1471 25.3235Z" fill="white"/>
<path d="M7.55143 43.8417C7.03579 43.8417 6.52201 43.7926 6.02336 43.6982C3.08058 43.1353 1.01988 41.0198 0.647782 38.1753C0.332349 35.7802 0.940559 33.0509 2.35717 30.4915C2.47995 30.2705 2.71416 30.1327 2.96726 30.1327C3.31858 30.1327 3.60949 30.3839 3.6586 30.7314C3.83804 31.9913 4.11568 33.032 4.40278 33.5155C4.50478 33.6874 4.56898 33.7252 4.56898 33.7252C4.71253 33.7875 4.79567 33.8007 4.83722 33.8007C4.89389 33.8007 5.11108 33.729 5.48129 32.7959C5.63618 32.4049 5.80996 31.8912 6.00828 31.2244C6.62215 29.1694 6.04417 27.528 5.7684 26.916C5.66451 26.6875 5.68529 26.4268 5.8194 26.2171C5.95539 26.0075 6.18394 25.8828 6.43138 25.8828C6.45971 25.8828 6.48992 25.8847 6.51825 25.8885C7.1529 25.964 8.08788 26.4551 8.94541 28.3591C9.68205 29.9948 9.90112 31.8118 10.0031 33.0377C10.0296 33.3644 10.0504 33.6685 10.0674 33.9405C10.0787 34.1256 10.09 34.3013 10.1032 34.4543C10.26 34.2616 10.4375 33.9689 10.5584 33.5817C10.685 33.1737 10.7209 32.7562 10.6623 32.3407C10.3941 30.4311 11.3121 29.2695 12.179 28.8539C12.2735 28.8086 12.3736 28.7859 12.4794 28.7859C12.8553 28.7859 13.1612 29.0806 13.1764 29.4565C13.1858 29.6812 13.1877 29.906 13.1915 30.1327C13.199 30.7862 13.2085 31.4057 13.3577 31.9837C13.4823 32.4654 13.6372 32.9395 13.7845 33.3984C13.9017 33.7592 14.0207 34.1313 14.1283 34.5053C14.372 35.3609 14.491 36.056 14.5155 36.7586C14.5609 38.0506 14.3588 39.8998 13.148 41.3712C11.8712 42.9181 9.78024 43.8417 7.55143 43.8417Z" fill="#E83E19"/>
<path d="M6.4304 26.4497C6.43607 26.4497 6.4436 26.4497 6.45116 26.4516C6.85347 26.4988 7.64115 26.8426 8.42879 28.5916C9.10499 30.0951 9.32973 31.78 9.43928 33.0851C9.51106 33.9521 9.53185 34.651 9.59796 35.0174C9.63196 35.1987 9.72638 35.2818 9.85671 35.2818C10.2099 35.2818 10.8162 34.6642 11.1015 33.7519C11.2393 33.3118 11.3017 32.8037 11.2261 32.2635C10.9711 30.4446 11.9306 29.604 12.4255 29.3679C12.4444 29.3585 12.4633 29.3547 12.4803 29.3547C12.5464 29.3547 12.6087 29.4076 12.6106 29.4813C12.6446 30.3633 12.5861 31.27 12.8108 32.1294C13.0394 33.0096 13.3454 33.8255 13.5833 34.6623C13.776 35.3385 13.9234 36.0298 13.9498 36.7797C14.0008 38.2756 13.6835 39.832 12.7126 41.0125C11.4717 42.5198 9.47707 43.2772 7.55613 43.2772C7.08015 43.2772 6.60228 43.2338 6.13574 43.1431C3.4895 42.6369 1.56856 40.7934 1.21535 38.1037C0.886692 35.6029 1.6441 32.9605 2.85861 30.7675C2.88506 30.7222 2.92852 30.6995 2.97196 30.6995C3.0324 30.6995 3.09283 30.7392 3.10228 30.811C3.20427 31.5193 3.46306 33.0304 3.92015 33.8029C4.0467 34.0163 4.18837 34.175 4.34703 34.243C4.52836 34.3204 4.69266 34.3658 4.84377 34.3658C5.2782 34.3658 5.61822 33.9993 6.01487 33.0039C6.18298 32.5827 6.35862 32.0501 6.55883 31.3852C7.23503 29.1186 6.56829 27.2921 6.29063 26.682C6.23397 26.5725 6.31519 26.4497 6.4304 26.4497ZM6.4304 25.3164C5.98842 25.3164 5.58232 25.5393 5.34244 25.9114C5.10256 26.2835 5.06857 26.7481 5.25178 27.1505C5.44822 27.5811 6.0394 29.1375 5.4652 31.0622C5.27065 31.712 5.10444 32.2106 4.95522 32.5846C4.88723 32.7584 4.82679 32.8906 4.77579 32.9945C4.56614 32.5015 4.36026 31.6421 4.2186 30.6504C4.12794 30.0215 3.60282 29.5644 2.96629 29.5644C2.50731 29.5644 2.08424 29.8137 1.86136 30.216C0.386186 32.8811 -0.244708 35.7333 0.0858358 38.2492C0.491932 41.3431 2.72643 43.6436 5.91854 44.2537C6.45119 44.3557 7.00082 44.4067 7.55235 44.4067C9.94738 44.4067 12.2026 43.4056 13.5833 41.7284C14.6298 40.4572 15.1473 38.7308 15.0793 36.7362C15.0529 35.9864 14.9282 35.2497 14.6713 34.3488C14.5618 33.9653 14.4409 33.5876 14.3219 33.223C14.1689 32.7508 14.0254 32.305 13.9045 31.8404C13.7704 31.3285 13.7628 30.743 13.7553 30.1235C13.7515 29.8987 13.7496 29.6664 13.7401 29.434C13.7137 28.7522 13.1584 28.2195 12.4765 28.2195C12.2895 28.2195 12.1006 28.263 11.9325 28.3423C11.2431 28.6728 10.5254 29.383 10.2118 30.471C10.0456 29.7023 9.80951 28.8976 9.46197 28.1251C8.49678 25.9794 7.36538 25.4165 6.5853 25.324C6.5343 25.3202 6.48329 25.3164 6.4304 25.3164Z" fill="#77271C"/>
<path d="M10.1662 37.7449C10.1341 37.7033 10.0453 37.7147 10.0358 37.7619C9.98106 38.0301 9.84321 38.6043 9.59766 38.8971C9.52966 38.9783 9.45412 39.0387 9.36912 39.0633C9.14057 39.1332 8.96491 39.1332 8.79869 39.0085C8.79869 39.0085 8.69669 38.8989 8.55125 38.7252C8.24526 38.3569 7.93737 37.7562 7.64649 37.2085C7.5955 37.114 7.57848 37.0781 7.53504 37.0781C7.48971 37.0781 7.48026 37.114 7.43682 37.2085C7.21771 37.6788 6.83999 38.3569 6.53211 38.7252C6.38856 38.8989 6.28466 39.0085 6.28466 39.0085C6.11845 39.1332 5.94278 39.1332 5.71423 39.0633C5.62924 39.0368 5.55369 38.9783 5.48569 38.8971C5.24015 38.6043 5.10036 38.0301 5.04747 37.7619C5.03803 37.7147 4.94927 37.7033 4.91716 37.7449C4.26362 38.5778 3.85754 39.5789 4.0332 40.529C4.22397 41.5509 5.25527 42.2497 6.67755 42.4424C6.92876 42.4764 7.18561 42.4934 7.4406 42.4934C7.4746 42.4934 7.50671 42.4934 7.54071 42.4934C7.57471 42.4934 7.60682 42.4934 7.64082 42.4934C7.8977 42.4934 8.1527 42.4764 8.40391 42.4424C9.8262 42.2497 10.8594 41.5509 11.0483 40.529C11.2258 39.5789 10.8178 38.576 10.1662 37.7449Z" fill="#F49B24"/>
<path d="M3.69122 38.0602C4.23263 38.0602 4.67151 37.6213 4.67151 37.0799C4.67151 36.5385 4.23263 36.0996 3.69122 36.0996C3.14982 36.0996 2.71094 36.5385 2.71094 37.0799C2.71094 37.6213 3.14982 38.0602 3.69122 38.0602Z" fill="white"/>
<path d="M11.2029 38.0602C11.7443 38.0602 12.1832 37.6213 12.1832 37.0799C12.1832 36.5385 11.7443 36.0996 11.2029 36.0996C10.6615 36.0996 10.2227 36.5385 10.2227 37.0799C10.2227 37.6213 10.6615 38.0602 11.2029 38.0602Z" fill="white"/>
<path d="M29.8453 12.0032C29.5148 12.0032 29.1861 11.973 28.8688 11.9126C26.9706 11.5499 25.6408 10.1824 25.399 8.34457C25.2007 6.83163 25.5804 5.1128 26.4719 3.50352C26.5852 3.29764 26.8024 3.1692 27.0366 3.1692C27.3615 3.1692 27.6316 3.40342 27.677 3.72452C27.7809 4.45738 27.9452 5.08069 28.1038 5.3489C28.119 5.37346 28.1303 5.39045 28.1378 5.40179C28.1794 5.34701 28.2587 5.22046 28.372 4.93903C28.4646 4.7067 28.5685 4.39694 28.6875 3.99462C29.052 2.77444 28.6742 1.7847 28.5515 1.51082C28.457 1.30305 28.474 1.06505 28.5987 0.872394C28.7215 0.681623 28.9312 0.566406 29.1578 0.566406H29.1918L29.2371 0.572072C29.681 0.624959 30.3308 0.953615 30.8974 2.21346C31.3224 3.15598 31.4735 4.18539 31.5453 4.94092C31.5434 4.88425 31.5396 4.82759 31.532 4.77281C31.3507 3.48652 31.9854 2.69511 32.5822 2.4099C32.6691 2.36834 32.7654 2.34568 32.8618 2.34568C33.2112 2.34568 33.4945 2.61955 33.5077 2.9671C33.5134 3.10498 33.5153 3.24664 33.5172 3.38642C33.5229 3.77362 33.5266 4.13817 33.6116 4.46682C33.6872 4.75581 33.7798 5.04291 33.8685 5.32057C33.9403 5.54345 34.0158 5.77389 34.0801 6.00621C34.2349 6.5483 34.3105 6.99029 34.3256 7.43794C34.3672 8.62789 34.0593 9.65542 33.4379 10.4091C32.6181 11.4082 31.2752 12.0032 29.8453 12.0032Z" fill="#E83E19"/>
<path d="M29.1547 1.13329C29.1585 1.13329 29.1622 1.13329 29.166 1.13329C29.4134 1.16351 29.8951 1.37317 30.3768 2.44414C30.7904 3.36588 30.9283 4.39718 30.9944 5.19615C31.0378 5.72691 31.0511 6.15378 31.0907 6.37855C31.1115 6.48999 31.17 6.54099 31.2494 6.54099C31.4666 6.54099 31.8368 6.16322 32.0106 5.60413C32.0956 5.33403 32.1333 5.02426 32.0861 4.69183C31.9293 3.57743 32.5187 3.06367 32.8209 2.91823C32.8322 2.91256 32.8435 2.91067 32.8549 2.91067C32.8964 2.91067 32.9323 2.94278 32.9342 2.98811C32.955 3.52832 32.9191 4.08363 33.057 4.60872C33.1968 5.14704 33.3856 5.64758 33.5311 6.15945C33.6482 6.5731 33.7388 6.9962 33.7558 7.45518C33.7879 8.37126 33.5915 9.32511 32.9984 10.0466C32.2391 10.9703 31.0171 11.433 29.8403 11.433C29.5494 11.433 29.2566 11.4066 28.9695 11.3518C27.3489 11.042 26.1722 9.91253 25.9569 8.26548C25.7548 6.73365 26.2194 5.11682 26.9636 3.77386C26.9788 3.74553 27.0071 3.73231 27.0335 3.73231C27.0713 3.73231 27.1072 3.75687 27.1129 3.80031C27.1752 4.23474 27.3338 5.16026 27.6134 5.63246C27.6908 5.76279 27.7777 5.86101 27.8741 5.90257C27.9855 5.94979 28.0856 5.97812 28.1781 5.97812C28.4445 5.97812 28.6522 5.75335 28.8959 5.14326C28.9979 4.88638 29.1075 4.55961 29.2283 4.15163C29.642 2.76335 29.234 1.64516 29.064 1.27118C29.0338 1.20885 29.0848 1.13329 29.1547 1.13329ZM29.1547 0C28.7354 0 28.3481 0.211546 28.1196 0.564756C27.891 0.917965 27.8589 1.35995 28.0327 1.74338C28.1271 1.95115 28.3935 2.64624 28.2159 3.53965C28.0894 2.99945 27.5983 2.6028 27.0335 2.6028C26.5934 2.6028 26.1873 2.84268 25.972 3.228C25.0238 4.94116 24.6196 6.78465 24.833 8.41659C25.1069 10.5056 26.6123 12.0582 28.758 12.4681C29.1112 12.5361 29.4758 12.5701 29.8403 12.5701C31.4383 12.5701 32.9456 11.8977 33.873 10.7701C34.5832 9.90687 34.9345 8.74902 34.8891 7.41929C34.8665 6.77709 34.7267 6.21611 34.6228 5.85157C34.5548 5.6098 34.4774 5.3737 34.4037 5.14704C34.313 4.8656 34.2262 4.59739 34.1544 4.3254C34.0864 4.06285 34.0826 3.73042 34.0769 3.3791C34.075 3.23366 34.0732 3.08822 34.0675 2.94467C34.043 2.29114 33.5103 1.77927 32.8549 1.77927C32.6754 1.77927 32.4941 1.82082 32.3317 1.89827C32.0804 2.01915 31.8236 2.20425 31.6007 2.45736C31.544 2.29869 31.4798 2.13814 31.408 1.98137C30.7318 0.479759 29.8876 0.0812199 29.2982 0.00944468C29.2529 0.00377822 29.2038 0 29.1547 0Z" fill="#77271C"/>
<path d="M31.445 8.05245C31.4242 8.0279 31.3714 8.03356 31.3657 8.0619C31.3317 8.22622 31.2467 8.57755 31.0975 8.75698C31.0559 8.80609 31.0087 8.84387 30.9577 8.85898C30.8179 8.90242 30.7103 8.90242 30.6083 8.82498C30.6083 8.82498 30.5459 8.75698 30.4572 8.65121C30.2702 8.42644 30.0813 8.05812 29.9038 7.72191C29.8735 7.66335 29.8622 7.64258 29.8357 7.64258C29.8074 7.64258 29.8017 7.66335 29.7753 7.72191C29.6412 8.00901 29.4089 8.42455 29.2219 8.65121C29.1331 8.75698 29.0708 8.82498 29.0708 8.82498C28.9688 8.90242 28.8611 8.90242 28.7214 8.85898C28.6685 8.84387 28.6231 8.80609 28.5816 8.75698C28.4305 8.57755 28.3454 8.22622 28.3133 8.0619C28.3077 8.03356 28.2529 8.02601 28.234 8.05245C27.8336 8.56243 27.5843 9.1763 27.6938 9.75806C27.811 10.3833 28.4418 10.812 29.3144 10.9291C29.4693 10.9499 29.6261 10.9593 29.7828 10.9593C29.8036 10.9593 29.8244 10.9593 29.8433 10.9593C29.8641 10.9593 29.8849 10.9593 29.9038 10.9593C30.0605 10.9593 30.2173 10.9499 30.3722 10.9291C31.2429 10.812 31.8757 10.3833 31.9928 9.75806C32.0929 9.1763 31.8436 8.56055 31.445 8.05245Z" fill="#F49B24"/>
<path d="M27.4795 8.24426C27.8113 8.24426 28.0802 7.97534 28.0802 7.64362C28.0802 7.31189 27.8113 7.04297 27.4795 7.04297C27.1478 7.04297 26.8789 7.31189 26.8789 7.64362C26.8789 7.97534 27.1478 8.24426 27.4795 8.24426Z" fill="white"/>
<path d="M32.0772 8.24426C32.409 8.24426 32.6779 7.97534 32.6779 7.64362C32.6779 7.31189 32.409 7.04297 32.0772 7.04297C31.7455 7.04297 31.4766 7.31189 31.4766 7.64362C31.4766 7.97534 31.7455 8.24426 32.0772 8.24426Z" fill="white"/>
<path d="M38.2628 43.115L32.2866 40.9088C31.3478 40.5632 30.8681 39.5206 31.2137 38.5837L31.4234 38.0171C31.7691 37.0783 32.8117 36.5986 33.7485 36.9442L39.7248 39.1504C40.6635 39.496 41.1433 40.5386 40.7976 41.4755L40.588 42.0421C40.2423 42.9809 39.1997 43.4606 38.2628 43.115Z" fill="#B62322"/>
<path d="M59.8462 43.1169L65.8224 40.9108C66.7612 40.5651 67.2409 39.5225 66.8953 38.5857L66.6856 38.019C66.34 37.0803 65.2973 36.6005 64.3605 36.9462L58.3843 39.1523C57.4455 39.498 56.9657 40.5406 57.3114 41.4774L57.5211 42.0441C57.8667 42.9828 58.9094 43.4626 59.8462 43.1169Z" fill="#B62322"/>
<path d="M60.6397 50.5481C60.43 50.5481 60.2109 50.5368 59.9843 50.516C59.5687 50.4763 59.2646 50.1061 59.3043 49.6906C59.3439 49.275 59.7142 48.9709 60.1297 49.0106C61.1515 49.1088 61.8655 48.9294 62.2546 48.4761C62.8156 47.8225 62.6777 46.6194 62.5852 46.251C62.4832 45.8468 62.7287 45.4351 63.1329 45.335C63.5371 45.2349 63.9489 45.4785 64.049 45.8827C64.0717 45.9715 64.5854 48.0832 63.3992 49.462C62.7778 50.1836 61.8523 50.5481 60.6397 50.5481Z" fill="#DC3A14"/>
<path d="M68.9377 50.3827C67.7251 50.3827 66.7976 50.0182 66.1781 49.2966C64.9919 47.9178 65.5057 45.8061 65.5284 45.7173C65.6304 45.3131 66.0403 45.0676 66.4445 45.1696C66.8487 45.2716 67.0942 45.6796 66.9941 46.0838C66.8959 46.4861 66.7656 47.6685 67.3265 48.3145C67.7175 48.764 68.4296 48.9434 69.4477 48.8452C69.8632 48.8056 70.2316 49.1097 70.2731 49.5252C70.3128 49.9407 70.0087 50.3091 69.5931 50.3506C69.3665 50.3714 69.1474 50.3827 68.9377 50.3827Z" fill="#DC3A14"/>
<path d="M63.3144 55.9902C63.254 55.9902 63.1916 55.9826 63.1293 55.9675C62.7251 55.8655 62.4796 55.4556 62.5797 55.0533C62.6779 54.651 62.8082 53.4686 62.2472 52.8226C61.8581 52.3731 61.1442 52.1936 60.1261 52.2918C59.7106 52.3334 59.3422 52.0274 59.3007 51.6119C59.2591 51.1963 59.5651 50.828 59.9806 50.7864C61.52 50.6391 62.6684 50.9923 63.3956 51.8404C64.5818 53.2193 64.0681 55.331 64.0454 55.4197C63.9604 55.7616 63.6525 55.9902 63.3144 55.9902Z" fill="#DC3A14"/>
<path d="M66.2594 56.158C65.9213 56.158 65.6134 55.9295 65.5284 55.5876C65.5057 55.4988 64.9919 53.3871 66.1781 52.0083C66.9072 51.1621 68.0556 50.807 69.5931 50.9543C70.0087 50.994 70.3128 51.3642 70.2731 51.7797C70.2334 52.1953 69.8632 52.4994 69.4477 52.4597C68.4315 52.3615 67.7156 52.5409 67.3265 52.9905C66.7656 53.6383 66.8959 54.8207 66.9941 55.223C67.0923 55.6273 66.8449 56.0371 66.4426 56.1372C66.3821 56.1523 66.3198 56.158 66.2594 56.158Z" fill="#DC3A14"/>
</svg>
