<svg width="284" height="231" viewBox="0 0 284 231" fill="none" xmlns="http://www.w3.org/2000/svg">
<path d="M214.145 142.243C214.145 142.243 228.089 140.119 234.441 129.341C240.075 119.779 249.03 117.481 250.577 130.543C252.124 143.605 245.152 168.236 214.247 170.98C214.252 170.98 201.001 155.853 214.145 142.243Z" fill="white"/>
<path d="M214.247 173.404C214.319 173.404 214.387 173.399 214.46 173.394C227.478 172.24 237.588 167.328 244.516 158.805C252.143 149.418 253.888 137.903 252.987 130.257C252.555 126.596 251.038 120.293 245.753 119.182C241.287 118.237 236.152 121.665 232.351 128.109C226.649 137.782 213.907 139.828 213.776 139.847C213.253 139.929 212.768 140.177 212.399 140.56C204.874 148.351 205.243 156.608 206.872 162.17C208.53 167.818 211.745 171.784 212.39 172.541C212.85 173.089 213.529 173.404 214.247 173.404ZM244.279 123.881C244.443 123.881 244.603 123.895 244.754 123.929C246.422 124.278 247.702 126.863 248.167 130.833C248.919 137.19 247.43 147.532 240.749 155.755C234.911 162.945 226.363 167.207 215.333 168.444C214.324 167.052 212.535 164.269 211.522 160.812C209.747 154.756 211.042 149.272 215.367 144.492C218.683 143.813 230.538 140.744 236.526 130.581C239.188 126.062 242.315 123.881 244.279 123.881Z" fill="#040000"/>
<path d="M100.473 132.85C100.473 132.85 90.0582 132.85 82.7563 118.813C76.2787 106.362 64.7198 102.658 61.4034 118.813C58.087 134.968 64.841 166.334 105.244 172.637C105.239 172.637 113.966 149.737 100.473 132.85Z" fill="#040000"/>
<path d="M137.64 228.577C157.868 228.577 176.365 223.695 191.129 214.453C206.223 205.008 216.555 189.764 221.006 170.375C225.098 152.566 226.339 131.019 224.506 109.705C222.645 88.0563 216.177 71.038 205.287 59.1202C193.316 46.0195 176.234 39.377 154.527 39.377C139.574 39.377 118.779 43.5272 105.237 55.1686C89.9544 68.313 87.627 87.4454 87.3652 104.43C87.2634 111.712 87.7918 119.034 88.3106 126.117C88.8197 133.104 89.3434 140.329 89.2416 147.412C89.2319 147.97 89.2271 148.537 89.2222 149.109C89.1737 155.005 89.1252 161.105 85.4452 165.109C84.6355 166.108 83.4136 166.69 82.1287 166.685C81.9105 166.685 81.6924 166.671 81.4791 166.647C82.2694 164.571 82.2015 162.268 81.2899 160.246C79.0402 155.083 72.3056 151.635 67.3552 151.403C67.1031 151.393 66.8558 151.383 66.6085 151.383C57.3672 151.383 52.9599 159.524 52.698 167.587C52.378 177.42 56.6205 187.684 65.3043 198.094C79.6463 215.282 100.403 225.619 125.334 227.986C129.455 228.378 133.591 228.577 137.64 228.577Z" fill="white"/>
<path d="M154.535 41.7997C138.908 41.7997 119.194 46.3718 106.826 57.0047C92.6873 69.1649 90.069 86.8379 89.7975 104.467C89.5938 118.819 91.8776 133.069 91.6739 147.445C91.5818 153.918 91.9551 161.617 87.2423 166.747C85.972 168.245 84.1053 169.113 82.1416 169.108C80.6483 169.06 79.1792 168.72 77.8119 168.119C83.7659 161.084 73.613 154.126 67.2517 153.825C67.0384 153.816 66.8299 153.811 66.6214 153.811C58.951 153.811 55.3679 160.565 55.1352 167.668C54.7861 178.427 60.4929 188.527 67.1839 196.546C82.0835 214.403 102.724 223.407 125.585 225.579C129.57 225.957 133.604 226.156 137.643 226.156C155.878 226.156 174.322 222.117 189.847 212.401C205.261 202.752 214.619 187.397 218.648 169.835C223.021 150.79 223.768 129.379 222.095 109.912C220.577 92.2634 215.719 74.1201 203.501 60.7526C190.492 46.5124 172.523 41.7997 154.535 41.7997ZM154.535 36.9512C176.95 36.9512 194.633 43.8603 207.084 57.4847C218.342 69.8049 225.019 87.3033 226.929 109.495C228.781 131.052 227.521 152.865 223.375 170.917C218.774 190.946 208.068 206.713 192.417 216.507C177.265 225.991 158.322 231 137.638 231C133.512 231 129.304 230.796 125.119 230.399C112.77 229.225 101.39 226.166 91.2909 221.303C80.561 216.168 71.0675 208.784 63.4553 199.644C54.3739 188.764 49.9424 177.952 50.2867 167.503C50.6503 156.41 57.2152 148.953 66.6214 148.953C66.9026 148.953 67.1935 148.957 67.4796 148.972C73.2785 149.243 80.8665 153.171 83.5235 159.27C83.9841 160.308 84.2799 161.413 84.4011 162.543C86.7284 159.164 86.772 154.044 86.8108 149.079C86.8157 148.502 86.8205 147.93 86.8302 147.367C86.9321 140.39 86.4083 133.219 85.9041 126.281C85.3853 119.149 84.8471 111.769 84.9538 104.385C85.2253 86.8572 87.6593 67.0849 103.669 53.315C117.711 41.2518 139.151 36.9512 154.535 36.9512Z" fill="#040000"/>
<path d="M100.72 96.4482C100.517 110.8 102.8 125.05 102.597 139.426C102.505 145.899 102.878 153.598 98.165 158.728C95.8765 161.22 93.2583 161.462 90.5285 160.711C91.7601 156.478 91.6195 151.697 91.6826 147.44C91.8862 133.064 89.6025 118.815 89.8061 104.463C90.0776 86.8336 92.6959 69.1605 106.834 57.0004C109.491 54.7458 112.376 52.7725 115.445 51.1191C103.324 63.1629 100.977 79.8226 100.72 96.4482Z" fill="#DAE9E9"/>
<path d="M56.4766 146.085V134.982C56.4766 132.98 54.8523 131.355 52.8499 131.355H49.6111C47.6086 131.355 45.9844 132.98 45.9844 134.982V146.085C45.9844 148.088 47.6086 149.712 49.6111 149.712H52.8499C54.8523 149.712 56.4766 148.088 56.4766 146.085Z" fill="#363838"/>
<path d="M56.7874 135.295H45.6841C43.6817 135.295 42.0574 136.919 42.0574 138.922V142.161C42.0574 144.163 43.6817 145.787 45.6841 145.787H56.7874C58.7898 145.787 60.4141 144.163 60.4141 142.161V138.922C60.4141 136.919 58.7898 135.295 56.7874 135.295Z" fill="#363838"/>
<path d="M157.385 114.757C158.684 113.656 160.619 113.768 161.778 115.014C163.402 116.74 165.715 119.63 164.871 121.036C163.451 123.407 153.012 123.392 153.012 120.551C153.012 118.825 155.465 116.396 157.385 114.757Z" fill="#7A281D"/>
<path d="M93.3725 133.834C93.3725 133.834 85.9348 133.834 80.7226 122.614C76.0971 112.66 67.8449 109.702 65.4739 122.614C63.103 135.526 67.9273 160.603 96.7762 165.64C96.7762 165.64 103.007 147.332 93.3725 133.834Z" fill="white"/>
<path d="M59.5508 156.438V156.442C59.536 156.452 59.5213 156.467 59.5115 156.482C59.5262 156.467 59.536 156.452 59.5508 156.438Z" fill="#DAE9E9"/>
<path d="M55.0246 168.767V168.248C55.0246 168.117 55.0294 167.982 55.0294 167.851C55.0294 167.793 55.0294 167.73 55.0343 167.671C55.0391 167.613 55.044 167.55 55.044 167.492C55.0585 167.182 55.078 166.867 55.1022 166.551C55.1071 166.522 55.1071 166.498 55.1071 166.469C55.2913 163.817 56.1058 161.247 57.4877 158.978C58.0404 158.057 58.7192 157.213 59.5046 156.481C59.7907 156.214 60.0865 155.967 60.3968 155.734C60.4113 155.86 56.4694 166.736 67.1411 171.332C67.3884 171.439 67.6259 171.55 67.8635 171.647C73.8175 174.105 77.2309 171.206 80.3534 168.913C80.3534 168.913 84.9498 170.328 88.4844 165.165C88.4844 165.165 86.8941 183.715 74.3315 186.115C75.1218 187.167 75.9316 188.195 76.7607 189.189C91.6603 207.047 113.634 215.386 136.49 217.558C157.702 219.575 180.17 216.477 198.77 205.582C196.011 208.128 193.024 210.407 189.843 212.399C170.871 224.269 147.554 227.667 125.576 225.578C102.715 223.406 82.0747 214.402 67.1751 196.545C63.335 191.938 59.8198 186.649 57.5846 180.942C56.9495 179.4 56.4307 177.81 56.0331 176.19C55.4173 173.868 55.0779 171.478 55.0197 169.073C55.0246 168.966 55.0246 168.869 55.0246 168.767Z" fill="#DAE9E9"/>
<path d="M80.4492 167.895C80.4492 167.895 74.7279 174.896 67.2321 168.908L80.4492 167.895Z" fill="white"/>
<path d="M73.3382 173.787C78.6813 173.787 82.2741 169.491 82.3275 169.428C83.176 168.391 83.0208 166.864 81.9832 166.015C80.9505 165.171 79.428 165.322 78.5796 166.35C77.8571 167.208 74.0219 171.227 68.7467 167.014C67.6994 166.18 66.1769 166.35 65.3381 167.397C64.5042 168.444 64.6739 169.967 65.7212 170.805C68.4849 173.011 71.0691 173.787 73.3382 173.787Z" fill="#040000"/>
<path d="M81.731 183.232C87.3553 181.171 89.125 166.131 89.125 166.131L81.731 183.232Z" fill="white"/>
<path d="M81.7304 185.657C82.0068 185.657 82.288 185.608 82.5644 185.506C89.2505 183.058 91.2093 169.171 91.5342 166.413C91.6893 165.084 90.7391 163.877 89.4106 163.722C88.0772 163.567 86.8748 164.517 86.7196 165.845C85.6238 175.096 82.5983 180.333 80.9014 180.953C79.6456 181.414 79.0007 182.806 79.4565 184.066C79.8153 185.05 80.7413 185.657 81.7304 185.657Z" fill="#040000"/>
<path d="M199.496 44.4769L191.666 47.8952C190.401 48.4479 189.824 49.9171 190.376 51.1825C190.551 51.585 190.832 51.9341 191.181 52.1959L198.056 57.2675L204.932 62.339C206.042 63.1585 207.608 62.9208 208.428 61.8105C208.689 61.4566 208.849 61.0445 208.898 60.6081L209.853 52.1183L210.808 43.6284C210.963 42.2563 209.974 41.02 208.602 40.8649C208.166 40.8164 207.725 40.8842 207.327 41.0588L199.496 44.4769Z" fill="#4C4C4C"/>
<path d="M206.41 65.2475C207.923 65.2475 209.416 64.5542 210.381 63.25C210.895 62.5566 211.215 61.7371 211.312 60.8741L213.222 43.8993C213.528 41.2035 211.579 38.7599 208.878 38.4544C208.015 38.3623 207.142 38.4932 206.357 38.8375L198.531 42.2509L190.701 45.6691C189.494 46.1928 188.567 47.1575 188.087 48.3794C187.607 49.6012 187.632 50.9394 188.16 52.1467C188.495 52.9225 189.043 53.611 189.731 54.1298L203.496 64.2826C204.369 64.9372 205.392 65.2475 206.41 65.2475ZM208.301 43.2787C208.374 43.2787 208.403 43.3127 208.398 43.3563L206.488 60.336C206.454 60.4039 206.401 60.4135 206.371 60.3892L192.621 50.2461C192.616 50.2413 192.601 50.2218 192.601 50.217C192.587 50.1782 192.606 50.1297 192.635 50.1152L208.296 43.2787C208.301 43.2787 208.301 43.2787 208.301 43.2787Z" fill="#040000"/>
<path d="M114.1 45.4302L121.93 48.8484C123.196 49.4011 123.773 50.8702 123.22 52.1357C123.045 52.5381 122.764 52.8873 122.415 53.1491L115.54 58.2207L108.665 63.2922C107.554 64.1116 105.988 63.8741 105.169 62.7638C104.907 62.4099 104.747 61.9977 104.698 61.5614L103.743 53.0716L102.788 44.5817C102.633 43.2096 103.622 41.9731 104.994 41.818C105.431 41.7695 105.872 41.8374 106.269 42.012L114.1 45.4302Z" fill="#4C4C4C"/>
<path d="M107.187 66.2006C108.201 66.2006 109.229 65.8903 110.106 65.2406L123.857 55.0974C124.565 54.5689 125.108 53.8804 125.447 53.0998C126.528 50.6173 125.389 47.7131 122.902 46.627L107.241 39.7905C106.455 39.4463 105.587 39.3154 104.729 39.4075C102.024 39.713 100.075 42.1566 100.38 44.8524L102.29 61.832C102.387 62.6902 102.707 63.5097 103.221 64.2079C104.186 65.5121 105.68 66.2006 107.187 66.2006ZM105.267 44.227L113.132 47.65L120.962 51.0683C121.001 51.0877 121.016 51.1264 121.001 51.1652C120.996 51.1749 120.986 51.1943 120.962 51.2089L107.226 61.3423C107.197 61.3666 107.144 61.352 107.119 61.3229L105.199 44.3094C105.195 44.2658 105.224 44.2319 105.267 44.227Z" fill="#040000"/>
<path d="M125.056 62.4454C126.846 59.4053 139.394 55.4198 140.989 54.9253L146.342 45.2136L153.067 33.0099C154.153 31.0365 156.63 30.3189 158.604 31.405C159.229 31.7493 159.758 32.2535 160.126 32.8692L167.336 44.7967L172.989 54.1496C172.984 54.1205 172.984 54.0913 172.98 54.0622C172.98 54.0622 187.259 58.0817 189.242 61.2818C190.948 64.0406 123.311 65.4079 125.056 62.4454Z" fill="white"/>
<path d="M146.928 66.532C150.2 66.532 153.677 66.498 157.245 66.4301C165.216 66.275 172.78 65.9647 178.555 65.5575C189.139 64.8059 190.075 63.9913 190.758 63.3998C191.772 62.5173 191.995 61.1209 191.306 60.0058C189.202 56.6069 179.461 53.4118 174.511 51.9767L162.2 31.6127C161.619 30.643 160.78 29.8333 159.771 29.2806C156.629 27.5545 152.668 28.6987 150.942 31.8406L139.335 52.9027C133.657 54.7112 124.886 57.9548 122.966 61.2131C122.297 62.3525 122.549 63.7537 123.587 64.6168C124.299 65.2083 125.274 66.018 135.907 66.372C139.097 66.4787 142.85 66.532 146.928 66.532ZM183.393 60.3113C171.83 61.5234 142.608 62.0762 130.956 61.3053C133.55 60.0737 137.293 58.6094 141.706 57.2421C142.302 57.0579 142.806 56.6458 143.112 56.0979L155.189 34.1825C155.403 33.7946 155.752 33.5134 156.179 33.3921C156.6 33.2709 157.046 33.3194 157.434 33.5328C157.686 33.6734 157.9 33.877 158.045 34.1194L170.913 55.4094C171.355 56.1415 172.13 56.5634 172.945 56.5779C176.848 57.7028 180.673 59.0895 183.393 60.3113Z" fill="#040000"/>
<path d="M202.338 99.3715C196.466 97.8345 190.299 97.8345 184.427 99.3715C182.439 99.8854 180.873 102.13 180.878 104.128C180.878 105.209 180.878 106.286 180.878 107.367C180.878 109.374 182.444 110.378 184.427 109.859C190.299 108.322 196.466 108.322 202.338 109.859C204.325 110.373 205.887 109.369 205.887 107.367C205.887 106.286 205.887 105.209 205.887 104.128C205.892 102.13 204.325 99.8854 202.338 99.3715Z" fill="#575858"/>
<path d="M133.701 99.3695C127.829 97.8325 121.662 97.8325 115.79 99.3695C113.802 99.8835 112.241 102.128 112.241 104.126C112.241 105.207 112.241 106.284 112.241 107.365C112.241 109.372 113.807 110.376 115.79 109.857C121.662 108.32 127.829 108.32 133.701 109.857C135.689 110.371 137.255 109.367 137.25 107.365C137.25 106.284 137.25 105.207 137.25 104.126C137.255 102.128 135.689 99.8835 133.701 99.3695Z" fill="#575858"/>
<path d="M68.8117 22.7202C65.2797 22.7202 62.4165 19.8569 62.4165 16.3249C62.4165 12.7929 65.2797 9.92969 68.8117 9.92969C72.3437 9.92969 75.207 12.7929 75.207 16.3249C75.207 19.8569 72.3437 22.7202 68.8117 22.7202Z" fill="#EF8FB2"/>
<path d="M68.8112 23.2055C72.6028 23.2055 75.6914 20.1169 75.6914 16.3254C75.6914 12.5338 72.6028 9.44531 68.8112 9.44531C65.0197 9.44531 61.9312 12.5338 61.9312 16.3254C61.9312 20.1169 65.0197 23.2055 68.8112 23.2055ZM68.8112 10.415C72.0694 10.415 74.7217 13.0672 74.7217 16.3254C74.7217 19.5836 72.0694 22.2358 68.8112 22.2358C65.553 22.2358 62.9009 19.5836 62.9009 16.3254C62.9009 13.0672 65.553 10.415 68.8112 10.415Z" fill="#A05C26"/>
<path d="M75.2064 13.2749C71.6744 13.2749 68.811 10.4116 68.811 6.87958C68.811 3.34759 71.6744 0.484375 75.2064 0.484375C78.7383 0.484375 81.6016 3.34759 81.6016 6.87958C81.6016 10.4116 78.7383 13.2749 75.2064 13.2749Z" fill="#EF8FB2"/>
<path d="M75.2059 13.7602C78.9974 13.7602 82.0859 10.6716 82.0859 6.88006C82.0859 3.0885 78.9974 0 75.2059 0C71.4143 0 68.3257 3.0885 68.3257 6.88006C68.3257 10.6716 71.4143 13.7602 75.2059 13.7602ZM75.2059 0.96971C78.4641 0.96971 81.1162 3.62184 81.1162 6.88006C81.1162 10.1383 78.4641 12.7905 75.2059 12.7905C71.9476 12.7905 69.2954 10.1383 69.2954 6.88006C69.2954 3.62184 71.9476 0.96971 75.2059 0.96971Z" fill="#A05C26"/>
<path d="M86.6868 17.1401C83.1548 17.1401 80.2916 14.2769 80.2916 10.7449C80.2916 7.21289 83.1548 4.34961 86.6868 4.34961C90.2188 4.34961 93.082 7.21289 93.082 10.7449C93.082 14.2769 90.2188 17.1401 86.6868 17.1401Z" fill="#EF8FB2"/>
<path d="M86.6863 17.6254C90.4779 17.6254 93.5664 14.5369 93.5664 10.7454C93.5664 6.95379 90.4779 3.86523 86.6863 3.86523C82.8948 3.86523 79.8063 6.95379 79.8063 10.7454C79.8063 14.5369 82.8948 17.6254 86.6863 17.6254ZM86.6863 4.83494C89.9446 4.83494 92.5967 7.48713 92.5967 10.7454C92.5967 14.0036 89.9446 16.6557 86.6863 16.6557C83.4281 16.6557 80.776 14.0036 80.776 10.7454C80.776 7.48713 83.4281 4.83494 86.6863 4.83494Z" fill="#A05C26"/>
<path d="M86.6868 28.0288C83.1548 28.0288 80.2916 25.1655 80.2916 21.6336C80.2916 18.1016 83.1548 15.2383 86.6868 15.2383C90.2188 15.2383 93.082 18.1016 93.082 21.6336C93.082 25.1655 90.2188 28.0288 86.6868 28.0288Z" fill="#EF8FB2"/>
<path d="M86.6863 28.5141C90.4779 28.5141 93.5664 25.4256 93.5664 21.634C93.5664 17.8425 90.4779 14.7539 86.6863 14.7539C82.8948 14.7539 79.8063 17.8425 79.8063 21.634C79.8063 25.4256 82.8948 28.5141 86.6863 28.5141ZM86.6863 15.7236C89.9446 15.7236 92.5967 18.3758 92.5967 21.634C92.5967 24.8923 89.9446 27.5444 86.6863 27.5444C83.4281 27.5444 80.776 24.8923 80.776 21.634C80.776 18.3758 83.4281 15.7236 86.6863 15.7236Z" fill="#A05C26"/>
<path d="M75.0618 31.9428C71.5298 31.9428 68.6666 29.0795 68.6666 25.5476C68.6666 22.0156 71.5298 19.1523 75.0618 19.1523C78.5938 19.1523 81.457 22.0156 81.457 25.5476C81.457 29.0795 78.5938 31.9428 75.0618 31.9428Z" fill="#EF8FB2"/>
<path d="M75.0613 32.4282C78.8529 32.4282 81.9414 29.3396 81.9414 25.548C81.9414 21.7565 78.8529 18.668 75.0613 18.668C71.2698 18.668 68.1813 21.7565 68.1813 25.548C68.1813 29.3396 71.2698 32.4282 75.0613 32.4282ZM75.0613 19.6377C78.3196 19.6377 80.9717 22.2898 80.9717 25.548C80.9717 28.8063 78.3196 31.4584 75.0613 31.4584C71.8031 31.4584 69.151 28.8063 69.151 25.548C69.151 22.2898 71.8031 19.6377 75.0613 19.6377Z" fill="#A05C26"/>
<path d="M78.5735 22.7202C75.0415 22.7202 72.1783 19.8569 72.1783 16.3249C72.1783 12.7929 75.0415 9.92969 78.5735 9.92969C82.1055 9.92969 84.9688 12.7929 84.9688 16.3249C84.9688 19.8569 82.1055 22.7202 78.5735 22.7202Z" fill="#F5E73D"/>
<path d="M78.5731 23.2055C82.3646 23.2055 85.4531 20.1169 85.4531 16.3254C85.4531 12.5338 82.3646 9.44531 78.5731 9.44531C74.7815 9.44531 71.693 12.5338 71.693 16.3254C71.693 20.1169 74.7815 23.2055 78.5731 23.2055ZM78.5731 10.415C81.8313 10.415 84.4834 13.0672 84.4834 16.3254C84.4834 19.5836 81.8313 22.2358 78.5731 22.2358C75.3148 22.2358 72.6627 19.5836 72.6627 16.3254C72.6627 13.0672 75.3148 10.415 78.5731 10.415Z" fill="#A05C26"/>
<path d="M6.88202 104.66C3.35002 104.66 0.486806 101.796 0.486806 98.2645C0.486806 94.7325 3.35002 91.8691 6.88202 91.8691C10.414 91.8691 13.2773 94.7325 13.2773 98.2645C13.2773 101.796 10.414 104.66 6.88202 104.66Z" fill="#F29541"/>
<path d="M6.88154 105.145C10.6731 105.145 13.7617 102.057 13.7617 98.2649C13.7617 94.4734 10.6731 91.3848 6.88154 91.3848C3.08997 91.3848 0.00147057 94.4734 0.00147057 98.2649C0.00147057 102.057 3.08997 105.145 6.88154 105.145ZM6.88154 92.3545C10.1398 92.3545 12.792 95.0067 12.792 98.2649C12.792 101.523 10.1398 104.175 6.88154 104.175C3.62331 104.175 0.971181 101.523 0.971181 98.2649C0.971181 95.0067 3.62331 92.3545 6.88154 92.3545Z" fill="#A05C26"/>
<path d="M13.2806 95.2144C9.74858 95.2144 6.88524 92.3511 6.88524 88.8192C6.88524 85.2872 9.74858 82.4238 13.2806 82.4238C16.8126 82.4238 19.6758 85.2872 19.6758 88.8192C19.6758 92.3511 16.8126 95.2144 13.2806 95.2144Z" fill="#F29541"/>
<path d="M13.2801 95.6997C17.0717 95.6997 20.1602 92.6112 20.1602 88.8196C20.1602 85.0281 17.0717 81.9395 13.2801 81.9395C9.48852 81.9395 6.39991 85.0281 6.39991 88.8196C6.39991 92.6112 9.48852 95.6997 13.2801 95.6997ZM13.2801 82.9092C16.5383 82.9092 19.1904 85.5614 19.1904 88.8196C19.1904 92.0779 16.5383 94.73 13.2801 94.73C10.0219 94.73 7.36962 92.0779 7.36962 88.8196C7.36962 85.5614 10.0219 82.9092 13.2801 82.9092Z" fill="#A05C26"/>
<path d="M24.761 99.0795C21.229 99.0795 18.3658 96.2163 18.3658 92.6843C18.3658 89.1523 21.229 86.2891 24.761 86.2891C28.293 86.2891 31.1562 89.1523 31.1562 92.6843C31.1562 96.2163 28.293 99.0795 24.761 99.0795Z" fill="#F29541"/>
<path d="M24.7606 99.5648C28.5521 99.5648 31.6406 96.4763 31.6406 92.6848C31.6406 88.8932 28.5521 85.8047 24.7606 85.8047C20.969 85.8047 17.8805 88.8932 17.8805 92.6848C17.8805 96.4763 20.969 99.5648 24.7606 99.5648ZM24.7606 86.7744C28.0188 86.7744 30.6709 89.4265 30.6709 92.6848C30.6709 95.943 28.0188 98.5951 24.7606 98.5951C21.5023 98.5951 18.8502 95.943 18.8502 92.6848C18.8502 89.4265 21.5023 86.7744 24.7606 86.7744Z" fill="#A05C26"/>
<path d="M24.761 109.968C21.229 109.968 18.3658 107.105 18.3658 103.573C18.3658 100.041 21.229 97.1777 24.761 97.1777C28.293 97.1777 31.1562 100.041 31.1562 103.573C31.1562 107.105 28.293 109.968 24.761 109.968Z" fill="#F29541"/>
<path d="M24.7606 110.453C28.5521 110.453 31.6406 107.365 31.6406 103.573C31.6406 99.7819 28.5521 96.6934 24.7606 96.6934C20.969 96.6934 17.8805 99.7819 17.8805 103.573C17.8805 107.365 20.969 110.453 24.7606 110.453ZM24.7606 97.6631C28.0188 97.6631 30.6709 100.315 30.6709 103.573C30.6709 106.832 28.0188 109.484 24.7606 109.484C21.5023 109.484 18.8502 106.832 18.8502 103.573C18.8502 100.315 21.5023 97.6631 24.7606 97.6631Z" fill="#A05C26"/>
<path d="M13.1321 113.876C9.60014 113.876 6.73692 111.013 6.73692 107.481C6.73692 103.949 9.60014 101.086 13.1321 101.086C16.6641 101.086 19.5273 103.949 19.5273 107.481C19.5273 111.013 16.6641 113.876 13.1321 113.876Z" fill="#F29541"/>
<path d="M13.1317 114.362C16.9232 114.362 20.0117 111.273 20.0117 107.482C20.0117 103.69 16.9232 100.602 13.1317 100.602C9.34009 100.602 6.25159 103.69 6.25159 107.482C6.25159 111.273 9.34009 114.362 13.1317 114.362ZM13.1317 101.571C16.3899 101.571 19.042 104.224 19.042 107.482C19.042 110.74 16.3899 113.392 13.1317 113.392C9.87343 113.392 7.2213 110.74 7.2213 107.482C7.2213 104.224 9.87343 101.571 13.1317 101.571Z" fill="#A05C26"/>
<path d="M16.6517 104.66C13.1197 104.66 10.2565 101.796 10.2565 98.2645C10.2565 94.7325 13.1197 91.8691 16.6517 91.8691C20.1837 91.8691 23.0469 94.7325 23.0469 98.2645C23.0469 101.796 20.1837 104.66 16.6517 104.66Z" fill="#F5E73D"/>
<path d="M16.6512 105.145C20.4428 105.145 23.5312 102.057 23.5312 98.2649C23.5312 94.4734 20.4428 91.3848 16.6512 91.3848C12.8596 91.3848 9.77112 94.4734 9.77112 98.2649C9.77112 102.057 12.8596 105.145 16.6512 105.145ZM16.6512 92.3545C19.9094 92.3545 22.5615 95.0067 22.5615 98.2649C22.5615 101.523 19.9094 104.175 16.6512 104.175C13.393 104.175 10.7408 101.523 10.7408 98.2649C10.7408 95.0067 13.393 92.3545 16.6512 92.3545Z" fill="#A05C26"/>
<path d="M277.007 89.9077C273.475 89.9077 270.612 87.0444 270.612 83.5124C270.612 79.9804 273.475 77.1172 277.007 77.1172C280.539 77.1172 283.402 79.9804 283.402 83.5124C283.402 87.0444 280.539 89.9077 277.007 89.9077Z" fill="#93D2DB"/>
<path d="M277.007 90.3911C280.798 90.3911 283.887 87.3025 283.887 83.5109C283.887 79.7194 280.798 76.6309 277.007 76.6309C273.215 76.6309 270.127 79.7194 270.127 83.5109C270.127 87.3025 273.215 90.3911 277.007 90.3911ZM277.007 77.6006C280.265 77.6006 282.917 80.2527 282.917 83.5109C282.917 86.7691 280.265 89.4214 277.007 89.4214C273.748 89.4214 271.096 86.7691 271.096 83.5109C271.096 80.2527 273.748 77.6006 277.007 77.6006Z" fill="#A05C26"/>
<path d="M270.609 80.4624C267.077 80.4624 264.213 77.5991 264.213 74.0671C264.213 70.5351 267.077 67.6719 270.609 67.6719C274.141 67.6719 277.004 70.5351 277.004 74.0671C277.004 77.5991 274.141 80.4624 270.609 80.4624Z" fill="#93D2DB"/>
<path d="M270.608 80.9477C274.4 80.9477 277.488 77.8591 277.488 74.0676C277.488 70.276 274.4 67.1875 270.608 67.1875C266.817 67.1875 263.728 70.276 263.728 74.0676C263.728 77.8591 266.817 80.9477 270.608 80.9477ZM270.608 68.1572C273.866 68.1572 276.519 70.8093 276.519 74.0676C276.519 77.3258 273.866 79.978 270.608 79.978C267.35 79.978 264.698 77.3258 264.698 74.0676C264.698 70.8093 267.35 68.1572 270.608 68.1572Z" fill="#A05C26"/>
<path d="M259.132 84.3257C255.6 84.3257 252.737 81.4624 252.737 77.9304C252.737 74.3984 255.6 71.5352 259.132 71.5352C262.664 71.5352 265.527 74.3984 265.527 77.9304C265.527 81.4624 262.664 84.3257 259.132 84.3257Z" fill="#93D2DB"/>
<path d="M259.132 84.811C262.923 84.811 266.012 81.7224 266.012 77.9308C266.012 74.1393 262.923 71.0508 259.132 71.0508C255.34 71.0508 252.251 74.1393 252.251 77.9308C252.251 81.7224 255.34 84.811 259.132 84.811ZM259.132 72.0205C262.39 72.0205 265.042 74.6726 265.042 77.9308C265.042 81.1891 262.39 83.8413 259.132 83.8413C255.873 83.8413 253.221 81.1891 253.221 77.9308C253.221 74.6726 255.873 72.0205 259.132 72.0205Z" fill="#A05C26"/>
<path d="M259.132 95.2144C255.6 95.2144 252.737 92.3511 252.737 88.8192C252.737 85.2872 255.6 82.4238 259.132 82.4238C262.664 82.4238 265.527 85.2872 265.527 88.8192C265.527 92.3511 262.664 95.2144 259.132 95.2144Z" fill="#93D2DB"/>
<path d="M259.132 95.6997C262.923 95.6997 266.012 92.6112 266.012 88.8196C266.012 85.0281 262.923 81.9395 259.132 81.9395C255.34 81.9395 252.251 85.0281 252.251 88.8196C252.251 92.6112 255.34 95.6997 259.132 95.6997ZM259.132 82.9092C262.39 82.9092 265.042 85.5614 265.042 88.8196C265.042 92.0779 262.39 94.73 259.132 94.73C255.873 94.73 253.221 92.0779 253.221 88.8196C253.221 85.5614 255.873 82.9092 259.132 82.9092Z" fill="#A05C26"/>
<path d="M270.757 99.1245C267.225 99.1245 264.362 96.2612 264.362 92.7292C264.362 89.1972 267.225 86.334 270.757 86.334C274.289 86.334 277.152 89.1972 277.152 92.7292C277.152 96.2612 274.289 99.1245 270.757 99.1245Z" fill="#93D2DB"/>
<path d="M270.757 99.6099C274.548 99.6099 277.637 96.5212 277.637 92.7297C277.637 88.9381 274.548 85.8496 270.757 85.8496C266.965 85.8496 263.876 88.9381 263.876 92.7297C263.876 96.5212 266.965 99.6099 270.757 99.6099ZM270.757 86.8193C274.015 86.8193 276.667 89.4714 276.667 92.7297C276.667 95.9879 274.015 98.6401 270.757 98.6401C267.498 98.6401 264.846 95.9879 264.846 92.7297C264.846 89.4714 267.498 86.8193 270.757 86.8193Z" fill="#A05C26"/>
<path d="M267.241 89.9077C263.709 89.9077 260.846 87.0444 260.846 83.5124C260.846 79.9804 263.709 77.1172 267.241 77.1172C270.773 77.1172 273.637 79.9804 273.637 83.5124C273.637 87.0444 270.773 89.9077 267.241 89.9077Z" fill="#F5E73D"/>
<path d="M267.241 90.3911C271.032 90.3911 274.121 87.3025 274.121 83.5109C274.121 79.7194 271.032 76.6309 267.241 76.6309C263.449 76.6309 260.361 79.7194 260.361 83.5109C260.361 87.3025 263.449 90.3911 267.241 90.3911ZM267.241 77.6006C270.499 77.6006 273.151 80.2527 273.151 83.5109C273.151 86.7691 270.499 89.4214 267.241 89.4214C263.983 89.4214 261.331 86.7691 261.331 83.5109C261.331 80.2527 263.983 77.6006 267.241 77.6006Z" fill="#A05C26"/>
</svg>
