<svg width="436" height="418" viewBox="0 0 436 418" fill="none" xmlns="http://www.w3.org/2000/svg">
<path d="M80.557 234.643C80.557 234.643 51.7971 230.263 38.6971 208.033C27.0771 188.313 8.60703 183.573 5.41703 210.513C2.22703 237.463 16.6071 288.253 80.3471 293.913C80.3371 293.913 107.667 262.713 80.557 234.643Z" fill="white"/>
<path d="M80.346 298.913C80.196 298.913 80.056 298.903 79.906 298.893C53.056 296.513 32.1959 286.383 17.9159 268.803C2.1959 249.443 -1.41407 225.693 0.445928 209.923C1.33593 202.373 4.46597 189.373 15.366 187.083C24.576 185.143 35.166 192.203 43.006 205.503C54.706 225.353 81.0559 229.663 81.3159 229.713C82.3959 229.883 83.396 230.393 84.156 231.183C99.676 247.253 98.9159 264.283 95.5559 275.753C92.1359 287.403 85.5059 295.583 84.1759 297.143C83.2259 298.263 81.826 298.913 80.346 298.913ZM18.406 196.773C18.066 196.773 17.7359 196.803 17.4259 196.873C13.9859 197.593 11.346 202.913 10.386 211.103C8.83599 224.213 11.9059 245.543 25.6859 262.503C37.7259 277.323 55.356 286.123 78.106 288.673C80.186 285.803 83.876 280.063 85.966 272.933C89.626 260.443 86.956 249.133 78.036 239.273C71.196 237.873 46.746 231.543 34.396 210.583C28.906 201.273 22.456 196.773 18.406 196.773Z" fill="black"/>
<path d="M315.006 215.273C315.006 215.273 336.486 215.272 351.546 186.322C364.906 160.642 388.746 153.002 395.586 186.322C402.426 219.642 388.496 284.332 305.166 297.332C305.176 297.332 287.176 250.103 315.006 215.273Z" fill="black"/>
<path d="M238.335 412.702C196.615 412.702 158.465 402.632 128.015 383.572C96.8854 364.092 75.5754 332.652 66.3954 292.662C57.9554 255.932 55.3953 211.492 59.1753 167.532C63.0153 122.882 76.3553 87.7824 98.8153 63.2024C123.505 36.1824 158.735 22.4824 203.505 22.4824C234.345 22.4824 277.235 31.0424 305.165 55.0524C336.685 82.1624 341.485 121.622 342.025 156.652C342.235 171.672 341.145 186.772 340.075 201.382C339.025 215.792 337.945 230.692 338.155 245.302C338.175 246.452 338.185 247.622 338.195 248.802C338.295 260.962 338.395 273.542 345.985 281.802C348.055 284.052 350.155 285.052 352.825 285.052C353.255 285.052 353.705 285.022 354.165 284.972C352.545 280.682 352.655 276.152 354.555 271.772C359.195 261.122 373.085 254.012 383.295 253.532C383.815 253.512 384.325 253.492 384.835 253.492C403.895 253.492 412.985 270.282 413.525 286.912C414.185 307.192 405.435 328.362 387.525 349.832C357.945 385.282 315.135 406.602 263.715 411.482C255.215 412.292 246.685 412.702 238.335 412.702Z" fill="white"/>
<path d="M203.496 27.4824C235.726 27.4824 276.386 36.9124 301.896 58.8424C331.056 83.9224 336.456 120.372 337.016 156.732C337.436 186.332 332.726 215.722 333.146 245.372C333.336 258.722 332.566 274.602 342.286 285.182C345.526 288.702 349.076 290.052 352.806 290.052C355.696 290.052 358.696 289.242 361.736 288.012C349.456 273.502 370.396 259.152 383.516 258.532C383.956 258.512 384.386 258.502 384.816 258.502C400.636 258.502 408.026 272.432 408.506 287.082C409.226 309.272 397.456 330.102 383.656 346.642C352.926 383.472 310.356 402.042 263.206 406.522C254.986 407.302 246.666 407.712 238.336 407.712C200.726 407.712 162.686 399.382 130.666 379.342C98.876 359.442 79.5761 327.772 71.2661 291.552C62.2461 252.272 60.7061 208.112 64.1561 167.962C67.2861 131.562 77.3061 94.1424 102.506 66.5724C129.336 37.2024 166.396 27.4824 203.496 27.4824ZM203.496 17.4824C157.266 17.4824 120.796 31.7324 95.1161 59.8324C71.8961 85.2424 58.126 121.332 54.186 167.102C50.366 211.562 52.9661 256.552 61.5161 293.782C71.0061 335.092 93.0861 367.612 125.366 387.812C156.616 407.372 195.686 417.702 238.346 417.702C246.856 417.702 255.536 417.282 264.166 416.462C289.636 414.042 313.106 407.732 333.936 397.702C356.256 386.962 375.576 371.932 391.346 353.032C410.076 330.592 419.216 308.292 418.506 286.742C417.756 263.862 404.216 248.482 384.816 248.482C384.236 248.482 383.636 248.492 383.046 248.522C371.086 249.082 355.436 257.182 349.956 269.762C348.986 271.982 348.386 274.242 348.146 276.512C343.346 269.542 343.256 258.982 343.176 248.742C343.166 247.552 343.156 246.372 343.136 245.212C342.926 230.822 344.006 216.032 345.046 201.722C346.116 187.012 347.226 171.792 347.006 156.562C346.446 120.412 341.426 79.6324 308.406 51.2324C279.446 26.3524 235.226 17.4824 203.496 17.4824Z" fill="black"/>
<path d="M314.487 140.193C314.907 169.793 310.197 199.183 310.617 228.833C310.807 242.183 310.037 258.063 319.757 268.643C324.477 273.783 329.877 274.283 335.507 272.733C332.967 264.003 333.257 254.143 333.127 245.363C332.707 215.713 337.417 186.323 336.997 156.723C336.437 120.363 331.037 83.9131 301.877 58.8331C296.547 54.2531 290.547 50.2231 284.117 46.7031C309.127 71.5431 313.967 105.903 314.487 140.193Z" fill="#DCEBEB"/>
<path d="M140.275 146.742H137.425V143.892C137.425 139.762 134.075 136.412 129.945 136.412H117.365C113.235 136.412 109.885 139.762 109.885 143.892V146.742H107.035C102.905 146.742 99.5547 150.092 99.5547 154.222V166.802C99.5547 170.932 102.905 174.282 107.035 174.282H109.885V177.132C109.885 181.262 113.235 184.612 117.365 184.612H129.945C134.075 184.612 137.425 181.262 137.425 177.132V174.282H140.275C144.405 174.282 147.755 170.932 147.755 166.802V154.222C147.745 150.082 144.405 146.742 140.275 146.742Z" fill="white"/>
<path d="M129.945 188.612H117.365C111.405 188.612 106.495 184.042 105.935 178.232C100.115 177.682 95.5547 172.762 95.5547 166.802V154.222C95.5547 148.262 100.115 143.352 105.935 142.792C106.485 136.972 111.405 132.412 117.365 132.412H129.945C135.905 132.412 140.815 136.972 141.375 142.792C147.175 143.352 151.745 148.252 151.755 154.212V166.802C151.755 172.762 147.195 177.672 141.375 178.232C140.815 184.042 135.905 188.612 129.945 188.612ZM107.035 150.742C105.115 150.742 103.555 152.302 103.555 154.222V166.802C103.555 168.722 105.115 170.282 107.035 170.282H113.885V177.132C113.885 179.052 115.445 180.612 117.365 180.612H129.945C131.865 180.612 133.425 179.052 133.425 177.132V170.282H140.275C142.195 170.282 143.755 168.722 143.755 166.802V154.222C143.755 152.312 142.185 150.742 140.275 150.742H133.425V143.892C133.425 141.972 131.865 140.412 129.945 140.412H117.365C115.445 140.412 113.885 141.972 113.885 143.892V150.742H107.035Z" fill="#373838"/>
<path d="M405.746 242.573V219.673C405.746 215.543 409.096 212.193 413.226 212.193H419.906C424.036 212.193 427.386 215.543 427.386 219.673V242.573C427.386 246.703 424.036 250.053 419.906 250.053H413.226C409.096 250.053 405.746 246.703 405.746 242.573Z" fill="#373838"/>
<path d="M405.105 220.312H428.005C432.135 220.312 435.485 223.663 435.485 227.793V234.473C435.485 238.603 432.135 241.953 428.005 241.953H405.105C400.975 241.953 397.625 238.603 397.625 234.473V227.793C397.635 223.653 400.975 220.312 405.105 220.312Z" fill="#373838"/>
<path d="M281.478 146.742H278.628V143.892C278.628 139.762 275.278 136.412 271.148 136.412H258.568C254.438 136.412 251.088 139.762 251.088 143.892V146.742H248.238C244.108 146.742 240.758 150.092 240.758 154.222V166.802C240.758 170.932 244.108 174.282 248.238 174.282H251.088V177.132C251.088 181.262 254.438 184.612 258.568 184.612H271.148C275.278 184.612 278.628 181.262 278.628 177.132V174.282H281.478C285.608 174.282 288.958 170.932 288.958 166.802V154.222C288.958 150.082 285.608 146.742 281.478 146.742Z" fill="white"/>
<path d="M271.148 188.612H258.568C252.608 188.612 247.698 184.042 247.138 178.232C241.318 177.682 236.758 172.762 236.758 166.802V154.222C236.758 148.262 241.318 143.352 247.138 142.792C247.688 136.972 252.608 132.412 258.568 132.412H271.148C277.108 132.412 282.018 136.972 282.578 142.792C288.398 143.342 292.958 148.262 292.958 154.222V166.802C292.958 172.762 288.398 177.672 282.578 178.232C282.018 184.042 277.108 188.612 271.148 188.612ZM248.238 150.742C246.318 150.742 244.758 152.302 244.758 154.222V166.802C244.758 168.722 246.318 170.282 248.238 170.282H255.088V177.132C255.088 179.052 256.648 180.612 258.568 180.612H271.148C273.068 180.612 274.628 179.052 274.628 177.132V170.282H281.478C283.398 170.282 284.958 168.722 284.958 166.802V154.222C284.958 152.302 283.398 150.742 281.478 150.742H274.628V143.892C274.628 141.972 273.068 140.412 271.148 140.412H258.568C256.648 140.412 255.088 141.972 255.088 143.892V150.742H248.238Z" fill="#373838"/>
<path d="M197.615 177.952C194.945 175.672 190.955 175.922 188.555 178.482C185.205 182.042 180.435 188.002 182.175 190.902C185.105 195.792 206.635 195.762 206.635 189.902C206.635 186.342 201.575 181.332 197.615 177.952Z" fill="#7E291E"/>
<path d="M329.646 217.303C329.646 217.303 344.986 217.303 355.736 194.163C365.276 173.633 382.296 167.533 387.186 194.163C392.076 220.793 382.126 272.513 322.626 282.903C322.626 282.903 309.776 245.143 329.646 217.303Z" fill="white"/>
<path d="M399.406 263.922V263.932C399.436 263.962 399.466 263.982 399.486 264.012C399.456 263.982 399.436 263.952 399.406 263.922Z" fill="#DCEBEB"/>
<path d="M408.736 289.353C408.736 288.993 408.736 288.633 408.736 288.283C408.736 288.013 408.726 287.733 408.726 287.463C408.726 287.343 408.726 287.213 408.716 287.093C408.716 286.973 408.696 286.843 408.696 286.723C408.666 286.083 408.626 285.433 408.576 284.783C408.566 284.723 408.566 284.673 408.566 284.613C408.096 279.293 406.676 273.933 403.656 269.163C402.486 267.233 401.106 265.503 399.496 264.013C399.466 263.983 397.916 262.583 397.656 262.473C397.626 262.733 405.756 285.163 383.746 294.643C383.236 294.863 382.746 295.093 382.256 295.293C369.976 300.363 362.936 294.383 356.496 289.653C356.496 289.653 347.016 292.573 339.726 281.923C339.726 281.923 343.006 320.183 368.916 325.133C367.286 327.303 365.616 329.423 363.906 331.473C333.176 368.303 287.856 385.503 240.716 389.983C196.966 394.143 150.626 387.753 112.266 365.283C117.866 370.443 123.986 375.153 130.676 379.343C169.806 403.823 217.896 410.833 263.226 406.523C310.376 402.043 352.946 383.473 383.676 346.643C391.596 337.143 398.846 326.233 403.456 314.463C403.456 314.463 405.176 310.533 406.656 304.663C407.896 299.873 408.656 294.963 408.746 289.983C408.736 289.763 408.736 289.563 408.736 289.353Z" fill="#DCEBEB"/>
<path d="M356.297 287.553C356.297 287.553 368.097 301.993 383.557 289.643L356.297 287.553Z" fill="white"/>
<path d="M370.966 299.702C359.946 299.702 352.536 290.842 352.426 290.712C350.676 288.572 350.996 285.422 353.136 283.672C355.266 281.932 358.396 282.243 360.156 284.353C361.636 286.113 369.556 294.422 380.446 285.722C382.606 284.002 385.746 284.353 387.476 286.513C389.196 288.673 388.846 291.813 386.686 293.543C380.976 298.103 375.646 299.702 370.966 299.702Z" fill="black"/>
<path d="M353.656 319.182C342.056 314.932 338.406 283.912 338.406 283.912L353.656 319.182Z" fill="white"/>
<path d="M353.657 324.182C353.087 324.182 352.507 324.082 351.937 323.872C338.147 318.822 334.107 290.182 333.437 284.492C333.117 281.752 335.077 279.262 337.817 278.942C340.557 278.622 343.047 280.582 343.367 283.322C345.627 302.402 351.867 313.202 355.367 314.482C357.957 315.432 359.287 318.302 358.337 320.892C357.607 322.922 355.697 324.182 353.657 324.182Z" fill="black"/>
<path d="M110.778 33.0046L126.927 40.0546C130.567 41.6446 131.117 46.5746 127.927 48.9246L113.747 59.3847L99.5674 69.8446C96.3774 72.1946 91.8275 70.2147 91.3875 66.2747L89.4174 48.7647L87.4475 31.2546C87.0075 27.3146 90.9975 24.3646 94.6275 25.9546L110.778 33.0046Z" fill="#4C4C4C"/>
<path d="M96.5358 75.8637C95.1558 75.8637 93.7657 75.5737 92.4357 74.9937C89.0757 73.5237 86.8257 70.4737 86.4157 66.8237L82.4758 31.8037C82.0658 28.1437 83.5957 24.6637 86.5557 22.4937C89.5057 20.3237 93.2758 19.9037 96.6358 21.3737L112.776 28.4237L128.926 35.4737C132.296 36.9437 134.546 40.0038 134.956 43.6538C135.366 47.3038 133.846 50.7737 130.896 52.9537L102.536 73.8737C100.746 75.1837 98.6458 75.8637 96.5358 75.8637ZM92.5557 30.5137C92.5357 30.5137 92.5158 30.5237 92.4758 30.5537C92.3958 30.6137 92.4058 30.6437 92.4058 30.7037L96.3458 65.7237C96.3558 65.7837 96.3557 65.8037 96.4357 65.8437C96.5157 65.8837 96.5458 65.8637 96.5958 65.8237L124.956 44.9038C125.006 44.8638 125.026 44.8537 125.016 44.7637C125.006 44.6737 124.976 44.6637 124.926 44.6337L92.6258 30.5338C92.5958 30.5238 92.5757 30.5137 92.5557 30.5137Z" fill="#040000"/>
<path d="M286.893 34.9734L270.743 42.0234C267.103 43.6134 266.553 48.5434 269.743 50.8934L283.922 61.3534L298.103 71.8134C301.293 74.1634 305.843 72.1834 306.283 68.2434L308.253 50.7334L310.223 33.2234C310.663 29.2834 306.672 26.3333 303.042 27.9233L286.893 34.9734Z" fill="#4C4C4C"/>
<path d="M301.134 77.8338C299.014 77.8338 296.924 77.1638 295.134 75.8438L266.774 54.9238C263.824 52.7538 262.304 49.2738 262.714 45.6238C263.124 41.9738 265.374 38.9138 268.744 37.4438L301.044 23.3438C304.394 21.8738 308.164 22.2938 311.114 24.4738C314.074 26.6538 315.594 30.1339 315.194 33.7839L311.254 68.8038C310.844 72.4438 308.594 75.4938 305.234 76.9638C303.904 77.5438 302.514 77.8338 301.134 77.8338ZM305.114 32.4838C305.094 32.4838 305.074 32.4939 305.054 32.5039L288.894 39.5538L272.744 46.6038C272.684 46.6238 272.664 46.6438 272.654 46.7338C272.644 46.8238 272.664 46.8338 272.714 46.8738L301.074 67.7939C301.114 67.8239 301.144 67.8438 301.234 67.8038C301.314 67.7738 301.314 67.7438 301.324 67.6938L305.264 32.6738C305.274 32.6238 305.274 32.5839 305.194 32.5339C305.154 32.4939 305.134 32.4838 305.114 32.4838Z" fill="#040000"/>
<path d="M264.293 70.0624C260.603 63.7924 234.723 55.5724 231.433 54.5524L220.393 34.5225L206.523 9.35242C203.403 3.68242 195.313 3.52238 191.963 9.06238L177.093 33.6625L165.433 52.9524C165.443 52.8924 165.443 52.8325 165.453 52.7725C165.453 52.7725 136.003 61.0625 131.913 67.6625C128.393 73.3525 267.893 76.1724 264.293 70.0624Z" fill="white"/>
<path d="M219.184 78.493C212.434 78.493 205.264 78.423 197.904 78.283C181.464 77.963 165.864 77.323 153.954 76.483C132.124 74.933 130.194 73.253 128.784 72.033C126.694 70.213 126.234 67.333 127.654 65.033C131.994 58.023 152.084 51.433 162.294 48.473L187.684 6.47295C190.194 2.32295 194.614 -0.0970176 199.434 0.00298242C204.284 0.102982 208.564 2.69292 210.904 6.94292L234.844 50.383C246.544 54.113 264.644 60.793 268.604 67.523C269.994 69.873 269.464 72.763 267.324 74.543C265.854 75.763 263.844 77.433 241.914 78.163C235.334 78.383 227.594 78.493 219.184 78.493ZM143.974 65.663C167.824 68.163 228.094 69.3029 252.124 67.7129C246.774 65.1729 239.054 62.1529 229.954 59.3329C228.714 58.9529 227.684 58.103 227.054 56.973L202.144 11.773C201.284 10.213 199.824 10.023 199.234 10.013C198.624 9.99299 197.164 10.133 196.244 11.663L169.714 55.5529C168.804 57.0629 167.204 57.9329 165.524 57.9629C157.474 60.2829 149.584 63.143 143.974 65.663Z" fill="black"/>
</svg>
