<svg width="452" height="500" viewBox="0 0 452 500" fill="none" xmlns="http://www.w3.org/2000/svg">
<path d="M33.3392 413.82C27.3792 413.82 23.1592 412.43 20.4292 409.57C18.9692 408.04 17.2692 405.31 17.4692 401.05C17.8692 392.59 26.2493 385.02 33.6393 378.34C36.1693 376.06 38.5493 373.9 39.9093 372.28C41.7893 370.05 43.6592 367.661 45.4592 365.181C50.5092 358.221 55.3093 350.221 60.1193 340.741C72.8393 315.671 89.5593 312.971 96.1593 312.971C99.2593 312.971 102.409 313.471 105.539 314.451C113.939 317.091 120.149 322.881 123.509 331.181C127.989 342.261 126.759 357.471 120.469 369.041C114.729 379.591 104.149 389.07 89.0393 397.19C77.4793 403.41 63.3592 408.61 50.3092 411.46C46.5392 412.29 39.5192 413.82 33.3392 413.82Z" fill="#FCE5C6"/>
<path d="M96.1684 317.971C98.6884 317.971 101.318 318.361 104.048 319.221C123.868 325.451 124.548 351.091 116.078 366.661C104.468 388.001 71.5485 401.721 49.2485 406.581C45.0485 407.501 38.7685 408.82 33.3385 408.82C27.2185 408.82 22.1885 407.141 22.4685 401.291C22.8985 392.241 38.3885 381.871 43.7485 375.511C45.7585 373.121 47.6785 370.65 49.5185 368.13C55.2585 360.22 60.1785 351.711 64.5885 343.021C70.7185 330.921 81.6784 317.971 96.1684 317.971ZM96.1684 307.971C80.2684 307.971 65.4984 319.09 55.6684 338.48C50.9784 347.73 46.3184 355.501 41.4184 362.241C39.6884 364.631 37.8985 366.921 36.0885 369.061C34.9485 370.421 32.5785 372.56 30.2885 374.63C22.5685 381.6 12.9685 390.28 12.4685 400.82C12.1785 406.85 14.6684 410.79 16.8084 413.03C20.5284 416.93 25.9385 418.831 33.3285 418.831C40.0485 418.831 47.4185 417.22 51.3685 416.36C77.0385 410.76 111.688 395.63 124.848 371.44C131.928 358.43 133.219 341.89 128.139 329.32C124.199 319.58 116.909 312.79 107.039 309.69C103.439 308.54 99.7784 307.971 96.1684 307.971Z" fill="#B28350"/>
<path d="M354.449 480.04C346.839 480.04 333.139 479.23 326.859 473.79L323.859 471.19L325.709 467.68C327.409 464.45 342.709 435.89 355.889 428.2L362.239 424.5L363.349 431.76C364.429 438.72 369.239 457.96 378.469 463.37C383.459 466.29 383.059 470.05 382.659 471.53C380.759 478.56 366.269 480.04 354.449 480.04Z" fill="#FCE5C6"/>
<path d="M358.408 432.521C358.408 432.521 362.588 459.87 375.948 467.69C383.108 471.88 369.098 475.041 354.448 475.041C344.498 475.041 334.258 473.591 330.128 470.011C330.128 470.011 346.078 439.711 358.408 432.521ZM366.068 416.48L353.368 423.88C339.278 432.1 324.158 459.871 321.278 465.351L317.578 472.38L323.578 477.57C330.708 483.74 344.298 485.041 354.438 485.041C360.818 485.041 367.078 484.501 372.078 483.521C375.688 482.811 385.288 480.93 387.478 472.84C388.608 468.67 387.498 462.86 380.988 459.05C374.678 455.36 369.678 440.13 368.278 431L366.068 416.48Z" fill="#B28350"/>
<path d="M171.789 494.19C154.529 494.19 137.589 490.681 122.789 484.041C104.919 476.021 90.769 463.85 80.729 447.86C59.519 414.08 67.419 371.74 73.179 340.82C75.439 328.69 77.3891 316.21 79.2691 304.15C83.1091 279.55 87.079 254.11 93.979 229.67C108.559 178.07 151.269 147.541 211.179 145.891C213.229 145.831 215.299 145.811 217.309 145.811C253.799 145.811 284.149 154.721 307.519 172.301C332.439 191.041 347.959 218.63 353.669 254.3C355.799 267.6 357.479 281.191 359.109 294.331C361.449 313.241 363.869 332.79 367.649 351.63C378.849 407.53 363.359 441.04 348.389 459.3C329.949 481.8 302.129 494.201 270.049 494.201H171.789V494.19Z" fill="#FCE5C6"/>
<path d="M217.317 150.801C285.997 150.801 337.367 184.001 348.737 255.081C353.917 287.461 356.307 320.461 362.747 352.611C380.917 443.291 329.507 489.191 270.057 489.191C270.057 489.191 171.957 489.191 171.787 489.191C141.777 489.191 105.527 477.961 84.9674 445.201C65.4674 414.141 71.7674 375.711 78.0974 341.741C84.9674 304.911 88.5973 267.151 98.7973 231.031C113.807 177.881 157.707 152.361 211.317 150.891C213.327 150.831 215.327 150.801 217.317 150.801ZM217.317 140.801V150.801V140.801C215.247 140.801 213.137 140.831 211.037 140.891C148.797 142.601 104.377 174.471 89.1673 228.311C82.1773 253.041 78.1874 278.631 74.3274 303.381C72.4474 315.411 70.5074 327.851 68.2574 339.901C62.3374 371.631 54.2374 415.081 76.4874 450.511C87.0574 467.351 101.947 480.171 120.737 488.591C136.177 495.521 153.827 499.181 171.787 499.181H270.057C286.247 499.181 301.527 496.121 315.457 490.071C330.047 483.741 342.427 474.451 352.267 462.451C367.917 443.351 384.137 408.451 372.557 350.631C368.817 331.971 366.407 312.521 364.077 293.701C362.447 280.511 360.757 266.881 358.617 253.491C352.697 216.501 336.527 187.841 310.537 168.291C298.317 159.101 284.007 152.101 268.007 147.491C252.597 143.061 235.547 140.801 217.317 140.801Z" fill="#B28350"/>
<path d="M362.737 351.771C362.647 351.311 362.567 350.851 362.477 350.391C364.367 420.461 318.357 455.88 266.137 455.88C266.137 455.88 168.037 455.88 167.867 455.88C137.857 455.88 101.607 444.651 81.0474 411.891C76.8874 405.271 73.9174 398.311 71.8574 391.141C71.6074 409.771 74.7374 428.08 84.9574 444.36C105.527 477.12 141.777 488.351 171.777 488.351C171.937 488.351 270.047 488.351 270.047 488.351C329.497 488.351 380.907 442.461 362.737 351.771Z" fill="#F3D0A7"/>
<path d="M404.946 413.82C398.756 413.82 391.736 412.29 387.966 411.46C374.916 408.61 360.806 403.41 349.236 397.19C334.126 389.06 323.546 379.591 317.806 369.041C311.506 357.471 310.286 342.251 314.766 331.181C318.126 322.871 324.336 317.081 332.736 314.451C335.866 313.471 339.016 312.971 342.116 312.971C348.716 312.971 365.446 315.681 378.156 340.741C382.966 350.221 387.766 358.221 392.816 365.181C394.616 367.661 396.486 370.05 398.366 372.28C399.726 373.9 402.116 376.051 404.636 378.331C412.026 385.011 420.416 392.581 420.806 401.041C421.006 405.301 419.306 408.031 417.846 409.561C415.126 412.431 410.906 413.82 404.946 413.82Z" fill="#FCE5C6"/>
<path d="M342.117 317.971C356.607 317.971 367.567 330.921 373.707 343.011C378.117 351.701 383.037 360.221 388.777 368.121C390.617 370.651 392.537 373.11 394.547 375.5C399.907 381.86 415.397 392.23 415.827 401.28C416.107 407.13 411.077 408.811 404.957 408.811C399.527 408.811 393.247 407.49 389.047 406.57C366.737 401.7 333.827 387.98 322.217 366.65C313.747 351.08 314.427 325.44 334.247 319.21C336.967 318.36 339.597 317.971 342.117 317.971ZM342.117 307.971V317.971V307.971C338.507 307.971 334.847 308.551 331.237 309.681C321.367 312.781 314.067 319.571 310.127 329.311C305.047 341.891 306.337 358.421 313.417 371.431C326.577 395.621 361.227 410.741 386.897 416.351C390.857 417.211 398.217 418.82 404.937 418.82C412.337 418.82 417.737 416.921 421.457 413.021C423.597 410.781 426.077 406.841 425.797 400.811C425.297 390.271 415.697 381.591 407.977 374.621C405.687 372.551 403.317 370.41 402.177 369.05C400.377 366.91 398.587 364.62 396.847 362.23C391.947 355.49 387.287 347.721 382.597 338.471C372.787 319.091 358.027 307.971 342.117 307.971Z" fill="#B28350"/>
<path d="M159.896 266.291H157.046V263.441C157.046 259.311 153.696 255.961 149.566 255.961H136.986C132.856 255.961 129.506 259.311 129.506 263.441V266.291H126.656C122.526 266.291 119.176 269.641 119.176 273.771V286.351C119.176 290.481 122.526 293.831 126.656 293.831H129.506V296.681C129.506 300.811 132.856 304.161 136.986 304.161H149.566C153.696 304.161 157.046 300.811 157.046 296.681V293.831H159.896C164.026 293.831 167.376 290.481 167.376 286.351V273.771C167.376 269.631 164.026 266.291 159.896 266.291Z" fill="white"/>
<path d="M149.566 308.161H136.986C131.026 308.161 126.116 303.591 125.556 297.781C119.736 297.231 115.176 292.311 115.176 286.351V273.771C115.176 267.811 119.736 262.901 125.556 262.341C126.106 256.521 131.026 251.961 136.986 251.961H149.566C155.526 251.961 160.436 256.531 160.996 262.341C166.816 262.891 171.376 267.811 171.376 273.771V286.351C171.376 292.311 166.816 297.221 160.996 297.781C160.436 303.591 155.526 308.161 149.566 308.161ZM126.656 270.291C124.736 270.291 123.176 271.851 123.176 273.771V286.351C123.176 288.271 124.736 289.831 126.656 289.831H133.506V296.681C133.506 298.601 135.066 300.161 136.986 300.161H149.566C151.486 300.161 153.046 298.601 153.046 296.681V289.831H159.896C161.816 289.831 163.376 288.271 163.376 286.351V273.771C163.376 271.851 161.816 270.291 159.896 270.291H153.046V263.441C153.046 261.521 151.486 259.961 149.566 259.961H136.986C135.066 259.961 133.506 261.521 133.506 263.441V270.291H126.656Z" fill="#573216"/>
<path d="M301.107 266.291H298.257V263.441C298.257 259.311 294.907 255.961 290.777 255.961H278.197C274.067 255.961 270.717 259.311 270.717 263.441V266.291H267.867C263.737 266.291 260.387 269.641 260.387 273.771V286.351C260.387 290.481 263.737 293.831 267.867 293.831H270.717V296.681C270.717 300.811 274.067 304.161 278.197 304.161H290.777C294.907 304.161 298.257 300.811 298.257 296.681V293.831H301.107C305.237 293.831 308.587 290.481 308.587 286.351V273.771C308.587 269.631 305.237 266.291 301.107 266.291Z" fill="white"/>
<path d="M290.777 308.161H278.197C272.237 308.161 267.327 303.591 266.767 297.781C260.947 297.231 256.387 292.311 256.387 286.351V273.771C256.387 267.811 260.947 262.901 266.767 262.341C267.317 256.521 272.237 251.961 278.197 251.961H290.777C296.737 251.961 301.647 256.531 302.207 262.341C308.027 262.891 312.587 267.811 312.587 273.771V286.351C312.587 292.311 308.027 297.221 302.207 297.781C301.647 303.591 296.737 308.161 290.777 308.161ZM267.867 270.291C265.947 270.291 264.387 271.851 264.387 273.771V286.351C264.387 288.271 265.947 289.831 267.867 289.831H274.717V296.681C274.717 298.601 276.277 300.161 278.197 300.161H290.777C292.697 300.161 294.257 298.601 294.257 296.681V289.831H301.107C303.027 289.831 304.587 288.271 304.587 286.351V273.771C304.587 271.851 303.027 270.291 301.107 270.291H294.257V263.441C294.257 261.521 292.697 259.961 290.777 259.961H278.197C276.277 259.961 274.717 261.521 274.717 263.441V270.291H267.867Z" fill="#573216"/>
<path d="M206.217 320.84C204.877 320.54 203.537 319.891 202.167 318.851C200.937 317.911 192.507 312.161 194.937 308.241C197.887 303.481 214.818 304.521 220.368 308.451C224.108 311.101 218.488 316.06 216.748 317.36C212.998 320.17 209.627 321.62 206.217 320.84Z" fill="#F5CD2B"/>
<path d="M208.089 323.05C207.339 323.05 206.569 322.97 205.779 322.79C204.129 322.42 202.559 321.65 200.959 320.44L200.609 320.18C197.989 318.25 190.019 312.39 193.239 307.19C194.309 305.46 196.479 304.25 199.669 303.6C206.019 302.31 216.719 303.42 221.529 306.82C223.239 308.03 223.619 309.56 223.629 310.62C223.679 314.48 218.909 318.25 217.949 318.96C215.319 320.93 211.929 323.05 208.089 323.05ZM205.489 307.08C203.679 307.08 201.949 307.22 200.459 307.52C197.569 308.1 196.799 309.03 196.639 309.29C196.509 309.5 195.579 311.51 202.979 316.95L203.389 317.25C204.509 318.1 205.579 318.64 206.659 318.88H206.669C209.159 319.45 211.899 318.48 215.549 315.75C217.529 314.27 219.639 311.87 219.629 310.66C219.629 310.55 219.629 310.36 219.219 310.07C216.639 308.26 210.739 307.08 205.489 307.08Z" fill="#D89625"/>
<path d="M207.239 296.021C205.779 296.201 204.269 296.751 202.689 297.721C201.269 298.591 191.619 303.84 193.789 308.3C196.429 313.72 210.319 313.061 221.059 310.831C225.889 309.831 219.869 302.481 218.149 300.891C214.429 297.481 210.969 295.561 207.239 296.021Z" fill="#F5CD2B"/>
<path d="M206.369 314.469C200.149 314.469 193.999 313.319 191.989 309.179C189.169 303.369 198.259 298.009 201.249 296.249L201.639 296.019C203.429 294.919 205.229 294.259 206.989 294.039C211.029 293.539 214.889 295.199 219.499 299.419C219.569 299.489 225.929 305.699 224.739 309.969C224.499 310.819 223.759 312.309 221.459 312.789C219.329 313.229 212.809 314.469 206.369 314.469ZM208.329 297.949C208.049 297.949 207.769 297.969 207.489 297.999C206.299 298.149 205.039 298.619 203.739 299.419L203.289 299.689C194.809 304.689 195.389 307.009 195.589 307.419C197.269 310.859 208.039 311.489 220.649 308.869C220.769 308.839 220.849 308.819 220.899 308.799C220.989 307.639 218.569 304.009 216.789 302.359C213.499 299.339 210.849 297.949 208.329 297.949Z" fill="#D89625"/>
<path d="M307.916 265.41C280.156 265.41 251.096 263.7 219.086 260.17C171.336 254.91 129.936 246.94 92.4965 235.81C89.9365 235.05 87.2565 234.28 84.4865 233.48C54.3165 224.78 12.9864 212.87 6.09645 180.8C1.64645 160.08 10.8765 138.39 29.6265 125.53C35.2265 121.69 43.9265 117.19 53.1465 112.43C64.2665 106.68 75.7764 100.73 82.4464 95.6497C101.626 81.0597 113.046 69.0099 123.126 58.3799C138.516 42.1499 151.806 28.1398 185.256 13.0898C197.196 7.71984 211.636 5.00977 228.186 5.00977C241.706 5.00977 256.736 6.88969 271.656 10.4297C290.216 14.8397 306.197 23.4199 320.526 36.6399C334.526 49.5599 345.466 65.5097 356.046 80.9397C366.106 95.5997 376.506 110.76 389.466 123.19C390.786 124.45 392.126 125.74 393.486 127.04C414.416 147 440.456 171.85 445.866 200.36C447.086 206.78 446.986 215.01 445.616 222.38C444.746 227.06 442.896 233.65 439.076 238.49C422.366 259.68 378.926 262.28 350.176 264C348.626 264.09 347.136 264.18 345.706 264.27C333.516 265.02 320.806 265.41 307.916 265.41Z" fill="#854322"/>
<path d="M228.198 10C242.678 10 257.388 12.16 270.508 15.29C290.068 19.94 304.838 28.9601 317.138 40.3101C343.918 65.0401 358.948 100.84 386.008 126.79C407.298 147.2 435.508 172.56 440.958 201.27C441.988 206.71 442.028 214.37 440.698 221.44C439.688 226.84 437.888 231.9 435.148 235.38C418.938 255.94 371.358 257.65 345.398 259.27C332.938 260.05 320.438 260.41 307.908 260.41C278.458 260.41 248.888 258.42 219.638 255.2C177.138 250.52 134.768 243.16 93.9277 231.02C64.2377 222.19 17.8477 211.66 10.9877 179.75C7.18772 162.08 14.4977 141.97 32.4577 129.66C44.4177 121.46 72.7977 109.29 85.4777 99.6401C134.408 62.4001 133.188 41.9999 187.308 17.6699C199.538 12.1499 213.758 10 228.198 10ZM228.198 0C210.938 0 195.798 2.87003 183.218 8.53003C148.858 23.98 135.258 38.3199 119.508 54.9399C109.558 65.4299 98.2877 77.3199 79.4277 91.6699C73.0977 96.4899 61.2877 102.59 50.8577 107.98C41.4977 112.82 32.6577 117.39 26.8077 121.4C6.37766 135.4 -3.6623 159.13 1.2177 181.84C8.7477 216.84 51.7277 229.23 83.1077 238.28C85.9077 239.09 88.5477 239.85 91.0777 240.6C128.798 251.82 170.498 259.84 218.538 265.14C250.728 268.69 279.958 270.41 307.908 270.41C320.898 270.41 333.728 270.02 346.018 269.25C347.438 269.16 348.928 269.07 350.468 268.98C380.108 267.21 424.898 264.53 442.998 241.57C446.568 237.04 449.108 230.88 450.528 223.28C452.008 215.33 452.108 206.41 450.778 199.41C445.068 169.33 418.388 143.87 396.948 123.41C395.588 122.11 394.248 120.83 392.928 119.57C380.338 107.5 370.088 92.5501 360.168 78.1001C349.428 62.4501 338.328 46.26 323.918 32.96C308.948 19.14 292.228 10.17 272.818 5.55005C257.528 1.92005 242.098 0 228.198 0Z" fill="#3D1C0E"/>
<path d="M440.958 200.991C439.508 193.361 436.448 185.971 432.338 178.841C433.308 184.061 433.328 191.341 432.078 198.081C431.108 203.261 429.388 208.121 426.748 211.461C411.188 231.201 365.528 232.831 340.598 234.391C300.538 236.891 259.908 234.891 219.888 230.481C179.098 225.981 138.428 218.921 99.2282 207.271C70.7382 198.801 26.2082 188.691 19.6182 158.061C18.5082 152.901 18.3882 147.521 19.2482 142.211C11.1382 153.471 8.32823 167.071 10.9882 179.461C17.8482 211.381 64.2382 221.911 93.9282 230.731C134.768 242.871 177.138 250.231 219.638 254.911C261.338 259.511 303.668 261.591 345.398 258.991C371.368 257.371 418.938 255.671 435.148 235.101C437.888 231.621 439.688 226.561 440.698 221.161C442.018 214.091 441.988 206.441 440.958 200.991Z" fill="#70371E"/>
<path d="M53.4062 218.15C53.4062 218.15 67.7862 203.47 71.8362 199.56C75.8862 195.65 62.6162 221.54 62.6162 221.54L53.4062 218.15Z" fill="#854322"/>
<path d="M65.0458 227.761L44.4258 220.17L49.8358 214.65C50.4258 214.05 64.3158 199.88 68.3658 195.96C70.9958 193.42 73.8559 193.94 75.5059 195.16C79.5159 198.13 77.4659 202.43 72.5059 212.82C69.8859 218.31 67.0958 223.761 67.0658 223.811L65.0458 227.761Z" fill="#3D1C0E"/>
<path d="M238.137 255.959C238.137 255.959 241.067 228.879 238.137 218.119V255.959Z" fill="#854322"/>
<path d="M238.149 260.959C237.969 260.959 237.789 260.95 237.609 260.93C234.859 260.63 232.878 258.169 233.178 255.419C233.968 248.149 235.519 227.5 233.329 219.43C232.599 216.77 234.179 214.02 236.839 213.29C239.509 212.56 242.249 214.139 242.979 216.799C246.069 228.139 243.439 253.62 243.129 256.49C242.829 259.06 240.669 260.959 238.149 260.959Z" fill="#3D1C0E"/>
<path d="M415.84 248.43C415.84 248.43 413.09 233.43 409.18 230.67L415.84 248.43Z" fill="#854322"/>
<path d="M415.828 253.43C413.458 253.43 411.358 251.74 410.918 249.33C409.758 243.01 407.518 236.08 406.188 234.68C404.018 233.07 403.518 230.01 405.088 227.78C406.678 225.52 409.798 224.99 412.058 226.58C416.908 230 419.588 241.17 420.748 247.52C421.248 250.23 419.448 252.84 416.738 253.34C416.438 253.4 416.128 253.43 415.828 253.43ZM406.258 234.73C406.268 234.74 406.278 234.75 406.288 234.75C406.288 234.75 406.268 234.74 406.258 234.73Z" fill="#3D1C0E"/>
</svg>
