<svg width="122" height="100" viewBox="0 0 122 100" fill="none" xmlns="http://www.w3.org/2000/svg">
<path d="M23.5631 83.1366C22.4373 83.1366 21.6403 82.874 21.1246 82.3338C20.8489 82.0448 20.5278 81.5292 20.5655 80.7245C20.6411 79.1266 22.2239 77.6968 23.6198 76.435C24.0976 76.0044 24.5472 75.5964 24.804 75.2904C25.1591 74.8692 25.5124 74.4177 25.8524 73.9493C26.8062 72.6347 27.7128 71.1236 28.6213 69.333C31.0239 64.5978 34.182 64.0859 35.4287 64.0859C36.0142 64.0859 36.6092 64.1804 37.2004 64.3655C38.787 64.8641 39.96 65.9578 40.5946 67.5255C41.4408 69.6183 41.2085 72.4912 40.0204 74.6765C38.9362 76.6692 36.9378 78.4598 34.0838 79.9935C31.9003 81.1684 29.2333 82.1506 26.7684 82.6889C26.0563 82.8476 24.7304 83.1366 23.5631 83.1366Z" fill="#FCE5C6"/>
<path d="M35.4271 65.0334C35.9031 65.0334 36.3998 65.107 36.9154 65.2695C40.6591 66.4462 40.7875 71.2891 39.1877 74.23C36.9948 78.2608 30.7768 80.8522 26.5647 81.7702C25.7714 81.9439 24.5852 82.1933 23.5596 82.1933C22.4036 82.1933 21.4536 81.876 21.5065 80.7711C21.5877 79.0617 24.5135 77.1029 25.5259 75.9016C25.9055 75.4502 26.2682 74.9836 26.6157 74.5058C27.6999 73.0117 28.6292 71.4044 29.4622 69.763C30.62 67.4775 32.6902 65.0334 35.4271 65.0334ZM35.4271 63.1445C32.4239 63.1445 29.6341 65.2449 27.7774 68.9074C26.8915 70.6545 26.0113 72.1221 25.0858 73.3952C24.759 73.8466 24.4209 74.2791 24.079 74.6833C23.8637 74.9402 23.416 75.3445 22.9835 75.7354C21.5253 77.052 19.7121 78.6914 19.6177 80.6823C19.5629 81.8212 20.0332 82.5654 20.4374 82.9885C21.14 83.7251 22.1619 84.084 23.5577 84.084C24.827 84.084 26.2191 83.7799 26.9652 83.6175C31.8138 82.5598 38.3585 79.702 40.8442 75.1329C42.1815 72.6756 42.4252 69.5514 41.4656 67.1772C40.7214 65.3375 39.3445 64.055 37.4802 63.4694C36.8002 63.2522 36.1089 63.1445 35.4271 63.1445Z" fill="#B28350"/>
<path d="M84.2115 95.6448C82.7741 95.6448 80.1864 95.4918 79.0002 94.4643L78.4336 93.9732L78.783 93.3102C79.1041 92.7001 81.994 87.3056 84.4854 85.8531L85.6848 85.1543L85.8944 86.5255C86.0984 87.8402 87.007 91.4742 88.7504 92.4961C89.6929 93.0476 89.6173 93.7578 89.5418 94.0374C89.181 95.3652 86.4441 95.6448 84.2115 95.6448Z" fill="#FCE5C6"/>
<path d="M84.9621 86.6706C84.9621 86.6706 85.7516 91.8365 88.2751 93.3135C89.6275 94.1049 86.9812 94.7018 84.2141 94.7018C82.3347 94.7018 80.4006 94.4279 79.6205 93.7517C79.6205 93.7517 82.6332 88.0286 84.9621 86.6706ZM86.4014 83.6484L84.0101 85.0386C81.3488 86.5912 78.4929 91.8364 77.9489 92.8715L77.25 94.1974L78.3833 95.1777C79.73 96.3431 82.297 96.5887 84.2122 96.5887C85.4173 96.5887 86.5997 96.4867 87.5441 96.3016C88.2259 96.1675 90.0392 95.8124 90.4529 94.2843C90.6663 93.4967 90.4567 92.3994 89.227 91.6797C88.0446 90.9884 87.0965 88.1079 86.8264 86.3797L86.4014 83.6484Z" fill="#B28350"/>
<path d="M49.7097 98.3185C46.4496 98.3185 43.2499 97.6555 40.4545 96.4013C37.0792 94.8865 34.4065 92.5878 32.5101 89.5675C28.504 83.1871 29.9961 75.1898 31.0841 69.3496C31.5109 67.0584 31.8793 64.7031 32.2344 62.4233C32.9597 57.7768 33.7095 52.9716 35.0128 48.3553C37.7667 38.609 45.8339 32.8424 57.1498 32.5308C57.537 32.5194 57.928 32.5156 58.3076 32.5156C65.1999 32.5156 70.9326 34.1986 75.3467 37.5192C80.0537 41.0588 82.9851 46.2701 84.0636 53.0075C84.4659 55.5196 84.7833 58.0865 85.0911 60.5684C85.5331 64.1402 85.9902 67.8329 86.7042 71.3914C88.8197 81.9499 85.8939 88.2794 83.0682 91.7283C79.5852 95.9782 74.3305 98.3203 68.2712 98.3203L49.7097 98.3185Z" fill="#FCE5C6"/>
<path d="M58.3103 33.4591C71.2827 33.4591 80.9856 39.73 83.1332 53.1557C84.1116 59.2717 84.5631 65.5049 85.7795 71.5775C89.2115 88.7053 79.501 97.375 68.2719 97.375C68.2719 97.375 49.7426 97.375 49.7105 97.375C44.0421 97.375 37.1952 95.2538 33.3118 89.066C29.6286 83.1993 30.8185 75.9406 32.016 69.5243C33.3136 62.5678 33.9993 55.4356 35.9259 48.6131C38.761 38.5741 47.0529 33.7538 57.1789 33.4761C57.5567 33.4648 57.9344 33.4591 58.3103 33.4591ZM58.3103 31.5703V33.4591V31.5703C57.9193 31.5703 57.5208 31.5759 57.1241 31.5873C45.3681 31.9103 36.978 37.9299 34.1051 48.0993C32.7848 52.7704 32.0311 57.6039 31.302 62.2769C30.9469 64.5491 30.5806 66.8988 30.1556 69.1768C29.0374 75.17 27.5074 83.3769 31.7101 90.069C33.7065 93.2498 36.519 95.6713 40.0681 97.2616C42.9844 98.5687 46.3182 99.2619 49.7105 99.2619H68.2719C71.33 99.2619 74.2161 98.6839 76.8472 97.5412C79.603 96.3456 81.9414 94.5908 83.7981 92.3242C86.7541 88.7166 89.8177 82.1246 87.6305 71.2035C86.9241 67.6789 86.4689 64.0051 86.0288 60.4504C85.7209 57.959 85.4017 55.3846 84.9975 52.8554C83.8793 45.8687 80.8251 40.4554 75.916 36.7627C73.6079 35.0269 70.905 33.7047 67.8829 32.8339C64.9741 31.9972 61.7536 31.5703 58.3103 31.5703Z" fill="#B28350"/>
<path d="M85.7806 71.417C85.7636 71.3301 85.7485 71.2431 85.7315 71.1562C86.0885 84.3912 77.398 91.0815 67.5346 91.0815C67.5346 91.0815 49.0052 91.0815 48.9731 91.0815C43.3047 91.0815 36.4578 88.9603 32.5743 82.7725C31.7886 81.5221 31.2276 80.2075 30.8385 78.8532C30.7913 82.3721 31.3825 85.8305 33.3129 88.9055C37.1982 95.0933 44.0452 97.2144 49.7117 97.2144C49.7419 97.2144 68.2731 97.2144 68.2731 97.2144C79.5021 97.2144 89.2126 88.5467 85.7806 71.417Z" fill="#F3D0A7"/>
<path d="M93.7505 83.1386C92.5832 83.1386 91.2554 82.8497 90.5433 82.6929C88.0784 82.1546 85.4132 81.1724 83.2279 79.9975C80.3739 78.4619 78.3755 76.6732 77.2913 74.6805C76.1013 72.4952 75.8709 69.6203 76.7171 67.5294C77.3517 65.9598 78.5247 64.8661 80.1113 64.3694C80.7025 64.1843 81.2975 64.0898 81.883 64.0898C83.1296 64.0898 86.2896 64.6018 88.6903 69.337C89.5988 71.1276 90.5055 72.6387 91.4593 73.9533C91.7993 74.4217 92.1525 74.8732 92.5076 75.2944C92.7645 75.6004 93.2159 76.0064 93.6919 76.4371C95.0878 77.6988 96.6725 79.1287 96.7461 80.7266C96.7839 81.5312 96.4628 82.0469 96.187 82.3359C95.6733 82.8761 94.8762 83.1386 93.7505 83.1386Z" fill="#FCE5C6"/>
<path d="M81.8832 65.0334C84.6201 65.0334 86.6903 67.4794 87.85 69.763C88.683 71.4044 89.6123 73.0136 90.6965 74.5058C91.044 74.9836 91.4066 75.4502 91.7863 75.9016C92.7987 77.1029 95.7245 79.0617 95.8057 80.7711C95.8586 81.876 94.9085 82.1933 93.7526 82.1933C92.727 82.1933 91.5407 81.9439 90.7474 81.7702C86.5335 80.8503 80.3174 78.2608 78.1245 74.23C76.5246 71.2891 76.6531 66.4462 80.3967 65.2695C80.9105 65.107 81.4072 65.0334 81.8832 65.0334ZM81.8851 63.1445V65.0334V63.1445C81.2032 63.1445 80.512 63.2541 79.8301 63.4675C77.9658 64.053 76.587 65.3355 75.8428 67.1752C74.8832 69.5514 75.1269 72.6736 76.4642 75.131C78.9499 79.7 85.4946 82.5559 90.3433 83.6156C91.0912 83.778 92.4814 84.0821 93.7507 84.0821C95.1484 84.0821 96.1684 83.7233 96.871 82.9867C97.2752 82.5636 97.7436 81.8193 97.6907 80.6803C97.5963 78.6895 95.7831 77.05 94.3249 75.7335C93.8924 75.3425 93.4447 74.9383 93.2294 74.6815C92.8894 74.2773 92.5513 73.8448 92.2226 73.3933C91.2971 72.1203 90.4169 70.6507 89.531 68.9054C87.6762 65.2449 84.8883 63.1445 81.8851 63.1445Z" fill="#B28350"/>
<path d="M59.0814 63.7513C59.0814 64.9016 58.0198 65.6023 56.5768 65.6023C55.1337 65.6023 54.0703 64.5635 54.0703 63.4132C54.0703 62.2629 54.9071 61.4375 56.3482 61.4375C57.7913 61.4394 59.0814 62.601 59.0814 63.7513Z" fill="white"/>
<path d="M56.2015 66.0739C55.9484 66.0173 55.6953 65.8944 55.4365 65.698C55.2042 65.5205 53.6119 63.9357 54.0709 63.1953C54.0709 63.1953 54.7585 64.678 56.0844 64.695C56.789 64.7045 59.1235 63.235 59.1235 63.235C59.8299 63.7355 58.5191 65.1711 58.1904 65.4166C57.484 65.9474 56.8456 66.2212 56.2015 66.0739Z" fill="#F5CD2B"/>
<path d="M56.5598 66.4935C56.4106 66.4935 56.2652 66.4764 56.1179 66.4425C55.8062 66.3726 55.5097 66.2271 55.2075 65.9986C55.1848 65.9816 53.0523 64.1211 53.7493 62.9954L54.1176 62.4004L54.4123 63.035C54.4179 63.0463 55.0204 64.3025 56.0876 64.3157C56.0895 64.3157 56.0895 64.3157 56.0914 64.3157C56.4635 64.3157 57.8461 63.5904 58.9209 62.9142L59.1343 62.7801L59.3402 62.9254C59.5725 63.0898 59.701 63.341 59.7047 63.6319C59.7161 64.4649 58.6904 65.5113 58.4147 65.7172C57.7177 66.2442 57.1265 66.4935 56.5598 66.4935ZM55.1054 64.8275C55.3189 65.0806 55.5304 65.2941 55.6645 65.398C55.8761 65.5585 56.0801 65.6605 56.2822 65.7058H56.2841C56.7563 65.8135 57.2738 65.6322 57.9614 65.1146C58.1842 64.9484 58.7981 64.2533 58.9265 63.7981C58.1767 64.2495 56.7204 65.0731 56.0876 65.0731C56.0838 65.0731 56.082 65.0731 56.0782 65.0731C55.7118 65.0674 55.3869 64.973 55.1054 64.8275Z" fill="#D89625"/>
<path d="M56.3922 60.3903C56.1164 60.4243 55.8312 60.5281 55.5328 60.7113C55.2646 60.8756 53.5703 62.6323 53.8517 63.2084C54.1596 63.8373 54.594 61.9712 55.818 61.5915C56.7171 61.312 58.2206 63.8486 59.0026 63.6862C59.9149 63.4973 59.1102 62.3716 58.7022 61.8087C58.1054 60.989 57.0986 60.3034 56.3922 60.3903Z" fill="#F5CD2B"/>
<path d="M58.9252 64.0717C58.4076 64.0717 57.8844 63.5523 57.2857 62.9592C56.8758 62.5531 56.1883 61.8712 55.9295 61.9525C55.4025 62.1168 55.021 62.672 54.7433 63.0762C54.4902 63.4465 54.2938 63.7392 53.9576 63.7128C53.8254 63.7034 53.6403 63.6372 53.5118 63.3747C53.0434 62.4171 55.1985 60.4716 55.3345 60.3904C55.6707 60.1826 56.0107 60.058 56.345 60.0164C57.2573 59.9031 58.3755 60.7209 59.0064 61.5879C59.4786 62.2395 59.9621 62.9799 59.7411 63.5485C59.6694 63.7317 59.4975 63.9697 59.0763 64.0566C59.0291 64.0661 58.9762 64.0717 58.9252 64.0717ZM55.9635 61.1912C56.5755 61.1912 57.2064 61.8164 57.8183 62.4227C58.1338 62.7363 58.7193 63.3161 58.9233 63.3161C58.9252 63.3161 58.927 63.3161 58.9289 63.3161C59.0158 63.2972 59.0404 63.2727 59.0404 63.2727C59.0687 63.2085 59.0669 62.9554 58.3963 62.0298C57.8505 61.28 56.9532 60.7002 56.4395 60.7644C56.2147 60.7927 55.9748 60.8834 55.7312 61.0326C55.6518 61.0855 55.5177 61.212 55.361 61.3763C55.4705 61.3178 55.5857 61.2686 55.7085 61.2309C55.7916 61.2044 55.8766 61.1912 55.9635 61.1912Z" fill="#D89625"/>
<path d="M41.0983 55.7763C43.363 55.6781 45.7221 56.1541 47.9641 57.2024C48.7215 57.5575 49.2089 58.4981 49.0748 59.2102C49.0011 59.5955 48.9293 59.9827 48.8557 60.3699C48.7197 61.0877 48.0038 61.3445 47.2369 61.0367C44.9722 60.113 42.6131 59.7598 40.3711 59.9808C39.6136 60.0564 39.1263 59.5256 39.2605 58.7039C39.3341 58.2639 39.4059 57.8219 39.4795 57.3837C39.6155 56.5658 40.3333 55.8065 41.0983 55.7763Z" fill="#573216"/>
<path d="M73.9752 55.7763C71.7105 55.6781 69.3514 56.1541 67.1093 57.2024C66.3519 57.5575 65.8646 58.4981 65.9987 59.2102C66.0724 59.5955 66.1442 59.9827 66.2178 60.3699C66.3538 61.0877 67.0697 61.3445 67.8366 61.0367C70.1012 60.113 72.4604 59.7598 74.7024 59.9808C75.4598 60.0564 75.9471 59.5256 75.813 58.7039C75.7394 58.2639 75.6676 57.8219 75.5939 57.3837C75.4579 56.5658 74.7421 55.8065 73.9752 55.7763Z" fill="#573216"/>
<path d="M92.4679 8.85192C93.8438 8.85192 94.9593 7.73642 94.9593 6.36049C94.9593 4.98455 93.8438 3.86914 92.4679 3.86914C91.092 3.86914 89.9766 4.98455 89.9766 6.36049C89.9766 7.73642 91.092 8.85192 92.4679 8.85192Z" fill="#EF8FB2"/>
<path d="M92.4693 9.04023C90.9922 9.04023 89.7891 7.83697 89.7891 6.35991C89.7891 4.88286 90.9922 3.67969 92.4693 3.67969C93.9463 3.67969 95.1495 4.88286 95.1495 6.35991C95.1495 7.83697 93.9463 9.04023 92.4693 9.04023ZM92.4693 4.05745C91.2 4.05745 90.1668 5.09063 90.1668 6.35991C90.1668 7.6292 91.2 8.66247 92.4693 8.66247C93.7386 8.66247 94.7718 7.6292 94.7718 6.35991C94.7718 5.09063 93.7386 4.05745 92.4693 4.05745Z" fill="#A05C26"/>
<path d="M89.9758 5.17223C91.3517 5.17223 92.4671 4.05674 92.4671 2.6808C92.4671 1.30486 91.3517 0.189453 89.9758 0.189453C88.5998 0.189453 87.4844 1.30486 87.4844 2.6808C87.4844 4.05674 88.5998 5.17223 89.9758 5.17223Z" fill="#EF8FB2"/>
<path d="M89.9771 5.36055C88.5001 5.36055 87.2969 4.15729 87.2969 2.68023C87.2969 1.20317 88.5001 0 89.9771 0C91.4542 0 92.6574 1.20317 92.6574 2.68023C92.6574 4.15729 91.4542 5.36055 89.9771 5.36055ZM89.9771 0.377764C88.7079 0.377764 87.6746 1.41094 87.6746 2.68023C87.6746 3.94951 88.7079 4.98278 89.9771 4.98278C91.2464 4.98278 92.2796 3.94951 92.2796 2.68023C92.2796 1.41094 91.2464 0.377764 89.9771 0.377764Z" fill="#A05C26"/>
<path d="M85.5031 6.67605C86.879 6.67605 87.9945 5.56064 87.9945 4.1847C87.9945 2.80877 86.879 1.69336 85.5031 1.69336C84.1271 1.69336 83.0117 2.80877 83.0117 4.1847C83.0117 5.56064 84.1271 6.67605 85.5031 6.67605Z" fill="#EF8FB2"/>
<path d="M85.5005 6.86436C84.0235 6.86436 82.8203 5.66119 82.8203 4.18413C82.8203 2.70707 84.0235 1.50391 85.5005 1.50391C86.9776 1.50391 88.1808 2.70707 88.1808 4.18413C88.1808 5.66119 86.9776 6.86436 85.5005 6.86436ZM85.5005 1.88167C84.2313 1.88167 83.1981 2.91484 83.1981 4.18413C83.1981 5.45342 84.2313 6.4866 85.5005 6.4866C86.7698 6.4866 87.803 5.45342 87.803 4.18413C87.803 2.91484 86.7698 1.88167 85.5005 1.88167Z" fill="#A05C26"/>
<path d="M85.5031 10.9182C86.879 10.9182 87.9945 9.80283 87.9945 8.42689C87.9945 7.05095 86.879 5.93555 85.5031 5.93555C84.1271 5.93555 83.0117 7.05095 83.0117 8.42689C83.0117 9.80283 84.1271 10.9182 85.5031 10.9182Z" fill="#EF8FB2"/>
<path d="M85.5005 11.1065C84.0235 11.1065 82.8203 9.90338 82.8203 8.42632C82.8203 6.94926 84.0235 5.74609 85.5005 5.74609C86.9776 5.74609 88.1808 6.94926 88.1808 8.42632C88.1808 9.90338 86.9776 11.1065 85.5005 11.1065ZM85.5005 6.12386C84.2313 6.12386 83.1981 7.15703 83.1981 8.42632C83.1981 9.69561 84.2313 10.7288 85.5005 10.7288C86.7698 10.7288 87.803 9.69561 87.803 8.42632C87.803 7.15703 86.7698 6.12386 85.5005 6.12386Z" fill="#A05C26"/>
<path d="M90.0383 12.4417C91.4142 12.4417 92.5296 11.3263 92.5296 9.95033C92.5296 8.57439 91.4142 7.45898 90.0383 7.45898C88.6623 7.45898 87.5469 8.57439 87.5469 9.95033C87.5469 11.3263 88.6623 12.4417 90.0383 12.4417Z" fill="#EF8FB2"/>
<path d="M90.0357 12.63C88.5587 12.63 87.3555 11.4268 87.3555 9.94976C87.3555 8.4727 88.5587 7.26953 90.0357 7.26953C91.5128 7.26953 92.716 8.4727 92.716 9.94976C92.716 11.4268 91.5128 12.63 90.0357 12.63ZM90.0357 7.6473C88.7665 7.6473 87.7332 8.68047 87.7332 9.94976C87.7332 11.219 88.7665 12.2522 90.0357 12.2522C91.305 12.2522 92.3382 11.219 92.3382 9.94976C92.3382 8.68047 91.305 7.6473 90.0357 7.6473Z" fill="#A05C26"/>
<path d="M88.6633 8.84997C90.0392 8.84997 91.1546 7.73447 91.1546 6.35853C91.1546 4.98259 90.0392 3.86719 88.6633 3.86719C87.2873 3.86719 86.1719 4.98259 86.1719 6.35853C86.1719 7.73447 87.2873 8.84997 88.6633 8.84997Z" fill="#F5E73D"/>
<path d="M88.6646 9.03828C87.1876 9.03828 85.9844 7.83502 85.9844 6.35796C85.9844 4.8809 87.1876 3.67773 88.6646 3.67773C90.1417 3.67773 91.3449 4.8809 91.3449 6.35796C91.3449 7.83502 90.1417 9.03828 88.6646 9.03828ZM88.6646 4.0555C87.3954 4.0555 86.3621 5.08867 86.3621 6.35796C86.3621 7.62725 87.3954 8.66052 88.6646 8.66052C89.9339 8.66052 90.9671 7.62725 90.9671 6.35796C90.9671 5.08867 89.9339 4.0555 88.6646 4.0555Z" fill="#A05C26"/>
<path d="M118.636 45.2854C120.012 45.2854 121.127 44.17 121.127 42.7941C121.127 41.4181 120.012 40.3027 118.636 40.3027C117.26 40.3027 116.145 41.4181 116.145 42.7941C116.145 44.17 117.26 45.2854 118.636 45.2854Z" fill="#F29541"/>
<path d="M118.633 45.4737C117.156 45.4737 115.953 44.2706 115.953 42.7935C115.953 41.3164 117.156 40.1133 118.633 40.1133C120.11 40.1133 121.314 41.3164 121.314 42.7935C121.314 44.2706 120.11 45.4737 118.633 45.4737ZM118.633 40.491C117.364 40.491 116.331 41.5242 116.331 42.7935C116.331 44.0628 117.364 45.096 118.633 45.096C119.903 45.096 120.936 44.0628 120.936 42.7935C120.936 41.5242 119.903 40.491 118.633 40.491Z" fill="#A05C26"/>
<path d="M116.148 41.6058C117.524 41.6058 118.639 40.4904 118.639 39.1145C118.639 37.7385 117.524 36.623 116.148 36.623C114.772 36.623 113.656 37.7385 113.656 39.1145C113.656 40.4904 114.772 41.6058 116.148 41.6058Z" fill="#F29541"/>
<path d="M116.145 41.7941C114.668 41.7941 113.465 40.591 113.465 39.1139C113.465 37.6369 114.668 36.4336 116.145 36.4336C117.622 36.4336 118.825 37.6369 118.825 39.1139C118.825 40.591 117.622 41.7941 116.145 41.7941ZM116.145 36.8114C114.876 36.8114 113.843 37.8446 113.843 39.1139C113.843 40.3832 114.876 41.4164 116.145 41.4164C117.414 41.4164 118.448 40.3832 118.448 39.1139C118.448 37.8446 117.414 36.8114 116.145 36.8114Z" fill="#A05C26"/>
<path d="M111.667 43.1116C113.043 43.1116 114.159 41.9962 114.159 40.6203C114.159 39.2443 113.043 38.1289 111.667 38.1289C110.291 38.1289 109.176 39.2443 109.176 40.6203C109.176 41.9962 110.291 43.1116 111.667 43.1116Z" fill="#F29541"/>
<path d="M111.669 43.2999C110.191 43.2999 108.988 42.0967 108.988 40.6197C108.988 39.1426 110.191 37.9395 111.669 37.9395C113.146 37.9395 114.349 39.1426 114.349 40.6197C114.349 42.0967 113.146 43.2999 111.669 43.2999ZM111.669 38.3172C110.399 38.3172 109.366 39.3504 109.366 40.6197C109.366 41.889 110.399 42.9221 111.669 42.9221C112.938 42.9221 113.971 41.889 113.971 40.6197C113.971 39.3504 112.938 38.3172 111.669 38.3172Z" fill="#A05C26"/>
<path d="M111.667 47.3538C113.043 47.3538 114.159 46.2384 114.159 44.8624C114.159 43.4865 113.043 42.3711 111.667 42.3711C110.291 42.3711 109.176 43.4865 109.176 44.8624C109.176 46.2384 110.291 47.3538 111.667 47.3538Z" fill="#F29541"/>
<path d="M111.669 47.5421C110.191 47.5421 108.988 46.3389 108.988 44.8619C108.988 43.3848 110.191 42.1816 111.669 42.1816C113.146 42.1816 114.349 43.3848 114.349 44.8619C114.349 46.3389 113.146 47.5421 111.669 47.5421ZM111.669 42.5594C110.399 42.5594 109.366 43.5926 109.366 44.8619C109.366 46.1312 110.399 47.1643 111.669 47.1643C112.938 47.1643 113.971 46.1312 113.971 44.8619C113.971 43.5926 112.938 42.5594 111.669 42.5594Z" fill="#A05C26"/>
<path d="M116.202 48.8753C117.578 48.8753 118.694 47.7599 118.694 46.3839C118.694 45.008 117.578 43.8926 116.202 43.8926C114.826 43.8926 113.711 45.008 113.711 46.3839C113.711 47.7599 114.826 48.8753 116.202 48.8753Z" fill="#F29541"/>
<path d="M116.2 49.0655C114.723 49.0655 113.52 47.8624 113.52 46.3853C113.52 44.9082 114.723 43.7051 116.2 43.7051C117.677 43.7051 118.88 44.9082 118.88 46.3853C118.88 47.8624 117.677 49.0655 116.2 49.0655ZM116.2 44.0828C114.93 44.0828 113.897 45.116 113.897 46.3853C113.897 47.6546 114.93 48.6878 116.2 48.6878C117.469 48.6878 118.502 47.6546 118.502 46.3853C118.502 45.116 117.469 44.0828 116.2 44.0828Z" fill="#A05C26"/>
<path d="M114.835 45.2874C116.211 45.2874 117.326 44.172 117.326 42.796C117.326 41.4201 116.211 40.3047 114.835 40.3047C113.459 40.3047 112.344 41.4201 112.344 42.796C112.344 44.172 113.459 45.2874 114.835 45.2874Z" fill="#F5E73D"/>
<path d="M114.833 45.4757C113.356 45.4757 112.152 44.2725 112.152 42.7955C112.152 41.3184 113.356 40.1152 114.833 40.1152C116.31 40.1152 117.513 41.3184 117.513 42.7955C117.513 44.2725 116.31 45.4757 114.833 45.4757ZM114.833 40.493C113.563 40.493 112.53 41.5262 112.53 42.7955C112.53 44.0647 113.563 45.0979 114.833 45.0979C116.102 45.0979 117.135 44.0647 117.135 42.7955C117.135 41.5262 116.102 40.493 114.833 40.493Z" fill="#A05C26"/>
<path d="M3.42889 34.6409C4.80483 34.6409 5.92024 33.5255 5.92024 32.1495C5.92024 30.7736 4.80483 29.6582 3.42889 29.6582C2.05295 29.6582 0.9375 30.7736 0.9375 32.1495C0.9375 33.5255 2.05295 34.6409 3.42889 34.6409Z" fill="#93D2DB"/>
<path d="M3.43027 34.8292C1.95321 34.8292 0.75 33.626 0.75 32.149C0.75 30.6719 1.95321 29.4688 3.43027 29.4688C4.90733 29.4688 6.1105 30.6719 6.1105 32.149C6.1105 33.626 4.90733 34.8292 3.43027 34.8292ZM3.43027 29.8465C2.16098 29.8465 1.12776 30.8797 1.12776 32.149C1.12776 33.4183 2.16098 34.4514 3.43027 34.4514C4.69956 34.4514 5.73274 33.4183 5.73274 32.149C5.73274 30.8797 4.69956 29.8465 3.43027 29.8465Z" fill="#A05C26"/>
<path d="M5.92494 30.9612C7.30088 30.9612 8.41628 29.8458 8.41628 28.4699C8.41628 27.0939 7.30088 25.9785 5.92494 25.9785C4.549 25.9785 3.43359 27.0939 3.43359 28.4699C3.43359 29.8458 4.549 30.9612 5.92494 30.9612Z" fill="#93D2DB"/>
<path d="M5.92241 31.1495C4.44536 31.1495 3.24219 29.9463 3.24219 28.4693C3.24219 26.9922 4.44536 25.7891 5.92241 25.7891C7.39947 25.7891 8.60264 26.9922 8.60264 28.4693C8.60264 29.9463 7.39947 31.1495 5.92241 31.1495ZM5.92241 26.1668C4.65313 26.1668 3.61995 27.2 3.61995 28.4693C3.61995 29.7386 4.65313 30.7718 5.92241 30.7718C7.1917 30.7718 8.22488 29.7386 8.22488 28.4693C8.22488 27.2 7.1917 26.1668 5.92241 26.1668Z" fill="#A05C26"/>
<path d="M10.3976 32.469C11.7735 32.469 12.8889 31.3536 12.8889 29.9777C12.8889 28.6017 11.7735 27.4863 10.3976 27.4863C9.02166 27.4863 7.90625 28.6017 7.90625 29.9777C7.90625 31.3536 9.02166 32.469 10.3976 32.469Z" fill="#93D2DB"/>
<path d="M10.3951 32.6573C8.91801 32.6573 7.71484 31.4542 7.71484 29.9771C7.71484 28.5 8.91801 27.2969 10.3951 27.2969C11.8721 27.2969 13.0753 28.5 13.0753 29.9771C13.0753 31.4542 11.8721 32.6573 10.3951 32.6573ZM10.3951 27.6746C9.12578 27.6746 8.09261 28.7078 8.09261 29.9771C8.09261 31.2464 9.12578 32.2796 10.3951 32.2796C11.6644 32.2796 12.6975 31.2464 12.6975 29.9771C12.6975 28.7078 11.6644 27.6746 10.3951 27.6746Z" fill="#A05C26"/>
<path d="M10.3976 31.7266C11.7727 31.7266 12.8889 32.8428 12.8889 34.2179C12.8889 35.593 11.7727 36.7093 10.3976 36.7093C9.02253 36.7093 7.90625 35.593 7.90625 34.2179C7.90625 32.8428 9.02253 31.7266 10.3976 31.7266Z" fill="#93D2DB"/>
<path d="M10.3951 36.8976C8.91801 36.8976 7.71484 35.6944 7.71484 34.2173C7.71484 32.7403 8.91801 31.5371 10.3951 31.5371C11.8721 31.5371 13.0753 32.7403 13.0753 34.2173C13.0753 35.6944 11.8721 36.8976 10.3951 36.8976ZM10.3951 31.9149C9.12578 31.9149 8.09261 32.948 8.09261 34.2173C8.09261 35.4866 9.12578 36.5198 10.3951 36.5198C11.6644 36.5198 12.6975 35.4866 12.6975 34.2173C12.6975 32.948 11.6644 31.9149 10.3951 31.9149Z" fill="#A05C26"/>
<path d="M5.86634 38.2327C7.24228 38.2327 8.35769 37.1173 8.35769 35.7413C8.35769 34.3654 7.24228 33.25 5.86634 33.25C4.49041 33.25 3.375 34.3654 3.375 35.7413C3.375 37.1173 4.49041 38.2327 5.86634 38.2327Z" fill="#93D2DB"/>
<path d="M5.86382 38.421C4.38676 38.421 3.18359 37.2178 3.18359 35.7408C3.18359 34.2637 4.38676 33.0605 5.86382 33.0605C7.34088 33.0605 8.54405 34.2637 8.54405 35.7408C8.54405 37.2178 7.34088 38.421 5.86382 38.421ZM5.86382 33.4383C4.59453 33.4383 3.56136 34.4715 3.56136 35.7408C3.56136 37.0101 4.59453 38.0432 5.86382 38.0432C7.13311 38.0432 8.16628 37.0101 8.16628 35.7408C8.16628 34.4715 7.13311 33.4383 5.86382 33.4383Z" fill="#A05C26"/>
<path d="M7.23353 34.6409C8.60947 34.6409 9.72488 33.5255 9.72488 32.1495C9.72488 30.7736 8.60947 29.6582 7.23353 29.6582C5.85759 29.6582 4.74219 30.7736 4.74219 32.1495C4.74219 33.5255 5.85759 34.6409 7.23353 34.6409Z" fill="#F5E73D"/>
<path d="M7.23101 34.8292C5.75395 34.8292 4.55078 33.626 4.55078 32.149C4.55078 30.6719 5.75395 29.4688 7.23101 29.4688C8.70807 29.4688 9.91123 30.6719 9.91123 32.149C9.91123 33.626 8.70807 34.8292 7.23101 34.8292ZM7.23101 29.8465C5.96172 29.8465 4.92855 30.8797 4.92855 32.149C4.92855 33.4183 5.96172 34.4514 7.23101 34.4514C8.5003 34.4514 9.53347 33.4183 9.53347 32.149C9.53347 30.8797 8.5003 29.8465 7.23101 29.8465Z" fill="#A05C26"/>
<path d="M75.4182 55.1048C70.1749 55.1048 64.6859 54.7819 58.6398 54.1151C49.6207 53.1216 41.801 51.6162 34.7311 49.5139C34.2476 49.3704 33.7414 49.225 33.2182 49.0739C27.5196 47.4306 19.7131 45.181 18.4117 39.1235C17.5712 35.2099 19.3146 31.113 22.8561 28.684C23.9138 27.9587 25.5571 27.1087 27.2986 26.2096C29.399 25.1236 31.573 23.9997 32.8329 23.0421C36.4556 20.2863 38.6127 18.0103 40.5166 16.0024C43.4235 12.9369 45.9338 10.2906 52.2519 7.44797C54.5052 6.43367 57.2346 5.92188 60.3606 5.92188C62.9142 5.92188 65.7531 6.27696 68.5713 6.9456C72.0769 7.77857 75.0953 9.39917 77.8001 11.8962C80.4444 14.3366 82.5107 17.3492 84.5091 20.2636C86.4093 23.0327 88.3737 25.8961 90.8216 28.2439C91.0709 28.4819 91.324 28.7256 91.5828 28.9711C95.5342 32.7412 100.453 37.4331 101.475 42.8181C101.705 44.0307 101.686 45.5852 101.427 46.9773C101.263 47.8612 100.914 49.106 100.192 50.0221C97.0358 54.0245 88.8308 54.5155 83.4004 54.8404C83.1076 54.8574 82.8262 54.8744 82.5561 54.8914C80.2536 55.0312 77.8529 55.1048 75.4182 55.1048Z" fill="#854322"/>
<path d="M60.3603 6.86343C63.0953 6.86343 65.8738 7.27331 68.3519 7.86262C72.0464 8.74093 74.8362 10.4446 77.1595 12.5884C82.2177 17.2594 85.0566 24.0215 90.1678 28.923C94.1891 32.7781 99.5175 37.5681 100.547 42.9928C100.741 44.0203 100.749 45.4671 100.498 46.8025C100.307 47.8225 99.967 48.7782 99.4494 49.4355C96.3877 53.3189 87.4007 53.6419 82.4973 53.9479C80.1438 54.0953 77.7828 54.1633 75.4161 54.1633C69.8535 54.1633 64.2682 53.7874 58.7434 53.1792C50.716 52.2952 42.713 50.905 34.9991 48.612C29.3912 46.9442 20.6289 44.9552 19.3332 38.928C18.6154 35.5905 19.9962 31.7921 23.3885 29.4669C25.6475 27.9181 31.008 25.6194 33.403 23.7967C42.645 16.7627 42.4146 12.9095 52.6369 8.31399C54.9469 7.26947 57.6328 6.86343 60.3603 6.86343ZM60.3603 4.97461C57.1002 4.97461 54.2405 5.51666 51.8644 6.58573C45.3744 9.50396 42.8056 12.2126 39.8307 15.3518C37.9513 17.3332 35.8226 19.579 32.2603 22.2894C31.0647 23.1998 28.8339 24.352 26.8639 25.3701C25.096 26.2843 23.4262 27.1475 22.3213 27.9049C18.4624 30.5511 16.5661 35.0314 17.4878 39.3209C18.9101 45.9318 27.0282 48.272 32.9554 49.9814C33.4842 50.1344 33.9829 50.2779 34.4607 50.4196C41.5873 52.5388 49.4618 54.0537 58.5357 55.0548C64.6158 55.7253 70.1368 56.0502 75.4161 56.0502C77.8697 56.0502 80.293 55.9766 82.6144 55.8311C82.8826 55.8141 83.164 55.7971 83.4568 55.7801C89.0553 55.4458 97.5153 54.9396 100.934 50.6028C101.608 49.7472 102.088 48.5837 102.356 47.1482C102.636 45.6466 102.655 43.9617 102.404 42.6395C101.325 36.958 96.2857 32.149 92.236 28.2845C91.9792 28.0389 91.7261 27.7972 91.4767 27.5592C89.0987 25.2794 87.1627 22.4556 85.289 19.7262C83.2604 16.7702 81.1638 13.7123 78.442 11.2002C75.6144 8.58981 72.4563 6.8955 68.7901 6.02287C65.9002 5.33723 62.9858 4.97461 60.3603 4.97461Z" fill="#3D1C0E"/>
<path d="M100.554 42.9384C100.28 41.4972 99.7017 40.1014 98.9254 38.7547C99.1086 39.7406 99.1124 41.1156 98.8763 42.3887C98.6931 43.3671 98.3683 44.2852 97.8696 44.916C94.9306 48.6446 86.3062 48.9524 81.5974 49.247C74.0308 49.7192 66.3565 49.3415 58.7974 48.5086C51.0929 47.6586 43.4111 46.3251 36.0069 44.1246C30.6257 42.5248 22.2147 40.6151 20.97 34.8296C20.7603 33.855 20.7377 32.8389 20.9001 31.8359C19.3683 33.9628 18.8375 36.5315 19.34 38.8718C20.6357 44.9009 29.3979 46.8898 35.0058 48.5558C42.7198 50.8488 50.7227 52.2389 58.7502 53.1229C66.6266 53.9918 74.622 54.3846 82.504 53.8936C87.4093 53.5876 96.3944 53.2664 99.4562 49.3811C99.9737 48.7238 100.314 47.7681 100.505 46.7481C100.754 45.4127 100.748 43.9678 100.554 42.9384Z" fill="#70371E"/>
<path d="M27.3516 46.1791C27.3516 46.1791 30.0677 43.4063 30.8326 42.6678C31.5976 41.9292 29.0912 46.8195 29.0912 46.8195L27.3516 46.1791Z" fill="#854322"/>
<path d="M29.551 47.9949L25.6562 46.5613L26.6781 45.5187C26.7895 45.4053 29.4131 42.727 30.1781 41.9885C30.6748 41.5087 31.2151 41.6069 31.5267 41.8392C32.2841 42.4002 31.8969 43.2124 30.9601 45.1748C30.4652 46.2118 29.9382 47.2413 29.9325 47.2507L29.551 47.9949Z" fill="#3D1C0E"/>
<path d="M62.2422 53.3212C62.2422 53.3212 62.7956 48.2063 62.2422 46.1758V53.3212Z" fill="#854322"/>
<path d="M62.2452 54.2664C62.2112 54.2664 62.1772 54.2645 62.1432 54.2607C61.6238 54.204 61.2498 53.7394 61.3065 53.22C61.4557 51.8468 61.7484 47.9464 61.3348 46.424C61.1969 45.9216 61.4953 45.4021 61.9977 45.2643C62.5002 45.1264 63.0196 45.4229 63.1575 45.9272C63.7412 48.0672 63.2444 52.88 63.1858 53.4221C63.1292 53.9075 62.7212 54.2664 62.2452 54.2664Z" fill="#3D1C0E"/>
<path d="M95.8087 51.8975C95.8087 51.8975 95.2893 49.0643 94.5508 48.543L95.8087 51.8975Z" fill="#854322"/>
<path d="M95.8071 52.8422C95.3595 52.8422 94.9628 52.523 94.8797 52.0677C94.6606 50.874 94.2375 49.5651 93.9863 49.3006C93.5764 48.9965 93.482 48.4186 93.7785 47.9974C94.0788 47.5705 94.6681 47.4704 95.095 47.7707C96.0111 48.4167 96.5173 50.5265 96.7383 51.7259C96.8328 52.2378 96.4928 52.7308 95.9809 52.8252C95.9224 52.8365 95.8638 52.8422 95.8071 52.8422ZM93.9995 49.3101C94.0014 49.312 94.0033 49.3139 94.0052 49.3139C94.0052 49.3139 94.0033 49.312 93.9995 49.3101Z" fill="#3D1C0E"/>
</svg>
