<svg width="86" height="95" viewBox="0 0 86 95" fill="none" xmlns="http://www.w3.org/2000/svg">
<path d="M6.55136 78.6152C5.42562 78.6152 4.62856 78.3526 4.11291 77.8124C3.83714 77.5235 3.51605 77.0078 3.55383 76.2032C3.62938 74.6052 5.2122 73.1754 6.60804 71.9137C7.08591 71.483 7.53545 71.075 7.79233 70.769C8.14743 70.3478 8.50065 69.8964 8.84064 69.4279C9.79449 68.1133 10.7011 66.6023 11.6096 64.8117C14.0122 60.0764 17.1703 59.5664 18.417 59.5664C19.0025 59.5664 19.5975 59.6608 20.1887 59.8459C21.7753 60.3446 22.9483 61.4382 23.5829 63.0059C24.4291 65.0988 24.1968 67.9717 23.0087 70.1571C21.9245 72.1498 19.9261 73.9404 17.0721 75.4741C14.8887 76.6489 12.2216 77.6311 9.75673 78.1695C9.04465 78.3243 7.71865 78.6152 6.55136 78.6152Z" fill="#FCE5C6"/>
<path d="M18.4154 60.5099C18.8913 60.5099 19.3881 60.5836 19.9038 60.746C23.6474 61.9228 23.7758 66.7657 22.176 69.7066C19.9831 73.7373 13.7651 76.3288 9.55303 77.2467C8.75972 77.4205 7.57351 77.6699 6.54788 77.6699C5.39192 77.6699 4.44187 77.3525 4.49476 76.2475C4.57598 74.5382 7.50177 72.5795 8.51417 71.3782C8.89383 70.9268 9.25648 70.4602 9.60403 69.9823C10.6882 68.4883 11.6175 66.8809 12.4504 65.2395C13.6064 62.9559 15.6766 60.5099 18.4154 60.5099ZM18.4154 58.6211C15.4121 58.6211 12.6223 60.7214 10.7656 64.3838C9.87978 66.131 8.99959 67.5987 8.07406 68.8717C7.7473 69.3232 7.40918 69.7557 7.06731 70.1599C6.85198 70.4168 6.40437 70.821 5.97183 71.212C4.51366 72.5285 2.70038 74.168 2.60594 76.1588C2.55116 77.2978 3.02149 78.042 3.4257 78.4651C4.12834 79.2017 5.15015 79.5605 6.54599 79.5605C7.81528 79.5605 9.20735 79.2565 9.95343 79.0941C14.802 78.0363 21.3487 75.1785 23.8325 70.6094C25.1698 68.152 25.4134 65.028 24.4539 62.6537C23.7097 60.814 22.3328 59.5315 20.4685 58.9459C19.7867 58.7306 19.0953 58.6211 18.4154 58.6211Z" fill="#B28350"/>
<path d="M67.1998 91.1233C65.7624 91.1233 63.1747 90.9703 61.9885 89.9428L61.4219 89.4517L61.7713 88.7888C62.0924 88.1787 64.9823 82.7842 67.4737 81.3317L68.6731 80.6328L68.8827 82.0041C69.0867 83.3188 69.9953 86.9528 71.7386 87.9747C72.6812 88.5262 72.6056 89.2364 72.53 89.516C72.1693 90.8457 69.4324 91.1233 67.1998 91.1233Z" fill="#FCE5C6"/>
<path d="M67.9446 82.1488C67.9446 82.1488 68.7341 87.3147 71.2576 88.7918C72.61 89.5832 69.9637 90.1801 67.1966 90.1801C65.3172 90.1801 63.383 89.9061 62.603 89.2299C62.6049 89.2281 65.6156 83.505 67.9446 82.1488ZM69.3933 79.1172L66.9945 80.515C64.3331 82.0676 61.4773 87.3128 60.9333 88.3479L60.2344 89.6758L61.3677 90.6561C62.7144 91.8215 65.2813 92.067 67.1966 92.067C68.4017 92.067 69.584 91.965 70.5285 91.7799C71.2103 91.6457 73.0236 91.2907 73.4373 89.7627C73.6507 88.975 73.441 87.8776 72.2114 87.158C71.0196 86.461 70.0752 83.5843 69.8107 81.8598L69.3933 79.1172Z" fill="#B28350"/>
<path d="M32.7019 93.7969C29.4418 93.7969 26.2422 93.1339 23.4467 91.8797C20.0714 90.3649 17.3987 88.0663 15.5023 85.0461C11.4961 78.6656 12.9883 70.6683 14.0763 64.8281C14.5031 62.537 14.8715 60.1816 15.2266 57.9018C15.9519 53.2553 16.7017 48.4501 18.005 43.8338C20.7589 34.0875 28.8261 28.3209 40.142 28.0093C40.5292 27.9979 40.9202 27.9941 41.2999 27.9941C48.1922 27.9941 53.9247 29.6771 58.3389 32.9976C63.0459 36.5373 65.9773 41.7486 67.0558 48.486C67.4581 50.9981 67.7754 53.565 68.0833 56.0469C68.5253 59.6187 68.9824 63.3114 69.6964 66.8699C71.8119 77.4284 68.8861 83.7579 66.0604 87.2069C62.5774 91.4567 57.3227 93.7988 51.2634 93.7988L32.7019 93.7969Z" fill="#FCE5C6"/>
<path d="M41.3085 28.9396C54.2809 28.9396 63.9837 35.2105 66.1313 48.6363C67.1097 54.7523 67.5612 60.9854 68.7776 67.0579C72.2096 84.1858 62.4991 92.8555 51.2701 92.8555C51.2701 92.8555 32.7408 92.8555 32.7087 92.8555C27.0403 92.8555 20.1933 90.7343 16.3099 84.5465C12.6267 78.6798 13.8166 71.4211 15.0122 65.0047C16.3099 58.0482 16.9955 50.916 18.9221 44.0936C21.7573 34.0545 30.0492 29.2343 40.1752 28.9566C40.5567 28.9453 40.9345 28.9396 41.3085 28.9396ZM41.3103 27.0508V28.9396V27.0508C40.9193 27.0508 40.5208 27.0565 40.1242 27.0678C28.3681 27.3908 19.978 33.4105 17.1051 43.5799C15.7848 48.251 15.0311 53.0844 14.302 57.7593C13.9469 60.0315 13.5806 62.3812 13.1556 64.6572C12.0374 70.6505 10.5074 78.8574 14.7101 85.5495C16.7065 88.7302 19.519 91.1517 23.0681 92.7421C25.9844 94.0511 29.3182 94.7423 32.7105 94.7423H51.272C54.33 94.7423 57.2161 94.1644 59.8472 93.0217C62.603 91.826 64.9414 90.0713 66.8 87.8047C69.756 84.1971 72.8197 77.6051 70.6324 66.6839C69.926 63.1594 69.4707 59.4856 69.0307 55.9308C68.7228 53.4395 68.4036 50.865 67.9994 48.3359C66.8812 41.3491 63.827 35.9358 58.9179 32.2431C56.6098 30.5073 53.9069 29.1852 50.8848 28.3144C47.9741 27.4758 44.7536 27.0508 41.3103 27.0508Z" fill="#B28350"/>
<path d="M68.7689 66.8954C68.7519 66.8085 68.7368 66.7217 68.7198 66.6348C69.0767 79.8697 60.3863 86.5599 50.5228 86.5599C50.5228 86.5599 31.9935 86.5599 31.9614 86.5599C26.293 86.5599 19.4461 84.4388 15.5627 78.251C14.7769 77.0006 14.2159 75.686 13.8268 74.3317C13.7796 77.8506 14.3708 81.309 16.3012 84.384C20.1865 90.5717 27.0335 92.6929 32.6999 92.6929C32.7302 92.6929 51.2614 92.6929 51.2614 92.6929C62.4904 92.6929 72.2009 84.0232 68.7689 66.8954Z" fill="#F3D0A7"/>
<path d="M76.7427 78.6171C75.5754 78.6171 74.2475 78.3282 73.5354 78.1714C71.0705 77.6331 68.4054 76.6509 66.22 75.4761C63.366 73.9404 61.3677 72.1517 60.2835 70.159C59.0935 67.9737 58.8631 65.0988 59.7093 63.0079C60.3439 61.4383 61.5169 60.3447 63.1035 59.8479C63.6947 59.6628 64.2896 59.5684 64.8752 59.5684C66.1218 59.5684 69.2818 60.0802 71.6825 64.8136C72.591 66.6042 73.4976 68.1153 74.4515 69.4299C74.7915 69.8983 75.1428 70.3498 75.4998 70.771C75.7567 71.077 76.2081 71.4831 76.6841 71.9138C78.0799 73.1755 79.6647 74.6053 79.7383 76.2033C79.7761 77.0079 79.455 77.5236 79.1792 77.8125C78.6655 78.3546 77.8684 78.6171 76.7427 78.6171Z" fill="#FCE5C6"/>
<path d="M64.8734 60.5119C67.6103 60.5119 69.6805 62.9579 70.8402 65.2415C71.6732 66.8829 72.6025 68.4921 73.6867 69.9843C74.0342 70.4622 74.3969 70.9287 74.7765 71.3802C75.7889 72.5814 78.7147 74.5401 78.7959 76.2495C78.8488 77.3545 77.8987 77.6718 76.7428 77.6718C75.7171 77.6718 74.531 77.4225 73.7377 77.2487C69.5237 76.3288 63.3076 73.7374 61.1146 69.7085C59.5148 66.7676 59.6433 61.9247 63.3869 60.748C63.9007 60.5874 64.3974 60.5119 64.8734 60.5119ZM64.8734 58.623V60.5119V58.623C64.1915 58.623 63.5002 58.7326 62.8184 58.946C60.9541 59.5316 59.5752 60.8141 58.831 62.6538C57.8715 65.0299 58.1152 68.1521 59.4525 70.6095C61.9382 75.1786 68.4829 78.0344 73.3315 79.0941C74.0795 79.2565 75.4697 79.5607 76.739 79.5607C78.1367 79.5607 79.1567 79.2017 79.8593 78.4651C80.2635 78.042 80.732 77.2978 80.6791 76.1588C80.5846 74.168 78.7714 72.5285 77.3132 71.212C76.8806 70.821 76.433 70.4169 76.2177 70.16C75.8777 69.7558 75.5396 69.3232 75.2109 68.8717C74.2854 67.5987 73.4052 66.1292 72.5193 64.384C70.6664 60.7234 67.8766 58.623 64.8734 58.623Z" fill="#B28350"/>
<path d="M29.2394 56.1677L23.2632 53.9615C22.3244 53.6159 21.8446 52.5733 22.1903 51.6364L22.4 51.0697C22.7456 50.131 23.7883 49.6513 24.7251 49.997L30.7013 52.203C31.6401 52.5487 32.1198 53.5913 31.7742 54.5282L31.5645 55.0948C31.2208 56.0336 30.1781 56.5134 29.2394 56.1677Z" fill="#B62322"/>
<path d="M51.7329 56.1677L57.7092 53.9615C58.6479 53.6159 59.1276 52.5733 58.782 51.6364L58.5724 51.0697C58.2267 50.131 57.1841 49.6513 56.2472 49.997L50.271 52.203C49.3323 52.5487 48.8525 53.5913 49.1981 54.5282L49.4078 55.0948C49.7535 56.0336 50.7942 56.5134 51.7329 56.1677Z" fill="#B62322"/>
<path d="M58.4182 50.5853C53.1749 50.5853 47.6859 50.2623 41.6398 49.5955C32.6207 48.602 24.801 47.0966 17.7311 44.9944C17.2476 44.8508 16.7414 44.7054 16.2182 44.5542C10.5196 42.911 2.7131 40.6614 1.4117 34.6039C0.571174 30.6903 2.31456 26.5935 5.8561 24.1645C6.91384 23.4392 8.55712 22.5892 10.2986 21.6901C12.4009 20.604 14.573 19.4802 15.8329 18.5206C19.4556 15.7649 21.6127 13.4888 23.5166 11.481C26.4235 8.41545 28.9319 5.7692 35.2519 2.92653C37.5052 1.91223 40.2346 1.40039 43.3606 1.40039C45.9142 1.40039 48.7531 1.75547 51.5713 2.42412C55.0769 3.25709 58.0953 4.87769 60.8001 7.37471C63.4444 9.81507 65.5108 12.8296 67.5092 15.7422C69.4093 18.5112 71.3737 21.3747 73.8216 23.7225C74.0709 23.9605 74.324 24.2041 74.5828 24.4496C78.5342 28.2197 83.4527 32.9116 84.4745 38.2966C84.705 39.5092 84.6861 41.0637 84.4273 42.4558C84.263 43.3398 83.9135 44.5845 83.192 45.5006C80.0358 49.503 71.8308 49.9941 66.4004 50.3189C66.1076 50.3359 65.8262 50.3529 65.5561 50.3699C63.2555 50.5135 60.8529 50.5853 58.4182 50.5853C58.4201 50.5853 58.4182 50.5853 58.4182 50.5853Z" fill="#854322"/>
<path d="M43.3603 2.34585C46.0953 2.34585 48.8738 2.75569 51.3519 3.345C55.0464 4.2233 57.8362 5.92702 60.1594 8.07084C65.2177 12.7419 68.0566 19.5058 73.1678 24.4054C77.1891 28.2604 82.5174 33.0505 83.5469 38.4733C83.7414 39.5009 83.7489 40.9477 83.4977 42.2831C83.307 43.303 82.967 44.2588 82.4494 44.9161C79.3876 48.7995 70.4006 49.1225 65.4973 49.4285C63.1438 49.5758 60.7828 49.6438 58.4161 49.6438C52.8535 49.6438 47.2682 49.2679 41.7434 48.6597C33.7159 47.7757 25.713 46.3856 17.9991 44.0926C12.3912 42.4248 3.62893 40.4358 2.33319 34.4086C1.61544 31.0711 2.99617 27.2726 6.38849 24.9475C8.64752 23.3986 14.008 21.0999 16.403 19.2772C25.645 12.2433 25.4146 8.39007 35.6369 3.79456C37.9488 2.75193 40.6347 2.34585 43.3603 2.34585ZM43.3603 0.457031C40.1002 0.457031 37.2405 0.999083 34.8644 2.06816C28.3744 4.98638 25.8056 7.69498 22.8307 10.8342C20.9513 12.8156 18.8226 15.0614 15.2603 17.7718C14.0647 18.6823 11.8339 19.8344 9.8639 20.8525C8.09597 21.7667 6.42628 22.6299 5.32132 23.3873C1.46246 26.0317 -0.433933 30.5138 0.487812 34.8033C1.91009 41.4142 10.0282 43.7544 15.9554 45.4638C16.4842 45.6168 16.9829 45.7604 17.4607 45.9021C24.5873 48.0214 32.4618 49.5362 41.5357 50.5373C47.6158 51.2078 53.1368 51.5326 58.4161 51.5326C60.8696 51.5326 63.293 51.459 65.6144 51.3136C65.8826 51.2966 66.164 51.2795 66.4568 51.2626C72.0553 50.9282 80.5153 50.422 83.9341 46.0853C84.6084 45.2296 85.0881 44.0661 85.3564 42.6306C85.6359 41.129 85.6548 39.4442 85.4036 38.122C84.3251 32.4385 79.2857 27.6315 75.236 23.767C74.9792 23.5214 74.7261 23.2796 74.4767 23.0416C72.0987 20.7618 70.1627 17.938 68.2889 15.2087C66.2603 12.2527 64.1638 9.19471 61.442 6.68258C58.6144 4.07223 55.4563 2.37793 51.7901 1.50529C48.9021 0.819648 45.9876 0.457031 43.3603 0.457031Z" fill="#3D1C0E"/>
<path d="M83.5458 38.4189C83.2719 36.9777 82.6939 35.5819 81.9176 34.2351C82.1008 35.2211 82.1046 36.5962 81.8685 37.8692C81.6853 38.8476 81.3604 39.7656 80.8618 40.3965C77.9228 44.125 69.2984 44.4329 64.5896 44.7276C57.0229 45.1998 49.3487 44.822 41.7896 43.989C34.0851 43.1391 26.4033 41.8056 18.9991 39.6051C13.6179 38.0053 5.20691 36.0956 3.96218 30.3102C3.75252 29.3355 3.72987 28.3194 3.89231 27.3164C2.36048 29.4432 1.82972 32.012 2.33214 34.3523C3.62788 40.3814 12.3901 42.3703 17.998 44.0363C25.712 46.3293 33.7149 47.7194 41.7424 48.6034C49.6188 49.4722 57.6142 49.8651 65.4962 49.374C70.4015 49.068 79.3866 48.747 82.4484 44.8617C82.9659 44.2044 83.3059 43.2486 83.4967 42.2286C83.746 40.8913 83.7403 39.4464 83.5458 38.4189Z" fill="#70371E"/>
<path d="M10.3438 41.6596C10.3438 41.6596 13.0599 38.8868 13.8248 38.1482C14.5898 37.4097 12.0833 42.2999 12.0833 42.2999L10.3438 41.6596Z" fill="#854322"/>
<path d="M12.5432 43.4744L8.64844 42.0408L9.67027 40.9981C9.78171 40.8848 12.4053 38.2065 13.1703 37.4679C13.667 36.9863 14.2073 37.0864 14.5189 37.3168C15.2763 37.8778 14.8891 38.69 13.9523 40.6525C13.4574 41.6894 12.9304 42.7189 12.9248 42.7283L12.5432 43.4744Z" fill="#3D1C0E"/>
<path d="M45.2344 48.8016C45.2344 48.8016 45.7878 43.6867 45.2344 41.6543V48.8016Z" fill="#854322"/>
<path d="M45.2374 49.7466C45.2034 49.7466 45.1694 49.7447 45.1354 49.7409C44.616 49.6843 44.242 49.2197 44.2986 48.7002C44.4479 47.3271 44.7406 43.4266 44.327 41.9023C44.1891 41.398 44.4875 40.8805 44.9899 40.7426C45.4943 40.6048 46.0118 40.9032 46.1497 41.4056C46.7333 43.5475 46.2366 48.3602 46.178 48.9023C46.1213 49.3877 45.7134 49.7466 45.2374 49.7466Z" fill="#3D1C0E"/>
<path d="M78.8009 47.378C78.8009 47.378 78.2815 44.5448 77.543 44.0234L78.8009 47.378Z" fill="#854322"/>
<path d="M78.7993 48.3226C78.3516 48.3226 77.955 48.0034 77.8719 47.5482C77.6528 46.3545 77.2297 45.0455 76.9785 44.7811C76.5686 44.477 76.4742 43.899 76.7707 43.4778C77.071 43.051 77.6604 42.9508 78.0873 43.2511C79.0033 43.8971 79.5095 46.0069 79.7305 47.2063C79.825 47.7182 79.485 48.2112 78.9731 48.3057C78.9145 48.317 78.856 48.3226 78.7993 48.3226ZM76.9917 44.7905C76.9936 44.7924 76.9955 44.7943 76.9974 44.7943C76.9974 44.7943 76.9955 44.7924 76.9917 44.7905Z" fill="#3D1C0E"/>
<path d="M41.9837 59.0404C41.9837 60.1907 40.9222 60.8914 39.4791 60.8914C38.0361 60.8914 36.9727 59.8526 36.9727 58.7023C36.9727 57.552 37.8094 56.7266 39.2506 56.7266C40.6955 56.7285 41.9837 57.8901 41.9837 59.0404Z" fill="white"/>
<path d="M39.1117 61.361C38.8586 61.3044 38.6054 61.1815 38.3467 60.9851C38.1144 60.8076 36.5221 59.2228 36.9811 58.4824C36.9811 58.4824 37.6686 59.9651 38.9945 59.9821C39.6991 59.9916 42.0337 58.5221 42.0337 58.5221C42.7401 59.0226 41.4293 60.4582 41.1006 60.7037C40.3923 61.2345 39.7558 61.5084 39.1117 61.361Z" fill="#F5CD2B"/>
<path d="M39.4649 61.7787C39.3232 61.7787 39.1778 61.7636 39.0286 61.7296C38.717 61.6597 38.4204 61.5143 38.1182 61.2858C38.0955 61.2688 35.9612 59.4082 36.66 58.2825L37.0283 57.6875L37.323 58.3222C37.3287 58.3335 37.9312 59.5896 38.9984 59.6028C39.0003 59.6028 39.0003 59.6028 39.0022 59.6028C39.3742 59.6028 40.7569 58.8775 41.8316 58.2013L42.0451 58.0672L42.2509 58.2126C42.4832 58.377 42.6117 58.6281 42.6155 58.919C42.6268 59.752 41.6012 60.7984 41.3254 61.0043C40.8305 61.3783 40.1902 61.7787 39.4649 61.7787ZM38.0162 60.1147C38.2296 60.3678 38.4412 60.5812 38.5753 60.6851C38.7868 60.8456 38.9908 60.9476 39.1929 60.9929H39.1948C39.6651 61.1006 40.1827 60.9174 40.8721 60.4018C41.129 60.2091 41.7107 59.5253 41.8354 59.0852C41.0855 59.5366 39.6292 60.3602 38.9965 60.3602C38.9927 60.3602 38.9909 60.3602 38.9871 60.3602C38.6206 60.3545 38.2976 60.2601 38.0162 60.1147Z" fill="#D89625"/>
<path d="M39.3024 55.6754C39.0266 55.7094 38.7414 55.8133 38.4429 55.9965C38.1747 56.1609 36.4805 57.9174 36.7619 58.4935C37.0698 59.1225 37.5042 57.2563 38.7281 56.8767C39.6272 56.5971 41.1307 59.1339 41.9127 58.9714C42.825 58.7825 42.0204 57.6568 41.6124 57.094C41.0136 56.2761 40.0088 55.5885 39.3024 55.6754Z" fill="#F5CD2B"/>
<path d="M41.8353 59.3563C41.3178 59.3563 40.7946 58.8368 40.1958 58.2438C39.786 57.8377 39.0984 57.1558 38.8397 57.237C38.3127 57.4013 37.9311 57.9567 37.6535 58.3609C37.4004 58.7292 37.2039 59.0219 36.8677 58.9973C36.7355 58.9879 36.5504 58.9218 36.422 58.6592C35.9535 57.7016 38.1087 55.7562 38.2447 55.6749C38.5828 55.4672 38.9228 55.3425 39.2552 55.301C40.1656 55.1914 41.2838 56.0055 41.9165 56.8706C42.3887 57.5222 42.8742 58.2645 42.6532 58.8331C42.5814 59.0163 42.4095 59.2543 41.9883 59.3412C41.9373 59.3506 41.8863 59.3563 41.8353 59.3563ZM38.8737 56.4758C39.4856 56.4758 40.1165 57.101 40.7285 57.7074C41.0439 58.0209 41.6294 58.6008 41.8334 58.6008C41.8353 58.6008 41.8372 58.6008 41.8391 58.6008C41.926 58.5819 41.9506 58.5573 41.9506 58.5573C41.9789 58.4931 41.977 58.24 41.3064 57.3145C40.7587 56.5665 39.8615 55.9847 39.3477 56.0489C39.1192 56.0772 38.8888 56.1641 38.6394 56.3171C38.5601 56.37 38.426 56.4966 38.2692 56.6609C38.3769 56.6024 38.494 56.5533 38.6149 56.5155C38.7017 56.4891 38.7868 56.4758 38.8737 56.4758Z" fill="#D89625"/>
<path d="M62.9678 25.8899C62.7581 25.8899 62.539 25.8785 62.3124 25.8578C61.8968 25.8181 61.5927 25.4479 61.6324 25.0323C61.672 24.6168 62.0403 24.3127 62.4578 24.3524C63.4759 24.4506 64.1899 24.2712 64.579 23.8216C65.1399 23.1737 65.0096 21.9913 64.9114 21.589C64.8132 21.1848 65.0606 20.7749 65.4629 20.6748C65.8671 20.5747 66.2751 20.8184 66.3771 21.2226C66.3997 21.3114 66.9135 23.4231 65.7273 24.8019C65.1059 25.5253 64.1804 25.8899 62.9678 25.8899Z" fill="#DC3A14"/>
<path d="M71.2697 25.7213C70.0571 25.7213 69.1297 25.3567 68.5101 24.6352C67.324 23.2563 67.8377 21.1446 67.8604 21.0558C67.9624 20.6516 68.3723 20.4042 68.7765 20.5081C69.1807 20.6101 69.4262 21.0181 69.3261 21.4223C69.2279 21.8246 69.0976 23.007 69.6586 23.653C70.0495 24.1025 70.7635 24.2819 71.7797 24.1837C72.1971 24.1422 72.5636 24.4482 72.6051 24.8637C72.6448 25.2793 72.3407 25.6476 71.9251 25.6891C71.6985 25.7099 71.4794 25.7213 71.2697 25.7213Z" fill="#DC3A14"/>
<path d="M65.6464 31.3306C65.586 31.3306 65.5237 31.323 65.4613 31.3079C65.0571 31.2059 64.8116 30.798 64.9117 30.3938C65.0099 29.9914 65.1402 28.809 64.5793 28.1631C64.1883 27.7135 63.4762 27.5341 62.4581 27.6323C62.0426 27.6719 61.6742 27.3678 61.6327 26.9523C61.5911 26.5367 61.8971 26.1685 62.3127 26.1269C63.8502 25.9777 65.0004 26.3328 65.7276 27.1809C66.9138 28.5597 66.4001 30.6714 66.3774 30.7602C66.2924 31.1021 65.9845 31.3306 65.6464 31.3306Z" fill="#DC3A14"/>
<path d="M68.5914 31.4965C68.2533 31.4965 67.9454 31.268 67.8604 30.9261C67.8377 30.8373 67.324 28.7256 68.5101 27.3468C69.2392 26.5006 70.3876 26.1436 71.9251 26.2928C72.3407 26.3325 72.6448 26.7027 72.6051 27.1182C72.5655 27.5338 72.1952 27.8379 71.7797 27.7982C70.7635 27.7 70.0477 27.8794 69.6586 28.329C69.0976 28.9768 69.2279 30.1592 69.3261 30.5616C69.4243 30.9658 69.1769 31.3757 68.7746 31.4758C68.7142 31.4909 68.6518 31.4965 68.5914 31.4965Z" fill="#DC3A14"/>
</svg>
