<svg width="86" height="95" viewBox="0 0 86 95" fill="none" xmlns="http://www.w3.org/2000/svg">
<path d="M6.7975 78.6171C5.67176 78.6171 4.8747 78.3546 4.35905 77.8144C4.08328 77.5254 3.76214 77.0098 3.79992 76.2051C3.87547 74.6072 5.45834 73.1773 6.85417 71.9156C7.33016 71.485 7.78159 71.077 8.03847 70.771C8.39168 70.3517 8.7449 69.9002 9.08678 69.4299C10.0406 68.1153 10.9472 66.6061 11.8558 64.8136C14.2584 60.0783 17.4165 59.5684 18.6631 59.5684C19.2486 59.5684 19.8436 59.6628 20.4348 59.8479C22.0214 60.3466 23.1943 61.4402 23.829 63.0098C24.6752 65.1026 24.4429 67.9755 23.2548 70.1609C22.1706 72.1536 20.1722 73.9442 17.3182 75.4779C15.1348 76.6527 12.4677 77.6349 10.0028 78.1733C9.29074 78.3281 7.96479 78.6171 6.7975 78.6171Z" fill="#FCE5C6"/>
<path d="M18.6651 60.5119C19.1411 60.5119 19.6379 60.5855 20.1535 60.748C23.8972 61.9247 24.0256 66.7676 22.4258 69.7085C20.2328 73.7393 14.0148 76.3307 9.80276 77.2487C9.00945 77.4225 7.82329 77.6718 6.79766 77.6718C5.6417 77.6718 4.6916 77.3545 4.74449 76.2496C4.82571 74.5402 7.7515 72.5814 8.76391 71.3802C9.14356 70.9287 9.50622 70.4622 9.85376 69.9862C10.9379 68.4922 11.8673 66.8848 12.7002 65.2434C13.8581 62.9579 15.9282 60.5119 18.6651 60.5119ZM18.6651 58.623C15.6619 58.623 12.8721 60.7235 11.0154 64.3859C10.1296 66.133 9.24936 67.6006 8.32384 68.8737C7.99708 69.3251 7.65896 69.7577 7.31709 70.1619C7.10176 70.4188 6.6541 70.823 6.22156 71.214C4.76339 72.5305 2.95011 74.17 2.85567 76.1608C2.80278 77.2997 3.27122 78.0439 3.67543 78.467C4.37807 79.2037 5.39993 79.5625 6.79577 79.5625C8.06506 79.5625 9.45713 79.2584 10.2032 79.096C15.0518 78.0383 21.5985 75.1805 24.0823 70.6114C25.4196 68.1541 25.6632 65.0299 24.7037 62.6557C23.9595 60.816 22.5825 59.5335 20.7183 58.948C20.0383 58.7308 19.347 58.623 18.6651 58.623Z" fill="#B28350"/>
<path d="M67.4459 91.1233C66.0085 91.1233 63.4208 90.9703 62.2346 89.9428L61.668 89.4517L62.0174 88.7887C62.3385 88.1786 65.2284 82.7841 67.7179 81.3316L68.9173 80.6328L69.127 82.0041C69.331 83.3187 70.2395 86.9527 71.9847 87.9746C72.9273 88.5261 72.8517 89.2364 72.7761 89.5159C72.4173 90.8437 69.6804 91.1233 67.4459 91.1233Z" fill="#FCE5C6"/>
<path d="M68.1964 82.1488C68.1964 82.1488 68.9859 87.3147 71.5094 88.7918C72.8618 89.5832 70.2155 90.1801 67.4484 90.1801C65.569 90.1801 63.6349 89.9062 62.8548 89.23C62.8548 89.23 65.8674 83.5069 68.1964 82.1488ZM69.6432 79.1191L67.2444 80.5169C64.583 82.0695 61.7272 87.3147 61.1832 88.3497L60.4844 89.6776L61.6177 90.6579C62.9644 91.8233 65.5313 92.0689 67.4465 92.0689C68.6516 92.0689 69.834 91.9669 70.7785 91.7818C71.4603 91.6477 73.2736 91.2926 73.6872 89.7645C73.9007 88.9769 73.691 87.8795 72.4613 87.1598C71.2695 86.4628 70.3251 83.5862 70.0606 81.8617L69.6432 79.1191Z" fill="#B28350"/>
<path d="M32.9439 93.7969C29.6838 93.7969 26.4841 93.134 23.6887 91.8798C20.3133 90.365 17.6406 88.0662 15.7443 85.046C11.7381 78.6656 13.2303 70.6683 14.3201 64.8281C14.747 62.5369 15.1153 60.1816 15.4704 57.9018C16.1957 53.2553 16.9456 48.4501 18.2488 43.8338C21.0027 34.0875 29.0699 28.3209 40.3859 28.0093C40.7731 27.9979 41.164 27.9941 41.5456 27.9941C48.4379 27.9941 54.1705 29.6771 58.5846 32.9976C63.2916 36.5373 66.223 41.7485 67.3015 48.486C67.7038 50.9981 68.0212 53.5669 68.329 56.0488C68.771 59.6206 69.2281 63.3132 69.9421 66.8699C72.0576 77.4284 69.1318 83.7578 66.3043 87.2068C62.8213 91.4567 57.5666 93.7988 51.5073 93.7988H32.9439V93.7969Z" fill="#FCE5C6"/>
<path d="M41.5486 28.9357C54.5211 28.9357 64.2239 35.2065 66.3715 48.6323C67.3499 54.7483 67.8014 60.9815 69.0178 67.054C72.4498 84.1819 62.7394 92.8516 51.5103 92.8516C51.5103 92.8516 32.9809 92.8516 32.9488 92.8516C27.2805 92.8516 20.4335 90.7304 16.5501 84.5426C12.8669 78.6759 14.0568 71.4172 15.2544 65.0008C16.552 58.0443 17.2376 50.9121 19.1642 44.0897C21.9993 34.0506 30.2913 29.2304 40.4172 28.9527C40.795 28.9414 41.1728 28.9357 41.5486 28.9357ZM41.5486 27.0469V28.9357V27.0469C41.1576 27.0469 40.7591 27.0526 40.3625 27.0639C28.6064 27.3869 20.2163 33.4066 17.3434 43.576C16.0231 48.2471 15.2695 53.0805 14.5404 57.7554C14.1853 60.0276 13.8188 62.3773 13.3938 64.6533C12.2757 70.6466 10.7457 78.8535 14.9483 85.5456C16.9448 88.7263 19.7573 91.1478 23.3064 92.7382C26.2227 94.0472 29.5565 94.7384 32.9488 94.7384H51.5103C54.5683 94.7384 57.4544 94.1605 60.0856 93.0177C62.8414 91.8221 65.1797 90.0674 67.0383 87.8008C69.9943 84.1932 73.058 77.6012 70.8708 66.68C70.1643 63.1555 69.7091 59.4817 69.269 55.9269C68.9612 53.4356 68.6419 50.8611 68.2377 48.332C67.1195 41.3452 64.0653 35.9319 59.1563 32.2392C56.8481 30.5034 54.1452 29.1812 51.1231 28.3105C48.2124 27.4737 44.992 27.0469 41.5486 27.0469Z" fill="#B28350"/>
<path d="M69.0129 66.8974C68.9959 66.8106 68.9808 66.7236 68.9619 66.6367C69.3189 79.8717 60.6285 86.5619 50.765 86.5619C50.765 86.5619 32.2357 86.5619 32.2036 86.5619C26.5352 86.5619 19.6882 84.4408 15.8048 78.253C15.0191 77.0026 14.4581 75.688 14.069 74.3337C14.0218 77.8525 14.613 81.311 16.5434 84.386C20.4287 90.5738 27.2756 92.6949 32.9421 92.6949C32.9723 92.6949 51.5036 92.6949 51.5036 92.6949C62.7345 92.6949 72.4449 84.0272 69.0129 66.8974Z" fill="#F3D0A7"/>
<path d="M56.127 88.0363C56.0439 88.0363 55.9608 87.9984 55.9061 87.9285C55.8154 87.8152 55.8249 87.6528 55.9287 87.5508L58.0517 85.4561L55.8116 86.9558C55.6907 87.037 55.5282 87.0125 55.4357 86.901C55.3431 86.7896 55.3508 86.6253 55.4528 86.5214L56.0402 85.9302L55.5377 86.3174C55.413 86.4137 55.2356 86.3911 55.1411 86.2664C55.0448 86.1417 55.0694 85.9642 55.1921 85.8697L59.1171 82.8382C59.2361 82.7475 59.4042 82.7626 59.5024 82.8759C59.6006 82.9874 59.5968 83.1574 59.491 83.2632L57.861 84.9026L60.2239 83.3198C60.3448 83.2386 60.5091 83.2632 60.6016 83.3765C60.6942 83.4899 60.6848 83.6542 60.5809 83.7581L58.218 86.0889L60.7604 84.472C60.8775 84.3984 61.0305 84.4191 61.123 84.5211C61.2156 84.6231 61.2212 84.778 61.1362 84.8857L60.2258 86.0473L61.8332 85.0104C61.9654 84.9254 62.1392 84.9631 62.2242 85.0953C62.3092 85.2275 62.2714 85.4013 62.1392 85.4863L59.1171 87.4356C58.9999 87.5111 58.847 87.4903 58.7544 87.3884C58.6619 87.2864 58.6561 87.1315 58.7411 87.0219L59.6724 85.8339L56.282 87.989C56.2329 88.0211 56.1799 88.0363 56.127 88.0363Z" fill="#DCA197"/>
<path d="M19.6719 77.8973C19.6304 77.8973 19.5869 77.8878 19.5473 77.867L17.2372 76.7263C17.1201 76.6677 17.0578 76.5373 17.0861 76.4089C17.1164 76.2805 17.2297 76.1898 17.36 76.1898L18.7691 76.1804L16.1908 74.8714C16.0662 74.809 16.0057 74.6636 16.0492 74.5314C16.0926 74.3992 16.2248 74.3161 16.3627 74.3388L18.8824 74.7373L17.0182 73.876C16.8897 73.8174 16.8255 73.6738 16.8652 73.5379C16.9048 73.4037 17.0389 73.3169 17.1768 73.3376L18.1136 73.4737L17.5432 73.2772C17.3959 73.2262 17.3166 73.0656 17.3676 72.9164C17.4186 72.7691 17.5791 72.6879 17.7283 72.7408L21.1698 73.9194C21.3077 73.9666 21.387 74.1121 21.353 74.2537C21.319 74.3954 21.1811 74.4879 21.0375 74.4671L19.0241 74.1763L20.9733 75.0772C21.1018 75.1358 21.166 75.2813 21.1263 75.4173C21.0848 75.5533 20.9507 75.6382 20.8109 75.6156L18.0476 75.1792L20.0648 76.203C20.1819 76.2616 20.2424 76.3938 20.2121 76.5203C20.1819 76.6469 20.0686 76.7376 19.9383 76.7394L18.5575 76.7489L19.7947 77.3609C19.9345 77.4308 19.993 77.6007 19.9231 77.7405C19.8759 77.8387 19.7758 77.8973 19.6719 77.8973Z" fill="#DCA197"/>
<path d="M76.9848 78.6171C75.8156 78.6171 74.4897 78.3282 73.7776 78.1714C71.3127 77.6331 68.6475 76.6509 66.4622 75.4761C63.6082 73.9404 61.6099 72.1517 60.5257 70.159C59.3357 67.9737 59.1053 65.0988 59.9515 63.0079C60.5861 61.4383 61.759 60.3447 63.3456 59.8479C63.9368 59.6628 64.5318 59.5684 65.1173 59.5684C66.3639 59.5684 69.5239 60.0802 71.9246 64.8136C72.8332 66.6061 73.7398 68.1153 74.6937 69.4299C75.0337 69.8983 75.3868 70.3498 75.7419 70.771C75.9988 71.077 76.4503 71.4831 76.9262 71.9156C78.3221 73.1773 79.9069 74.6072 79.9805 76.2051C80.0183 77.0098 79.6971 77.5254 79.4214 77.8144C78.9076 78.3546 78.1105 78.6171 76.9848 78.6171Z" fill="#FCE5C6"/>
<path d="M65.1194 60.5138C67.8563 60.5138 69.9265 62.9599 71.0863 65.2434C71.9193 66.8848 72.8485 68.4941 73.9327 69.9862C74.2802 70.4641 74.6429 70.9288 75.0226 71.3803C76.035 72.5816 78.9608 74.5402 79.042 76.2496C79.0949 77.3546 78.1448 77.6719 76.9888 77.6719C75.9632 77.6719 74.777 77.4226 73.9837 77.2488C69.7697 76.3289 63.5536 73.7375 61.3607 69.7086C59.7609 66.7677 59.8894 61.9248 63.633 60.7481C64.1468 60.5875 64.6434 60.5138 65.1194 60.5138ZM65.1194 58.625V60.5138V58.625C64.4376 58.625 63.7463 58.7345 63.0644 58.948C61.2001 59.5335 59.8213 60.8161 59.0771 62.6558C58.1176 65.0319 58.3613 68.1541 59.6986 70.6115C62.1843 75.1805 68.729 78.0364 73.5776 79.096C74.3256 79.2585 75.7158 79.5626 76.9851 79.5626C78.3828 79.5626 79.4028 79.2038 80.1054 78.4671C80.5096 78.044 80.978 77.2998 80.9251 76.1609C80.8307 74.1701 79.0174 72.5305 77.5593 71.214C77.1267 70.823 76.679 70.4188 76.4637 70.1619C76.1237 69.7577 75.7856 69.3252 75.4569 68.8738C74.5314 67.6007 73.6512 66.1331 72.7654 64.3859C70.9124 60.7254 68.1245 58.625 65.1194 58.625Z" fill="#B28350"/>
<path d="M39.4515 61.055C39.1984 60.9983 38.9453 60.8755 38.6865 60.679C38.4542 60.5015 36.8619 59.4154 37.3209 58.675C37.8781 57.7759 41.0759 57.9724 42.1242 58.7147C42.8306 59.2152 41.769 60.1521 41.4404 60.3976C40.7321 60.9284 40.0955 61.2023 39.4515 61.055Z" fill="#F5CD2B"/>
<path d="M39.8035 61.4718C39.6618 61.4718 39.5164 61.4568 39.3672 61.4228C39.0555 61.3529 38.7571 61.2074 38.4568 60.9789L38.3907 60.9297C37.8958 60.5652 36.3885 59.4583 36.9986 58.4743C37.2026 58.1475 37.6106 57.919 38.2131 57.7962C39.4125 57.5525 41.4336 57.7603 42.3421 58.4044C42.6651 58.633 42.7369 58.9219 42.7387 59.1221C42.7482 59.8512 41.8472 60.5614 41.6659 60.6974C41.1691 61.0714 40.5288 61.4718 39.8035 61.4718ZM39.3124 58.4553C38.9705 58.4553 38.6438 58.4819 38.3624 58.5385C37.8165 58.6481 37.671 58.8237 37.6408 58.8747C37.6163 58.9144 37.4387 59.294 38.8383 60.3234L38.9139 60.3801C39.1254 60.5407 39.3294 60.6427 39.5315 60.688H39.5334C40.0037 60.7957 40.5213 60.6125 41.2107 60.0968C41.5847 59.8173 41.9832 59.3639 41.9813 59.1353C41.9813 59.1146 41.9813 59.0787 41.902 59.0239C41.4185 58.6783 40.304 58.4553 39.3124 58.4553Z" fill="#D89625"/>
<path d="M39.6432 56.3663C39.3674 56.4003 39.0823 56.5041 38.7838 56.6873C38.5156 56.8516 36.6929 57.8433 37.1027 58.6857C37.6014 59.7094 40.225 59.5847 42.2536 59.1635C43.1659 58.9746 42.0288 57.5864 41.7039 57.2861C41.0013 56.642 40.3477 56.2794 39.6432 56.3663Z" fill="#F5CD2B"/>
<path d="M39.478 59.8516C38.3032 59.8516 37.1415 59.6344 36.7619 58.8525C36.2273 57.755 37.9462 56.7427 38.5109 56.4103L38.5846 56.3668C38.9208 56.1591 39.2608 56.0344 39.5951 55.9928C40.3601 55.8984 41.0873 56.2119 41.958 57.009C41.9713 57.0222 43.1725 58.1952 42.9478 59.0017C42.9024 59.1622 42.7646 59.4437 42.3283 59.5344C41.926 59.6175 40.6944 59.8516 39.478 59.8516ZM39.6877 56.7427C39.4591 56.771 39.2268 56.8579 38.9794 57.0109L38.8944 57.0619C37.2926 58.0063 37.4022 58.4445 37.44 58.5219C37.7573 59.1717 39.7916 59.2888 42.1753 58.7958C42.1979 58.7902 42.2131 58.7864 42.2225 58.7826C42.2395 58.5635 41.7824 57.8778 41.4462 57.5662C40.7567 56.9315 40.2109 56.6747 39.6877 56.7427Z" fill="#D89625"/>
<path d="M29.7762 59.761L29.8121 55.821H30.5393C31.3194 55.821 31.9521 55.1882 31.9521 54.4081V52.032C31.9521 51.2519 31.3194 50.6191 30.5393 50.6191H24.2646C23.4845 50.6191 22.8518 51.2519 22.8518 52.032V54.4081C22.8518 55.1882 23.4845 55.821 24.2646 55.821H24.9673V59.7913C23.7716 60.3636 22.8008 61.3137 22.8008 62.3922C22.8008 64.1412 24.8615 65.5578 27.4039 65.5578C29.9462 65.5578 32.0069 64.1412 32.0069 62.3922C32.0031 61.2948 31.0039 60.3296 29.7762 59.761Z" fill="white"/>
<path d="M27.4034 66.0296C24.6042 66.0296 22.3281 64.3977 22.3281 62.3917C22.3281 61.2962 23.1328 60.2309 24.4946 59.4999V56.2927H24.2642C23.2253 56.2927 22.3791 55.4465 22.3791 54.4077V52.0315C22.3791 50.9927 23.2253 50.1465 24.2642 50.1465H30.5388C31.5777 50.1465 32.4239 50.9927 32.4239 52.0315V54.4077C32.4239 55.4465 31.5777 56.2927 30.5388 56.2927H30.2801L30.2517 59.4678C31.6495 60.195 32.4749 61.2716 32.4787 62.3898C32.4787 64.3976 30.2026 66.0296 27.4034 66.0296ZM24.2642 51.0909C23.7447 51.0909 23.3235 51.5121 23.3235 52.0315V54.4077C23.3235 54.9271 23.7447 55.3483 24.2642 55.3483H25.439V60.0873L25.1708 60.2158C24.2528 60.6559 23.2725 61.4568 23.2725 62.3917C23.2725 63.8763 25.1255 65.0851 27.4034 65.0851C29.6813 65.0851 31.5342 63.8763 31.5342 62.3917C31.5305 61.4341 30.5219 60.6257 29.5774 60.1893L29.3016 60.0609L29.3451 55.3483H30.5407C31.0601 55.3483 31.4813 54.9271 31.4813 54.4077V52.0315C31.4813 51.5121 31.0601 51.0909 30.5407 51.0909H24.2642Z" fill="#573216"/>
<path d="M29.8144 55.872H25.0092C24.0176 55.872 23.2148 55.0674 23.2148 54.0776V52.2436C23.2148 51.252 24.0195 50.4492 25.0092 50.4492H29.8144C30.8061 50.4492 31.6088 51.2539 31.6088 52.2436V54.0776C31.6088 55.0693 30.8061 55.872 29.8144 55.872Z" fill="#563116"/>
<path d="M56.448 59.761L56.4839 55.821H57.2111C57.9912 55.821 58.6239 55.1882 58.6239 54.4081V52.032C58.6239 51.2519 57.9912 50.6191 57.2111 50.6191H50.9365C50.1564 50.6191 49.5237 51.2519 49.5237 52.032V54.4081C49.5237 55.1882 50.1564 55.821 50.9365 55.821H51.6391V59.7913C50.4435 60.3636 49.4727 61.3137 49.4727 62.3922C49.4727 64.1412 51.5333 65.5578 54.0756 65.5578C56.618 65.5578 58.6787 64.1412 58.6787 62.3922C58.6749 61.2948 57.6776 60.3296 56.448 59.761Z" fill="white"/>
<path d="M54.0752 66.0315C51.276 66.0315 49 64.3996 49 62.3937C49 61.2982 49.8046 60.2329 51.1664 59.5019V56.2947H50.936C49.8972 56.2947 49.051 55.4485 49.051 54.4096V52.0335C49.051 50.9946 49.8972 50.1484 50.936 50.1484H57.2107C58.2495 50.1484 59.0957 50.9946 59.0957 52.0335V54.4096C59.0957 55.4485 58.2495 56.2947 57.2107 56.2947H56.9519L56.9236 59.4698C58.3213 60.1951 59.1486 61.2717 59.1524 62.3917C59.1505 64.3996 56.8744 66.0315 54.0752 66.0315ZM50.936 51.0928C50.4166 51.0928 49.9954 51.5141 49.9954 52.0335V54.4096C49.9954 54.9291 50.4166 55.3503 50.936 55.3503H52.1108V60.0893L51.8426 60.2178C50.9247 60.6579 49.9444 61.4587 49.9444 62.3937C49.9444 63.8783 51.7973 65.0871 54.0752 65.0871C56.3531 65.0871 58.2061 63.8783 58.2061 62.3937C58.2023 61.4361 57.1937 60.6276 56.2493 60.1913L55.9716 60.0628L56.015 55.3503H57.2107C57.7301 55.3503 58.1513 54.9291 58.1513 54.4096V52.0335C58.1513 51.5141 57.7301 51.0928 57.2107 51.0928H50.936Z" fill="#573216"/>
<path d="M56.7377 55.872H51.2129C50.4196 55.872 49.7773 55.2298 49.7773 54.4365V51.8828C49.7773 51.0895 50.4196 50.4473 51.2129 50.4473H56.7377C57.531 50.4473 58.1731 51.0895 58.1731 51.8828V54.4365C58.1731 55.2298 57.5291 55.872 56.7377 55.872Z" fill="#563116"/>
<path d="M58.6546 50.5852C53.4093 50.5852 47.9223 50.2623 41.8781 49.5955C32.859 48.602 25.0392 47.0966 17.9694 44.9944C17.4858 44.8508 16.9796 44.7054 16.4564 44.5543C10.7579 42.911 2.95327 40.6614 1.64998 34.6039C0.809455 30.6903 2.55284 26.5934 6.09438 24.1644C7.15212 23.4391 8.7954 22.5892 10.5369 21.6901C12.6373 20.604 14.8113 19.4802 16.0712 18.5206C19.6939 15.7648 21.8509 13.4888 23.7549 11.481C26.6618 8.41543 29.1701 5.76919 35.4901 2.92651C37.7453 1.91221 40.4728 1.39844 43.5988 1.39844C46.1525 1.39844 48.9914 1.75357 51.8095 2.42221C55.3152 3.25518 58.3335 4.87578 61.0402 7.3728C63.6846 9.81316 65.751 12.8258 67.7493 15.7403C69.6495 18.5093 71.6138 21.3728 74.0618 23.7206C74.3111 23.9586 74.5641 24.2022 74.8229 24.4477C78.7743 28.2178 83.6928 32.9097 84.7147 38.2947C84.9451 39.5073 84.9262 41.0618 84.6675 42.4539C84.5031 43.3379 84.1537 44.5826 83.4322 45.4967C80.2759 49.4992 72.0709 49.9903 66.6406 50.3152C66.3478 50.3322 66.0663 50.3492 65.7962 50.3662C63.4919 50.5116 61.0893 50.5852 58.6546 50.5852Z" fill="#854322"/>
<path d="M43.5986 2.34195C46.3336 2.34195 49.1121 2.75183 51.5902 3.34114C55.2847 4.21944 58.0745 5.92316 60.3977 8.06698C65.456 12.738 68.2949 19.5019 73.4061 24.4015C77.4274 28.2566 82.7557 33.0466 83.7851 38.4694C83.9796 39.497 83.9872 40.9438 83.736 42.2792C83.5453 43.2992 83.2052 44.2549 82.6877 44.9122C79.6259 48.7956 70.6389 49.1187 65.7355 49.4247C63.382 49.572 61.0211 49.6399 58.6544 49.6399C53.0918 49.6399 47.5065 49.264 41.9817 48.6558C33.9542 47.7719 25.9513 46.3818 18.2374 44.0887C12.6294 42.4209 3.86716 40.4319 2.57143 34.4047C1.85368 31.0671 3.23445 27.2688 6.62677 24.9436C8.8858 23.3948 14.2462 21.0961 16.6413 19.2734C25.8833 12.2394 25.6529 8.38621 35.877 3.7907C38.1871 2.74807 40.873 2.34195 43.5986 2.34195ZM43.5986 0.453125C40.3385 0.453125 37.4788 0.995222 35.1027 2.0643C28.6127 4.98252 26.0438 7.69112 23.0689 10.8303C21.1896 12.8117 19.0609 15.0575 15.4986 17.768C14.3029 18.6784 12.0722 19.8305 10.1022 20.8486C8.33425 21.7628 6.66452 22.626 5.55956 23.3834C1.7007 26.0278 -0.195648 30.51 0.726097 34.7995C2.14838 41.4103 10.2665 43.7506 16.1936 45.46C16.7225 45.613 17.2212 45.7565 17.699 45.8981C24.8255 48.0174 32.7 49.5322 41.7739 50.5333C47.8541 51.2038 53.3751 51.5287 58.6544 51.5287C61.1079 51.5287 63.5313 51.4551 65.8526 51.3097C66.1208 51.2927 66.4023 51.2757 66.695 51.2587C72.2935 50.9244 80.7536 50.4181 84.1724 46.0814C84.8467 45.2258 85.3264 44.0622 85.5946 42.6267C85.8741 41.1251 85.893 39.4403 85.6418 38.1181C84.5633 32.4366 79.5239 27.6276 75.4743 23.7631C75.2174 23.5176 74.9643 23.2758 74.715 23.0378C72.3369 20.758 70.4009 17.9342 68.5272 15.2048C66.4986 12.2488 64.4021 9.19081 61.6803 6.67867C58.8527 4.06832 55.6946 2.37407 52.0284 1.50143C49.1404 0.815788 46.2259 0.453125 43.5986 0.453125Z" fill="#3D1C0E"/>
<path d="M83.788 38.417C83.5141 36.9758 82.9361 35.58 82.1598 34.2332C82.3431 35.2192 82.3469 36.5943 82.1108 37.8673C81.9276 38.8457 81.6027 39.7637 81.104 40.3946C78.165 44.1231 69.5406 44.4309 64.8317 44.7256C57.2651 45.1978 49.5909 44.8201 42.0318 43.9871C34.3273 43.1372 26.6455 41.8037 19.2413 39.6032C13.86 38.0034 5.44914 36.0937 4.20441 30.3083C3.99475 29.3336 3.97206 28.3174 4.1345 27.3145C2.60267 29.4413 2.07191 32.0101 2.57433 34.3503C3.87006 40.3794 12.6323 42.3684 18.2403 44.0344C25.9542 46.3274 33.9571 47.7175 41.9846 48.6015C49.861 49.4703 57.8564 49.8632 65.7384 49.3721C70.6437 49.0661 79.6288 48.745 82.6906 44.8597C83.2081 44.2024 83.5481 43.2467 83.7389 42.2267C83.9882 40.8913 83.9826 39.4464 83.788 38.417Z" fill="#70371E"/>
<path d="M10.5859 41.6596C10.5859 41.6596 13.302 38.8868 14.067 38.1482C14.832 37.4097 12.3255 42.2999 12.3255 42.2999L10.5859 41.6596Z" fill="#854322"/>
<path d="M12.7854 43.4734L8.89062 42.0398L9.91246 40.9972C10.0239 40.8839 12.6475 38.2055 13.4125 37.467C13.9092 36.9872 14.4494 37.0855 14.7611 37.3178C15.5185 37.8788 15.1313 38.6909 14.1944 40.6534C13.6995 41.6903 13.1726 42.7198 13.1669 42.7292L12.7854 43.4734Z" fill="#3D1C0E"/>
<path d="M45.4805 48.7997C45.4805 48.7997 46.0339 43.6847 45.4805 41.6523V48.7997Z" fill="#854322"/>
<path d="M45.4835 49.7447C45.4495 49.7447 45.4155 49.7428 45.3815 49.739C44.862 49.6823 44.4881 49.2177 44.5447 48.6983C44.694 47.3251 44.9867 43.4246 44.5731 41.9004C44.4352 41.3979 44.7336 40.8786 45.236 40.7407C45.7385 40.6028 46.2579 40.9012 46.3958 41.4036C46.9794 43.5456 46.4827 48.3583 46.4241 48.9003C46.3674 49.3858 45.9595 49.7447 45.4835 49.7447Z" fill="#3D1C0E"/>
<path d="M79.0431 47.3779C79.0431 47.3779 78.5237 44.5448 77.7852 44.0234L79.0431 47.3779Z" fill="#854322"/>
<path d="M79.0415 48.3226C78.5939 48.3226 78.1972 48.0034 78.1141 47.5482C77.895 46.3545 77.4719 45.0455 77.2207 44.7811C76.8108 44.477 76.7163 43.899 77.0129 43.4778C77.3132 43.051 77.9026 42.9508 78.3294 43.2511C79.2455 43.8971 79.7517 46.007 79.9727 47.2064C80.0671 47.7183 79.7272 48.2112 79.2153 48.3057C79.1567 48.317 79.0982 48.3226 79.0415 48.3226ZM77.2358 44.7906C77.2377 44.7925 77.2395 44.7944 77.2414 44.7944C77.2395 44.7944 77.2377 44.7925 77.2358 44.7906Z" fill="#3D1C0E"/>
<path d="M15.4339 27.8216C13.1087 24.6446 11.1443 21.2202 9.58039 17.6087C9.04586 16.3791 9.55772 15.0267 10.6551 14.6206C11.2444 14.3958 11.8357 14.1711 12.425 13.9482C13.5243 13.5402 14.7444 14.0993 15.2091 15.1684C16.5936 18.3605 18.3294 21.3901 20.3844 24.1969C21.072 25.1395 20.9379 26.4748 20.0313 27.2172C19.5402 27.6138 19.0472 28.0086 18.5561 28.4052C17.6494 29.1456 16.2253 28.9039 15.4339 27.8216Z" fill="#FBD8C1"/>
<path d="M17.3351 29.0221C17.2369 29.0221 17.1387 29.0165 17.0386 29.0032C16.3529 28.9164 15.7107 28.5253 15.2782 27.9341C12.9436 24.7458 10.9679 21.2968 9.40395 17.6854C9.11118 17.013 9.09982 16.2631 9.37181 15.6266C9.6098 15.0675 10.0424 14.6463 10.5864 14.4461C11.1738 14.2213 11.765 13.9965 12.3543 13.7736C13.5386 13.3335 14.8664 13.9153 15.3783 15.0958C16.7571 18.2747 18.4911 21.2987 20.5329 24.0885C21.2922 25.1293 21.1222 26.5685 20.1475 27.3656L19.443 27.9322C19.1861 28.14 18.9274 28.3459 18.6705 28.5537C18.2984 28.8597 17.8319 29.0221 17.3351 29.0221ZM13.1702 14.0041C12.9436 14.0041 12.7131 14.0438 12.4903 14.1269C11.9028 14.3498 11.3117 14.5745 10.7223 14.7993C10.2747 14.9655 9.91959 15.3112 9.72126 15.7758C9.49082 16.3179 9.50214 16.9582 9.75335 17.5362C11.306 21.1231 13.2685 24.5456 15.5861 27.7132C15.9582 28.2213 16.5059 28.5556 17.0896 28.6311C17.5882 28.6935 18.0679 28.565 18.4363 28.2628C18.695 28.055 18.9519 27.8473 19.2107 27.6395L19.9133 27.0748C20.7312 26.4042 20.8728 25.1897 20.2325 24.3133C18.1737 21.5027 16.4266 18.4523 15.0364 15.2488C14.7002 14.4725 13.9522 14.0041 13.1702 14.0041Z" fill="#A05C26"/>
<path d="M17.3351 29.0221C17.2369 29.0221 17.1387 29.0165 17.0386 29.0032C16.3529 28.9164 15.7107 28.5253 15.2782 27.9341C12.9436 24.7458 10.9679 21.2968 9.40395 17.6854C9.11118 17.013 9.09982 16.2631 9.37181 15.6266C9.6098 15.0675 10.0424 14.6463 10.5864 14.4461C11.1738 14.2213 11.765 13.9965 12.3543 13.7736C13.5386 13.3335 14.8664 13.9153 15.3783 15.0958C16.7571 18.2747 18.4911 21.2987 20.5329 24.0885C21.2922 25.1293 21.1222 26.5685 20.1475 27.3656L19.443 27.9322C19.1861 28.14 18.9274 28.3459 18.6705 28.5537C18.2984 28.8597 17.8319 29.0221 17.3351 29.0221ZM13.1702 14.0041C12.9436 14.0041 12.7131 14.0438 12.4903 14.1269C11.9028 14.3498 11.3117 14.5745 10.7223 14.7993C10.2747 14.9655 9.91959 15.3112 9.72126 15.7758C9.49082 16.3179 9.50214 16.9582 9.75335 17.5362C11.306 21.1231 13.2685 24.5456 15.5861 27.7132C15.9582 28.2213 16.5059 28.5556 17.0896 28.6311C17.5882 28.6935 18.0679 28.565 18.4363 28.2628C18.695 28.055 18.9519 27.8473 19.2107 27.6395L19.9133 27.0748C20.7312 26.4042 20.8728 25.1897 20.2325 24.3133C18.1737 21.5027 16.4266 18.4523 15.0364 15.2488C14.7002 14.4725 13.9522 14.0041 13.1702 14.0041Z" fill="#A05C26"/>
<path d="M8.78879 22.0093C11.9658 19.6841 15.3921 17.7216 19.0035 16.1577C20.2331 15.6251 21.5855 16.135 21.9897 17.2324C22.2145 17.8217 22.4374 18.4129 22.6622 19.0022C23.0683 20.1015 22.5111 21.3217 21.4401 21.7864C18.2461 23.169 15.2183 24.9048 12.4097 26.9599C11.4671 27.6474 10.1317 27.5114 9.38943 26.6047C8.99466 26.1136 8.598 25.6207 8.20324 25.1296C7.46282 24.223 7.7065 22.8007 8.78879 22.0093Z" fill="#FBD8C1"/>
<path d="M11.076 27.5869C10.3847 27.5869 9.70469 27.2922 9.24192 26.7256L8.05385 25.2485C7.68742 24.7989 7.52878 24.221 7.60433 23.6185C7.69122 22.9328 8.08219 22.2906 8.67528 21.8581C11.8579 19.5291 15.3069 17.5534 18.9259 15.9857C19.6002 15.6929 20.352 15.6816 20.9885 15.9555C21.5476 16.1954 21.9651 16.626 22.1653 17.1681C22.2767 17.4609 22.3881 17.7556 22.5014 18.0521C22.6148 18.3486 22.7243 18.6414 22.8377 18.9361C23.2759 20.1203 22.6941 21.4482 21.5136 21.9601C18.3423 23.3332 15.3164 25.0672 12.519 27.1128C12.0846 27.432 11.5765 27.5869 11.076 27.5869ZM20.012 16.1368C19.6984 16.1368 19.3792 16.2029 19.0789 16.3333C15.4845 17.8896 12.06 19.8503 8.90004 22.1641C8.39194 22.5362 8.05576 23.0839 7.98209 23.6676C7.91787 24.1662 8.04819 24.6441 8.35041 25.0124L9.53848 26.4894C10.209 27.3092 11.4235 27.449 12.2999 26.8105C15.118 24.7479 18.1685 23.0008 21.3663 21.6163C22.3617 21.1837 22.8547 20.0656 22.4864 19.0702C22.3749 18.7774 22.2635 18.4827 22.1501 18.1862C22.0368 17.8897 21.9273 17.5969 21.8139 17.3022C21.6496 16.8545 21.304 16.5014 20.8431 16.303C20.5824 16.1916 20.301 16.1368 20.012 16.1368Z" fill="#A05C26"/>
<path d="M11.076 27.5869C10.3847 27.5869 9.70469 27.2922 9.24192 26.7256L8.05385 25.2485C7.68742 24.7989 7.52878 24.221 7.60433 23.6185C7.69122 22.9328 8.08219 22.2906 8.67528 21.8581C11.8579 19.5291 15.3069 17.5534 18.9259 15.9857C19.6002 15.6929 20.352 15.6816 20.9885 15.9555C21.5476 16.1954 21.9651 16.626 22.1653 17.1681C22.2767 17.4609 22.3881 17.7556 22.5014 18.0521C22.6148 18.3486 22.7243 18.6414 22.8377 18.9361C23.2759 20.1203 22.6941 21.4482 21.5136 21.9601C18.3423 23.3332 15.3164 25.0672 12.519 27.1128C12.0846 27.432 11.5765 27.5869 11.076 27.5869ZM20.012 16.1368C19.6984 16.1368 19.3792 16.2029 19.0789 16.3333C15.4845 17.8896 12.06 19.8503 8.90004 22.1641C8.39194 22.5362 8.05576 23.0839 7.98209 23.6676C7.91787 24.1662 8.04819 24.6441 8.35041 25.0124L9.53848 26.4894C10.209 27.3092 11.4235 27.449 12.2999 26.8105C15.118 24.7479 18.1685 23.0008 21.3663 21.6163C22.3617 21.1837 22.8547 20.0656 22.4864 19.0702C22.3749 18.7774 22.2635 18.4827 22.1501 18.1862C22.0368 17.8897 21.9273 17.5969 21.8139 17.3022C21.6496 16.8545 21.304 16.5014 20.8431 16.303C20.5824 16.1916 20.301 16.1368 20.012 16.1368Z" fill="#A05C26"/>
<path d="M71.7743 39.7594C73.2646 37.7251 74.5225 35.5284 75.5255 33.2146C75.8674 32.427 75.5406 31.56 74.8379 31.3013C74.4602 31.1577 74.0824 31.0141 73.7046 30.8706C73.0001 30.6099 72.2182 30.9669 71.9197 31.6526C71.0339 33.6982 69.9214 35.638 68.603 37.438C68.1629 38.0425 68.2479 38.8981 68.8297 39.3722C69.1451 39.6253 69.4605 39.8783 69.7759 40.1333C70.3539 40.6074 71.2662 40.4526 71.7743 39.7594Z" fill="#FBD8C1"/>
<path d="M70.5536 40.5961C70.2212 40.5961 69.9076 40.4866 69.6545 40.2807C69.341 40.0257 69.0255 39.7745 68.7101 39.5214C68.0566 38.9888 67.9414 38.0254 68.4495 37.3285C69.7584 35.5416 70.8672 33.6075 71.7455 31.5789C72.0893 30.7913 72.977 30.4022 73.7684 30.6949L74.9035 31.1256C75.2681 31.2597 75.5571 31.5411 75.7176 31.9151C75.899 32.3401 75.8914 32.8425 75.6969 33.2902C74.6883 35.6172 73.4189 37.8309 71.9249 39.8709C71.6359 40.2656 71.2071 40.5244 70.7481 40.5829C70.6839 40.5905 70.6179 40.5961 70.5536 40.5961ZM73.2263 30.9745C72.7522 30.9745 72.297 31.2597 72.093 31.7281C71.2034 33.7813 70.0814 35.74 68.7555 37.5495C68.3664 38.084 68.4514 38.8207 68.9481 39.2249C69.2636 39.478 69.579 39.7311 69.8944 39.986C70.1154 40.1674 70.4025 40.2467 70.7029 40.207C71.0598 40.1617 71.3942 39.9578 71.6227 39.6461C73.0998 37.6288 74.3559 35.4397 75.3532 33.1372C75.5062 32.784 75.5136 32.3911 75.372 32.0606C75.253 31.781 75.0396 31.5732 74.7732 31.475L73.6381 31.0443C73.5021 30.9971 73.3642 30.9745 73.2263 30.9745Z" fill="#A05C26"/>
<path d="M70.5536 40.5961C70.2212 40.5961 69.9076 40.4866 69.6545 40.2807C69.341 40.0257 69.0255 39.7745 68.7101 39.5214C68.0566 38.9888 67.9414 38.0254 68.4495 37.3285C69.7584 35.5416 70.8672 33.6075 71.7455 31.5789C72.0893 30.7913 72.977 30.4022 73.7684 30.6949L74.9035 31.1256C75.2681 31.2597 75.5571 31.5411 75.7176 31.9151C75.899 32.3401 75.8914 32.8425 75.6969 33.2902C74.6883 35.6172 73.4189 37.8309 71.9249 39.8709C71.6359 40.2656 71.2071 40.5244 70.7481 40.5829C70.6839 40.5905 70.6179 40.5961 70.5536 40.5961ZM73.2263 30.9745C72.7522 30.9745 72.297 31.2597 72.093 31.7281C71.2034 33.7813 70.0814 35.74 68.7555 37.5495C68.3664 38.084 68.4514 38.8207 68.9481 39.2249C69.2636 39.478 69.579 39.7311 69.8944 39.986C70.1154 40.1674 70.4025 40.2467 70.7029 40.207C71.0598 40.1617 71.3942 39.9578 71.6227 39.6461C73.0998 37.6288 74.3559 35.4397 75.3532 33.1372C75.5062 32.784 75.5136 32.3911 75.372 32.0606C75.253 31.781 75.0396 31.5732 74.7732 31.475L73.6381 31.0443C73.5021 30.9971 73.3642 30.9745 73.2263 30.9745Z" fill="#A05C26"/>
<path d="M76.0289 36.0342C73.9928 34.5439 71.798 33.2879 69.4842 32.2849C68.6965 31.943 67.8295 32.2698 67.5707 32.9724C67.4272 33.3502 67.2837 33.728 67.1401 34.1076C66.8795 34.8122 67.2365 35.5941 67.9221 35.8926C69.9677 36.7784 71.9094 37.8909 73.7076 39.2074C74.312 39.6475 75.1676 39.5607 75.6417 38.9808C75.8948 38.6654 76.1479 38.3499 76.4029 38.0345C76.8789 37.4527 76.724 36.5404 76.0289 36.0342Z" fill="#FBD8C1"/>
<path d="M74.5595 39.6753C74.2252 39.6753 73.8852 39.5714 73.5944 39.3599C71.8094 38.0528 69.8752 36.9441 67.8447 36.0658C67.0552 35.722 66.668 34.8343 66.9608 34.0429C67.1043 33.6613 67.2479 33.2836 67.3914 32.9058C67.5255 32.5412 67.807 32.2522 68.181 32.0917C68.606 31.9104 69.1083 31.9179 69.556 32.1125C71.883 33.1211 74.0968 34.3885 76.1367 35.8826C76.5315 36.1697 76.7902 36.5965 76.8488 37.0536C76.9017 37.4597 76.7921 37.8507 76.5446 38.1548C76.2915 38.4684 76.0384 38.7838 75.7853 39.0992C75.4774 39.477 75.0223 39.6753 74.5595 39.6753ZM68.8345 32.3372C68.6588 32.3372 68.4889 32.3713 68.3302 32.4374C68.0506 32.5564 67.8429 32.7698 67.7446 33.0361C67.6011 33.4158 67.4576 33.7935 67.314 34.1732C67.0911 34.7757 67.3895 35.4557 67.9939 35.7182C70.049 36.6079 72.0077 37.7298 73.8153 39.0539C74.348 39.443 75.0846 39.358 75.4926 38.8594C75.7438 38.5458 75.9988 38.2304 76.2537 37.9131C76.437 37.6902 76.5144 37.4012 76.4767 37.099C76.4313 36.7439 76.2274 36.4115 75.9157 36.1848C73.8985 34.7077 71.7092 33.4536 69.4068 32.4563C69.2217 32.3769 69.0272 32.3372 68.8345 32.3372Z" fill="#A05C26"/>
<path d="M74.5595 39.6753C74.2252 39.6753 73.8852 39.5714 73.5944 39.3599C71.8094 38.0528 69.8752 36.9441 67.8447 36.0658C67.0552 35.722 66.668 34.8343 66.9608 34.0429C67.1043 33.6613 67.2479 33.2836 67.3914 32.9058C67.5255 32.5412 67.807 32.2522 68.181 32.0917C68.606 31.9104 69.1083 31.9179 69.556 32.1125C71.883 33.1211 74.0968 34.3885 76.1367 35.8826C76.5315 36.1697 76.7902 36.5965 76.8488 37.0536C76.9017 37.4597 76.7921 37.8507 76.5446 38.1548C76.2915 38.4684 76.0384 38.7838 75.7853 39.0992C75.4774 39.477 75.0223 39.6753 74.5595 39.6753ZM68.8345 32.3372C68.6588 32.3372 68.4889 32.3713 68.3302 32.4374C68.0506 32.5564 67.8429 32.7698 67.7446 33.0361C67.6011 33.4158 67.4576 33.7935 67.314 34.1732C67.0911 34.7757 67.3895 35.4557 67.9939 35.7182C70.049 36.6079 72.0077 37.7298 73.8153 39.0539C74.348 39.443 75.0846 39.358 75.4926 38.8594C75.7438 38.5458 75.9988 38.2304 76.2537 37.9131C76.437 37.6902 76.5144 37.4012 76.4767 37.099C76.4313 36.7439 76.2274 36.4115 75.9157 36.1848C73.8985 34.7077 71.7092 33.4536 69.4068 32.4563C69.2217 32.3769 69.0272 32.3372 68.8345 32.3372Z" fill="#A05C26"/>
<path d="M62.7938 24.6477C62.739 24.6477 62.6842 24.6326 62.6351 24.5986L59.4732 22.468C59.3543 22.3868 59.3146 22.23 59.3788 22.1035C59.4449 21.975 59.596 21.9184 59.7301 21.9694L60.4592 22.2432L57.456 20.2014C57.3332 20.1183 57.2954 19.954 57.3709 19.8255C57.4446 19.6971 57.6071 19.648 57.7393 19.7122L59.3296 20.4847L57.964 19.5876C57.8394 19.5063 57.7997 19.342 57.8734 19.2117C57.9319 19.1078 58.0472 19.0549 58.1586 19.07C58.1322 18.9945 58.1378 18.9076 58.1832 18.832C58.2625 18.6979 58.4363 18.6526 58.5723 18.7338L63.0544 21.3952C63.1848 21.4726 63.232 21.6388 63.1602 21.7729C63.0885 21.907 62.9241 21.9599 62.7881 21.8957L61.7606 21.4046L63.3132 22.4246C63.4379 22.5058 63.4776 22.672 63.4039 22.8023C63.3302 22.9327 63.1678 22.9818 63.0337 22.9176L61.0126 21.9353L62.7522 23.1177C62.8712 23.199 62.9109 23.3558 62.8448 23.4823C62.7787 23.6089 62.6275 23.6674 62.4934 23.6164L61.806 23.3576L62.9543 24.1321C63.0846 24.219 63.1186 24.3965 63.0318 24.525C62.9732 24.6043 62.8845 24.6477 62.7938 24.6477Z" fill="#DCA197"/>
<path d="M21.5596 39.888C21.5199 39.888 21.4803 39.8804 21.4425 39.8634L19.9597 39.1947C19.8426 39.1418 19.7747 39.0153 19.7973 38.8888C19.82 38.7622 19.9239 38.6659 20.0523 38.6546L20.7077 38.5998L19.3553 37.9708C19.2307 37.9123 19.1664 37.7744 19.2004 37.6403C19.2363 37.5081 19.3629 37.4193 19.4989 37.4306L20.6529 37.5307L19.9616 37.2455C19.8332 37.1926 19.7614 37.0547 19.7936 36.9187C19.8257 36.7827 19.9541 36.694 20.0901 36.7015L20.2072 36.711C20.1562 36.643 20.1354 36.5523 20.1619 36.4636C20.2053 36.3124 20.3621 36.2256 20.5113 36.269L22.7477 36.9036C22.8874 36.9433 22.9743 37.0831 22.9498 37.2248C22.9252 37.3683 22.7968 37.4684 22.6494 37.459L21.8051 37.3966L22.5701 37.7139C22.6986 37.7668 22.7703 37.9066 22.7363 38.0426C22.7023 38.1786 22.5777 38.2712 22.436 38.2579L21.0515 38.137L21.9109 38.5356C22.028 38.5904 22.0922 38.715 22.0695 38.8416C22.0469 38.9681 21.943 39.0645 21.8146 39.0739L21.1837 39.1268L21.6691 39.3459C21.8127 39.4101 21.875 39.5782 21.8108 39.7199C21.7711 39.8257 21.6672 39.888 21.5596 39.888Z" fill="#DCA197"/>
</svg>
