<svg width="87" height="95" viewBox="0 0 87 95" fill="none" xmlns="http://www.w3.org/2000/svg">
<path d="M7.18022 78.6151C6.05448 78.6151 5.25746 78.3526 4.74182 77.8124C4.46605 77.5234 4.14496 77.0077 4.18273 76.2031C4.25828 74.6051 5.8411 73.1753 7.23694 71.9136C7.71292 71.4829 8.16436 71.0749 8.42124 70.7689C8.77633 70.3477 9.12762 69.8964 9.4695 69.4279C10.4234 68.1133 11.33 66.6042 12.2385 64.8117C14.6411 60.0764 17.7992 59.5664 19.0459 59.5664C19.6314 59.5664 20.2263 59.6608 20.8175 59.8459C22.4042 60.3446 23.5772 61.4382 24.2118 63.0078C25.058 65.1006 24.8257 67.9735 23.6376 70.1588C22.5534 72.1515 20.555 73.9422 17.701 75.4759C15.5175 76.6508 12.8505 77.633 10.3856 78.1713C9.6754 78.3262 8.3494 78.6151 7.18022 78.6151Z" fill="#FCE5C6"/>
<path d="M19.0481 60.5119C19.5241 60.5119 20.0209 60.5855 20.5366 60.748C24.2802 61.9247 24.4086 66.7676 22.8088 69.7085C20.6159 73.7393 14.3979 76.3307 10.1858 77.2487C9.39249 77.4225 8.20628 77.6717 7.18065 77.6717C6.02469 77.6717 5.07468 77.3545 5.12757 76.2495C5.20879 74.5401 8.13453 72.5814 9.14694 71.3802C9.52659 70.9287 9.88925 70.4621 10.2368 69.9861C11.321 68.4921 12.2502 66.8847 13.0832 65.2433C14.2411 62.9579 16.3112 60.5119 19.0481 60.5119ZM19.0481 58.623C16.0449 58.623 13.2551 60.7234 11.3984 64.3858C10.5125 66.133 9.63235 67.6006 8.70683 68.8737C8.38006 69.3251 8.04195 69.7576 7.70007 70.1618C7.48475 70.4187 7.03714 70.8229 6.6046 71.2139C5.14643 72.5304 3.33319 74.1699 3.23875 76.1607C3.18397 77.2996 3.65426 78.0438 4.05847 78.4669C4.76111 79.2036 5.78297 79.5625 7.1788 79.5625C8.44809 79.5625 9.84016 79.2584 10.5862 79.0959C15.4348 78.0382 21.9796 75.1804 24.4653 70.6113C25.8026 68.154 26.0463 65.0299 25.0867 62.6556C24.3425 60.8159 22.9656 59.5334 21.1013 58.9479C20.4213 58.7307 19.73 58.623 19.0481 58.623Z" fill="#B28350"/>
<path d="M67.8327 91.1233C66.3953 91.1233 63.8075 90.9703 62.6213 89.9428L62.0547 89.4517L62.4041 88.7888C62.7252 88.1787 65.6152 82.7842 68.1046 81.3317L69.3041 80.6328L69.5137 82.0041C69.7177 83.3188 70.6262 86.9528 72.3696 87.9747C73.3121 88.5262 73.2366 89.2364 73.161 89.5159C72.8021 90.8437 70.0652 91.1233 67.8327 91.1233Z" fill="#FCE5C6"/>
<path d="M68.5832 82.1469C68.5832 82.1469 69.3727 87.3128 71.8962 88.7898C73.2486 89.5813 70.6023 90.1781 67.8352 90.1781C65.9558 90.1781 64.0216 89.9043 63.2415 89.2281C63.2415 89.2281 66.2543 83.5049 68.5832 82.1469ZM70.03 79.1172L67.6312 80.5149C64.9698 82.0675 62.114 87.3128 61.57 88.3479L60.8711 89.6757L62.0044 90.656C63.3511 91.8214 65.918 92.067 67.8333 92.067C69.0383 92.067 70.2208 91.965 71.1652 91.7799C71.847 91.6457 73.6603 91.2906 74.0739 89.7626C74.2874 88.9749 74.0778 87.8775 72.8481 87.1579C71.6563 86.4609 70.7119 83.5843 70.4475 81.8598L70.03 79.1172Z" fill="#B28350"/>
<path d="M33.3306 93.7969C30.0705 93.7969 26.8709 93.1339 24.0754 91.8797C20.7001 90.3649 18.0274 88.0662 16.131 85.046C12.1248 78.6655 13.617 70.6682 14.7068 64.828C15.1337 62.5369 15.5021 60.1815 15.8572 57.9017C16.5825 53.2552 17.3323 48.4501 18.6356 43.8338C21.3895 34.0875 29.4566 28.3209 40.7726 28.0093C41.1598 27.9979 41.5508 27.9941 41.9323 27.9941C48.8246 27.9941 54.5572 29.6771 58.9714 32.9976C63.6783 36.5373 66.6098 41.7485 67.6883 48.4859C68.0906 50.9981 68.4079 53.5669 68.7158 56.0488C69.1578 59.6205 69.6149 63.3132 70.3288 66.8698C72.4443 77.4283 69.5186 83.7578 66.691 87.2068C63.208 91.4566 57.9534 93.7988 51.894 93.7988H33.3306V93.7969Z" fill="#FCE5C6"/>
<path d="M41.9314 28.9376C54.9039 28.9376 64.6067 35.2085 66.7543 48.6342C67.7327 54.7502 68.1841 60.9834 69.4005 67.056C72.8325 84.1838 63.1221 92.8535 51.893 92.8535C51.893 92.8535 33.3637 92.8535 33.3316 92.8535C27.6632 92.8535 20.8163 90.7323 16.9329 84.5445C13.2497 78.6779 14.4396 71.4191 15.6371 65.0028C16.9347 58.0463 17.6204 50.9141 19.547 44.0917C22.3821 34.0526 30.674 29.2323 40.8 28.9546C41.1778 28.9414 41.5575 28.9376 41.9314 28.9376ZM41.9314 27.0488V28.9376V27.0488C41.5405 27.0488 41.1419 27.0545 40.7452 27.0658C28.9892 27.3888 20.599 33.4085 17.7261 43.5779C16.4058 48.249 15.6522 53.0825 14.9231 57.7573C14.568 60.0296 14.2016 62.3793 13.7767 64.6553C12.6585 70.6485 11.1285 78.8554 15.3312 85.5475C17.3276 88.7283 20.1401 91.1498 23.6892 92.7402C26.6055 94.0491 29.9393 94.7404 33.3297 94.7404H51.8912C54.9492 94.7404 57.8353 94.1624 60.4664 93.0197C63.2222 91.8241 65.5606 90.0693 67.4192 87.8028C70.3752 84.1951 73.4389 77.6032 71.2516 66.682C70.5452 63.1574 70.09 59.4818 69.6499 55.9289C69.342 53.4394 69.0227 50.8631 68.6185 48.3339C67.5003 41.3472 64.4462 35.9338 59.5371 32.2412C57.229 30.5054 54.5261 29.1832 51.5039 28.3124C48.5952 27.4738 45.3748 27.0488 41.9314 27.0488Z" fill="#B28350"/>
<path d="M69.3978 66.8954C69.3808 66.8085 69.3657 66.7217 69.3487 66.6348C69.7057 79.8697 61.0152 86.5599 51.1518 86.5599C51.1518 86.5599 32.6224 86.5599 32.5903 86.5599C26.922 86.5599 20.075 84.4388 16.1916 78.251C15.4059 77.0006 14.8448 75.686 14.4557 74.3317C14.4085 77.8506 14.9997 81.309 16.9301 84.384C20.8154 90.5717 27.6624 92.6929 33.3289 92.6929C33.3591 92.6929 51.8903 92.6929 51.8903 92.6929C63.1194 92.6929 72.8298 84.0251 69.3978 66.8954Z" fill="#F3D0A7"/>
<path d="M74.3171 69.9858C74.6646 70.4636 75.0273 70.9283 75.407 71.3797C76.4194 72.581 79.3451 74.5396 79.4263 76.249C79.5245 78.3343 76.0567 77.6165 74.3681 77.2482C70.1541 76.3284 63.938 73.7369 61.7451 69.7081C60.1453 66.7672 60.2737 61.9242 64.0173 60.7475C67.4946 59.6558 70.1126 62.5608 71.4725 65.241C72.3036 66.8843 73.2329 68.4917 74.3171 69.9858Z" fill="#FCE5C6"/>
<path d="M77.3793 78.6118C76.4009 78.6118 75.2846 78.4135 74.1683 78.1698C71.7034 77.6315 69.0383 76.6493 66.8529 75.4745C63.9989 73.9388 62.0024 72.1501 60.9163 70.1573C59.7263 67.972 59.4959 65.0973 60.3421 63.0045C60.9767 61.4348 62.1497 60.3431 63.7363 59.8445C67.0097 58.8169 70.2168 60.6736 72.3172 64.812C73.2201 66.5988 74.1248 68.108 75.0825 69.4283C75.4206 69.8929 75.7718 70.3425 76.1307 70.7694C76.3876 71.0735 76.8371 71.4814 77.315 71.9121C78.7127 73.1738 80.2956 74.6036 80.3712 76.2016C80.4146 77.1177 80.0029 77.6654 79.6497 77.9639C79.0887 78.438 78.2954 78.6118 77.3793 78.6118ZM65.4835 61.4613C65.1057 61.4613 64.7128 61.5198 64.3011 61.6482C63.2565 61.9769 62.5142 62.672 62.093 63.7146C61.4584 65.288 61.6567 67.566 62.5766 69.2565C63.9441 71.7705 68.1845 74.9305 74.5706 76.3244C77.2603 76.9118 78.1537 76.755 78.4313 76.5227C78.4521 76.5057 78.4936 76.4699 78.4842 76.2923C78.4464 75.4801 77.0034 74.1768 76.0496 73.3137C75.5245 72.8377 75.0277 72.39 74.6877 71.9858C74.3005 71.5249 73.9189 71.0375 73.5563 70.5389C72.5382 69.1355 71.5825 67.5414 70.6343 65.6658C70.0885 64.5986 68.2563 61.4613 65.4835 61.4613Z" fill="#B28350"/>
<path d="M28.3252 49.2945L27.9456 49.6742L27.5659 49.2945C27.0143 48.743 26.1209 48.743 25.5694 49.2945L23.8902 50.9737C23.3387 51.5252 23.3387 52.4186 23.8902 52.9702L24.2698 53.3499L23.8902 53.7295C23.3387 54.281 23.3387 55.1745 23.8902 55.726L25.5694 57.4052C26.1209 57.9567 27.0143 57.9567 27.5659 57.4052L27.9456 57.0255L28.3252 57.4052C28.8767 57.9567 29.7701 57.9567 30.3216 57.4052L32.0008 55.726C32.5523 55.1745 32.5523 54.281 32.0008 53.7295L31.6212 53.3499L32.0008 52.9702C32.5523 52.4186 32.5523 51.5252 32.0008 50.9737L30.3216 49.2945C29.7701 48.743 28.8767 48.743 28.3252 49.2945Z" fill="#573216"/>
<path d="M54.997 49.2945L54.6173 49.6742L54.2377 49.2945C53.6862 48.743 52.7927 48.743 52.2412 49.2945L50.5621 50.9737C50.0106 51.5252 50.0106 52.4186 50.5621 52.9702L50.9417 53.3499L50.5621 53.7295C50.0106 54.281 50.0106 55.1745 50.5621 55.726L52.2412 57.4052C52.7927 57.9567 53.6862 57.9567 54.2377 57.4052L54.6173 57.0255L54.997 57.4052C55.5486 57.9567 56.442 57.9567 56.9935 57.4052L58.6727 55.726C59.2242 55.1745 59.2242 54.281 58.6727 53.7295L58.293 53.3499L58.6727 52.9702C59.2242 52.4186 59.2242 51.5252 58.6727 50.9737L56.9935 49.2945C56.4438 48.743 55.5486 48.743 54.997 49.2945Z" fill="#573216"/>
<path d="M39.8317 60.965C39.5786 60.9084 39.3254 60.7856 39.0667 60.5892C38.8343 60.4116 37.2421 59.3256 37.6992 58.5852C38.2564 57.6861 41.4541 57.8825 42.5024 58.6248C43.2088 59.1254 42.1474 60.0622 41.8187 60.3077C41.1142 60.8366 40.4758 61.1105 39.8317 60.965Z" fill="#F5CD2B"/>
<path d="M40.1703 61.381C40.0324 61.381 39.8908 61.3659 39.7472 61.3338C39.4356 61.2639 39.139 61.1184 38.8368 60.8899L38.7706 60.8408C38.2758 60.4763 36.7685 59.3694 37.3767 58.3872C37.5807 58.0586 37.9887 57.8319 38.5913 57.7092C39.7907 57.4674 41.8117 57.6751 42.7202 58.3173C43.0432 58.5458 43.115 58.8349 43.1169 59.0351C43.1263 59.7642 42.2253 60.4744 42.044 60.6104C41.5831 60.956 40.9183 61.381 40.1703 61.381ZM39.6905 58.3665C39.3486 58.3665 39.0219 58.3929 38.7405 58.4496C38.1946 58.5591 38.0491 58.7348 38.0189 58.7839C37.9943 58.8235 37.8187 59.2032 39.2183 60.2326L39.2939 60.2892C39.5054 60.4498 39.7094 60.5518 39.9115 60.5972C40.3837 60.7048 40.9013 60.5215 41.5888 60.0059C41.9628 59.7264 42.3613 59.2731 42.3594 59.0445C42.3594 59.0237 42.3594 58.9879 42.2801 58.9331C41.7966 58.5893 40.6822 58.3665 39.6905 58.3665Z" fill="#D89625"/>
<path d="M59.0412 50.5854C53.7978 50.5854 48.3089 50.2624 42.2628 49.5956C33.2436 48.6021 25.4239 47.0967 18.3522 44.9945C17.8687 44.8509 17.3625 44.7055 16.8393 44.5544C11.1407 42.9111 3.33608 40.6615 2.0328 34.6041C1.19227 30.6904 2.93561 26.5936 6.47715 24.1645C7.53489 23.4392 9.17817 22.5892 10.9197 21.6902C13.02 20.6041 15.1941 19.4802 16.454 18.5226C20.0767 15.7668 22.2337 13.4908 24.1376 11.483C27.0445 8.41745 29.553 5.7712 35.873 2.92853C38.1263 1.91423 40.8556 1.40234 43.9816 1.40234C46.5353 1.40234 49.3742 1.75743 52.1924 2.42607C55.698 3.25904 58.7164 4.87964 61.423 7.37666C64.0674 9.81702 66.1338 12.8316 68.1321 15.7442C70.0323 18.5132 71.9967 21.3766 74.4446 23.7244C74.6939 23.9624 74.947 24.2061 75.2039 24.4516C79.1572 28.2217 84.0757 32.9155 85.0975 38.3005C85.3279 39.5131 85.3091 41.0676 85.0503 42.4597C84.886 43.3436 84.5365 44.5884 83.815 45.5025C80.6588 49.505 72.4537 49.9961 67.0234 50.321C66.7306 50.338 66.4491 50.3549 66.179 50.3719C63.8766 50.5117 61.4759 50.5854 59.0412 50.5854Z" fill="#854322"/>
<path d="M43.9853 2.3439C46.7203 2.3439 49.4988 2.75378 51.9769 3.34309C55.6714 4.2214 58.4612 5.92512 60.7845 8.06893C65.8427 12.74 68.6816 19.502 73.7928 24.4035C77.8141 28.2585 83.1424 33.0486 84.1718 38.4714C84.3664 39.4989 84.374 40.9457 84.1227 42.2811C83.932 43.3011 83.5919 44.2568 83.0744 44.9141C80.0126 48.7976 71.0256 49.1206 66.1222 49.4266C63.7688 49.5739 61.4078 49.6419 59.0411 49.6419C53.4785 49.6419 47.8932 49.266 42.3684 48.6578C34.341 47.7739 26.338 46.3837 18.6241 44.0906C13.0162 42.4228 4.25393 40.4339 2.9582 34.4066C2.24045 31.0691 3.62112 27.2707 7.01345 24.9455C9.27248 23.3967 14.633 21.098 17.028 19.2753C26.27 12.2414 26.0396 8.38811 36.2619 3.79261C38.5719 2.74998 41.2578 2.3439 43.9853 2.3439ZM43.9853 0.455078C40.7252 0.455078 37.8655 0.997175 35.4894 2.06625C28.9994 4.98448 26.4306 7.69303 23.4557 10.8323C21.5763 12.8136 19.4476 15.0594 15.8853 17.7699C14.6897 18.6803 12.4589 19.8325 10.4889 20.8506C8.72092 21.7648 7.05124 22.6279 5.94628 23.3854C2.08742 26.0316 0.191071 30.5119 1.11282 34.8014C2.5351 41.4123 10.6532 43.7525 16.5803 45.4619C17.1092 45.6149 17.6079 45.7585 18.0857 45.9001C25.2104 48.0194 33.0868 49.5342 42.1607 50.5353C48.2408 51.2059 53.7618 51.5307 59.0411 51.5307C61.4947 51.5307 63.918 51.457 66.2393 51.3116C66.5076 51.2946 66.789 51.2776 67.0818 51.2606C72.6802 50.9263 81.1403 50.42 84.5591 46.0833C85.2334 45.2277 85.7131 44.0642 85.9813 42.6287C86.2609 41.1271 86.2798 39.4422 86.0285 38.1201C84.95 32.4385 79.9106 27.6295 75.861 23.765C75.6041 23.5195 75.351 23.2777 75.1017 23.0397C72.7237 20.7599 70.7877 17.9361 68.914 15.2068C66.8854 12.2508 64.7888 9.19276 62.067 6.68063C59.2394 4.07028 56.0813 2.37602 52.4151 1.50338C49.5252 0.817741 46.6108 0.455078 43.9853 0.455078Z" fill="#3E1D0F"/>
<path d="M84.1708 38.4189C83.8969 36.9777 83.3189 35.5819 82.5426 34.2352C82.7258 35.2211 82.7315 36.5962 82.4935 37.8693C82.3103 38.8477 81.9854 39.7656 81.4867 40.3965C78.5477 44.125 69.9215 44.4329 65.2146 44.7276C57.648 45.1998 49.9737 44.822 42.4146 43.989C34.7101 43.1391 27.0282 41.8056 19.6241 39.6051C14.2428 38.0053 5.83192 36.0957 4.58718 30.3102C4.37752 29.3356 4.35484 28.3194 4.51727 27.3164C2.98544 29.4432 2.45473 32.012 2.95715 34.3523C4.25288 40.3814 13.0151 42.3703 18.623 44.0363C26.337 46.3293 34.3399 47.7195 42.3674 48.6035C50.2438 49.4723 58.2391 49.8652 66.1212 49.3741C71.0264 49.0681 80.0116 48.747 83.0733 44.8617C83.5909 44.2044 83.9309 43.2486 84.1217 42.2286C84.3729 40.8932 84.3653 39.4483 84.1708 38.4189Z" fill="#70371E"/>
<path d="M10.9688 41.6595C10.9688 41.6595 13.6848 38.8868 14.4498 38.1482C15.2148 37.4097 12.7083 42.2998 12.7083 42.2998L10.9688 41.6595Z" fill="#854322"/>
<path d="M12.7076 43.243C12.5981 43.243 12.4885 43.2241 12.3809 43.1845L10.6413 42.5442C10.3409 42.4327 10.1162 42.1777 10.0463 41.8661C9.97642 41.5544 10.0689 41.2257 10.2937 40.9972C10.4051 40.8839 13.0268 38.2074 13.7937 37.467C14.2905 36.9872 14.8307 37.0854 15.1423 37.3178C15.8998 37.8787 15.5126 38.691 14.5757 40.6535C14.0808 41.6904 13.5539 42.7198 13.5482 42.7293C13.382 43.0523 13.0533 43.243 12.7076 43.243Z" fill="#3E1D0F"/>
<path d="M45.8633 48.8036C45.8633 48.8036 46.4167 43.6886 45.8633 41.6562V48.8036Z" fill="#854322"/>
<path d="M45.8623 49.7467C45.8283 49.7467 45.7943 49.7447 45.7603 49.741C45.2409 49.6843 44.867 49.2197 44.9236 48.7003C45.0729 47.3271 45.3656 43.4266 44.952 41.9024C44.8141 41.3999 45.1125 40.8805 45.6149 40.7426C46.1192 40.6048 46.6368 40.9032 46.7747 41.4056C47.3583 43.5475 46.8615 48.3603 46.803 48.9023C46.7463 49.3878 46.3383 49.7467 45.8623 49.7467Z" fill="#3E1D0F"/>
<path d="M79.4259 47.378C79.4259 47.378 78.9065 44.5448 78.168 44.0234L79.4259 47.378Z" fill="#854322"/>
<path d="M79.4243 48.3227C78.9767 48.3227 78.58 48.0034 78.4969 47.5482C78.2778 46.3545 77.8547 45.0455 77.6035 44.7811C77.1936 44.477 77.0992 43.899 77.3957 43.4778C77.696 43.0509 78.2854 42.9508 78.7123 43.2512C79.6283 43.8971 80.1346 46.0069 80.3556 47.2063C80.45 47.7182 80.11 48.2112 79.5981 48.3056C79.5395 48.3169 79.481 48.3227 79.4243 48.3227ZM77.6168 44.7905C77.6187 44.7924 77.6205 44.7943 77.6224 44.7943C77.6224 44.7943 77.6205 44.7924 77.6168 44.7905Z" fill="#3E1D0F"/>
<path d="M40.2422 59.8876C40.2422 59.8876 41.0185 60.6451 41.7401 61.5611C42.4635 62.4772 43.6893 60.1086 42.0914 58.7997C42.0932 58.7997 40.6936 58.5503 40.2422 59.8876Z" fill="#CB461D"/>
<path d="M41.8494 61.2501C41.1751 60.3964 40.4574 59.6823 40.363 59.5879C40.3176 59.6748 40.2742 59.7673 40.2383 59.8712C40.2383 59.8712 41.0146 60.6287 41.7361 61.5448C42.1045 62.0113 42.6031 61.624 42.792 60.9611C42.5596 61.4314 42.1592 61.643 41.8494 61.2501Z" fill="#B34022"/>
<path d="M42.2156 60.6895C42.176 60.6895 42.1382 60.663 42.125 60.6233C41.853 59.7526 41.4318 59.5978 41.428 59.5978C41.3789 59.5808 41.3524 59.5279 41.3675 59.4788C41.3845 59.4297 41.4355 59.4032 41.4846 59.4183C41.5054 59.4259 42.0004 59.5921 42.3045 60.5687C42.3196 60.6178 42.2912 60.6706 42.2421 60.6876C42.2346 60.6876 42.2251 60.6895 42.2156 60.6895Z" fill="#A03924"/>
<path d="M40.0222 56.2769C39.7464 56.3109 39.4611 56.4148 39.1627 56.5981C38.8945 56.7624 37.0718 57.7539 37.4816 58.5964C37.9803 59.6201 40.6039 59.4955 42.6325 59.0743C43.5448 58.8854 42.4077 57.4971 42.0828 57.1968C41.382 56.5508 40.7286 56.1882 40.0222 56.2769Z" fill="#F5CD2B"/>
<path d="M39.8569 59.7625C38.682 59.7625 37.5204 59.5453 37.1408 58.7633C36.6063 57.6659 38.325 56.6534 38.8898 56.321L38.9635 56.2776C39.3016 56.0698 39.6416 55.9451 39.974 55.9036C40.7428 55.8072 41.4699 56.1208 42.3369 56.9197C42.3501 56.9311 43.5515 58.106 43.3267 58.9125C43.2813 59.0731 43.1434 59.3545 42.7071 59.4451C42.3048 59.5282 41.0733 59.7625 39.8569 59.7625ZM40.2309 56.6421C40.1761 56.6421 40.1232 56.6459 40.0685 56.6515C39.8399 56.6799 39.6095 56.7667 39.3602 56.9197L39.2751 56.9707C37.6734 57.9152 37.7829 58.3534 37.8207 58.4308C38.138 59.0806 40.1723 59.1996 42.556 58.7047C42.5787 58.699 42.5938 58.6952 42.6032 58.6914C42.6202 58.4723 42.1632 57.7867 41.827 57.475C41.2074 56.9046 40.7069 56.6421 40.2309 56.6421Z" fill="#D89625"/>
<path d="M56.3908 88.1223C56.3077 88.1223 56.2246 88.0844 56.1698 88.0145C56.0792 87.9012 56.0886 87.7388 56.1925 87.6368L58.3156 85.5421L56.0754 87.0418C55.9545 87.123 55.7921 87.0985 55.6996 86.987C55.607 86.8756 55.6145 86.7113 55.7165 86.6074L56.3039 86.0181L55.8034 86.4053C55.6788 86.5016 55.5012 86.4789 55.4067 86.3543C55.3104 86.2296 55.335 86.0521 55.4577 85.9577L59.3828 82.9261C59.5018 82.8354 59.6699 82.8505 59.7681 82.9639C59.8663 83.0772 59.8625 83.2453 59.7568 83.351L58.1304 84.9886L60.4914 83.4078C60.6123 83.3266 60.7767 83.3511 60.8692 83.4644C60.9618 83.5777 60.9523 83.7421 60.8485 83.8459L58.4818 86.1824L61.0298 84.5637C61.1469 84.49 61.2999 84.5108 61.3924 84.6128C61.485 84.7148 61.4907 84.8697 61.4057 84.9774L60.4952 86.139L62.0989 85.1039C62.2311 85.0189 62.4048 85.0567 62.4898 85.1889C62.5748 85.3211 62.5371 85.4949 62.4049 85.5799L59.3846 87.5291C59.2675 87.6047 59.1145 87.5839 59.022 87.4819C58.9294 87.3799 58.9238 87.2251 59.0088 87.1155L59.9399 85.9274L56.5458 88.0844C56.4966 88.1071 56.4437 88.1223 56.3908 88.1223Z" fill="#DCA197"/>
<path d="M19.9337 77.9833C19.8921 77.9833 19.8487 77.9738 19.809 77.9531L17.499 76.8123C17.3819 76.7537 17.3196 76.6234 17.3479 76.4949C17.3781 76.3665 17.4914 76.2758 17.6217 76.2758L19.0308 76.2664L16.4525 74.9574C16.3279 74.8951 16.2674 74.7497 16.3109 74.6175C16.3543 74.4852 16.4866 74.404 16.6245 74.4248L19.1423 74.8233L17.278 73.962C17.1495 73.9034 17.0853 73.7599 17.125 73.6239C17.1646 73.4898 17.2987 73.4029 17.4366 73.4237L18.3735 73.5578L17.803 73.3633C17.6557 73.3123 17.5764 73.1517 17.6274 73.0044C17.6784 72.8571 17.839 72.7758 17.9863 72.8287L21.4278 74.0054C21.5657 74.0527 21.6449 74.1981 21.6109 74.3398C21.5769 74.4814 21.4391 74.574 21.2955 74.5532L19.2802 74.2624L21.2313 75.1633C21.3598 75.2218 21.424 75.3673 21.3843 75.5033C21.3428 75.6393 21.2086 75.7243 21.0688 75.7016L18.3074 75.2653L20.3246 76.2891C20.4417 76.3476 20.5022 76.4798 20.472 76.6063C20.4418 76.7329 20.3284 76.8236 20.1981 76.8255L18.8174 76.8349L20.0546 77.4469C20.1944 77.5168 20.2529 77.6867 20.183 77.8265C20.1376 77.9247 20.0376 77.9833 19.9337 77.9833Z" fill="#DCA197"/>
<path d="M15.6995 27.9036C13.3744 24.7266 11.41 21.3022 9.84602 17.6907C9.31148 16.4611 9.82334 15.1087 10.9207 14.7026C11.5101 14.4778 12.1013 14.2531 12.6906 14.0302C13.7899 13.6222 15.0101 14.1813 15.4748 15.2504C16.8593 18.4425 18.5951 21.4721 20.6501 24.2789C21.3376 25.2214 21.2035 26.5569 20.2969 27.2992C19.8058 27.694 19.3128 28.0906 18.8217 28.4872C17.9151 29.2295 16.4909 28.9878 15.6995 27.9036Z" fill="#FBD8C1"/>
<path d="M17.6027 29.106C17.5045 29.106 17.4063 29.1004 17.3081 29.0872C16.6224 29.0003 15.9803 28.6093 15.5477 28.0162C13.215 24.8278 11.2374 21.3807 9.67346 17.7674C9.38069 17.095 9.36937 16.3452 9.64136 15.7086C9.87935 15.1495 10.3119 14.7283 10.8559 14.5281C11.4433 14.3033 12.0345 14.0786 12.6238 13.8557C13.8062 13.4156 15.134 13.9973 15.6478 15.1779C17.0266 18.3567 18.7606 21.3808 20.8024 24.1706C21.5617 25.2113 21.3917 26.6505 20.4171 27.4476C19.9241 27.8443 19.433 28.2409 18.94 28.6357C18.566 28.9417 18.0995 29.106 17.6027 29.106ZM13.4379 14.0861C13.2113 14.0861 12.9808 14.1258 12.7579 14.2089C12.1705 14.4318 11.5793 14.6566 10.99 14.8813C10.5424 15.0476 10.1872 15.3932 9.98888 15.8578C9.75844 16.3999 9.76976 17.0403 10.021 17.6182C11.5736 21.2051 13.5361 24.6295 15.8537 27.7952C16.2258 28.3052 16.7736 28.6395 17.3572 28.7132C17.8559 28.7774 18.3356 28.6451 18.7039 28.3429C19.1969 27.9463 19.6899 27.5478 20.1809 27.153C20.9988 26.4825 21.1405 25.2698 20.5001 24.3915C18.4413 21.581 16.6942 18.5305 15.304 15.3271C14.9678 14.5545 14.2199 14.0861 13.4379 14.0861Z" fill="#A05C26"/>
<path d="M17.6027 29.106C17.5045 29.106 17.4063 29.1004 17.3081 29.0872C16.6224 29.0003 15.9803 28.6093 15.5477 28.0162C13.215 24.8278 11.2374 21.3807 9.67346 17.7674C9.38069 17.095 9.36937 16.3452 9.64136 15.7086C9.87935 15.1495 10.3119 14.7283 10.8559 14.5281C11.4433 14.3033 12.0345 14.0786 12.6238 13.8557C13.8062 13.4156 15.134 13.9973 15.6478 15.1779C17.0266 18.3567 18.7606 21.3808 20.8024 24.1706C21.5617 25.2113 21.3917 26.6505 20.4171 27.4476C19.9241 27.8443 19.433 28.2409 18.94 28.6357C18.566 28.9417 18.0995 29.106 17.6027 29.106ZM13.4379 14.0861C13.2113 14.0861 12.9808 14.1258 12.7579 14.2089C12.1705 14.4318 11.5793 14.6566 10.99 14.8813C10.5424 15.0476 10.1872 15.3932 9.98888 15.8578C9.75844 16.3999 9.76976 17.0403 10.021 17.6182C11.5736 21.2051 13.5361 24.6295 15.8537 27.7952C16.2258 28.3052 16.7736 28.6395 17.3572 28.7132C17.8559 28.7774 18.3356 28.6451 18.7039 28.3429C19.1969 27.9463 19.6899 27.5478 20.1809 27.153C20.9988 26.4825 21.1405 25.2698 20.5001 24.3915C18.4413 21.581 16.6942 18.5305 15.304 15.3271C14.9678 14.5545 14.2199 14.0861 13.4379 14.0861Z" fill="#A05C26"/>
<path d="M9.05885 22.0913C12.2358 19.7662 15.6622 17.8037 19.2736 16.2397C20.5032 15.7071 21.8556 16.2171 22.2598 17.3145C22.4846 17.9038 22.7075 18.495 22.9323 19.0843C23.3384 20.1836 22.7811 21.4038 21.7102 21.8684C18.5162 23.251 15.4884 24.9869 12.6797 27.0419C11.7372 27.7294 10.4018 27.5934 9.65952 26.6868C9.26476 26.1957 8.86806 25.7027 8.47329 25.2116C7.73287 24.3069 7.97466 22.8827 9.05885 22.0913Z" fill="#FBD8C1"/>
<path d="M11.3461 27.6675C10.6548 27.6675 9.97675 27.3728 9.5121 26.8062L8.32403 25.3291C7.9576 24.8814 7.79707 24.3016 7.87451 23.6991C7.9614 23.0134 8.35237 22.3712 8.94546 21.9387C12.1281 19.6098 15.5771 17.634 19.1961 16.0663C19.8704 15.7754 20.6221 15.7641 21.2587 16.0361C21.8178 16.276 22.2352 16.7066 22.4354 17.2487L23.1078 19.0167C23.546 20.201 22.9642 21.5288 21.7837 22.0407C18.6124 23.4138 15.5866 25.1459 12.7892 27.1934C12.3529 27.5126 11.8448 27.6675 11.3461 27.6675ZM20.2802 16.2174C19.9667 16.2174 19.6475 16.2835 19.3472 16.4139C15.7527 17.9703 12.3283 19.9328 9.16828 22.2447C8.6583 22.6168 8.324 23.1645 8.25034 23.7482C8.18612 24.2468 8.31648 24.7247 8.6187 25.093L9.80677 26.5701C10.4773 27.3898 11.6899 27.5296 12.5682 26.8912C15.3882 24.8286 18.4386 23.0814 21.6345 21.6969C22.6299 21.2644 23.1229 20.1462 22.7546 19.1508L22.0822 17.3829C21.9178 16.9352 21.5722 16.582 21.1113 16.3837C20.8506 16.2722 20.5692 16.2174 20.2802 16.2174Z" fill="#A05C26"/>
<path d="M11.3461 27.6675C10.6548 27.6675 9.97675 27.3728 9.5121 26.8062L8.32403 25.3291C7.9576 24.8814 7.79707 24.3016 7.87451 23.6991C7.9614 23.0134 8.35237 22.3712 8.94546 21.9387C12.1281 19.6098 15.5771 17.634 19.1961 16.0663C19.8704 15.7754 20.6221 15.7641 21.2587 16.0361C21.8178 16.276 22.2352 16.7066 22.4354 17.2487L23.1078 19.0167C23.546 20.201 22.9642 21.5288 21.7837 22.0407C18.6124 23.4138 15.5866 25.1459 12.7892 27.1934C12.3529 27.5126 11.8448 27.6675 11.3461 27.6675ZM20.2802 16.2174C19.9667 16.2174 19.6475 16.2835 19.3472 16.4139C15.7527 17.9703 12.3283 19.9328 9.16828 22.2447C8.6583 22.6168 8.324 23.1645 8.25034 23.7482C8.18612 24.2468 8.31648 24.7247 8.6187 25.093L9.80677 26.5701C10.4773 27.3898 11.6899 27.5296 12.5682 26.8912C15.3882 24.8286 18.4386 23.0814 21.6345 21.6969C22.6299 21.2644 23.1229 20.1462 22.7546 19.1508L22.0822 17.3829C21.9178 16.9352 21.5722 16.582 21.1113 16.3837C20.8506 16.2722 20.5692 16.2174 20.2802 16.2174Z" fill="#A05C26"/>
<path d="M72.0399 39.8473C73.5302 37.813 74.7881 35.6163 75.7911 33.3025C76.133 32.5149 75.8063 31.6479 75.1036 31.3891C74.7259 31.2456 74.3481 31.102 73.9703 30.9585C73.2658 30.6978 72.4838 31.0548 72.1854 31.7405C71.2995 33.7861 70.187 35.7259 68.8686 37.5259C68.4285 38.1303 68.5135 38.986 69.0953 39.4601C69.4107 39.7132 69.7261 39.9663 70.0415 40.2213C70.6214 40.6973 71.5337 40.5424 72.0399 39.8473Z" fill="#FBD8C1"/>
<path d="M70.8212 40.6842C70.4887 40.6842 70.1733 40.5746 69.9202 40.3669C69.6066 40.1119 69.2912 39.8607 68.9758 39.6076C68.3222 39.0749 68.207 38.1116 68.715 37.4146C70.024 35.6278 71.1328 33.6937 72.0111 31.6651C72.3548 30.8755 73.2426 30.4883 74.034 30.7811L75.1692 31.2118C75.5338 31.3459 75.8227 31.6254 75.9832 32.0013C76.1646 32.4263 76.157 32.9287 75.9625 33.3763C74.9538 35.7034 73.6846 37.9171 72.1906 39.957C71.9035 40.3518 71.4746 40.6124 71.0175 40.6709C70.9533 40.6804 70.8873 40.6842 70.8212 40.6842ZM73.4919 31.0625C73.0178 31.0625 72.5626 31.3477 72.3586 31.8162C71.469 33.8693 70.347 35.828 69.0211 37.6375C68.632 38.1721 68.717 38.9087 69.2157 39.3129C69.5311 39.566 69.8465 39.8191 70.1619 40.0741C70.3848 40.2573 70.6719 40.3347 70.9722 40.297C71.3273 40.2516 71.6617 40.0476 71.8883 39.736C73.3654 37.7187 74.6214 35.5296 75.6187 33.2271C75.7717 32.8739 75.7793 32.481 75.6377 32.1505C75.5187 31.8728 75.3051 31.6651 75.0388 31.5668L73.9037 31.1362C73.7677 31.0852 73.6298 31.0625 73.4919 31.0625Z" fill="#A05C26"/>
<path d="M70.8212 40.6842C70.4887 40.6842 70.1733 40.5746 69.9202 40.3669C69.6066 40.1119 69.2912 39.8607 68.9758 39.6076C68.3222 39.0749 68.207 38.1116 68.715 37.4146C70.024 35.6278 71.1328 33.6937 72.0111 31.6651C72.3548 30.8755 73.2426 30.4883 74.034 30.7811L75.1692 31.2118C75.5338 31.3459 75.8227 31.6254 75.9832 32.0013C76.1646 32.4263 76.157 32.9287 75.9625 33.3763C74.9538 35.7034 73.6846 37.9171 72.1906 39.957C71.9035 40.3518 71.4746 40.6124 71.0175 40.6709C70.9533 40.6804 70.8873 40.6842 70.8212 40.6842ZM73.4919 31.0625C73.0178 31.0625 72.5626 31.3477 72.3586 31.8162C71.469 33.8693 70.347 35.828 69.0211 37.6375C68.632 38.1721 68.717 38.9087 69.2157 39.3129C69.5311 39.566 69.8465 39.8191 70.1619 40.0741C70.3848 40.2573 70.6719 40.3347 70.9722 40.297C71.3273 40.2516 71.6617 40.0476 71.8883 39.736C73.3654 37.7187 74.6214 35.5296 75.6187 33.2271C75.7717 32.8739 75.7793 32.481 75.6377 32.1505C75.5187 31.8728 75.3051 31.6651 75.0388 31.5668L73.9037 31.1362C73.7677 31.0852 73.6298 31.0625 73.4919 31.0625Z" fill="#A05C26"/>
<path d="M76.2985 36.1202C74.2623 34.6299 72.0674 33.3738 69.7536 32.3708C68.966 32.0289 68.099 32.3557 67.8403 33.0584C67.6967 33.4361 67.5532 33.8139 67.4097 34.1936C67.149 34.8981 67.5059 35.6801 68.1916 35.9785C70.2372 36.8644 72.1789 37.9769 73.9771 39.2934C74.5815 39.7335 75.4371 39.6466 75.9112 39.0667C76.1643 38.7513 76.4175 38.4358 76.6725 38.1204C77.1466 37.5386 76.9917 36.6264 76.2985 36.1202Z" fill="#FBD8C1"/>
<path d="M74.833 39.7632C74.4986 39.7632 74.1586 39.6593 73.8677 39.4478C72.0828 38.1407 70.1486 37.032 68.1181 36.1537C67.3286 35.8099 66.9415 34.9222 67.2342 34.1308C67.3778 33.7492 67.5213 33.3714 67.6648 32.9937C67.799 32.6291 68.0804 32.3401 68.4544 32.1796C68.8794 31.9983 69.3799 32.0058 69.8294 32.2004C72.1565 33.209 74.3701 34.4764 76.4101 35.9705C76.8029 36.2576 77.0636 36.6844 77.1221 37.1415C77.175 37.5476 77.0674 37.9386 76.82 38.2427C76.565 38.5582 76.3119 38.8717 76.0607 39.1871C75.7509 39.5649 75.2957 39.7632 74.833 39.7632ZM69.1079 32.4251C68.9323 32.4251 68.7604 32.4591 68.6036 32.5253C68.3241 32.6442 68.1163 32.8577 68.0181 33.124C67.8745 33.5036 67.7309 33.8814 67.5874 34.2611C67.3645 34.8636 67.6629 35.5436 68.2674 35.8061C70.3224 36.6957 72.2811 37.8177 74.0887 39.1418C74.6213 39.5309 75.358 39.4459 75.766 38.9472C76.0172 38.6337 76.2722 38.3183 76.5272 38.0009C76.7085 37.7781 76.7878 37.4891 76.7482 37.1869C76.7028 36.8318 76.4988 36.4993 76.1891 36.2727C74.1718 34.7956 71.9808 33.5415 69.6802 32.5442C69.4951 32.4648 69.3006 32.4251 69.1079 32.4251Z" fill="#A05C26"/>
<path d="M74.833 39.7632C74.4986 39.7632 74.1586 39.6593 73.8677 39.4478C72.0828 38.1407 70.1486 37.032 68.1181 36.1537C67.3286 35.8099 66.9415 34.9222 67.2342 34.1308C67.3778 33.7492 67.5213 33.3714 67.6648 32.9937C67.799 32.6291 68.0804 32.3401 68.4544 32.1796C68.8794 31.9983 69.3799 32.0058 69.8294 32.2004C72.1565 33.209 74.3701 34.4764 76.4101 35.9705C76.8029 36.2576 77.0636 36.6844 77.1221 37.1415C77.175 37.5476 77.0674 37.9386 76.82 38.2427C76.565 38.5582 76.3119 38.8717 76.0607 39.1871C75.7509 39.5649 75.2957 39.7632 74.833 39.7632ZM69.1079 32.4251C68.9323 32.4251 68.7604 32.4591 68.6036 32.5253C68.3241 32.6442 68.1163 32.8577 68.0181 33.124C67.8745 33.5036 67.7309 33.8814 67.5874 34.2611C67.3645 34.8636 67.6629 35.5436 68.2674 35.8061C70.3224 36.6957 72.2811 37.8177 74.0887 39.1418C74.6213 39.5309 75.358 39.4459 75.766 38.9472C76.0172 38.6337 76.2722 38.3183 76.5272 38.0009C76.7085 37.7781 76.7878 37.4891 76.7482 37.1869C76.7028 36.8318 76.4988 36.4993 76.1891 36.2727C74.1718 34.7956 71.9808 33.5415 69.6802 32.5442C69.4951 32.4648 69.3006 32.4251 69.1079 32.4251Z" fill="#A05C26"/>
<path d="M63.0579 24.7318C63.0031 24.7318 62.9483 24.7166 62.8992 24.6826L59.7373 22.5539C59.6183 22.4746 59.5786 22.316 59.6429 22.1894C59.709 22.0629 59.8601 22.0043 59.9943 22.0553L60.7215 22.3292L57.7182 20.2874C57.5954 20.2042 57.5576 20.0399 57.6313 19.9115C57.705 19.783 57.8674 19.7339 57.9996 19.7981L59.59 20.5707L58.2244 19.6735C58.0997 19.5923 58.0601 19.4279 58.1337 19.2976C58.1923 19.1937 58.3075 19.1408 58.4208 19.156C58.3944 19.0804 58.4 18.9935 58.4454 18.918C58.5247 18.7839 58.6985 18.7385 58.8345 18.8197L63.3148 21.4811C63.4451 21.5585 63.4923 21.7248 63.4205 21.8589C63.3487 21.993 63.1845 22.0458 63.0485 21.9816L62.0247 21.4924L63.5735 22.5105C63.6982 22.5917 63.7378 22.7579 63.6642 22.8883C63.5905 23.0186 63.4281 23.0677 63.294 23.0035L61.2711 22.0213L63.0106 23.2037C63.1296 23.2849 63.1694 23.4417 63.1032 23.5683C63.0371 23.6948 62.8861 23.7534 62.7519 23.7024L62.0682 23.4436L63.2128 24.2142C63.3431 24.3011 63.3771 24.4768 63.2902 24.6071C63.2373 24.6883 63.1485 24.7318 63.0579 24.7318Z" fill="#DCA197"/>
<path d="M21.8311 39.9691C21.7915 39.9691 21.7537 39.9616 21.7159 39.9446L20.2332 39.2778C20.1161 39.2249 20.0481 39.0984 20.0708 38.9718C20.0934 38.8453 20.1973 38.7489 20.3258 38.7376L20.9793 38.6828L19.6288 38.0539C19.5042 37.9953 19.4399 37.8574 19.4739 37.7233C19.5098 37.5911 19.6382 37.5004 19.7723 37.5137L20.9264 37.6138L20.2351 37.3286C20.1067 37.2757 20.0349 37.1378 20.067 37.0018C20.0991 36.8658 20.2256 36.7733 20.3635 36.7846L20.4788 36.7922C20.4278 36.7242 20.4089 36.6335 20.4334 36.5447C20.4769 36.3936 20.6336 36.3067 20.7829 36.3483L23.0192 36.981C23.159 37.0207 23.2459 37.1605 23.2214 37.3021C23.1968 37.4457 23.0664 37.5458 22.921 37.5363L22.0748 37.474L22.8436 37.7913C22.972 37.8442 23.0438 37.984 23.0098 38.12C22.9758 38.256 22.8512 38.3485 22.7095 38.3353L21.323 38.2144L22.1825 38.6148C22.2996 38.6696 22.3638 38.7943 22.3411 38.9208C22.3185 39.0474 22.2146 39.1437 22.0861 39.1532L21.4591 39.206L21.9426 39.4233C22.0862 39.4875 22.1485 39.6556 22.0843 39.7973C22.0427 39.9068 21.9388 39.9691 21.8311 39.9691Z" fill="#DCA197"/>
</svg>
