<svg width="1346" height="977" viewBox="0 0 1346 977" fill="none" xmlns="http://www.w3.org/2000/svg">
<path d="M686.875 130.225C730.185 123.637 775.124 123.136 815.72 126.068C876.241 130.435 924.333 149.449 966.048 176.234C1056.88 234.604 1117.37 329.931 1209.57 391.626C1282.1 440.168 1377.48 499.685 1406.24 579.114C1411.68 594.166 1415.13 616.002 1414.22 636.778C1413.54 652.643 1410.35 667.898 1403.67 679.073C1364.11 745.105 1222.54 771.63 1145.6 788.063C1108.67 795.957 1071.43 802.672 1033.96 808.372C945.873 821.771 856.566 829.547 767.683 833.668C638.535 839.652 508.613 837.931 381.193 821.877C288.559 810.193 145.237 801.257 110.87 713.34C91.8364 664.657 104.973 603.958 153.349 560.667C185.563 531.831 265.166 484.199 298.903 450.898C429.091 322.392 416.589 264.747 567.933 170.707C602.117 149.394 643.685 136.795 686.875 130.225ZM682.536 101.696C630.911 109.548 586.873 124.625 551.703 146.496C455.638 206.207 421.184 253.306 381.288 307.888C356.08 342.343 327.532 381.392 277.35 430.913C260.509 447.544 227.832 470.32 198.975 490.443C173.08 508.51 148.623 525.57 132.866 539.672C77.8356 588.908 58.104 661.177 82.5555 723.748C120.267 820.176 254.196 835.969 351.981 847.512C360.707 848.549 368.933 849.516 376.826 850.505C494.515 865.354 622.719 869.263 768.706 862.527C866.526 858.01 954.7 849.618 1038.3 836.902C1077.15 830.992 1115.36 824.042 1151.78 816.254C1155.99 815.351 1160.41 814.417 1165 813.455C1252.89 794.92 1385.69 766.895 1429.86 693.156C1438.58 678.608 1443.5 659.878 1444.45 637.55C1445.42 614.195 1441.85 588.702 1434.84 569.336C1404.7 486.088 1313.86 425.618 1240.85 377.001C1236.22 373.911 1231.66 370.868 1227.16 367.874C1184.27 339.167 1147.12 301.179 1111.18 264.466C1072.26 224.704 1032.04 183.565 983.167 152.176C932.394 119.559 878.492 101.574 818.432 97.2246C771.125 93.8247 724.14 95.3671 682.536 101.696Z" fill="#3E1D0F"/>
</svg>
