<svg width="198" height="265" viewBox="0 0 198 265" fill="none" xmlns="http://www.w3.org/2000/svg">
<rect x="1" y="1" width="196" height="263" rx="98" fill="#EEEEEE"/>
<path d="M122.077 76L122.943 75.5L122.077 74L121.211 75.5L122.077 76ZM175.996 169.392V170.392H177.728L176.862 168.892L175.996 169.392ZM68.1571 169.392L67.2911 168.892L66.425 170.392H68.1571V169.392ZM121.211 76.5L175.13 169.892L176.862 168.892L122.943 75.5L121.211 76.5ZM92.7814 128.741L122.943 76.5L121.211 75.5L91.0493 127.741L92.7814 128.741ZM67.6958 122.477C76.3751 122.477 84.4865 124.896 91.3959 129.096L92.4347 127.387C85.2211 123.002 76.7518 120.477 67.6958 120.477V122.477ZM22 168.173C22 142.936 42.4587 122.477 67.6958 122.477V120.477C41.3541 120.477 20 141.831 20 168.173H22ZM67.6958 213.869C42.4587 213.869 22 193.41 22 168.173H20C20 194.515 41.3541 215.869 67.6958 215.869V213.869ZM113.376 169.366C112.744 194.051 92.534 213.869 67.6958 213.869V215.869C93.6214 215.869 114.716 195.184 115.376 169.417L113.376 169.366ZM175.996 168.392H114.376V170.392H175.996V168.392ZM114.376 168.392H68.1571V170.392H114.376V168.392ZM69.0231 169.892L92.7814 128.741L91.0493 127.741L67.2911 168.892L69.0231 169.892ZM91.3959 129.096C104.585 137.112 113.392 151.615 113.392 168.173H115.392C115.392 150.888 106.196 135.751 92.4347 127.387L91.3959 129.096ZM113.392 168.173C113.392 168.572 113.387 168.97 113.376 169.366L115.376 169.417C115.386 169.004 115.392 168.589 115.392 168.173H113.392Z" fill="#AAAAAA"/>
<rect x="1" y="1" width="196" height="263" rx="98" stroke="#AAAAAA" stroke-width="2"/>
</svg>
