<svg width="359" height="73" viewBox="0 0 359 73" fill="none" xmlns="http://www.w3.org/2000/svg">
<g filter="url(#filter0_dd)">
<path d="M28.3376 20.2117C29.8933 20.092 31.12 20.4212 32.0175 21.199C32.9151 21.9769 33.3639 23.1438 33.3639 24.6995C33.3639 26.3151 32.9749 27.5119 32.1971 28.2898C31.4192 29.0677 30.013 29.5763 27.9785 29.8156L25.2858 30.0849C21.7554 30.4439 19.1525 31.6407 17.4771 33.6751C15.8615 35.7096 15.0537 38.2527 15.0537 41.3044V60.1532C15.0537 61.8885 14.5151 63.2348 13.438 64.1922C12.361 65.0898 11.0146 65.5385 9.39902 65.5385C7.78341 65.5385 6.43707 65.0898 5.36 64.1922C4.34276 63.2348 3.83414 61.8885 3.83414 60.1532V25.4176C3.83414 23.7421 4.34276 22.4556 5.36 21.5581C6.43707 20.6605 7.75349 20.2117 9.30926 20.2117C10.865 20.2117 12.1216 20.6605 13.079 21.5581C14.0364 22.3958 14.5151 23.6225 14.5151 25.2381V28.8283C15.652 26.1955 17.3275 24.161 19.5415 22.7249C21.8153 21.2888 24.3284 20.481 27.081 20.3015L28.3376 20.2117ZM76.5408 52.9727C77.558 52.9727 78.3658 53.3616 78.9642 54.1395C79.6224 54.9174 79.9515 55.9646 79.9515 57.281C79.9515 59.1359 78.8445 60.6917 76.6305 61.9483C74.5961 63.0852 72.2923 64.0127 69.7193 64.7307C67.1463 65.3889 64.693 65.718 62.3593 65.718C55.2985 65.718 49.7037 63.6836 45.5749 59.6146C41.4461 55.5457 39.3818 49.9808 39.3818 42.92C39.3818 38.4322 40.2793 34.453 42.0744 30.9825C43.8696 27.5119 46.3827 24.8192 49.6139 22.9044C52.905 20.9896 56.6149 20.0322 60.7437 20.0322C64.693 20.0322 68.1336 20.8998 71.0656 22.6351C73.9977 24.3704 76.2715 26.8238 77.8871 29.9951C79.5027 33.1665 80.3105 36.9064 80.3105 41.2146C80.3105 43.7876 79.1736 45.0742 76.8998 45.0742H50.4218C50.7808 49.2029 51.9476 52.2546 53.9222 54.2293C55.8969 56.1441 58.7691 57.1015 62.5388 57.1015C64.4536 57.1015 66.1291 56.8621 67.5652 56.3834C69.0611 55.9047 70.7365 55.2465 72.5915 54.4088C74.3866 53.4514 75.703 52.9727 76.5408 52.9727ZM61.013 27.9307C57.9613 27.9307 55.5079 28.8881 53.653 30.8029C51.8578 32.7177 50.7808 35.4703 50.4218 39.0605H70.7066C70.5869 35.4104 69.6894 32.6579 68.0139 30.8029C66.3385 28.8881 64.0048 27.9307 61.013 27.9307ZM99.5408 65.5385C97.9252 65.5385 96.5788 65.0898 95.5017 64.1922C94.4845 63.2348 93.9759 61.8885 93.9759 60.1532V6.5688C93.9759 4.83352 94.4845 3.51709 95.5017 2.61953C96.5788 1.72197 97.9252 1.27319 99.5408 1.27319C101.156 1.27319 102.503 1.72197 103.58 2.61953C104.657 3.51709 105.195 4.83352 105.195 6.5688V60.1532C105.195 61.8885 104.657 63.2348 103.58 64.1922C102.503 65.0898 101.156 65.5385 99.5408 65.5385ZM140.282 20.0322C146.385 20.0322 150.903 21.5581 153.835 24.6098C156.827 27.6016 158.323 32.1792 158.323 38.3424V60.2429C158.323 61.8585 157.844 63.145 156.886 64.1024C155.929 65 154.613 65.4488 152.937 65.4488C151.381 65.4488 150.095 64.9701 149.078 64.0127C148.12 63.0553 147.642 61.7987 147.642 60.2429V58.2683C146.624 60.602 145.009 62.427 142.795 63.7434C140.641 65.0598 138.127 65.718 135.255 65.718C132.323 65.718 129.66 65.1197 127.267 63.9229C124.873 62.7262 122.989 61.0807 121.612 58.9863C120.236 56.892 119.548 54.5584 119.548 51.9854C119.548 48.7542 120.356 46.2111 121.971 44.3561C123.647 42.5011 126.339 41.1548 130.049 40.3171C133.759 39.4794 138.875 39.0605 145.398 39.0605H147.642V36.9961C147.642 34.0641 147.013 31.9398 145.757 30.6234C144.5 29.2472 142.466 28.559 139.653 28.559C137.918 28.559 136.153 28.8283 134.358 29.3668C132.563 29.8455 130.438 30.5636 127.985 31.521C126.429 32.2989 125.292 32.6878 124.574 32.6878C123.497 32.6878 122.6 32.2989 121.882 31.521C121.223 30.7431 120.894 29.7259 120.894 28.4693C120.894 27.452 121.134 26.5844 121.612 25.8664C122.151 25.0885 123.019 24.3704 124.215 23.7122C126.31 22.5753 128.793 21.6777 131.665 21.0195C134.597 20.3613 137.469 20.0322 140.282 20.0322ZM137.499 57.64C140.491 57.64 142.914 56.6527 144.769 54.6781C146.684 52.6436 147.642 50.0407 147.642 46.8693V44.9844H146.026C142.017 44.9844 138.905 45.1639 136.691 45.5229C134.477 45.882 132.892 46.5102 131.934 47.4078C130.977 48.3054 130.498 49.532 130.498 51.0878C130.498 53.0026 131.156 54.5883 132.473 55.8449C133.849 57.0416 135.525 57.64 137.499 57.64ZM197.011 57.1912C200.003 57.3707 201.499 58.7171 201.499 61.2302C201.499 62.6663 200.9 63.7733 199.704 64.5512C198.567 65.2693 196.921 65.5685 194.767 65.4488L192.344 65.2693C182.291 64.5512 177.265 59.1659 177.265 49.1132V29.5464H172.777C171.161 29.5464 169.905 29.1873 169.007 28.4693C168.169 27.7512 167.75 26.7041 167.75 25.3278C167.75 23.9516 168.169 22.9044 169.007 22.1864C169.905 21.4683 171.161 21.1093 172.777 21.1093H177.265V12.8517C177.265 11.2361 177.773 9.94961 178.79 8.99221C179.808 8.03481 181.184 7.55611 182.919 7.55611C184.595 7.55611 185.941 8.03481 186.958 8.99221C187.975 9.94961 188.484 11.2361 188.484 12.8517V21.1093H196.113C197.729 21.1093 198.956 21.4683 199.793 22.1864C200.691 22.9044 201.14 23.9516 201.14 25.3278C201.14 26.7041 200.691 27.7512 199.793 28.4693C198.956 29.1873 197.729 29.5464 196.113 29.5464H188.484V49.921C188.484 54.3489 190.519 56.7125 194.588 57.0117L197.011 57.1912ZM217.398 65.5385C215.783 65.5385 214.436 65.0898 213.359 64.1922C212.342 63.2348 211.833 61.8885 211.833 60.1532V25.5073C211.833 23.772 212.342 22.4556 213.359 21.5581C214.436 20.6605 215.783 20.2117 217.398 20.2117C219.014 20.2117 220.36 20.6605 221.437 21.5581C222.514 22.4556 223.053 23.772 223.053 25.5073V60.1532C223.053 61.8885 222.514 63.2348 221.437 64.1922C220.36 65.0898 219.014 65.5385 217.398 65.5385ZM217.398 12.2234C215.364 12.2234 213.748 11.6849 212.551 10.6078C211.355 9.47091 210.756 8.0049 210.756 6.20977C210.756 4.41465 211.355 2.97855 212.551 1.90149C213.748 0.824412 215.364 0.285875 217.398 0.285875C219.373 0.285875 220.959 0.824412 222.155 1.90149C223.412 2.97855 224.04 4.41465 224.04 6.20977C224.04 8.0049 223.442 9.47091 222.245 10.6078C221.048 11.6849 219.433 12.2234 217.398 12.2234ZM244.406 65.5385C242.492 65.5385 240.906 64.9102 239.649 63.6537C238.393 62.3372 237.764 60.7216 237.764 58.8068C237.764 56.892 238.393 55.3063 239.649 54.0498C240.906 52.7333 242.492 52.0751 244.406 52.0751C246.321 52.0751 247.907 52.7333 249.163 54.0498C250.42 55.3063 251.048 56.892 251.048 58.8068C251.048 60.7216 250.42 62.3372 249.163 63.6537C247.907 64.9102 246.321 65.5385 244.406 65.5385ZM271.427 65.5385C269.812 65.5385 268.465 65.0898 267.388 64.1922C266.371 63.2348 265.862 61.8885 265.862 60.1532V25.5073C265.862 23.772 266.371 22.4556 267.388 21.5581C268.465 20.6605 269.812 20.2117 271.427 20.2117C273.043 20.2117 274.389 20.6605 275.466 21.5581C276.543 22.4556 277.082 23.772 277.082 25.5073V60.1532C277.082 61.8885 276.543 63.2348 275.466 64.1922C274.389 65.0898 273.043 65.5385 271.427 65.5385ZM271.427 12.2234C269.393 12.2234 267.777 11.6849 266.58 10.6078C265.384 9.47091 264.785 8.0049 264.785 6.20977C264.785 4.41465 265.384 2.97855 266.58 1.90149C267.777 0.824412 269.393 0.285875 271.427 0.285875C273.402 0.285875 274.987 0.824412 276.184 1.90149C277.441 2.97855 278.069 4.41465 278.069 6.20977C278.069 8.0049 277.471 9.47091 276.274 10.6078C275.077 11.6849 273.462 12.2234 271.427 12.2234Z" fill="white"/>
</g>
<g filter="url(#filter1_dd)">
<path d="M28.3376 20.2117C29.8933 20.092 31.12 20.4212 32.0175 21.199C32.9151 21.9769 33.3639 23.1438 33.3639 24.6995C33.3639 26.3151 32.9749 27.5119 32.1971 28.2898C31.4192 29.0677 30.013 29.5763 27.9785 29.8156L25.2858 30.0849C21.7554 30.4439 19.1525 31.6407 17.4771 33.6751C15.8615 35.7096 15.0537 38.2527 15.0537 41.3044V60.1532C15.0537 61.8885 14.5151 63.2348 13.438 64.1922C12.361 65.0898 11.0146 65.5385 9.39902 65.5385C7.78341 65.5385 6.43707 65.0898 5.36 64.1922C4.34276 63.2348 3.83414 61.8885 3.83414 60.1532V25.4176C3.83414 23.7421 4.34276 22.4556 5.36 21.5581C6.43707 20.6605 7.75349 20.2117 9.30926 20.2117C10.865 20.2117 12.1216 20.6605 13.079 21.5581C14.0364 22.3958 14.5151 23.6225 14.5151 25.2381V28.8283C15.652 26.1955 17.3275 24.161 19.5415 22.7249C21.8153 21.2888 24.3284 20.481 27.081 20.3015L28.3376 20.2117ZM76.5408 52.9727C77.558 52.9727 78.3658 53.3616 78.9642 54.1395C79.6224 54.9174 79.9515 55.9646 79.9515 57.281C79.9515 59.1359 78.8445 60.6917 76.6305 61.9483C74.5961 63.0852 72.2923 64.0127 69.7193 64.7307C67.1463 65.3889 64.693 65.718 62.3593 65.718C55.2985 65.718 49.7037 63.6836 45.5749 59.6146C41.4461 55.5457 39.3818 49.9808 39.3818 42.92C39.3818 38.4322 40.2793 34.453 42.0744 30.9825C43.8696 27.5119 46.3827 24.8192 49.6139 22.9044C52.905 20.9896 56.6149 20.0322 60.7437 20.0322C64.693 20.0322 68.1336 20.8998 71.0656 22.6351C73.9977 24.3704 76.2715 26.8238 77.8871 29.9951C79.5027 33.1665 80.3105 36.9064 80.3105 41.2146C80.3105 43.7876 79.1736 45.0742 76.8998 45.0742H50.4218C50.7808 49.2029 51.9476 52.2546 53.9222 54.2293C55.8969 56.1441 58.7691 57.1015 62.5388 57.1015C64.4536 57.1015 66.1291 56.8621 67.5652 56.3834C69.0611 55.9047 70.7365 55.2465 72.5915 54.4088C74.3866 53.4514 75.703 52.9727 76.5408 52.9727ZM61.013 27.9307C57.9613 27.9307 55.5079 28.8881 53.653 30.8029C51.8578 32.7177 50.7808 35.4703 50.4218 39.0605H70.7066C70.5869 35.4104 69.6894 32.6579 68.0139 30.8029C66.3385 28.8881 64.0048 27.9307 61.013 27.9307ZM99.5408 65.5385C97.9252 65.5385 96.5788 65.0898 95.5017 64.1922C94.4845 63.2348 93.9759 61.8885 93.9759 60.1532V6.5688C93.9759 4.83352 94.4845 3.51709 95.5017 2.61953C96.5788 1.72197 97.9252 1.27319 99.5408 1.27319C101.156 1.27319 102.503 1.72197 103.58 2.61953C104.657 3.51709 105.195 4.83352 105.195 6.5688V60.1532C105.195 61.8885 104.657 63.2348 103.58 64.1922C102.503 65.0898 101.156 65.5385 99.5408 65.5385ZM140.282 20.0322C146.385 20.0322 150.903 21.5581 153.835 24.6098C156.827 27.6016 158.323 32.1792 158.323 38.3424V60.2429C158.323 61.8585 157.844 63.145 156.886 64.1024C155.929 65 154.613 65.4488 152.937 65.4488C151.381 65.4488 150.095 64.9701 149.078 64.0127C148.12 63.0553 147.642 61.7987 147.642 60.2429V58.2683C146.624 60.602 145.009 62.427 142.795 63.7434C140.641 65.0598 138.127 65.718 135.255 65.718C132.323 65.718 129.66 65.1197 127.267 63.9229C124.873 62.7262 122.989 61.0807 121.612 58.9863C120.236 56.892 119.548 54.5584 119.548 51.9854C119.548 48.7542 120.356 46.2111 121.971 44.3561C123.647 42.5011 126.339 41.1548 130.049 40.3171C133.759 39.4794 138.875 39.0605 145.398 39.0605H147.642V36.9961C147.642 34.0641 147.013 31.9398 145.757 30.6234C144.5 29.2472 142.466 28.559 139.653 28.559C137.918 28.559 136.153 28.8283 134.358 29.3668C132.563 29.8455 130.438 30.5636 127.985 31.521C126.429 32.2989 125.292 32.6878 124.574 32.6878C123.497 32.6878 122.6 32.2989 121.882 31.521C121.223 30.7431 120.894 29.7259 120.894 28.4693C120.894 27.452 121.134 26.5844 121.612 25.8664C122.151 25.0885 123.019 24.3704 124.215 23.7122C126.31 22.5753 128.793 21.6777 131.665 21.0195C134.597 20.3613 137.469 20.0322 140.282 20.0322ZM137.499 57.64C140.491 57.64 142.914 56.6527 144.769 54.6781C146.684 52.6436 147.642 50.0407 147.642 46.8693V44.9844H146.026C142.017 44.9844 138.905 45.1639 136.691 45.5229C134.477 45.882 132.892 46.5102 131.934 47.4078C130.977 48.3054 130.498 49.532 130.498 51.0878C130.498 53.0026 131.156 54.5883 132.473 55.8449C133.849 57.0416 135.525 57.64 137.499 57.64ZM197.011 57.1912C200.003 57.3707 201.499 58.7171 201.499 61.2302C201.499 62.6663 200.9 63.7733 199.704 64.5512C198.567 65.2693 196.921 65.5685 194.767 65.4488L192.344 65.2693C182.291 64.5512 177.265 59.1659 177.265 49.1132V29.5464H172.777C171.161 29.5464 169.905 29.1873 169.007 28.4693C168.169 27.7512 167.75 26.7041 167.75 25.3278C167.75 23.9516 168.169 22.9044 169.007 22.1864C169.905 21.4683 171.161 21.1093 172.777 21.1093H177.265V12.8517C177.265 11.2361 177.773 9.94961 178.79 8.99221C179.808 8.03481 181.184 7.55611 182.919 7.55611C184.595 7.55611 185.941 8.03481 186.958 8.99221C187.975 9.94961 188.484 11.2361 188.484 12.8517V21.1093H196.113C197.729 21.1093 198.956 21.4683 199.793 22.1864C200.691 22.9044 201.14 23.9516 201.14 25.3278C201.14 26.7041 200.691 27.7512 199.793 28.4693C198.956 29.1873 197.729 29.5464 196.113 29.5464H188.484V49.921C188.484 54.3489 190.519 56.7125 194.588 57.0117L197.011 57.1912ZM217.398 65.5385C215.783 65.5385 214.436 65.0898 213.359 64.1922C212.342 63.2348 211.833 61.8885 211.833 60.1532V25.5073C211.833 23.772 212.342 22.4556 213.359 21.5581C214.436 20.6605 215.783 20.2117 217.398 20.2117C219.014 20.2117 220.36 20.6605 221.437 21.5581C222.514 22.4556 223.053 23.772 223.053 25.5073V60.1532C223.053 61.8885 222.514 63.2348 221.437 64.1922C220.36 65.0898 219.014 65.5385 217.398 65.5385ZM217.398 12.2234C215.364 12.2234 213.748 11.6849 212.551 10.6078C211.355 9.47091 210.756 8.0049 210.756 6.20977C210.756 4.41465 211.355 2.97855 212.551 1.90149C213.748 0.824412 215.364 0.285875 217.398 0.285875C219.373 0.285875 220.959 0.824412 222.155 1.90149C223.412 2.97855 224.04 4.41465 224.04 6.20977C224.04 8.0049 223.442 9.47091 222.245 10.6078C221.048 11.6849 219.433 12.2234 217.398 12.2234ZM244.406 65.5385C242.492 65.5385 240.906 64.9102 239.649 63.6537C238.393 62.3372 237.764 60.7216 237.764 58.8068C237.764 56.892 238.393 55.3063 239.649 54.0498C240.906 52.7333 242.492 52.0751 244.406 52.0751C246.321 52.0751 247.907 52.7333 249.163 54.0498C250.42 55.3063 251.048 56.892 251.048 58.8068C251.048 60.7216 250.42 62.3372 249.163 63.6537C247.907 64.9102 246.321 65.5385 244.406 65.5385ZM271.427 65.5385C269.812 65.5385 268.465 65.0898 267.388 64.1922C266.371 63.2348 265.862 61.8885 265.862 60.1532V25.5073C265.862 23.772 266.371 22.4556 267.388 21.5581C268.465 20.6605 269.812 20.2117 271.427 20.2117C273.043 20.2117 274.389 20.6605 275.466 21.5581C276.543 22.4556 277.082 23.772 277.082 25.5073V60.1532C277.082 61.8885 276.543 63.2348 275.466 64.1922C274.389 65.0898 273.043 65.5385 271.427 65.5385ZM271.427 12.2234C269.393 12.2234 267.777 11.6849 266.58 10.6078C265.384 9.47091 264.785 8.0049 264.785 6.20977C264.785 4.41465 265.384 2.97855 266.58 1.90149C267.777 0.824412 269.393 0.285875 271.427 0.285875C273.402 0.285875 274.987 0.824412 276.184 1.90149C277.441 2.97855 278.069 4.41465 278.069 6.20977C278.069 8.0049 277.471 9.47091 276.274 10.6078C275.077 11.6849 273.462 12.2234 271.427 12.2234Z" fill="white"/>
</g>
<path d="M297.818 45.2499C297.818 45.2499 293.519 44.5951 291.56 41.2718C289.823 38.3237 287.062 37.6151 286.585 41.6425C286.108 45.67 288.258 53.2643 297.787 54.1105C297.785 54.1105 301.871 49.4462 297.818 45.2499Z" fill="white"/>
<path d="M297.789 54.8568C297.766 54.8568 297.745 54.8553 297.723 54.8538C293.709 54.498 290.592 52.9837 288.456 50.3555C286.104 47.4613 285.566 43.9108 285.844 41.5532C285.977 40.4245 286.445 38.4811 288.075 38.1373C289.451 37.8472 291.035 38.9027 292.207 40.891C293.965 43.8734 297.893 44.5028 297.934 44.5103C298.095 44.5357 298.245 44.6119 298.358 44.73C300.677 47.1309 300.565 49.6768 300.063 51.3915C299.553 53.1332 298.56 54.3575 298.361 54.5907C298.219 54.7597 298.01 54.8568 297.789 54.8568ZM288.529 39.5874C288.478 39.5874 288.429 39.5919 288.383 39.6023C287.868 39.71 287.474 40.5068 287.33 41.7296C287.098 43.6895 287.557 46.8783 289.617 49.4137C291.417 51.6307 294.053 52.9448 297.455 53.326C297.769 52.8969 298.313 52.0478 298.63 50.9714C299.178 49.1057 298.778 47.4135 297.445 45.9409C296.422 45.7316 292.767 44.7853 290.921 41.6519C290.099 40.2601 289.134 39.5874 288.529 39.5874Z" fill="#040000"/>
<path d="M332.865 42.3582C332.865 42.3582 336.076 42.3582 338.327 38.0303C340.325 34.1913 343.888 33.0491 344.911 38.0303C345.934 43.0115 343.851 52.6824 331.394 54.6258C331.395 54.6258 328.704 47.5651 332.865 42.3582Z" fill="#040000"/>
<path d="M321.409 71.8693C315.172 71.8693 309.469 70.3639 304.917 67.5145C300.263 64.6024 297.077 59.9022 295.705 53.9239C294.443 48.4329 294.061 41.7893 294.626 35.2175C295.2 28.5425 297.194 23.2953 300.552 19.6207C304.243 15.5813 309.509 13.5332 316.202 13.5332C320.813 13.5332 327.225 14.8129 331.4 18.4023C336.112 22.4551 336.83 28.3542 336.91 33.591C336.942 35.8364 336.779 38.0938 336.619 40.2779C336.462 42.4322 336.3 44.6597 336.332 46.8438C336.335 47.0157 336.336 47.1906 336.338 47.367C336.353 49.1849 336.368 51.0655 337.502 52.3004C337.752 52.6083 338.129 52.7877 338.525 52.7862C338.592 52.7862 338.66 52.7817 338.725 52.7743C338.482 52.1344 338.503 51.4243 338.784 50.8009C339.477 49.2088 341.554 48.1459 343.08 48.0741C343.158 48.0711 343.234 48.0682 343.31 48.0682C346.16 48.0682 347.519 50.5782 347.599 53.0643C347.698 56.0961 346.39 59.2609 343.712 62.4705C339.29 67.7702 332.89 70.9574 325.203 71.6869C323.933 71.808 322.658 71.8693 321.409 71.8693Z" fill="white"/>
<path d="M316.203 14.2801C321.021 14.2801 327.1 15.6899 330.913 18.9683C335.273 22.7176 336.08 28.1667 336.164 33.6024C336.226 38.0275 335.522 42.4211 335.585 46.8537C335.613 48.8494 335.498 51.2234 336.951 52.8051C337.343 53.267 337.919 53.5346 338.524 53.5331C338.985 53.5182 339.438 53.4135 339.859 53.2282C338.023 51.059 341.154 48.9137 343.115 48.821C343.181 48.818 343.245 48.8166 343.309 48.8166C345.674 48.8166 346.779 50.899 346.851 53.0891C346.959 56.4064 345.199 59.5204 343.136 61.9931C338.542 67.499 332.178 70.2751 325.129 70.9449C323.9 71.0615 322.657 71.1228 321.411 71.1228C315.789 71.1228 310.102 69.8775 305.315 66.8816C300.563 63.9066 297.677 59.1721 296.435 53.7574C295.087 47.8852 294.856 41.2835 295.372 35.2812C295.84 29.8396 297.338 24.2455 301.105 20.1239C305.116 15.7332 310.657 14.2801 316.203 14.2801ZM316.203 12.7852C309.292 12.7852 303.84 14.9155 300.001 19.1163C296.529 22.915 294.471 28.3103 293.882 35.1527C293.311 41.7992 293.699 48.525 294.978 54.0907C296.396 60.2664 299.697 65.128 304.523 68.1478C309.195 71.0719 315.035 72.6162 321.413 72.6162C322.685 72.6162 323.983 72.5534 325.273 72.4308C329.08 72.0691 332.589 71.1258 335.703 69.6263C339.011 68.0432 341.939 65.7663 344.286 62.9484C347.086 59.5937 348.452 56.2599 348.346 53.0383C348.234 49.6178 346.21 47.3186 343.309 47.3186C343.223 47.3186 343.133 47.3201 343.045 47.3246C341.257 47.4083 338.917 48.6192 338.098 50.4999C337.956 50.8198 337.865 51.1606 337.827 51.509C337.11 50.467 337.096 48.8883 337.084 47.3575C337.083 47.1796 337.081 47.0032 337.078 46.8298C337.047 44.6785 337.208 42.4675 337.364 40.3282C337.524 38.1291 337.69 35.8538 337.657 33.577C337.573 28.1727 336.823 22.0763 331.886 17.8306C327.557 14.1112 320.946 12.7852 316.203 12.7852Z" fill="#040000"/>
<path d="M332.794 31.1287C332.857 35.5537 332.153 39.9474 332.216 44.38C332.244 46.3757 332.129 48.7497 333.582 50.3314C334.288 51.0998 335.095 51.1745 335.936 50.9428C335.557 49.6377 335.6 48.1637 335.581 46.8511C335.518 42.4186 336.222 38.0249 336.159 33.5998C336.075 28.1642 335.268 22.7151 330.909 18.9657C330.09 18.2706 329.2 17.6621 328.254 17.1523C331.991 20.8658 332.715 26.0025 332.794 31.1287Z" fill="#DAE9E9"/>
<path d="M346.438 46.4362V43.0128C346.438 42.3953 346.938 41.8945 347.556 41.8945H348.554C349.172 41.8945 349.673 42.3953 349.673 43.0128V46.4362C349.673 47.0536 349.172 47.5544 348.554 47.5544H347.556C346.938 47.5544 346.438 47.0536 346.438 46.4362Z" fill="#363838"/>
<path d="M346.341 43.1055H349.764C350.382 43.1055 350.883 43.6063 350.883 44.2237V45.2223C350.883 45.8397 350.382 46.3405 349.764 46.3405H346.341C345.723 46.3405 345.223 45.8397 345.223 45.2223V44.2237C345.223 43.6063 345.723 43.1055 346.341 43.1055Z" fill="#363838"/>
<path d="M315.321 36.7764C314.92 36.437 314.323 36.4714 313.966 36.8556C313.465 37.3878 312.752 38.2788 313.012 38.7123C313.45 39.4434 316.669 39.4389 316.669 38.5628C316.669 38.0306 315.913 37.2817 315.321 36.7764Z" fill="#7A281D"/>
<path d="M335.055 42.6571C335.055 42.6571 337.348 42.6571 338.955 39.1978C340.381 36.1286 342.926 35.2167 343.657 39.1978C344.388 43.1788 342.901 50.9107 334.006 52.464C334.006 52.464 332.085 46.819 335.055 42.6571Z" fill="white"/>
<path d="M345.484 49.625V49.6267C345.489 49.63 345.494 49.6349 345.498 49.6398C345.493 49.6349 345.489 49.6299 345.484 49.625Z" fill="#DAE9E9"/>
<path d="M346.876 53.4247V53.2647C346.876 53.2244 346.874 53.1825 346.874 53.1421C346.874 53.1242 346.874 53.1048 346.873 53.0868C346.871 53.0689 346.87 53.0495 346.87 53.0315C346.865 52.9358 346.859 52.8387 346.852 52.7415C346.85 52.7325 346.85 52.725 346.85 52.7161C346.793 51.8983 346.542 51.106 346.116 50.4064C345.946 50.1223 345.736 49.8622 345.494 49.6365C345.406 49.5542 345.315 49.478 345.219 49.4062C345.215 49.4451 346.43 52.7983 343.14 54.2155C343.063 54.2484 342.99 54.2828 342.917 54.3127C341.081 55.0706 340.029 54.1766 339.066 53.4695C339.066 53.4695 337.649 53.9061 336.559 52.3139C336.559 52.3139 337.049 58.0336 340.923 58.7736C340.679 59.098 340.429 59.415 340.174 59.7214C335.58 65.2274 328.805 67.7987 321.757 68.4684C315.217 69.0903 308.289 68.135 302.555 64.7759C303.405 65.5607 304.326 66.2634 305.307 66.8778C311.157 70.5374 318.346 71.5854 325.123 70.9411C332.171 70.2713 338.535 67.4952 343.129 61.9893C344.313 60.5691 345.397 58.9381 346.086 57.1785C346.282 56.7031 346.442 56.2128 346.565 55.7135C346.755 54.9974 346.859 54.2604 346.877 53.5189C346.876 53.486 346.876 53.4561 346.876 53.4247Z" fill="#DAE9E9"/>
<path d="M339.039 53.1602C339.039 53.1602 340.803 55.3189 343.114 53.4726L339.039 53.1602Z" fill="white"/>
<path d="M341.233 54.9755C339.586 54.9755 338.478 53.6509 338.462 53.633C338.2 53.3131 338.248 52.8422 338.568 52.5805C338.886 52.3204 339.356 52.3668 339.617 52.6837C339.84 52.9483 341.023 54.1891 342.651 52.8885C342.974 52.6314 343.443 52.6837 343.702 53.0066C343.959 53.3295 343.906 53.7989 343.584 54.0576C342.73 54.7363 341.933 54.9755 341.233 54.9755Z" fill="#040000"/>
<path d="M338.647 57.886C336.913 57.2506 336.367 52.6133 336.367 52.6133L338.647 57.886Z" fill="white"/>
<path d="M338.649 58.6335C338.564 58.6335 338.477 58.6186 338.392 58.5872C336.33 57.8322 335.726 53.5507 335.626 52.7C335.578 52.2904 335.871 51.9182 336.281 51.8704C336.692 51.8225 337.063 52.1155 337.111 52.5251C337.449 55.3775 338.381 56.9921 338.905 57.1834C339.292 57.3254 339.491 57.7545 339.349 58.1432C339.24 58.4452 338.954 58.6335 338.649 58.6335Z" fill="#040000"/>
<path d="M302.336 15.1067L304.751 16.1607C305.141 16.3311 305.319 16.7841 305.148 17.1742C305.095 17.2983 305.008 17.406 304.9 17.4867L302.78 19.0504L300.661 20.6141C300.318 20.8668 299.835 20.7935 299.583 20.4512C299.502 20.3421 299.453 20.215 299.438 20.0804L299.143 17.4628L298.849 14.8451C298.801 14.422 299.106 14.0408 299.529 13.993C299.663 13.978 299.799 13.999 299.922 14.0528L302.336 15.1067Z" fill="#4C4C4C"/>
<path d="M300.208 21.5123C300.132 21.5123 300.054 21.5063 299.978 21.4943C299.577 21.433 299.224 21.2207 298.983 20.8948C298.825 20.6811 298.726 20.4284 298.696 20.1623L298.107 14.9285C298.013 14.0973 298.614 13.3438 299.447 13.2496C299.714 13.2197 299.982 13.2616 300.224 13.3677L305.051 15.4741C305.818 15.809 306.17 16.706 305.835 17.4714C305.732 17.7106 305.563 17.9229 305.35 18.0828L301.106 21.2133C300.842 21.4091 300.531 21.5123 300.208 21.5123ZM299.623 14.7371C299.601 14.7371 299.592 14.7476 299.593 14.761L300.182 19.9964C300.193 20.0158 300.209 20.0188 300.218 20.0128L304.458 16.8854C304.459 16.8839 304.464 16.8779 304.464 16.8779C304.47 16.8644 304.465 16.8525 304.453 16.8465L302.039 15.7926L299.625 14.7386C299.625 14.7371 299.623 14.7371 299.623 14.7371Z" fill="#040000"/>
<path d="M328.666 15.3997L326.251 16.4536C325.861 16.6241 325.683 17.077 325.854 17.4672C325.908 17.5913 325.994 17.6989 326.102 17.7797L328.222 19.3434L330.342 20.9071C330.684 21.1598 331.167 21.0865 331.419 20.7442C331.5 20.635 331.55 20.508 331.564 20.3734L331.859 17.7557L332.153 15.1381C332.201 14.715 331.896 14.3338 331.473 14.2859C331.339 14.271 331.203 14.2919 331.08 14.3457L328.666 15.3997Z" fill="#4C4C4C"/>
<path d="M330.797 21.8031C330.475 21.8031 330.163 21.7015 329.9 21.5071L325.66 18.3797C325.442 18.2167 325.274 18.0045 325.17 17.7623C325.008 17.393 325.001 16.9804 325.149 16.6037C325.297 16.227 325.582 15.9295 325.955 15.768L328.369 14.7141L330.783 13.6601C331.025 13.554 331.293 13.5136 331.558 13.542C331.961 13.5884 332.323 13.7872 332.576 14.1041C332.828 14.4211 332.944 14.8187 332.899 15.2209L332.31 20.4562C332.28 20.7208 332.181 20.9734 332.023 21.1872C331.782 21.5131 331.429 21.7254 331.028 21.7867C330.949 21.7972 330.873 21.8031 330.797 21.8031ZM328.965 16.082L326.551 17.1359C326.542 17.1404 326.535 17.1553 326.539 17.1643C326.541 17.1673 326.544 17.1733 326.551 17.1778L330.786 20.3022C330.795 20.3082 330.813 20.3052 330.819 20.2962L331.411 15.0504C331.413 15.0385 331.401 15.0265 331.39 15.025L328.965 16.082Z" fill="#040000"/>
<path d="M325.292 20.6468C324.741 19.7095 320.872 18.4806 320.38 18.3281L318.729 15.3337L316.656 11.5709C316.321 10.9625 315.557 10.7412 314.949 11.0761C314.756 11.1823 314.593 11.3377 314.479 11.5276L312.256 15.2052L310.513 18.0889C310.515 18.08 310.515 18.071 310.516 18.062C310.516 18.062 306.113 19.3014 305.502 20.288C304.976 21.1387 325.83 21.5602 325.292 20.6468Z" fill="white"/>
<path d="M318.548 21.9071C317.539 21.9071 316.467 21.8966 315.367 21.8757C312.909 21.8279 310.577 21.7322 308.796 21.6066C305.533 21.3749 305.244 21.1238 305.033 20.9414C304.721 20.6693 304.652 20.2387 304.865 19.8949C305.513 18.8469 308.517 17.8618 310.043 17.4193L313.839 11.1404C314.018 10.8415 314.277 10.5918 314.588 10.4214C315.057 10.1627 315.598 10.1029 316.113 10.2524C316.627 10.4019 317.053 10.7413 317.31 11.2107L320.889 17.7048C322.638 18.2624 325.344 19.261 325.936 20.2671C326.144 20.6185 326.064 21.0505 325.745 21.3166C325.525 21.499 325.224 21.7486 321.946 21.8578C320.962 21.8907 319.805 21.9071 318.548 21.9071ZM307.304 19.9891C310.87 20.3628 319.88 20.5332 323.472 20.2956C322.672 19.9158 321.518 19.4644 320.158 19.0428C319.973 18.986 319.819 18.8589 319.724 18.69L316 11.9328C315.935 11.8132 315.827 11.7265 315.695 11.6891C315.565 11.6517 315.426 11.6667 315.308 11.7325C315.231 11.7758 315.165 11.8386 315.12 11.9133L311.152 18.4777C311.016 18.7034 310.777 18.8335 310.526 18.838C309.322 19.1848 308.143 19.6124 307.304 19.9891Z" fill="#040000"/>
<path d="M350.984 26.4886C350.497 26.4886 350.009 26.4422 349.54 26.3525C346.764 25.8218 344.82 23.8261 344.468 21.1456C344.169 18.8718 344.746 16.2795 346.094 13.8472C346.194 13.6648 346.387 13.5512 346.595 13.5512C346.884 13.5512 347.123 13.759 347.163 14.0431C347.247 14.6276 347.485 16.0613 347.888 16.743C348.006 16.9448 348.084 16.9792 348.088 16.9807C348.214 17.0345 348.314 17.0614 348.386 17.0614C348.583 17.0614 348.821 16.7175 349.09 16.0388C349.24 15.6606 349.406 15.1673 349.597 14.5274C350.193 12.5287 349.631 10.9321 349.362 10.3371C349.277 10.1487 349.292 9.93195 349.404 9.75853C349.516 9.58512 349.706 9.48047 349.911 9.48047C349.935 9.48047 349.959 9.48196 349.984 9.48495C350.567 9.55522 351.43 10.0127 352.232 11.7962C352.932 13.3494 353.141 15.0791 353.237 16.2451C353.262 16.5576 353.282 16.8476 353.298 17.1062C353.316 17.3768 353.331 17.622 353.351 17.8118C353.536 17.6399 353.793 17.2946 353.952 16.7863C354.077 16.3827 354.112 15.9686 354.055 15.5575C353.805 13.78 354.651 12.7006 355.454 12.3179C355.532 12.2805 355.614 12.2611 355.701 12.2611C356.01 12.2611 356.261 12.5033 356.273 12.8127C356.282 13.0265 356.284 13.2403 356.287 13.4556C356.294 14.0879 356.303 14.6859 356.45 15.2525C356.571 15.7159 356.717 16.1704 356.859 16.6114C356.972 16.9552 357.085 17.3125 357.187 17.6683C357.417 18.4801 357.531 19.1379 357.553 19.8031C357.595 21.0245 357.407 22.7706 356.266 24.1549C355.065 25.617 353.091 26.4886 350.984 26.4886Z" fill="#E83E19"/>
<path d="M349.902 9.93018C349.908 9.93018 349.914 9.93018 349.921 9.93167C350.307 9.97802 351.06 10.3069 351.814 11.9813C352.461 13.4209 352.676 15.034 352.781 16.2822C352.85 17.1119 352.869 17.7802 352.932 18.1315C352.964 18.3064 353.055 18.3856 353.179 18.3856C353.517 18.3856 354.097 17.7951 354.37 16.9206C354.502 16.499 354.562 16.0131 354.488 15.4944C354.243 13.7528 355.163 12.9485 355.637 12.7213C355.654 12.7123 355.672 12.7093 355.689 12.7093C355.753 12.7093 355.811 12.7601 355.813 12.8304C355.846 13.675 355.79 14.5436 356.004 15.3658C356.224 16.209 356.517 16.9894 356.744 17.7906C356.928 18.438 357.07 19.0987 357.094 19.8178C357.143 21.25 356.838 22.7404 355.909 23.8691C354.72 25.3118 352.811 26.0383 350.972 26.0383C350.516 26.0383 350.06 25.9965 349.612 25.9112C347.078 25.4269 345.239 23.6613 344.9 21.087C344.584 18.6921 345.311 16.1626 346.472 14.0637C346.496 14.0189 346.54 13.9994 346.582 13.9994C346.64 13.9994 346.697 14.0383 346.706 14.1071C346.803 14.7858 347.051 16.2314 347.488 16.9729C347.609 17.1777 347.745 17.3287 347.896 17.3945C348.069 17.4692 348.226 17.5126 348.371 17.5126C348.787 17.5126 349.113 17.1628 349.492 16.2075C349.652 15.8053 349.823 15.2956 350.012 14.6587C350.66 12.4895 350.021 10.7389 349.757 10.1559C349.713 10.0483 349.791 9.93018 349.902 9.93018ZM349.903 9.0332C349.902 9.0332 349.902 9.0332 349.903 9.0332C349.545 9.0332 349.214 9.21409 349.018 9.51608C348.822 9.81955 348.796 10.1948 348.944 10.5237C349.138 10.9512 349.725 12.4955 349.157 14.4001C348.97 15.028 348.809 15.5108 348.664 15.8741C348.497 16.2942 348.377 16.493 348.31 16.5842C348.298 16.5678 348.283 16.5454 348.265 16.5155C348.017 16.0969 347.763 15.1251 347.598 13.98C347.525 13.4717 347.1 13.1025 346.586 13.1025C346.215 13.1025 345.873 13.3043 345.692 13.6302C344.299 16.1462 343.702 18.8371 344.015 21.2051C344.393 24.0844 346.475 26.2252 349.447 26.7933C349.945 26.8889 350.459 26.9368 350.977 26.9368C353.215 26.9368 355.32 26.0039 356.607 24.4417C357.58 23.2592 358.06 21.6506 357.996 19.7894C357.972 19.0883 357.854 18.3961 357.611 17.5485C357.508 17.1852 357.392 16.8249 357.279 16.4766C357.139 16.043 356.994 15.5931 356.876 15.1416C356.743 14.6288 356.735 14.0577 356.728 13.4538C356.725 13.24 356.722 13.0188 356.713 12.7975C356.692 12.2459 356.242 11.8138 355.692 11.8138C355.541 11.8138 355.388 11.8482 355.252 11.914C354.402 12.3206 353.505 13.379 353.556 15.0773C353.415 14.0219 353.156 12.7751 352.633 11.6135C351.745 9.63866 350.727 9.1244 350.029 9.04068C349.987 9.03619 349.944 9.0332 349.903 9.0332Z" fill="#77271C"/>
<path d="M353.49 20.7458C353.458 20.7054 353.373 20.7174 353.364 20.7623C353.312 21.0194 353.179 21.5695 352.944 21.8491C352.878 21.9268 352.807 21.9836 352.724 22.0091C352.506 22.0763 352.339 22.0748 352.179 21.9552C352.179 21.9552 352.08 21.8491 351.942 21.6832C351.649 21.3303 351.355 20.7563 351.077 20.2315C351.029 20.1404 351.013 20.106 350.971 20.1075C350.927 20.1075 350.918 20.1419 350.877 20.2315C350.667 20.6815 350.306 21.3303 350.011 21.6832C349.873 21.8491 349.775 21.9552 349.775 21.9552C349.615 22.0748 349.447 22.0748 349.229 22.0091C349.148 21.9836 349.075 21.9268 349.009 21.8491C348.775 21.568 348.642 21.0194 348.589 20.7623C348.58 20.7174 348.495 20.7069 348.464 20.7458C347.839 21.5426 347.449 22.5024 347.618 23.4113C347.8 24.389 348.788 25.0588 350.15 25.2426C350.391 25.2755 350.636 25.2905 350.881 25.2905C350.912 25.2905 350.945 25.2905 350.977 25.289C351.008 25.289 351.041 25.2905 351.072 25.2905C351.318 25.2905 351.563 25.274 351.803 25.2426C353.165 25.0588 354.154 24.389 354.336 23.4113C354.505 22.5024 354.115 21.5426 353.49 20.7458Z" fill="#F49B24"/>
<path d="M347.286 21.0437C347.805 21.0437 348.225 20.6234 348.225 20.1048C348.225 19.5863 347.805 19.166 347.286 19.166C346.768 19.166 346.348 19.5863 346.348 20.1048C346.348 20.6234 346.768 21.0437 347.286 21.0437Z" fill="white"/>
<path d="M354.47 21.0437C354.989 21.0437 355.409 20.6234 355.409 20.1048C355.409 19.5863 354.989 19.166 354.47 19.166C353.952 19.166 353.531 19.5863 353.531 20.1048C353.531 20.6234 353.952 21.0437 354.47 21.0437Z" fill="white"/>
<path d="M299.622 10.5012C299.361 10.5012 299.101 10.4772 298.849 10.4294C297.347 10.1424 296.295 9.06003 296.103 7.60544C295.946 6.40798 296.247 5.04757 296.952 3.77387C297.042 3.61092 297.214 3.50927 297.399 3.50927C297.656 3.50927 297.87 3.69464 297.906 3.94878C297.988 4.52883 298.118 5.02216 298.244 5.23444C298.256 5.25388 298.265 5.26733 298.271 5.2763C298.304 5.23295 298.367 5.13279 298.456 4.91004C298.529 4.72616 298.612 4.48099 298.706 4.16256C298.994 3.19682 298.695 2.41346 298.598 2.1967C298.523 2.03225 298.537 1.84389 298.636 1.6914C298.733 1.54041 298.899 1.44922 299.078 1.44922H299.105L299.141 1.4537C299.492 1.49556 300.007 1.75568 300.455 2.75282C300.791 3.4988 300.911 4.31355 300.968 4.91153C300.966 4.86669 300.963 4.82183 300.957 4.77848C300.814 3.76042 301.316 3.13403 301.788 2.90829C301.857 2.8754 301.933 2.85747 302.01 2.85747C302.286 2.85747 302.511 3.07423 302.521 3.3493C302.525 3.45844 302.527 3.57056 302.528 3.68118C302.533 3.98765 302.536 4.27618 302.603 4.5363C302.663 4.76503 302.736 4.99226 302.807 5.21202C302.863 5.38842 302.923 5.57081 302.974 5.75469C303.097 6.18374 303.156 6.53356 303.168 6.88786C303.201 7.82968 302.958 8.64294 302.466 9.23943C301.817 10.0303 300.754 10.5012 299.622 10.5012Z" fill="#E83E19"/>
<path d="M299.082 1.89697C299.085 1.89697 299.088 1.89697 299.091 1.89697C299.287 1.92089 299.668 2.08683 300.049 2.93447C300.376 3.66401 300.486 4.48025 300.538 5.11262C300.572 5.5327 300.583 5.87056 300.614 6.04846C300.631 6.13666 300.677 6.17703 300.74 6.17703C300.912 6.17703 301.205 5.87804 301.342 5.43553C301.409 5.22175 301.439 4.97658 301.402 4.71347C301.278 3.83144 301.744 3.42482 301.983 3.3097C301.992 3.30522 302.001 3.30373 302.01 3.30373C302.043 3.30373 302.072 3.32914 302.073 3.36502C302.09 3.79257 302.061 4.23209 302.17 4.64769C302.281 5.07375 302.43 5.46991 302.546 5.87505C302.638 6.20244 302.71 6.53731 302.723 6.90059C302.749 7.62564 302.593 8.38059 302.124 8.95166C301.523 9.6827 300.556 10.049 299.624 10.049C299.394 10.049 299.162 10.028 298.935 9.98468C297.653 9.7395 296.721 8.84552 296.551 7.54192C296.391 6.32951 296.759 5.04983 297.348 3.98692C297.36 3.96449 297.382 3.95403 297.403 3.95403C297.433 3.95403 297.461 3.97346 297.466 4.00785C297.515 4.35169 297.641 5.08422 297.862 5.45795C297.923 5.56111 297.992 5.63884 298.068 5.67173C298.156 5.70911 298.236 5.73153 298.309 5.73153C298.52 5.73153 298.684 5.55363 298.877 5.07076C298.958 4.86745 299.044 4.60882 299.14 4.28591C299.467 3.18712 299.145 2.3021 299.01 2.0061C298.986 1.95677 299.026 1.89697 299.082 1.89697ZM299.082 1C298.75 1 298.443 1.16743 298.262 1.44699C298.082 1.72655 298.056 2.07637 298.194 2.37984C298.268 2.54429 298.479 3.09443 298.339 3.80154C298.239 3.37399 297.85 3.06005 297.403 3.06005C297.055 3.06005 296.733 3.24991 296.563 3.55488C295.812 4.9108 295.492 6.36988 295.661 7.66152C295.878 9.31494 297.07 10.5438 298.768 10.8682C299.047 10.922 299.336 10.9489 299.624 10.9489C300.889 10.9489 302.082 10.4167 302.816 9.52423C303.378 8.84104 303.656 7.92463 303.62 6.87218C303.602 6.3639 303.492 5.9199 303.41 5.63137C303.356 5.44001 303.295 5.25315 303.236 5.07375C303.164 4.851 303.096 4.63872 303.039 4.42345C302.985 4.21565 302.982 3.95254 302.978 3.67447C302.976 3.55936 302.975 3.44425 302.97 3.33063C302.951 2.81338 302.529 2.40825 302.01 2.40825C301.868 2.40825 301.725 2.44114 301.596 2.50243C301.397 2.59811 301.194 2.74461 301.018 2.94494C300.973 2.81936 300.922 2.69229 300.865 2.56821C300.33 1.37972 299.662 1.06428 299.195 1.00748C299.159 1.00299 299.121 1 299.082 1Z" fill="#77271C"/>
<path d="M300.888 7.37128C300.871 7.35185 300.83 7.35633 300.825 7.37876C300.798 7.50882 300.731 7.78688 300.613 7.9289C300.58 7.96777 300.543 7.99767 300.502 8.00963C300.392 8.04401 300.306 8.04401 300.226 7.98272C300.226 7.98272 300.176 7.9289 300.106 7.84518C299.958 7.66728 299.809 7.37576 299.668 7.10966C299.644 7.06332 299.635 7.04688 299.614 7.04688C299.592 7.04688 299.587 7.06332 299.566 7.10966C299.46 7.3369 299.276 7.66579 299.128 7.84518C299.058 7.9289 299.009 7.98272 299.009 7.98272C298.928 8.04401 298.843 8.04401 298.732 8.00963C298.69 7.99767 298.654 7.96777 298.622 7.9289C298.502 7.78688 298.435 7.50882 298.409 7.37876C298.405 7.35633 298.361 7.35035 298.346 7.37128C298.03 7.77492 297.832 8.26078 297.919 8.72123C298.012 9.21606 298.511 9.55541 299.202 9.6481C299.324 9.66454 299.448 9.67202 299.572 9.67202C299.589 9.67202 299.605 9.67202 299.62 9.67202C299.637 9.67202 299.653 9.67202 299.668 9.67202C299.792 9.67202 299.916 9.66454 300.039 9.6481C300.728 9.55541 301.229 9.21606 301.321 8.72123C301.401 8.26078 301.203 7.77342 300.888 7.37128Z" fill="#F49B24"/>
<path d="M297.749 7.52306C298.011 7.52306 298.224 7.31022 298.224 7.04766C298.224 6.78511 298.011 6.57227 297.749 6.57227C297.486 6.57227 297.273 6.78511 297.273 7.04766C297.273 7.31022 297.486 7.52306 297.749 7.52306Z" fill="white"/>
<path d="M301.389 7.52306C301.652 7.52306 301.865 7.31022 301.865 7.04766C301.865 6.78511 301.652 6.57227 301.389 6.57227C301.127 6.57227 300.914 6.78511 300.914 7.04766C300.914 7.31022 301.127 7.52306 301.389 7.52306Z" fill="white"/>
<path d="M306.281 35.1271L301.551 33.381C300.808 33.1074 300.428 32.2822 300.702 31.5407L300.868 31.0922C301.142 30.3492 301.967 29.9695 302.708 30.2431L307.438 31.9892C308.181 32.2628 308.561 33.088 308.287 33.8295L308.122 34.278C307.848 35.021 307.023 35.4007 306.281 35.1271Z" fill="#B62322"/>
<path d="M323.361 35.1271L328.091 33.381C328.834 33.1074 329.213 32.2822 328.94 31.5407L328.774 31.0922C328.5 30.3492 327.675 29.9695 326.934 30.2431L322.204 31.9892C321.461 32.2628 321.081 33.088 321.354 33.8295L321.52 34.278C321.794 35.021 322.619 35.4007 323.361 35.1271Z" fill="#B62322"/>
<path d="M323.993 41.0052C323.827 41.0052 323.654 40.9962 323.475 40.9798C323.146 40.9484 322.905 40.6554 322.936 40.3265C322.968 39.9976 323.261 39.7569 323.59 39.7883C324.398 39.866 324.964 39.724 325.271 39.3652C325.715 38.848 325.606 37.8957 325.533 37.6042C325.452 37.2842 325.647 36.9583 325.967 36.8791C326.287 36.7999 326.612 36.9927 326.692 37.3126C326.71 37.3829 327.116 39.0543 326.177 40.1456C325.686 40.7167 324.953 41.0052 323.993 41.0052Z" fill="#DC3A14"/>
<path d="M330.567 40.8748C329.607 40.8748 328.873 40.5863 328.383 40.0152C327.444 38.9239 327.851 37.2525 327.868 37.1823C327.949 36.8624 328.274 36.668 328.594 36.7487C328.913 36.8295 329.108 37.1524 329.029 37.4723C328.951 37.7907 328.848 38.7266 329.292 39.2378C329.601 39.5936 330.165 39.7357 330.97 39.6579C331.299 39.6265 331.591 39.8672 331.624 40.1961C331.655 40.525 331.414 40.8165 331.086 40.8494C330.906 40.8658 330.733 40.8748 330.567 40.8748Z" fill="#DC3A14"/>
<path d="M326.113 45.3162C326.066 45.3162 326.016 45.3103 325.967 45.2983C325.647 45.2176 325.453 44.8932 325.532 44.5747C325.61 44.2563 325.713 43.3205 325.269 42.8092C324.961 42.4534 324.396 42.3114 323.59 42.3891C323.261 42.422 322.969 42.1798 322.937 41.8509C322.904 41.522 323.146 41.2305 323.475 41.1976C324.693 41.081 325.602 41.3606 326.178 42.0318C327.116 43.1231 326.71 44.7945 326.692 44.8648C326.625 45.1353 326.381 45.3162 326.113 45.3162Z" fill="#DC3A14"/>
<path d="M328.447 45.4451C328.179 45.4451 327.936 45.2642 327.868 44.9936C327.851 44.9233 327.444 43.252 328.383 42.1606C328.96 41.4909 329.869 41.2098 331.086 41.3265C331.414 41.3578 331.655 41.6509 331.624 41.9797C331.592 42.3086 331.299 42.5493 330.97 42.5179C330.166 42.4402 329.6 42.5822 329.292 42.938C328.848 43.4508 328.951 44.3866 329.029 44.7051C329.106 45.025 328.91 45.3494 328.592 45.4286C328.544 45.4406 328.495 45.4451 328.447 45.4451Z" fill="#DC3A14"/>
<defs>
<filter id="filter0_dd" x="0.245695" y="0.285156" width="281.415" height="72.6127" filterUnits="userSpaceOnUse" color-interpolation-filters="sRGB">
<feFlood flood-opacity="0" result="BackgroundImageFix"/>
<feColorMatrix in="SourceAlpha" type="matrix" values="0 0 0 0 0 0 0 0 0 0 0 0 0 0 0 0 0 0 127 0"/>
<feOffset dy="3.59024"/>
<feGaussianBlur stdDeviation="1.79512"/>
<feColorMatrix type="matrix" values="0 0 0 0 1 0 0 0 0 1 0 0 0 0 1 0 0 0 0.25 0"/>
<feBlend mode="normal" in2="BackgroundImageFix" result="effect1_dropShadow"/>
<feColorMatrix in="SourceAlpha" type="matrix" values="0 0 0 0 0 0 0 0 0 0 0 0 0 0 0 0 0 0 127 0"/>
<feOffset dy="3.59024"/>
<feGaussianBlur stdDeviation="1.79512"/>
<feColorMatrix type="matrix" values="0 0 0 0 1 0 0 0 0 1 0 0 0 0 1 0 0 0 0.25 0"/>
<feBlend mode="normal" in2="effect1_dropShadow" result="effect2_dropShadow"/>
<feBlend mode="normal" in="SourceGraphic" in2="effect2_dropShadow" result="shape"/>
</filter>
<filter id="filter1_dd" x="0.245695" y="0.285156" width="281.415" height="72.6127" filterUnits="userSpaceOnUse" color-interpolation-filters="sRGB">
<feFlood flood-opacity="0" result="BackgroundImageFix"/>
<feColorMatrix in="SourceAlpha" type="matrix" values="0 0 0 0 0 0 0 0 0 0 0 0 0 0 0 0 0 0 127 0"/>
<feOffset dy="3.59024"/>
<feGaussianBlur stdDeviation="1.79512"/>
<feColorMatrix type="matrix" values="0 0 0 0 1 0 0 0 0 1 0 0 0 0 1 0 0 0 0.25 0"/>
<feBlend mode="normal" in2="BackgroundImageFix" result="effect1_dropShadow"/>
<feColorMatrix in="SourceAlpha" type="matrix" values="0 0 0 0 0 0 0 0 0 0 0 0 0 0 0 0 0 0 127 0"/>
<feOffset dy="3.59024"/>
<feGaussianBlur stdDeviation="1.79512"/>
<feColorMatrix type="matrix" values="0 0 0 0 1 0 0 0 0 1 0 0 0 0 1 0 0 0 0.25 0"/>
<feBlend mode="normal" in2="effect1_dropShadow" result="effect2_dropShadow"/>
<feBlend mode="normal" in="SourceGraphic" in2="effect2_dropShadow" result="shape"/>
</filter>
</defs>
</svg>
