<svg width="92" height="77" viewBox="0 0 92 77" fill="none" xmlns="http://www.w3.org/2000/svg">
<path d="M22.5308 34.8845C22.3136 38.3561 17.9052 48.4254 12.9073 45.9378C9.8399 44.4117 11.1715 39.5291 12.6089 37.423C16.3771 31.8963 6.95 33.1675 6.95 33.1675C6.95 33.1675 1.02661 32.9843 6.10187 29.0876C11.1677 25.1985 15.9729 27.0175 17.0646 27.3273C18.7457 27.8052 20.5608 29.3181 21.5506 30.7101C22.342 31.8227 22.6309 33.2922 22.5308 34.8845Z" fill="#E8852E"/>
<path d="M14.498 47.2723C13.8161 47.2723 13.1399 47.1099 12.4864 46.785C11.3795 46.2335 10.6202 45.2778 10.2916 44.0179C9.6947 41.7268 10.6373 38.6367 11.8272 36.8914C12.46 35.9621 12.6923 35.216 12.4637 34.8458C12.1275 34.3018 10.1839 33.6898 7.07301 34.1054C7.02201 34.1129 6.96916 34.1147 6.91816 34.1128C6.38929 34.0958 3.72798 33.9297 3.18967 32.26C2.69669 30.7319 4.28705 29.2907 5.52423 28.3406C8.93544 25.7208 12.8301 25.0541 17.0951 26.3536C17.182 26.38 17.2576 26.4027 17.318 26.4197C19.3409 26.9939 21.2845 28.7147 22.3158 30.1634C23.1904 31.3911 23.5889 33.0457 23.4699 34.944C23.2886 37.8207 20.6763 44.4202 16.9497 46.5716C16.1431 47.0381 15.3158 47.2723 14.498 47.2723ZM9.05443 32.0861C10.8601 32.0861 13.1721 32.3959 14.0711 33.8522C14.7379 34.9326 14.5074 36.3134 13.3874 37.9548C12.4392 39.3449 11.6837 41.874 12.1181 43.54C12.3108 44.2747 12.7055 44.7829 13.325 45.0926C14.1958 45.5252 15.0722 45.4742 16.0053 44.9358C18.9707 43.2246 21.4318 37.2729 21.5848 34.8269C21.6774 33.3649 21.3978 32.1315 20.7783 31.2589C19.9397 30.0802 18.3058 28.6636 16.8042 28.2367C16.7324 28.216 16.6456 28.1895 16.5455 28.1593C15.1856 27.7457 11.0452 26.482 6.67449 29.8385C4.99533 31.1266 4.98779 31.6857 4.98968 31.6914C5.10301 31.8916 6.00018 32.1787 6.90681 32.2222C7.29591 32.1712 8.10624 32.0861 9.05443 32.0861Z" fill="#6A371B"/>
<path d="M63.3947 5.91864L67.6578 4.46048C67.6578 4.46048 68.8836 0.731956 71.1011 2.35068C73.3186 3.9694 71.9038 5.27079 71.9038 5.27079C71.9038 5.27079 74.5879 6.06031 74.1176 7.53359C73.6491 9.00687 72.7179 9.72083 70.9235 8.69142C69.1292 7.66201 64.2617 9.73783 64.2617 9.73783C64.2617 9.73783 61.8988 7.84146 63.3947 5.91864Z" fill="#FCE7D8"/>
<path d="M64.262 10.6818C64.0505 10.6818 63.8409 10.61 63.6709 10.474C63.5953 10.4136 62.9247 9.86204 62.445 9.01396C61.7253 7.739 61.7971 6.43383 62.649 5.33832C62.7623 5.19288 62.9153 5.08334 63.0891 5.02479L66.9347 3.71018C67.2577 2.95276 68.017 1.52292 69.2919 1.11305C69.8359 0.939275 70.686 0.878836 71.6587 1.58903C72.69 2.34078 73.2396 3.1813 73.2906 4.08416C73.3057 4.34104 73.2773 4.57525 73.2244 4.7849C73.8251 5.08712 74.5184 5.5593 74.8735 6.23173C75.1398 6.73415 75.1888 7.28383 75.0188 7.82214C74.6656 8.93277 74.0839 9.65427 73.2925 9.96215C72.4803 10.2776 71.5246 10.1265 70.4555 9.51263C69.5111 8.97243 66.4247 9.84696 64.6341 10.6082C64.5132 10.6573 64.3867 10.6818 64.262 10.6818ZM64.0032 6.70771C63.6047 7.45002 64.0883 8.19987 64.4736 8.63241C66.0149 8.03365 69.596 6.83996 71.3942 7.87126C71.9212 8.17347 72.3651 8.29246 72.6069 8.19802C72.8335 8.10924 73.0507 7.77114 73.2188 7.24604C73.2339 7.19505 73.2358 7.1705 73.2056 7.11573C73.013 6.75118 72.1705 6.33376 71.636 6.1751C71.3017 6.07499 71.0297 5.81618 70.9598 5.47431C70.8918 5.13621 70.9938 4.80378 71.2545 4.58279C71.2885 4.54312 71.4187 4.38259 71.4017 4.17671C71.3772 3.88016 71.0636 3.49293 70.5442 3.11328C70.1457 2.8224 69.9473 2.88665 69.8718 2.90932C69.3372 3.07931 68.7707 4.1125 68.5553 4.75659C68.4628 5.03614 68.2437 5.25711 67.9641 5.35344L64.0032 6.70771Z" fill="#6A371B"/>
<path d="M61.6116 4.97087C61.6116 4.97087 48.7488 -2.54099 41.8886 5.71316C35.0284 13.9673 41.6846 23.4398 51.2137 22.076C60.7428 20.7123 63.0283 12.6357 63.0283 12.6357C63.0283 12.6357 64.8189 10.3295 63.8198 9.62117C62.8187 8.91286 64.7376 8.20832 63.1737 6.5896C63.1737 6.5896 63.7158 5.14086 61.6116 4.97087Z" fill="#E8852E"/>
<path d="M49.4063 23.1511C45.1301 23.1511 41.3203 21.0961 39.3767 17.6169C37.2083 13.7391 37.877 9.06238 41.1617 5.10908C44.2045 1.44855 48.8208 0.137694 54.5137 1.32198C58.1837 2.08507 61.1454 3.632 61.9028 4.05132C62.834 4.16654 63.497 4.52545 63.8747 5.12043C64.1411 5.53786 64.192 5.9704 64.175 6.3085C65.0741 7.48902 64.7096 8.46554 64.5264 8.95852C64.5245 8.96419 64.5226 8.96983 64.5207 8.97549C64.8059 9.23237 64.9854 9.57426 65.0458 9.97658C65.2139 11.1155 64.3035 12.5038 63.8804 13.0742C63.461 14.3586 60.6807 21.6759 51.3462 23.0113C50.6926 23.1039 50.0429 23.1511 49.4063 23.1511ZM50.585 2.78204C47.2418 2.78204 44.5691 3.96444 42.6142 6.31791C39.847 9.64601 39.2539 13.5257 41.0256 16.6951C42.8767 20.0062 46.8205 21.7515 51.0798 21.1414C59.8553 19.8854 62.0312 12.6814 62.12 12.3754C62.154 12.2602 62.2088 12.1506 62.2824 12.0562C62.749 11.4536 63.1569 10.6547 63.1796 10.3204C62.2711 9.6026 62.6225 8.66009 62.7566 8.29744C62.9096 7.88756 62.9662 7.73455 62.494 7.24535C62.2277 6.96958 62.1313 6.61823 62.2824 6.27069C62.2938 6.22347 62.2957 6.15358 62.2806 6.13092C62.2485 6.0837 62.052 5.95338 61.5364 5.91183C61.3947 5.9005 61.2587 5.85707 61.1359 5.78529C61.0812 5.75318 57.9552 3.95689 54.0869 3.1617C52.8478 2.90859 51.6786 2.78204 50.585 2.78204Z" fill="#6A371B"/>
<path d="M10.1326 30.5311C10.1326 30.5311 16.6377 23.6124 26.8827 16.5369C35.9395 10.2811 52.2608 4.02343 66.9578 9.79944C81.6547 15.5755 82.9429 25.0724 87.9671 25.3728C92.9914 25.6731 88.2524 36.7718 88.2524 36.7718C88.2524 36.7718 79.3125 83.1575 29.9293 66.1883C-7.53925 53.3122 10.1326 30.5311 10.1326 30.5311Z" fill="#E8852E"/>
<path d="M50.0694 70.8683C43.8023 70.8683 36.9743 69.6066 29.6249 67.0813C16.1935 62.465 8.16786 56.0486 5.76717 48.006C2.91505 38.4505 9.12355 30.2946 9.38987 29.9527C9.40876 29.93 9.42766 29.9055 9.44844 29.8847C9.51455 29.8148 16.1405 22.8111 26.3496 15.7601C36.1129 9.01702 52.6968 3.17863 67.3069 8.92065C76.1768 12.4074 80.232 17.1541 83.1918 20.62C85.0995 22.8545 86.3613 24.3316 88.0272 24.4298C89.1492 24.4978 90.0312 25.0002 90.5771 25.8842C92.4489 28.9101 89.6535 35.8855 89.1624 37.0528C89.0094 37.8008 88.0027 42.3547 85.2714 47.9532C82.5629 53.5044 77.5726 61.1428 69.1881 65.9952C63.5727 69.2421 57.1809 70.8683 50.0694 70.8683ZM10.8556 31.1427C10.4382 31.7055 5.08533 39.1588 7.58046 47.4848C9.8036 54.9003 17.4249 60.8935 30.2368 65.2963C45.3795 70.5 58.1612 70.1884 68.2248 64.369C76.1843 59.7659 80.9498 52.4807 83.5432 47.1807C86.3745 41.3952 87.3152 36.641 87.3246 36.5938C87.3378 36.5277 87.3567 36.4635 87.3832 36.403C88.5618 33.6378 90.0351 28.606 88.966 26.8777C88.8168 26.6378 88.5617 26.3564 87.9101 26.3167C85.4414 26.1694 83.8132 24.2617 81.7506 21.8478C78.9193 18.5329 75.0435 13.994 66.6118 10.6792C52.693 5.20912 36.8005 10.8341 27.4187 17.3146C17.7593 23.9859 11.3751 30.5987 10.8556 31.1427Z" fill="#6A371B"/>
<path d="M18.4258 32.7029C18.4258 32.7029 30.2176 26.0089 39.6731 20.5955C49.1285 15.1822 63.8292 16.493 69.2218 21.4701" fill="#E8852E"/>
<path d="M18.4251 33.6484C18.0964 33.6484 17.7772 33.4765 17.6034 33.1705C17.3465 32.7172 17.5052 32.1412 17.9585 31.8824C18.0756 31.8163 29.8581 25.1279 39.2021 19.7769C43.7126 17.1948 49.8418 15.8897 56.0164 16.1938C61.8906 16.4847 67.066 18.1978 69.8614 20.7761C70.2449 21.1293 70.2695 21.728 69.9144 22.1115C69.5611 22.4949 68.9642 22.5195 68.5789 22.1644C66.0989 19.8751 61.3674 18.3489 55.922 18.0807C50.0968 17.7936 44.3454 19.0081 40.139 21.4164C30.7893 26.7693 19.0068 33.4576 18.8878 33.5256C18.7442 33.6087 18.5837 33.6484 18.4251 33.6484Z" fill="#6A371B"/>
<path d="M78.1408 39.366L82.4039 37.9077C82.4039 37.9077 83.6297 34.1792 85.8472 35.7979C88.0646 37.4167 86.6499 38.7181 86.6499 38.7181C86.6499 38.7181 89.334 39.5076 88.8637 40.9809C88.3952 42.4541 87.464 43.1681 85.6696 42.1387C83.8753 41.1093 79.0078 43.1851 79.0078 43.1851C79.0078 43.1851 76.6449 41.2888 78.1408 39.366Z" fill="#FCE7D8"/>
<path d="M79.0081 44.129C78.7965 44.129 78.5869 44.0573 78.4169 43.9213C78.3413 43.8609 77.6709 43.3093 77.1911 42.4613C76.4715 41.1863 76.5432 39.8811 77.395 38.7855C77.5083 38.6401 77.6614 38.5306 77.8351 38.4721L81.6807 37.1574C82.0037 36.4 82.7631 34.9702 84.0381 34.5603C84.5821 34.3865 85.432 34.3261 86.4047 35.0363C87.436 35.7899 87.9857 36.6285 88.0367 37.5333C88.0518 37.7901 88.0235 38.0244 87.9706 38.234C88.5712 38.5362 89.2625 39.0085 89.6195 39.6809C89.8858 40.1833 89.9349 40.7329 89.763 41.2713C89.4098 42.3819 88.83 43.1034 88.0367 43.4113C87.2245 43.7267 86.2706 43.5757 85.1978 42.9618C84.2552 42.4216 81.167 43.2961 79.3764 44.0573C79.2593 44.1045 79.1327 44.129 79.0081 44.129ZM78.7494 40.1549C78.3508 40.8972 78.8343 41.6472 79.2197 42.0797C80.7609 41.481 84.3422 40.2872 86.1403 41.3185C86.6673 41.6207 87.1112 41.7416 87.3529 41.6452C87.5796 41.5565 87.7968 41.2184 87.963 40.6933C87.98 40.6423 87.98 40.6177 87.9498 40.5629C87.7534 40.1927 86.9128 39.7791 86.382 39.6243C86.0477 39.526 85.7739 39.2672 85.704 38.9234C85.6341 38.5853 85.7361 38.2529 86.0005 38.03C86.0345 37.9903 86.1649 37.8298 86.1479 37.6239C86.1233 37.3274 85.8098 36.9402 85.2903 36.5605C84.8918 36.2697 84.6915 36.3339 84.616 36.3585C84.055 36.5379 83.4827 37.6485 83.3014 38.2039C83.2088 38.4853 82.9897 38.7063 82.7102 38.8026L78.7494 40.1549Z" fill="#6A371B"/>
<path d="M76.3499 38.4182C76.3499 38.4182 63.4871 30.9063 56.6269 39.1604C49.7667 47.4146 56.4228 56.8871 65.9519 55.5233C75.481 54.1596 77.7666 46.083 77.7666 46.083C77.7666 46.083 79.5572 43.7768 78.558 43.0685C77.5569 42.3602 79.4759 41.6556 77.912 40.0369C77.912 40.0369 78.4541 38.5882 76.3499 38.4182Z" fill="#E8852E"/>
<path d="M64.1452 56.5984C59.8689 56.5984 56.0591 54.5433 54.1155 51.0641C51.9472 47.1864 52.6139 42.5097 55.9004 38.5564C58.9433 34.8959 63.5597 33.585 69.2526 34.7692C72.9225 35.5323 75.8841 37.0793 76.6416 37.4986C77.5728 37.6138 78.2357 37.9728 78.6135 38.5677C78.8798 38.9852 78.9309 39.4177 78.9139 39.7558C79.8129 40.9363 79.4484 41.9128 79.2652 42.4058C79.2633 42.4114 79.2614 42.4171 79.2595 42.4228C79.5447 42.6796 79.726 43.0216 79.7846 43.4239C79.9527 44.5628 79.0423 45.9511 78.6192 46.5215C78.1999 47.8059 75.4196 55.1232 66.085 56.4586C65.4315 56.5511 64.7817 56.5984 64.1452 56.5984ZM65.3238 36.2294C61.9805 36.2294 59.3079 37.4117 57.353 39.7652C54.5859 43.0933 53.9927 46.9729 55.7645 50.1424C57.6155 53.4535 61.5612 55.1988 65.8187 54.5887C74.6376 53.327 76.8361 45.9001 76.8588 45.8264C76.8928 45.7093 76.9476 45.5998 77.0213 45.5034C77.4878 44.9009 77.8958 44.1019 77.9185 43.7676C77.0099 43.0499 77.3612 42.1073 77.4953 41.7447C77.6483 41.3348 77.705 41.1819 77.2328 40.6927C76.9665 40.4188 76.8702 40.0674 77.0213 39.718C77.0326 39.6708 77.0325 39.6009 77.0193 39.5783C76.9872 39.531 76.7908 39.4007 76.2733 39.3591C76.1316 39.3478 75.9956 39.3043 75.8728 39.2344C75.8407 39.2156 72.7072 37.408 68.8238 36.609C67.5866 36.3559 66.4174 36.2294 65.3238 36.2294Z" fill="#6A371B"/>
<path d="M41.7137 53.0821C38.3951 52.0395 27.4154 52.5457 27.9442 58.1026C28.2691 61.512 33.3047 62.0201 35.7866 61.4345C42.2974 59.897 37.7302 68.2419 37.7302 68.2419C37.7302 68.2419 35.7772 73.8365 41.234 70.4971C46.6813 67.1614 46.704 62.0238 46.806 60.8943C46.9628 59.1547 46.2016 56.9183 45.2572 55.4942C44.5055 54.3552 43.2361 53.56 41.7137 53.0821Z" fill="#E8852E"/>
<path d="M38.5268 72.5087C38.0565 72.5087 37.6126 72.384 37.2311 72.0762C35.8655 70.975 36.6644 68.4288 36.8382 67.9302C36.8552 67.8811 36.876 67.8338 36.9006 67.7885C38.4022 65.0365 38.5287 63.0003 38.1415 62.4922C37.877 62.1466 37.097 62.0956 36.0015 62.3544C33.9446 62.8398 30.7204 62.6113 28.7975 61.2306C27.7398 60.4732 27.1203 59.4229 27.0032 58.1914C26.8502 56.5897 27.4734 55.175 28.8032 54.0983C32.1483 51.3898 39.2465 51.318 41.9948 52.1812C43.8137 52.7516 45.2132 53.7187 46.0424 54.9748C47.0246 56.4556 47.9313 58.8884 47.7443 60.9793C47.7386 61.0436 47.7329 61.121 47.7272 61.2117C47.4137 65.6617 45.3946 69.0559 41.7246 71.3017C40.801 71.8684 39.5959 72.5087 38.5268 72.5087ZM38.4211 70.6104C38.4362 70.6104 38.9764 70.771 40.7405 69.6906C45.4399 66.8139 45.744 62.4961 45.8441 61.0776C45.8517 60.9718 45.8573 60.883 45.8649 60.8074C46.0047 59.2529 45.2699 57.2187 44.469 56.0136C43.8816 55.1221 42.8296 54.4195 41.4299 53.9813C39.0916 53.2465 32.6545 53.4108 29.9932 55.5641C29.1545 56.2422 28.7919 57.043 28.8844 58.0101C28.9505 58.6995 29.283 59.2492 29.8987 59.693C31.2965 60.696 33.9295 60.8981 35.569 60.5128C37.505 60.0557 38.8763 60.3352 39.6451 61.3458C41.2279 63.4235 39.1407 67.6129 38.5987 68.6197C38.3153 69.481 38.2625 70.4234 38.4211 70.6104Z" fill="#6A371B"/>
<path d="M14.2031 69.1357C13.0339 69.1357 11.9402 68.7825 11.0411 68.112C9.30342 66.82 8.89734 64.6573 8.60079 63.0801C8.49502 62.5154 8.36849 61.9374 8.24571 61.3764C7.98883 60.2034 7.72437 58.9928 7.60538 57.7537C7.33339 54.8978 8.85201 52.5537 11.7721 51.326C12.9564 50.8292 14.1086 50.5762 15.1965 50.5762C17.5708 50.5762 19.5087 51.7472 20.8044 53.9628C21.1331 54.5237 21.4429 55.0999 21.7432 55.6571C22.1833 56.4768 22.6008 57.2512 23.0767 57.9954C24.6785 60.5057 24.5444 62.4719 24.1496 63.6789C23.6623 65.171 22.4667 66.3837 20.8725 67.0014C16.5358 68.6862 16.5301 68.6881 16.5244 68.69C15.7821 68.9808 14.9756 69.1357 14.2031 69.1357Z" fill="#FCE5C6"/>
<path d="M15.1994 51.5216C17.1222 51.5216 18.8185 52.432 19.9933 54.4417C20.7772 55.7828 21.4477 57.1975 22.2844 58.5065C24.6417 62.1991 23.159 65.106 20.5335 66.124C20.5335 66.124 16.2024 67.8052 16.1948 67.8089C15.6017 68.0394 14.9143 68.1923 14.2059 68.1923C13.3295 68.1923 12.4191 67.96 11.6088 67.3555C10.2149 66.3186 9.83521 64.5148 9.53111 62.9056C9.20246 61.1622 8.71515 59.432 8.54704 57.6641C8.29961 55.0613 9.79933 53.1818 12.1396 52.1978C13.1935 51.7558 14.2248 51.5216 15.1994 51.5216ZM15.1994 49.6328V51.5216V49.6328C13.983 49.6328 12.7081 49.9104 11.4086 50.4563C8.12959 51.8352 6.35786 54.5966 6.66763 57.8435C6.7904 59.1392 7.06239 60.3802 7.32493 61.5796C7.45148 62.1576 7.57239 62.7053 7.67438 63.2549C7.98226 64.8888 8.44693 67.3574 10.4793 68.8704C11.5427 69.6618 12.8308 70.0793 14.204 70.0793C15.0918 70.0793 16.0173 69.9017 16.8768 69.5693C16.9202 69.5523 21.2153 67.8845 21.2153 67.8845C23.0739 67.1629 24.4717 65.7368 25.0478 63.9746C25.5067 62.5731 25.6749 60.3103 23.8748 57.4884C23.4177 56.7725 23.0097 56.0151 22.5772 55.2124C22.2731 54.6476 21.9595 54.0639 21.6214 53.4878C20.1708 51.0021 17.8891 49.6328 15.1994 49.6328Z" fill="#F6B76C"/>
<path d="M22.2693 58.4687C22.258 58.4498 22.2467 58.431 22.2335 58.4121C23.5179 61.472 22.0937 63.8255 19.7893 64.7208C19.7893 64.7208 15.4582 66.4018 15.4507 66.4056C14.1266 66.9193 12.3341 67.0459 10.8627 65.9523C10.5662 65.7313 10.315 65.4744 10.1016 65.193C10.4094 66.0203 10.8628 66.7739 11.5919 67.3179C13.0614 68.4115 14.8538 68.2849 16.1797 67.7712C16.1873 67.7693 20.5184 66.0864 20.5184 66.0864C23.1439 65.0683 24.6266 62.1614 22.2693 58.4687Z" fill="#F3D0A7"/>
<path d="M4.53475 62.547C3.4619 62.547 2.60248 62.2278 1.98106 61.5969C0.966758 60.5675 0.700464 58.9941 1.303 57.5888C1.46733 57.2054 1.75059 56.72 2.04903 56.2062C2.36824 55.6603 2.72897 55.0408 2.86875 54.6593C3.31262 53.4599 3.47507 52.625 3.63184 51.8185C3.88305 50.536 4.09842 49.4272 5.28649 47.6234C6.37445 45.9707 8.44271 45.0659 9.57978 44.6731C10.2956 44.4256 10.9964 44.3066 11.7274 44.3066C12.1373 44.3066 12.5452 44.3444 12.9739 44.4218C14.0846 44.6239 15.1026 45.0584 16.0867 45.4777C16.999 45.8668 17.8622 46.2352 18.7689 46.4184L19.0711 46.4788C20.7333 46.8093 22.7997 47.2192 24.0444 48.5451C24.3447 48.8662 24.6356 49.3309 24.8188 49.788C25.002 50.2451 25.0757 50.6701 25.036 51.0498C24.8547 52.8328 22.7562 54.3477 21.3698 55.3506L21.1715 55.4941C19.4168 56.7691 17.4127 57.9534 15.0422 59.1169C12.6208 60.305 10.4165 61.1758 8.30105 61.7764C8.16127 61.8161 8.01398 61.8595 7.86287 61.9029C6.88824 62.19 5.67371 62.547 4.53475 62.547Z" fill="#854322"/>
<path d="M11.7258 45.2501C12.0941 45.2501 12.453 45.286 12.8043 45.3502C14.7876 45.711 16.5498 46.9349 18.5822 47.3448C20.1801 47.6659 22.2503 48.0135 23.3553 49.1921C23.5649 49.415 23.7935 49.772 23.9408 50.1403C24.0541 50.4218 24.1202 50.7108 24.0957 50.9544C23.9483 52.3937 21.78 53.8839 20.6165 54.7301C18.7465 56.0882 16.7085 57.246 14.627 58.2679C12.5059 59.3086 10.3092 60.2229 8.04445 60.867C7.03016 61.1559 5.7023 61.6016 4.53501 61.6016C3.80592 61.6016 3.14106 61.4279 2.65375 60.933C1.953 60.2209 1.69799 59.0668 2.1702 57.9581C2.48563 57.2215 3.44896 55.8124 3.75495 54.9851C4.93357 51.7968 4.27249 50.8807 6.07632 48.14C6.89229 46.9009 8.48082 46.0492 9.88799 45.5637C10.5321 45.3427 11.1403 45.2501 11.7258 45.2501ZM11.7258 43.3613C10.9004 43.3613 10.0731 43.503 9.27034 43.7807C8.02183 44.2113 5.74013 45.2181 4.49729 47.1031C3.20722 49.0637 2.96352 50.3122 2.70475 51.6363C2.55364 52.4069 2.39875 53.204 1.98132 54.3316C1.86988 54.6357 1.51483 55.2421 1.23151 55.7313C0.916073 56.2715 0.619532 56.7814 0.432539 57.2196C-0.319212 58.98 0.0245312 60.9576 1.30704 62.2609C2.11168 63.0787 3.19777 63.4924 4.53316 63.4924C5.80812 63.4924 7.09441 63.1147 8.12949 62.8106C8.2787 62.7671 8.42221 62.7255 8.5601 62.6859C10.7304 62.0682 12.9875 61.1786 15.4581 59.966C17.8777 58.7779 19.9271 57.5672 21.7252 56.2601L21.9217 56.1184C23.4459 55.0173 25.7484 53.3532 25.9731 51.1489C26.0279 50.6144 25.9335 50.0402 25.6936 49.4396C25.465 48.8711 25.1156 48.31 24.7322 47.9021C23.2797 46.3551 21.0471 45.9113 19.2527 45.5562L18.9543 45.4976C18.144 45.3352 17.3242 44.9857 16.4573 44.6155C15.4241 44.1754 14.3569 43.7184 13.1405 43.4974C12.6626 43.4048 12.1867 43.3613 11.7258 43.3613Z" fill="#613017"/>
<path d="M23.342 49.1767C23.0474 48.8631 22.6866 48.61 22.2824 48.3984C22.4826 48.6138 22.6998 48.9519 22.8396 49.3032C22.9473 49.5733 23.0114 49.851 22.9869 50.0852C22.8452 51.4678 20.7638 52.8976 19.6475 53.7098C17.8531 55.015 15.8963 56.1256 13.8979 57.1059C11.8618 58.1051 9.75383 58.9815 7.57979 59.601C5.99885 60.0506 3.6208 60.8986 2.40629 59.6652C2.20229 59.4575 2.03606 59.2101 1.91895 58.9362C1.87362 59.703 2.14562 60.4208 2.63861 60.9194C3.90601 62.2057 6.38226 61.3217 8.02931 60.8533C10.2959 60.2092 12.4907 59.297 14.6119 58.2543C16.6934 57.2325 18.7314 56.0746 20.6013 54.7166C21.7648 53.8704 23.9351 52.3801 24.0805 50.9408C24.1051 50.6971 24.039 50.4081 23.9257 50.1267C23.7802 49.7565 23.5517 49.4014 23.342 49.1767Z" fill="#70371E"/>
<path d="M5.76953 61.4703C5.76953 61.4703 6.00566 60.3596 6.07932 60.0555C6.15299 59.7533 6.3003 61.355 6.3003 61.355L5.76953 61.4703Z" fill="#854322"/>
<path d="M4.54297 62.7032L4.84704 61.2734C4.85649 61.2281 5.087 60.1458 5.16255 59.8323C5.27966 59.3506 5.69706 59.0408 6.17116 59.0748C7.04568 59.139 7.11555 59.8945 7.2421 61.2677L7.31764 62.1007L4.54297 62.7032Z" fill="#613017"/>
<path d="M15.5127 57.7563C15.5127 57.7563 14.8458 56.4058 14.3906 55.9902L15.5127 57.7563Z" fill="#854322"/>
<path d="M15.5132 58.7013C15.1656 58.7013 14.8294 58.5086 14.665 58.1743C14.3855 57.6095 13.9435 56.8596 13.7527 56.6878C13.3674 56.3364 13.341 55.7396 13.6923 55.3543C14.0436 54.969 14.6424 54.9425 15.0258 55.2938C15.5698 55.7906 16.1836 56.9843 16.3574 57.3394C16.5878 57.8079 16.3971 58.3727 15.9286 58.605C15.7964 58.6692 15.6548 58.7013 15.5132 58.7013Z" fill="#613017"/>
<path d="M23.5751 52.1367C23.5751 52.1367 23.0027 51.5191 22.7383 51.5059L23.5751 52.1367Z" fill="#854322"/>
<path d="M23.5754 53.0814C23.3223 53.0814 23.0692 52.9794 22.8822 52.7792C22.7575 52.6451 22.5819 52.4864 22.4875 52.4165C22.07 52.3013 21.7715 51.9085 21.7942 51.4589C21.8206 50.9376 22.2569 50.539 22.7858 50.5636C22.9634 50.573 23.4337 50.5957 24.2686 51.4966C24.6237 51.8801 24.601 52.477 24.2176 52.8321C24.0362 52.9983 23.8058 53.0814 23.5754 53.0814ZM22.6895 52.4486C22.6914 52.4486 22.6914 52.4486 22.6895 52.4486C22.6914 52.4486 22.6914 52.4486 22.6895 52.4486Z" fill="#613017"/>
<path d="M28.4602 75.4694C27.9654 75.4694 27.4649 75.3862 26.9719 75.2238C26.9719 75.2238 23.6703 74.1339 23.6287 74.1207C22.0553 73.6013 20.9031 72.4264 20.5461 70.9777C20.1324 69.3004 20.9938 67.7346 21.5642 66.6976C21.772 66.3198 21.976 65.9232 22.1724 65.5379C22.5899 64.7238 23.0204 63.8814 23.5569 63.09C24.4786 61.7244 25.8915 60.9727 27.5347 60.9727C28.1184 60.9727 28.7247 61.0652 29.3405 61.2503C32.423 62.1739 33.9813 64.4708 33.5091 67.3946C33.4297 67.8839 33.3334 68.373 33.2409 68.8434C33.1049 69.529 32.9765 70.1788 32.8971 70.8342C32.4778 74.253 30.3302 75.4694 28.4602 75.4694Z" fill="#FCE5C6"/>
<path d="M27.5345 61.9162C28.0313 61.9162 28.5469 61.9973 29.0682 62.1541C31.5294 62.8926 32.9988 64.6228 32.5757 67.2426C32.3888 68.4023 32.0998 69.5526 31.9581 70.718C31.6351 73.368 30.1032 74.5221 28.4618 74.5221C28.0652 74.5221 27.663 74.4541 27.2701 74.3257C27.2701 74.3257 23.9306 73.2245 23.9249 73.2226C22.903 72.8864 21.7962 72.0968 21.4638 70.7501C21.1484 69.4751 21.7944 68.2361 22.3912 67.1519C23.0391 65.9752 23.5869 64.7305 24.3386 63.6161C25.1338 62.4431 26.2747 61.9162 27.5345 61.9162ZM27.5345 60.0273C25.5682 60.0273 23.8777 60.9264 22.7746 62.5602C22.208 63.4007 21.7622 64.2677 21.3335 65.1063C21.1314 65.503 20.9387 65.877 20.7385 66.2415C20.0982 67.407 19.1292 69.1673 19.6316 71.2035C20.0679 72.9695 21.4525 74.3956 23.3356 75.017L26.6807 76.12C27.2682 76.3146 27.8688 76.4129 28.4656 76.4129C30.6359 76.4129 33.3464 74.9811 33.8356 70.9465C33.9111 70.3251 34.0358 69.6943 34.1681 69.0256C34.2625 68.5459 34.3607 68.0491 34.4438 67.5429C34.7271 65.7863 34.3777 64.1733 33.4333 62.8775C32.5833 61.714 31.263 60.8376 29.614 60.3428C28.9076 60.135 28.2088 60.0273 27.5345 60.0273Z" fill="#F6B76C"/>
<path d="M31.968 70.6942C31.9699 70.6772 31.9717 70.6602 31.9736 70.6451C31.2521 73.0514 29.2877 73.739 27.5104 73.1535C27.5104 73.1535 24.1709 72.0522 24.1653 72.0503C23.1434 71.7141 22.0366 70.9246 21.7042 69.5779C21.6381 69.3059 21.6134 69.0358 21.6248 68.7676C21.4076 69.3984 21.3075 70.0577 21.4737 70.7263C21.8061 72.0711 22.9129 72.8606 23.9348 73.1987C23.9405 73.2006 27.2799 74.3018 27.2799 74.3018C29.3028 74.9685 31.5676 73.9845 31.968 70.6942Z" fill="#F3D0A7"/>
<path d="M34.2821 68.7252C33.7872 68.7252 33.3112 68.695 32.9297 68.6704L32.7446 68.6591C31.0937 68.5589 29.339 68.2832 27.3822 67.8204C25.3838 67.3463 23.6651 66.7891 22.1257 66.1167C22.0256 66.0733 21.9197 66.028 21.8102 65.9808C20.5088 65.4254 18.5425 64.5849 18.382 62.7792C18.2781 61.5968 18.926 60.4616 20.0366 59.8874C20.3294 59.7363 20.7354 59.5852 21.1642 59.4265C21.6043 59.2641 22.1029 59.079 22.3523 58.9354C23.172 58.4575 23.6612 58.0552 24.1353 57.6642C24.8852 57.0466 25.5935 56.4629 27.199 55.9681C27.6108 55.8415 28.0679 55.7773 28.5571 55.7773C29.6072 55.7773 30.614 56.07 31.2732 56.3156C32.142 56.6386 32.8617 57.1467 33.4718 57.8682C34.0403 58.5407 34.4313 59.2962 34.8109 60.0253C35.1509 60.6826 35.4721 61.3022 35.8989 61.8254L36.0462 62.0047C36.8792 63.0228 37.9143 64.2883 38.0087 65.7352C38.0314 66.0997 37.9747 66.5304 37.8519 66.9176C37.7273 67.3086 37.5459 67.624 37.3136 67.8525C36.7167 68.4475 35.7535 68.7252 34.2821 68.7252Z" fill="#854322"/>
<path d="M28.5585 56.7209C29.3688 56.7209 30.2226 56.9304 30.9441 57.2005C31.7317 57.4933 32.3002 57.9447 32.7517 58.4793C33.7358 59.6428 34.1759 61.2068 35.1675 62.4232C35.9457 63.3808 36.9883 64.5783 37.0657 65.7984C37.0808 66.0308 37.0431 66.3481 36.9525 66.6352C36.8826 66.8543 36.7824 67.0546 36.6502 67.1849C36.1629 67.6684 35.1996 67.7799 34.2816 67.7799C33.7358 67.7799 33.205 67.7402 32.8008 67.7157C31.0537 67.6099 29.3084 67.3057 27.599 66.8996C25.8594 66.486 24.1368 65.9647 22.503 65.2507C21.3149 64.7313 19.443 64.057 19.3221 62.6952C19.256 61.9415 19.6621 61.1444 20.4706 60.7251C21.0089 60.4456 22.2499 60.0866 22.826 59.7504C25.0491 58.4547 25.1038 57.6028 27.4762 56.87C27.818 56.7661 28.1826 56.7209 28.5585 56.7209ZM28.5585 54.832C27.9748 54.832 27.4233 54.9113 26.9209 55.0662C25.1378 55.6158 24.3237 56.2864 23.5361 56.9361C23.0922 57.3025 22.6314 57.6803 21.8778 58.1204C21.7002 58.2243 21.1808 58.4151 20.8389 58.5416C20.3818 58.7116 19.9492 58.8703 19.6055 59.0497C18.153 59.8014 17.3049 61.2994 17.4447 62.8633C17.6562 65.2319 20.0267 66.2442 21.4414 66.8486C21.5472 66.894 21.6511 66.9375 21.7493 66.9809C23.3397 67.676 25.1114 68.2502 27.1645 68.7375C29.1742 69.2134 30.9819 69.4968 32.6875 69.6007L32.8706 69.6121C33.2673 69.6366 33.7584 69.6687 34.2835 69.6687C35.3752 69.6687 36.9468 69.5497 37.98 68.5278C38.3218 68.1897 38.5824 67.744 38.7543 67.2076C38.9111 66.7146 38.9848 66.1555 38.9527 65.6795C38.8394 63.9285 37.6475 62.4741 36.7786 61.4107L36.6332 61.2332C36.2686 60.7855 35.9684 60.2076 35.651 59.5956C35.2676 58.8552 34.8313 58.0147 34.1948 57.261C33.477 56.4129 32.6289 55.8142 31.6052 55.4326C30.8723 55.1568 29.7484 54.832 28.5585 54.832Z" fill="#613017"/>
<path d="M37.0653 65.7846C37.0445 65.4597 36.9557 65.1386 36.8216 64.8213C36.8349 65.0423 36.799 65.3464 36.7121 65.6184C36.646 65.8281 36.5477 66.0207 36.4212 66.1473C35.6732 66.8877 33.7693 66.7196 32.7266 66.6573C31.0513 66.5553 29.374 66.2644 27.7345 65.8753C26.0648 65.4786 24.4121 64.9762 22.8444 64.2925C21.7054 63.7938 19.9072 63.146 19.792 61.8408C19.7731 61.6217 19.7958 61.3969 19.8581 61.1797C19.4634 61.6066 19.2764 62.1562 19.3236 62.685C19.4445 64.045 21.3163 64.7212 22.5044 65.2407C24.1382 65.9546 25.859 66.4778 27.6004 66.8896C29.3079 67.2938 31.055 67.5979 32.8022 67.7055C33.8883 67.7716 35.8735 67.9454 36.6517 67.1748C36.7839 67.0444 36.884 66.8443 36.9539 66.6252C37.0427 66.3343 37.0804 66.0169 37.0653 65.7846Z" fill="#70371E"/>
<path d="M20.8867 64.5082C20.8867 64.5082 21.5592 63.9717 21.748 63.8301C21.9369 63.6884 21.2531 64.6952 21.2531 64.6952L20.8867 64.5082Z" fill="#854322"/>
<path d="M21.5662 65.9143L19.1523 64.6828L20.2969 63.7705C20.3668 63.7138 20.9863 63.2209 21.1809 63.0754C21.5662 62.7865 22.0913 62.8129 22.4294 63.1359C23.0508 63.7289 22.624 64.3579 22.0328 65.2267L21.5662 65.9143Z" fill="#613017"/>
<path d="M28.3633 67.0246C28.3633 67.0246 28.6239 65.9159 28.5578 65.4531L28.3633 67.0246Z" fill="#854322"/>
<path d="M28.3631 67.9702C28.2913 67.9702 28.2195 67.9627 28.1459 67.9457C27.6378 67.8267 27.3242 67.3187 27.4432 66.8106C27.5546 66.3346 27.6397 65.749 27.6227 65.5866C27.549 65.071 27.9078 64.593 28.4235 64.5194C28.9353 64.4457 29.4189 64.8046 29.4926 65.3221C29.5757 65.8982 29.3736 66.8578 29.2829 67.2431C29.1809 67.6775 28.7918 67.9702 28.3631 67.9702Z" fill="#613017"/>
<path d="M35.7828 67.6241C35.7828 67.6241 35.745 66.9876 35.5977 66.8516L35.7828 67.6241Z" fill="#854322"/>
<path d="M35.7817 68.5696C35.2869 68.5696 34.8694 68.1842 34.8392 67.6818C34.8316 67.5741 34.8147 67.4363 34.7977 67.355C34.5748 67.0018 34.6069 66.5315 34.9035 66.2123C35.2567 65.8289 35.8554 65.8044 36.2388 66.1595C36.3559 66.2672 36.6657 66.5542 36.7262 67.5704C36.7564 68.0917 36.3597 68.5375 35.8403 68.5696C35.8195 68.5696 35.7987 68.5696 35.7817 68.5696Z" fill="#613017"/>
</svg>
