<svg width="176" height="159" viewBox="0 0 176 159" fill="none" xmlns="http://www.w3.org/2000/svg">
<path d="M87.6749 156.361C62.1545 156.361 42.0032 155.274 27.7988 153.133C19.7451 151.909 13.5265 150.346 9.27872 148.443C4.21543 146.167 1.63281 143.278 1.63281 139.846C1.63281 133.389 11.0458 126.593 27.493 121.19C44.5859 115.549 65.9604 112.457 87.6408 112.457C109.321 112.457 130.662 115.549 147.789 121.19C164.236 126.593 173.649 133.389 173.649 139.846C173.649 143.278 171.1 146.167 166.003 148.443C161.755 150.346 155.537 151.909 147.483 153.133C133.346 155.274 113.195 156.361 87.6749 156.361Z" fill="#975D24"/>
<path d="M87.6731 114.121C134.228 114.121 171.982 128.632 171.982 139.812C171.982 150.992 134.228 154.628 87.6731 154.628C41.118 154.628 3.36417 150.992 3.36417 139.812C3.36417 128.632 41.118 114.121 87.6731 114.121ZM87.6731 110.723C65.8228 110.723 44.2783 113.849 27.0155 119.558C16.9229 122.889 0 129.957 0 139.846C0 143.991 2.88842 147.424 8.63135 149.972C13.083 151.977 19.2676 153.54 27.5931 154.798C41.8655 156.938 62.0848 158.06 87.7071 158.06C113.329 158.06 133.549 156.972 147.821 154.798C156.146 153.54 162.331 151.977 166.783 149.972C172.526 147.39 175.414 143.991 175.414 139.846C175.414 129.957 158.491 122.889 148.398 119.558C131.068 113.849 109.523 110.723 87.6731 110.723Z" fill="#64421D"/>
<path d="M87.6734 151.977C42.9873 151.977 6.38884 148.613 3.56835 138.453C3.43242 138.894 3.39844 139.37 3.39844 139.812C3.39844 150.992 41.1523 154.628 87.7074 154.628C134.262 154.628 172.016 150.992 172.016 139.812C172.016 139.37 171.948 138.928 171.846 138.453C168.958 148.647 132.359 151.977 87.6734 151.977Z" fill="#7C4C22"/>
<path d="M85.77 141.103C116.662 141.103 141.704 138.288 141.704 134.816C141.704 131.344 116.662 128.53 85.77 128.53C54.8785 128.53 29.8359 131.344 29.8359 134.816C29.8359 138.288 54.8785 141.103 85.77 141.103Z" fill="#7C4C22"/>
<path d="M101.945 6.36518C98.5806 6.16128 85.7354 5.34572 82.3712 5.10784C59.2976 3.64663 39.656 17.2054 38.5007 35.3857L32.9277 123.093H32.9957C32.9277 123.263 32.9276 123.433 32.8937 123.602C32.5878 128.938 55.4577 134.579 83.9684 136.176C112.479 137.773 135.825 134.748 136.131 129.413C136.131 129.311 136.131 129.175 136.131 129.074L141.635 41.9101C142.791 23.7299 125.018 7.82639 101.945 6.36518Z" fill="#323333" stroke="#040000" stroke-width="10" stroke-miterlimit="10" stroke-linecap="round" stroke-linejoin="round"/>
<path d="M83.4267 5.21011C59.7414 3.71491 39.624 17.2397 38.4687 35.42L32.9297 123.093H32.9977C32.7259 128.428 51.6537 133.865 75.3051 135.225C98.2768 136.55 117.239 133.559 118.632 128.496H118.666L124.205 40.7891C125.394 22.6428 107.112 6.70531 83.4267 5.21011Z" fill="#4C4C4C" stroke="#040000" stroke-width="10" stroke-miterlimit="10" stroke-linecap="round" stroke-linejoin="round"/>
<path d="M136.167 129.413C136.167 129.413 128.963 130.195 118.633 128.53L136.167 129.413Z" fill="#4C4C4C"/>
<path d="M136.167 129.413C136.167 129.413 128.963 130.195 118.633 128.53" stroke="#040000" stroke-width="10" stroke-miterlimit="10" stroke-linecap="round" stroke-linejoin="round"/>
<path d="M78.5317 80.4454L71.4633 80.0716C69.3904 79.9697 67.7933 78.1686 67.8952 76.0957L70.1041 35.5214C70.206 33.4486 72.0071 31.8514 74.08 31.9534L81.1482 32.3271C83.221 32.4291 84.8182 34.2301 84.7162 36.303L82.5074 76.8773C82.4055 78.9502 80.6385 80.5473 78.5317 80.4454Z" fill="#E5E5E5"/>
<path d="M57.9031 51.9007L58.2769 44.8325C58.3788 42.7596 60.1798 41.1624 62.2527 41.2644L91.9529 42.8955C94.0258 42.9975 95.6229 44.7985 95.521 46.8714L95.1472 53.9396C95.0452 56.0125 93.2441 57.6097 91.1712 57.5077L61.4711 55.8766C59.3983 55.7746 57.8011 54.0076 57.9031 51.9007Z" fill="#E5E5E5"/>
</svg>
