<svg width="98" height="86" viewBox="0 0 98 86" fill="none" xmlns="http://www.w3.org/2000/svg">
<path d="M49.1675 84.4971C34.9768 84.4971 23.7799 83.8927 15.8922 82.6989C11.4232 82.0227 7.96286 81.1444 5.60372 80.0867C2.78938 78.8249 1.36328 77.2175 1.36328 75.3136C1.36328 71.7324 6.60289 67.951 15.7372 64.9421C25.2456 61.8104 37.1168 60.0859 49.1675 60.0859C61.2182 60.0859 73.0894 61.8104 82.5977 64.9421C91.7321 67.951 96.9717 71.7305 96.9717 75.3136C96.9717 77.2175 95.5456 78.823 92.7312 80.0867C90.374 81.1444 86.9118 82.0227 82.4429 82.6989C74.5533 83.8927 63.3582 84.4971 49.1675 84.4971Z" fill="#975D24"/>
<path d="M49.1666 61.0314C75.0473 61.0314 96.0264 69.0948 96.0264 75.3147C96.0264 81.5346 75.0473 83.5537 49.1666 83.5537C23.286 83.5537 2.30679 81.5346 2.30679 75.3147C2.30679 69.0948 23.286 61.0314 49.1666 61.0314ZM49.1666 59.1426C37.0196 59.1426 25.0407 60.8841 15.4417 64.046C9.83186 65.8932 0.417969 69.8163 0.417969 75.3147C0.417969 77.6247 2.03298 79.5211 5.21565 80.949C7.68623 82.0578 11.1314 82.9361 15.7496 83.633C23.6845 84.8324 34.9287 85.4406 49.1666 85.4406C63.4046 85.4406 74.6487 84.8324 82.5836 83.633C87.2018 82.9342 90.647 82.0559 93.1176 80.949C96.3022 79.5211 97.9152 77.6247 97.9152 75.3147C97.9152 69.8163 88.5032 65.8951 82.8915 64.046C73.2906 60.8841 61.3136 59.1426 49.1666 59.1426Z" fill="#64421D"/>
<path d="M49.1684 82.0762C24.321 82.0762 3.99343 80.2138 2.4106 74.5605C2.34449 74.8136 2.30859 75.0649 2.30859 75.3142C2.30859 81.5341 23.2878 83.5532 49.1684 83.5532C75.0491 83.5532 96.0282 81.5341 96.0282 75.3142C96.0282 75.0667 95.9904 74.8155 95.9262 74.5605C94.3415 80.2138 74.014 82.0762 49.1684 82.0762Z" fill="#7C4C22"/>
<path d="M49.168 75.5096C66.3406 75.5096 80.2617 73.9418 80.2617 72.0077C80.2617 70.0737 66.3406 68.5059 49.168 68.5059C31.9954 68.5059 18.0742 70.0737 18.0742 72.0077C18.0742 73.9418 31.9954 75.5096 49.168 75.5096Z" fill="#7C4C22"/>
<path d="M49.4479 1.77795C36.2583 1.69673 24.5722 9.83755 24.5117 19.9616L24.591 68.8009H24.8196C24.8347 71.7682 35.8862 73.6155 49.0551 73.6249C61.8424 73.6344 72.6577 71.9401 73.2697 69.0918H73.6759L74.3521 20.2525C74.4125 10.1284 62.6376 1.85728 49.4479 1.77795Z" fill="#4C4C4C"/>
<path d="M49.162 74.5698C49.1261 74.5698 49.0921 74.5698 49.0562 74.5698C42.4227 74.5641 36.3067 74.0957 31.8321 73.2514C27.178 72.3712 24.6035 71.1548 24.0104 69.5455C23.7913 69.3737 23.6496 69.1054 23.6496 68.8032L23.5703 19.964C23.6005 14.7924 26.4206 9.93433 31.5091 6.27757C36.3275 2.81347 42.7891 0.833984 49.2621 0.833984C49.3282 0.833984 49.3924 0.833984 49.4567 0.833984C63.5265 0.918981 75.3618 9.81344 75.2995 20.2586L74.6233 69.1054C74.6176 69.5342 74.3267 69.8931 73.9319 70.0026C73.3955 70.9187 71.7127 72.3259 65.897 73.361C61.5055 74.141 55.5651 74.5698 49.162 74.5698ZM25.5347 68.1837C25.6763 68.348 25.7633 68.5615 25.7651 68.7957C25.767 69.181 26.923 70.3993 32.1815 71.3928C36.5447 72.2182 42.5379 72.6753 49.0562 72.6791C49.0902 72.6791 49.1261 72.6791 49.1601 72.6791C55.4574 72.6791 61.2788 72.2598 65.5627 71.4986C70.67 70.59 72.2301 69.4322 72.3453 68.892C72.3982 68.6465 72.5437 68.4406 72.742 68.3065L73.4069 20.2378C73.4333 15.7122 70.9137 11.3661 66.3106 8.00962C61.751 4.68529 55.6028 2.75681 49.4396 2.72092C49.3773 2.72092 49.3168 2.72092 49.2545 2.72092C43.1687 2.72092 37.1094 4.57007 32.6046 7.8094C28.0204 11.1054 25.48 15.4232 25.4535 19.9677L25.5347 68.1837Z" fill="#040000"/>
<path d="M51.1873 43.6857L47.2586 43.6951C46.1007 43.6989 45.1582 42.762 45.1564 41.6023L45.1016 19.0082C45.0978 17.8503 46.0347 16.9078 47.1944 16.9059L51.1231 16.8965C52.281 16.8927 53.2235 17.8296 53.2254 18.9893L53.2801 41.5834C53.282 42.7412 52.3452 43.6838 51.1873 43.6857Z" fill="#E5E5E5"/>
<path d="M38.8336 28.5179L38.8242 24.5891C38.8205 23.4313 39.7573 22.4888 40.9171 22.4869L57.4423 22.4453C58.6002 22.4415 59.5427 23.3784 59.5445 24.5381L59.554 28.4669C59.5578 29.6247 58.621 30.5673 57.4612 30.5691L40.9359 30.6088C39.778 30.6126 38.8355 29.6757 38.8336 28.5179Z" fill="#E5E5E5"/>
</svg>
